<svg version="1.1" viewBox="0.0 0.0 645.0 465.0" fill="none" stroke="none" stroke-linecap="square" stroke-miterlimit="10" xmlns:xlink="http://www.w3.org/1999/xlink" xmlns="http://www.w3.org/2000/svg"><clipPath id="p.0"><path d="m0 0l720.0 0l0 540.0l-720.0 0l0 -540.0z" clip-rule="nonzero"/></clipPath><g clip-path="url(#p.0)"><path fill="#000000" fill-opacity="0.0" d="m0 0l720.0 0l0 540.0l-720.0 0z" fill-rule="evenodd"/><path fill="#000000" fill-opacity="0.0" d="m318.6282 25.186342c30.372314 9.1026325 144.03494 19.967066 182.23398 54.6158c38.199036 34.648735 47.661194 105.56119 46.960327 153.2766c-0.70092773 47.715424 -12.0321045 98.95444 -51.16571 133.0159c-39.133575 34.061462 -153.02985 59.460754 -183.6358 71.352905" fill-rule="evenodd"/><path stroke="#000000" stroke-width="1.0" stroke-linejoin="round" stroke-linecap="butt" stroke-dasharray="1.0,3.0" d="m321.93097 26.101068l0.6282959 0.16136551c0.28622437 0.072452545 0.57714844 0.1450634 0.8727112 0.21784782c0.5911255 0.14556313 1.2007751 0.2918129 1.8283386 0.4388256c2.5102234 0.58805656 5.3070374 1.1883717 8.351685 1.8063202c6.0892944 1.2358971 13.169952 2.5423355 20.931854 3.962328c15.523804 2.839985 33.772797 6.134186 52.266296 10.2267c36.98709 8.185024 74.952515 19.563316 94.05206 36.887684c38.199005 34.648743 47.661224 105.56119 46.960297 153.2766c-0.70092773 47.715424 -12.0321045 98.95444 -51.16574 133.01593c-19.566803 17.030731 -57.82422 31.895905 -95.01575 43.98993c-18.595734 6.046997 -36.924988 11.401215 -52.51819 15.986969c-7.7966003 2.2928467 -14.90918 4.393585 -21.029053 6.2927246c-3.0599365 0.9496155 -5.871704 1.8487549 -8.396698 2.6963806c-0.6312256 0.21188354 -1.2445679 0.42059326 -1.8393555 0.6260071c-0.29742432 0.10272217 -0.59017944 0.20462036 -0.87823486 0.3057251l-0.7451782 0.26376343" fill-rule="evenodd"/><path fill="#000000" stroke="#000000" stroke-width="1.0" stroke-linecap="butt" d="m321.93097 26.101067l1.3839417 -0.78362083l-3.277832 0.25909233l2.6774902 1.9084778z" fill-rule="evenodd"/><path fill="#000000" stroke="#000000" stroke-width="1.0" stroke-linecap="butt" d="m316.2343 436.25613l0.66348267 -1.445404l-2.506073 2.128601l3.2879944 -0.019714355z" fill-rule="evenodd"/><path fill="#f3f3f3" d="m109.29805 231.78738l206.14174 -206.14172l206.1417 206.14172l-206.1417 206.14172z" fill-rule="evenodd"/><path stroke="#000000" stroke-width="1.0" stroke-linejoin="round" stroke-linecap="butt" d="m109.29805 231.78738l206.14174 -206.14172l206.1417 206.14172l-206.1417 206.14172z" fill-rule="evenodd"/><path fill="#93c47d" d="m155.70998 232.36351l163.79527 -165.27559l163.79529 165.27559l-163.79529 165.27559z" fill-rule="evenodd"/><path stroke="#434343" stroke-width="1.0" stroke-linejoin="round" stroke-linecap="butt" d="m155.70998 232.36351l163.79527 -165.27559l163.79529 165.27559l-163.79529 165.27559z" fill-rule="evenodd"/><path fill="#b7b7b7" d="m314.64282 239.28351l0 -13.359375l5.015625 0q1.53125 0 2.453125 0.40625q0.921875 0.40625 1.4375 1.25q0.53125 0.84375 0.53125 1.765625q0 0.859375 -0.46875 1.625q-0.453125 0.75 -1.390625 1.203125q1.203125 0.359375 1.859375 1.21875q0.65625 0.859375 0.65625 2.015625q0 0.9375 -0.40625 1.75q-0.390625 0.796875 -0.984375 1.234375q-0.578125 0.4375 -1.453125 0.671875q-0.875 0.21875 -2.15625 0.21875l-5.09375 0zm1.78125 -7.75l2.875 0q1.1875 0 1.6875 -0.140625q0.671875 -0.203125 1.015625 -0.671875q0.34375 -0.46875 0.34375 -1.171875q0 -0.65625 -0.328125 -1.15625q-0.3125 -0.515625 -0.90625 -0.703125q-0.59375 -0.1875 -2.03125 -0.1875l-2.65625 0l0 4.03125zm0 6.171875l3.3125 0q0.859375 0 1.203125 -0.0625q0.609375 -0.109375 1.015625 -0.359375q0.421875 -0.265625 0.6875 -0.75q0.265625 -0.484375 0.265625 -1.125q0 -0.75 -0.390625 -1.296875q-0.375 -0.546875 -1.0625 -0.765625q-0.671875 -0.234375 -1.953125 -0.234375l-3.078125 0l0 4.59375z" fill-rule="nonzero"/><path fill="#999999" d="m109.29922 231.81891l180.91339 -180.92914l180.91336 180.92914l-180.91336 180.92914z" fill-rule="evenodd"/><path stroke="#434343" stroke-width="1.0" stroke-linejoin="round" stroke-linecap="butt" d="m109.29922 231.81891l180.91339 -180.92914l180.91336 180.92914l-180.91336 180.92914z" fill-rule="evenodd"/><path fill="#6aa84f" d="m154.12779 232.2882l158.90242 -158.9024l158.9024 158.9024l-158.9024 158.90242z" fill-rule="evenodd"/><path fill="#000000" fill-opacity="0.0" d="m151.94957 139.91196l317.8048 0l0 184.75748l-317.8048 0z" fill-rule="evenodd"/><path fill="#ffffff" d="m286.9599 239.2107l0 -13.359375l5.921875 0q1.78125 0 2.703125 0.359375q0.9375 0.359375 1.484375 1.28125q0.5625 0.90625 0.5625 2.015625q0 1.40625 -0.921875 2.390625q-0.921875 0.96875 -2.84375 1.234375q0.703125 0.34375 1.078125 0.671875q0.765625 0.703125 1.453125 1.765625l2.328125 3.640625l-2.21875 0l-1.765625 -2.78125q-0.78125 -1.203125 -1.28125 -1.828125q-0.5 -0.640625 -0.90625 -0.890625q-0.390625 -0.265625 -0.796875 -0.359375q-0.296875 -0.078125 -0.984375 -0.078125l-2.046875 0l0 5.9375l-1.765625 0zm1.765625 -7.453125l3.796875 0q1.21875 0 1.890625 -0.25q0.6875 -0.265625 1.046875 -0.8125q0.359375 -0.546875 0.359375 -1.1875q0 -0.953125 -0.6875 -1.5625q-0.6875 -0.609375 -2.1875 -0.609375l-4.21875 0l0 4.421875zm18.09375 7.453125l-1.234375 0l0 -5.65625q0 -2.375 0.0625 -3.0q0.109375 -1.140625 0.421875 -1.875q0.3125 -0.75 0.984375 -1.453125q0.6875 -0.71875 1.671875 -1.15625q1.0 -0.453125 2.140625 -0.453125q1.078125 0 2.046875 0.421875q0.984375 0.421875 1.71875 1.15625q0.734375 0.734375 1.046875 1.5625q0.3125 0.8125 0.40625 2.03125q0.046875 0.484375 0.046875 2.765625l0 5.65625l-1.21875 0l0 -5.71875q0 -2.0625 -0.0625 -2.640625q-0.09375 -1.046875 -0.34375 -1.65625q-0.234375 -0.609375 -0.734375 -1.140625q-0.5 -0.546875 -1.296875 -0.890625q-0.78125 -0.34375 -1.625 -0.34375q-0.84375 0 -1.65625 0.359375q-0.8125 0.359375 -1.34375 0.96875q-0.53125 0.59375 -0.734375 1.296875q-0.203125 0.703125 -0.265625 1.65625q-0.03125 0.5 -0.03125 2.390625l0 5.71875zm26.889374 -4.6875l1.765625 0.453125q-0.5625 2.171875 -2.0 3.328125q-1.4375 1.140625 -3.53125 1.140625q-2.15625 0 -3.515625 -0.875q-1.34375 -0.890625 -2.0625 -2.546875q-0.703125 -1.671875 -0.703125 -3.59375q0 -2.078125 0.796875 -3.625q0.796875 -1.5625 2.265625 -2.359375q1.484375 -0.8125 3.25 -0.8125q2.0 0 3.359375 1.015625q1.375 1.015625 1.90625 2.875l-1.734375 0.40625q-0.46875 -1.453125 -1.359375 -2.109375q-0.875 -0.671875 -2.203125 -0.671875q-1.546875 0 -2.578125 0.734375q-1.03125 0.734375 -1.453125 1.984375q-0.421875 1.234375 -0.421875 2.5625q0 1.703125 0.5 2.96875q0.5 1.265625 1.546875 1.90625q1.046875 0.625 2.265625 0.625q1.484375 0 2.515625 -0.859375q1.03125 -0.859375 1.390625 -2.546875z" fill-rule="nonzero"/><path fill="#000000" fill-opacity="0.0" d="m313.0302 73.38578l156.94489 157.85828" fill-rule="evenodd"/><path stroke="#000000" stroke-width="1.0" stroke-linejoin="round" stroke-linecap="butt" stroke-dasharray="4.0,3.0" d="m313.0302 73.38578l156.94489 157.85828" fill-rule="evenodd"/><path fill="#000000" fill-opacity="0.0" d="m469.7544 232.2907l-156.7244 158.89763" fill-rule="evenodd"/><path stroke="#000000" stroke-width="1.0" stroke-linejoin="round" stroke-linecap="butt" stroke-dasharray="4.0,3.0" d="m469.7544 232.2907l-156.7244 158.89763" fill-rule="evenodd"/><path fill="#000000" fill-opacity="0.0" d="m313.0302 73.38578l-161.07086 158.89764" fill-rule="evenodd"/><path stroke="#000000" stroke-width="1.0" stroke-linejoin="round" stroke-linecap="butt" d="m313.0302 73.38578l-161.07086 158.89764" fill-rule="evenodd"/><path fill="#000000" fill-opacity="0.0" d="m151.94957 232.2907l161.07088 158.89763" fill-rule="evenodd"/><path stroke="#000000" stroke-width="1.0" stroke-linejoin="round" stroke-linecap="butt" d="m151.94957 232.2907l161.07088 158.89763" fill-rule="evenodd"/><path fill="#000000" fill-opacity="0.0" d="m169.3412 173.4882l64.0 -64.0l21.070862 21.070877l-64.0 64.0z" fill-rule="evenodd"/><path fill="#ffffff" d="m192.17233 181.5143l-9.446503 -9.446503l4.187393 -4.1874084q1.2595367 -1.2595215 2.1655273 -1.6572723q0.9170227 -0.40879822 1.9555817 -0.14363098q1.0385742 0.24307251 1.8230133 1.0275116q0.9943695 0.9943695 1.038559 2.3422852q0.03315735 1.3368835 -1.1380005 2.8836823q0.7402649 -0.25411987 1.237442 -0.28726196q1.038559 -0.044204712 2.276001 0.22096252l4.2205353 0.9280853l-1.5688934 1.5688934l-3.2151184 -0.7181549q-1.4031677 -0.29830933 -2.1986542 -0.3867035q-0.8065491 -0.09944153 -1.2705841 0.011047363q-0.4640503 0.088394165 -0.81759644 0.3093567q-0.26516724 0.15467834 -0.751297 0.64082336l-1.4473572 1.4473572l4.1984406 4.1984406l-1.2484894 1.2484894zm-4.0216675 -6.5186462l2.6847992 -2.6847992q0.8617859 -0.8617859 1.1600952 -1.5136414q0.29830933 -0.67396545 0.16572571 -1.3147736q-0.13258362 -0.64082336 -0.5855713 -1.093811q-0.67396545 -0.67396545 -1.5909882 -0.6187134q-0.9170227 0.055236816 -1.9776917 1.1158905l-2.9831085 2.9831085l3.1267395 3.1267395zm18.064377 -7.524048l-0.8728485 0.87283325l-3.9995728 -3.9995728q-1.6793671 -1.6793823 -2.077118 -2.165512q-0.7292023 -0.8838959 -1.0275116 -1.6241455q-0.3093567 -0.751297 -0.33146667 -1.7235718q-0.022094727 -0.9943695 0.36460876 -1.9997864q0.3867035 -1.0275116 1.1932373 -1.8340607q0.7623596 -0.76234436 1.7456818 -1.1490479q0.99435425 -0.39775085 2.0329285 -0.39775085q1.038559 0 1.845108 0.36460876q0.79548645 0.35354614 1.7235718 1.1490479q0.37564087 0.3093567 1.988739 1.9224396l3.9995728 3.9995728l-0.8617859 0.86180115l-4.0437775 -4.0437775q-1.4584045 -1.4584045 -1.9113922 -1.8230133q-0.8065491 -0.6739502 -1.4142151 -0.92807007q-0.59661865 -0.26516724 -1.3258209 -0.28726196q-0.74024963 -0.03314209 -1.5467987 0.28726196q-0.7955017 0.3093567 -1.3921204 0.90597534q-0.59661865 0.59661865 -0.9170227 1.4252625q-0.3204193 0.8286438 -0.26516724 1.6351929q0.044189453 0.79548645 0.39775085 1.4363098q0.35354614 0.6408081 0.98332214 1.358963q0.33145142 0.37565613 1.6683197 1.7125244l4.0437775 4.0437775zm12.262985 -12.2630005l-9.446503 -9.446503l1.2816315 -1.2816315l12.374359 2.452774l-7.413574 -7.413559l1.1932526 -1.1932526l9.446503 9.446503l-1.2816315 1.2816315l-12.385422 -2.4638214l7.4246216 7.4246216l-1.1932373 1.1932373zm12.962906 -19.592026l1.5688934 -0.9280853q1.1380005 1.9335022 0.93911743 3.7675629q-0.20991516 1.822998 -1.6904144 3.3035126q-1.524704 1.524704 -3.1046448 1.8672028q-1.5799408 0.32040405 -3.2593231 -0.34249878q-1.6793823 -0.6850128 -3.0383453 -2.043991q-1.4694672 -1.4694519 -1.9997864 -3.1267395q-0.54138184 -1.6683197 -0.06629944 -3.2703705q0.47509766 -1.6241302 1.7235718 -2.8726196q1.4142151 -1.4142151 3.0935974 -1.6572723q1.6904297 -0.25411987 3.3808594 0.6850128l-0.9391327 1.5136414q-1.358963 -0.6960602 -2.452774 -0.5303345q-1.093811 0.14363098 -2.0329285 1.0827637q-1.093811 1.093811 -1.3037262 2.3422852q-0.20993042 1.2484894 0.37564087 2.4306793q0.5745239 1.1711578 1.5136566 2.1102753q1.2042847 1.2042999 2.452774 1.7456665q1.2484894 0.54138184 2.4417267 0.25411987q1.18219 -0.29830933 2.0439758 -1.1600952q1.0496216 -1.0496063 1.1711578 -2.3864899q0.121520996 -1.3368683 -0.81759644 -2.7842255z" fill-rule="nonzero"/><path fill="#000000" fill-opacity="0.0" d="m316.53705 25.207378l84.0 84.0l-25.7323 25.732285l-84.0 -84.0z" fill-rule="evenodd"/><path fill="#000000" d="m307.4231 49.06008l9.446503 -9.446503l1.2816162 1.2816315l-2.4527588 12.374367l7.413574 -7.4135704l1.1932373 1.1932411l-9.446503 9.4465065l-1.2816467 -1.2816315l2.4638367 -12.385418l-7.4246216 7.4246216l-1.1932373 -1.1932449zm9.559937 9.559959l9.446533 -9.4465065l4.187378 4.187401q1.259552 1.2595329 1.6572876 2.165512q0.40878296 0.91703033 0.14364624 1.9555931q-0.24307251 1.0385628 -1.0275269 1.8230095q-0.99438477 0.9943695 -2.3422852 1.0385628q-1.3368835 0.033145905 -2.883667 -1.1380005q0.25411987 0.74025345 0.28726196 1.2374382q0.044189453 1.0385628 -0.22097778 2.276001l-0.92807007 4.220539l-1.5689087 -1.5688934l0.71817017 -3.2151222q0.29830933 -1.4031639 0.38668823 -2.1986618q0.09942627 -0.80654144 -0.011047363 -1.2705803q-0.088378906 -0.46403885 -0.3093567 -0.8175926q-0.1546936 -0.26516724 -0.6408081 -0.7513008l-1.4473572 -1.447361l-4.198456 4.198448l-1.2485046 -1.2484856zm6.5186462 -4.0216713l2.6848145 2.6847954q0.8617859 0.8617897 1.5136414 1.160099q0.6739502 0.29830933 1.3147888 0.16572952q0.6408081 -0.13258362 1.0937805 -0.5855751q0.6739807 -0.67396164 0.6187439 -1.5909882q-0.055267334 -0.91703033 -1.1159058 -1.9776917l-2.9831238 -2.9831047l-3.1267395 3.1267357zm7.5240784 18.064373l-0.87283325 -0.8728409l3.9995728 -3.9995728q1.6793518 -1.6793747 2.1654968 -2.0771255q0.8838806 -0.7292023 1.6241455 -1.0275116q0.75128174 -0.3093567 1.7235718 -0.33145905q0.99435425 -0.022094727 1.9997864 0.36460114q1.0274963 0.3867035 1.8340454 1.1932449q0.7623596 0.762352 1.1490479 1.7456665q0.3977661 0.9943695 0.3977661 2.032936q0 1.038559 -0.36462402 1.845108q-0.35354614 0.7954941 -1.1490479 1.7235718q-0.3093567 0.3756485 -1.9224243 1.988739l-3.9995728 3.9995728l-0.8617859 -0.8617859l4.043762 -4.04377q1.4584045 -1.4584045 1.822998 -1.9113998q0.6739807 -0.80654144 0.92807007 -1.4142075q0.26516724 -0.5966263 0.28726196 -1.3258286q0.033172607 -0.74024963 -0.28726196 -1.5467987q-0.3093567 -0.7954941 -0.90597534 -1.3921127q-0.59661865 -0.5966263 -1.4252625 -0.91703033q-0.8286438 -0.32041168 -1.6351624 -0.26516724q-0.7955017 0.044197083 -1.4363098 0.39775085q-0.6408386 0.35355377 -1.3589783 0.98332214q-0.3756714 0.33145142 -1.7125244 1.6683273l-4.043762 4.04377zm12.26297 12.262985l9.446503 -9.446503l1.2816467 1.2816315l-2.4527893 12.374367l7.413574 -7.413574l1.1932373 1.1932449l-9.446503 9.446503l-1.2816162 -1.2816315l2.4638062 -12.385414l-7.4246216 7.4246216l-1.1932373 -1.1932449zm19.592041 12.962906l0.92807007 1.5688934q-1.9334717 1.1380005 -3.7675476 0.93912506q-1.822998 -0.20992279 -3.3034973 -1.690422q-1.5247192 -1.524704 -1.867218 -3.1046448q-0.32040405 -1.5799408 0.34249878 -3.2593155q0.6850281 -1.6793823 2.0439758 -3.038353q1.4694519 -1.4694595 3.1267395 -1.9997864q1.668335 -0.54138184 3.2703857 -0.06629181q1.624115 0.47509003 2.8726196 1.7235718q1.4142151 1.4142151 1.6572876 3.0935974q0.25408936 1.690422 -0.6850281 3.3808517l-1.5136414 -0.93912506q0.6960449 -1.3589706 0.5303345 -2.4527817q-0.14364624 -1.0938034 -1.0827637 -2.0329285q-1.093811 -1.0938034 -2.3422852 -1.3037262q-1.2485046 -0.20992279 -2.4306946 0.3756485q-1.1711426 0.5745239 -2.11026 1.513649q-1.2042847 1.2042923 -1.7456665 2.452774q-0.54138184 1.2484894 -0.25411987 2.4417343q0.29830933 1.18219 1.1600952 2.0439758q1.0496216 1.049614 2.3864746 1.1711502q1.3368835 0.121528625 2.7842407 -0.81759644z" fill-rule="nonzero"/><path fill="#000000" fill-opacity="0.0" d="m438.73227 192.29134l19.46457 -72.62992" fill-rule="evenodd"/><path stroke="#000000" stroke-width="1.0" stroke-linejoin="round" stroke-linecap="butt" d="m439.61942 188.98108l18.577423 -69.319664" fill-rule="evenodd"/><path fill="#000000" stroke="#000000" stroke-width="1.0" stroke-linecap="butt" d="m439.61942 188.98106l-0.7951355 -1.3773651l0.286438 3.2755737l1.8860779 -2.693344z" fill-rule="evenodd"/><path fill="#000000" fill-opacity="0.0" d="m412.70078 76.385826l90.99213 0l0 43.27559l-90.99213 0z" fill-rule="evenodd"/><path fill="#000000" d="m427.52142 95.94362l0 -13.359375l1.8125 0l7.015625 10.484375l0 -10.484375l1.6875 0l0 13.359375l-1.8125 0l-7.015625 -10.5l0 10.5l-1.6875 0zm13.519806 0l0 -13.359375l5.921875 0q1.78125 0 2.703125 0.359375q0.9375 0.359375 1.484375 1.28125q0.5625 0.90625 0.5625 2.015625q0 1.40625 -0.921875 2.390625q-0.921875 0.96875 -2.84375 1.234375q0.703125 0.34375 1.078125 0.671875q0.765625 0.703125 1.453125 1.765625l2.328125 3.640625l-2.21875 0l-1.765625 -2.78125q-0.78125 -1.203125 -1.28125 -1.828125q-0.5 -0.640625 -0.90625 -0.890625q-0.390625 -0.265625 -0.796875 -0.359375q-0.296875 -0.078125 -0.984375 -0.078125l-2.046875 0l0 5.9375l-1.765625 0zm1.765625 -7.453125l3.796875 0q1.21875 0 1.890625 -0.25q0.6875 -0.265625 1.046875 -0.8125q0.359375 -0.546875 0.359375 -1.1875q0 -0.953125 -0.6875 -1.5625q-0.6875 -0.609375 -2.1875 -0.609375l-4.21875 0l0 4.421875zm18.09375 7.453125l-1.234375 0l0 -5.65625q0 -2.375 0.0625 -3.0q0.109375 -1.140625 0.421875 -1.875q0.3125 -0.75 0.984375 -1.453125q0.6875 -0.71875 1.671875 -1.15625q1.0 -0.453125 2.140625 -0.453125q1.078125 0 2.046875 0.421875q0.984375 0.421875 1.71875 1.15625q0.734375 0.734375 1.046875 1.5625q0.3125 0.8125 0.40625 2.03125q0.046875 0.484375 0.046875 2.765625l0 5.65625l-1.21875 0l0 -5.71875q0 -2.0625 -0.0625 -2.640625q-0.09375 -1.046875 -0.34375 -1.65625q-0.234375 -0.609375 -0.734375 -1.140625q-0.5 -0.546875 -1.296875 -0.890625q-0.78125 -0.34375 -1.625 -0.34375q-0.84375 0 -1.65625 0.359375q-0.8125 0.359375 -1.34375 0.96875q-0.53125 0.59375 -0.734375 1.296875q-0.203125 0.703125 -0.265625 1.65625q-0.03125 0.5 -0.03125 2.390625l0 5.71875zm26.889374 -4.6875l1.765625 0.453125q-0.5625 2.171875 -2.0 3.328125q-1.4375 1.140625 -3.53125 1.140625q-2.15625 0 -3.515625 -0.875q-1.34375 -0.890625 -2.0625 -2.546875q-0.703125 -1.671875 -0.703125 -3.59375q0 -2.078125 0.796875 -3.625q0.796875 -1.5625 2.265625 -2.359375q1.484375 -0.8125 3.25 -0.8125q2.0 0 3.359375 1.015625q1.375 1.015625 1.90625 2.875l-1.734375 0.40625q-0.46875 -1.453125 -1.359375 -2.109375q-0.875 -0.671875 -2.203125 -0.671875q-1.546875 0 -2.578125 0.734375q-1.03125 0.734375 -1.453125 1.984375q-0.421875 1.234375 -0.421875 2.5625q0 1.703125 0.5 2.96875q0.5 1.265625 1.546875 1.90625q1.046875 0.625 2.265625 0.625q1.484375 0 2.515625 -0.859375q1.03125 -0.859375 1.390625 -2.546875z" fill-rule="nonzero"/><path fill="#000000" d="m429.0429 117.18175q-1.0625 -1.34375 -1.796875 -3.140625q-0.734375 -1.8125 -0.734375 -3.734375q0 -1.703125 0.546875 -3.265625q0.640625 -1.8125 1.984375 -3.609375l0.921875 0q-0.859375 1.484375 -1.140625 2.125q-0.4375 0.984375 -0.6875 2.0625q-0.296875 1.34375 -0.296875 2.6875q0 3.453125 2.125 6.875l-0.921875 0zm5.2400208 -4.234375l0.1875 1.140625q-0.546875 0.109375 -0.984375 0.109375q-0.6875 0 -1.078125 -0.21875q-0.390625 -0.21875 -0.546875 -0.578125q-0.15625 -0.359375 -0.15625 -1.515625l0 -4.375l-0.953125 0l0 -1.0l0.953125 0l0 -1.890625l1.28125 -0.765625l0 2.65625l1.296875 0l0 1.0l-1.296875 0l0 4.4375q0 0.546875 0.0625 0.71875q0.078125 0.15625 0.21875 0.25q0.15625 0.078125 0.453125 0.078125q0.203125 0 0.5625 -0.046875zm1.259491 1.15625l0 -10.484375l1.28125 0l0 3.75q0.90625 -1.03125 2.28125 -1.03125q0.84375 0 1.46875 0.328125q0.625 0.328125 0.890625 0.921875q0.265625 0.578125 0.265625 1.703125l0 4.8125l-1.28125 0l0 -4.8125q0 -0.96875 -0.421875 -1.40625q-0.421875 -0.4375 -1.1875 -0.4375q-0.578125 0 -1.078125 0.296875q-0.5 0.296875 -0.71875 0.8125q-0.21875 0.5 -0.21875 1.390625l0 4.15625l-1.28125 0zm8.151093 -9.015625l0 -1.46875l1.296875 0l0 1.46875l-1.296875 0zm0 9.015625l0 -7.59375l1.296875 0l0 7.59375l-1.296875 0zm3.2561646 0l0 -7.59375l1.15625 0l0 1.078125q0.84375 -1.25 2.421875 -1.25q0.6875 0 1.265625 0.25q0.578125 0.234375 0.859375 0.640625q0.28125 0.40625 0.40625 0.953125q0.0625 0.359375 0.0625 1.25l0 4.671875l-1.28125 0l0 -4.625q0 -0.78125 -0.15625 -1.171875q-0.15625 -0.390625 -0.546875 -0.625q-0.375 -0.234375 -0.890625 -0.234375q-0.8125 0 -1.421875 0.53125q-0.59375 0.515625 -0.59375 1.96875l0 4.15625l-1.28125 0zm11.7074585 -2.265625l1.265625 -0.203125q0.109375 0.765625 0.59375 1.171875q0.5 0.40625 1.375 0.40625q0.890625 0 1.3125 -0.359375q0.4375 -0.359375 0.4375 -0.84375q0 -0.4375 -0.375 -0.6875q-0.265625 -0.171875 -1.3125 -0.4375q-1.421875 -0.359375 -1.96875 -0.609375q-0.546875 -0.265625 -0.828125 -0.734375q-0.28125 -0.46875 -0.28125 -1.015625q0 -0.515625 0.21875 -0.9375q0.234375 -0.4375 0.640625 -0.734375q0.296875 -0.21875 0.8125 -0.359375q0.53125 -0.15625 1.125 -0.15625q0.890625 0 1.5625 0.265625q0.671875 0.25 1.0 0.6875q0.328125 0.4375 0.4375 1.171875l-1.25 0.171875q-0.09375 -0.578125 -0.5 -0.90625q-0.40625 -0.34375 -1.15625 -0.34375q-0.890625 0 -1.28125 0.296875q-0.375 0.296875 -0.375 0.6875q0 0.25 0.15625 0.453125q0.15625 0.203125 0.5 0.34375q0.1875 0.078125 1.140625 0.328125q1.359375 0.359375 1.890625 0.59375q0.546875 0.234375 0.859375 0.6875q0.3125 0.4375 0.3125 1.09375q0 0.640625 -0.375 1.21875q-0.375 0.5625 -1.09375 0.875q-0.703125 0.3125 -1.59375 0.3125q-1.484375 0 -2.265625 -0.609375q-0.765625 -0.625 -0.984375 -1.828125zm10.65625 1.109375l0.1875 1.140625q-0.546875 0.109375 -0.984375 0.109375q-0.6875 0 -1.078125 -0.21875q-0.390625 -0.21875 -0.546875 -0.578125q-0.15625 -0.359375 -0.15625 -1.515625l0 -4.375l-0.953125 0l0 -1.0l0.953125 0l0 -1.890625l1.28125 -0.765625l0 2.65625l1.296875 0l0 1.0l-1.296875 0l0 4.4375q0 0.546875 0.0625 0.71875q0.078125 0.15625 0.21875 0.25q0.15625 0.078125 0.453125 0.078125q0.203125 0 0.5625 -0.046875zm1.2438354 1.15625l0 -7.59375l1.15625 0l0 1.140625q0.453125 -0.796875 0.828125 -1.046875q0.375 -0.265625 0.8125 -0.265625q0.65625 0 1.328125 0.40625l-0.4375 1.203125q-0.46875 -0.28125 -0.953125 -0.28125q-0.421875 0 -0.765625 0.25q-0.328125 0.25 -0.46875 0.703125q-0.21875 0.6875 -0.21875 1.5l0 3.984375l-1.28125 0zm4.8962708 -9.015625l0 -1.46875l1.296875 0l0 1.46875l-1.296875 0zm0 9.015625l0 -7.59375l1.296875 0l0 7.59375l-1.296875 0zm3.2561646 2.90625l0 -10.5l1.171875 0l0 0.984375q0.421875 -0.578125 0.9375 -0.859375q0.515625 -0.296875 1.265625 -0.296875q0.96875 0 1.71875 0.5q0.75 0.5 1.125 1.421875q0.375 0.90625 0.375 1.984375q0 1.171875 -0.421875 2.109375q-0.40625 0.921875 -1.21875 1.421875q-0.796875 0.5 -1.671875 0.5q-0.640625 0 -1.15625 -0.265625q-0.515625 -0.28125 -0.84375 -0.6875l0 3.6875l-1.28125 0zm1.15625 -6.65625q0 1.453125 0.59375 2.15625q0.609375 0.703125 1.453125 0.703125q0.859375 0 1.46875 -0.71875q0.609375 -0.734375 0.609375 -2.25q0 -1.453125 -0.609375 -2.171875q-0.59375 -0.734375 -1.421875 -0.734375q-0.8125 0 -1.453125 0.78125q-0.640625 0.765625 -0.640625 2.234375zm7.8385925 6.828125l-0.921875 0q2.140625 -3.421875 2.140625 -6.875q0 -1.34375 -0.3125 -2.671875q-0.25 -1.0625 -0.671875 -2.046875q-0.28125 -0.65625 -1.15625 -2.15625l0.921875 0q1.34375 1.796875 1.984375 3.609375q0.546875 1.5625 0.546875 3.265625q0 1.921875 -0.734375 3.734375q-0.734375 1.796875 -1.796875 3.140625z" fill-rule="nonzero"/><path fill="#000000" fill-opacity="0.0" d="m290.21262 50.889767l-49.88977 -49.889763" fill-rule="evenodd"/><path stroke="#000000" stroke-width="1.0" stroke-linejoin="round" stroke-linecap="butt" d="m290.2126 50.88977l-45.64711 -45.647125" fill-rule="evenodd"/><path fill="#000000" stroke="#000000" stroke-width="1.0" stroke-linecap="butt" d="m245.73343 4.0746937l-4.376877 -2.0409684l2.0409698 4.3768706z" fill-rule="evenodd"/><path fill="#000000" fill-opacity="0.0" d="m238.62206 464.3386l51.59056 -51.590546" fill-rule="evenodd"/><path stroke="#000000" stroke-width="1.0" stroke-linejoin="round" stroke-linecap="butt" d="m242.86469 460.09592l47.3479 -47.3479" fill-rule="evenodd"/><path fill="#000000" stroke="#000000" stroke-width="1.0" stroke-linecap="butt" d="m241.69673 458.92798l-2.0409698 4.376892l4.376877 -2.040985z" fill-rule="evenodd"/><path fill="#000000" fill-opacity="0.0" d="m233.30049 4.0446196c-22.231186 37.833332 -133.38712 151.0 -133.38712 227.0c0 76.0 111.15592 190.83334 133.38712 229.0" fill-rule="evenodd"/><path stroke="#000000" stroke-width="1.0" stroke-linejoin="round" stroke-linecap="butt" stroke-dasharray="1.0,3.0" d="m231.50551 6.964033l-0.5436096 0.84473085c-0.8623047 1.325994 -1.8053436 2.7221227 -2.822998 4.1849523c-2.035324 2.9256601 -4.369171 6.118123 -6.952667 9.549926c-5.1670227 6.8636074 -11.332703 14.684572 -18.106262 23.243166c-13.547119 17.117188 -29.525803 37.184895 -44.80974 58.44531c-30.567863 42.520844 -58.35685 89.8125 -58.35685 127.8125c0 38.0 27.788986 85.70834 58.35685 128.6875c15.283936 21.489594 31.262619 41.796875 44.80974 59.117218c6.7735596 8.660126 12.9392395 16.573517 18.106262 23.514648c2.583496 3.4704895 4.917343 6.697998 6.952667 9.654144c1.0176544 1.4780884 1.9606934 2.8883667 2.822998 4.2272644l0.5559387 0.8722534" fill-rule="evenodd"/><path fill="#000000" stroke="#000000" stroke-width="1.0" stroke-linecap="butt" d="m231.50551 6.964033l0.36897278 1.5470076l0.66030884 -3.2210784l-2.576294 2.0430498z" fill-rule="evenodd"/><path fill="#000000" stroke="#000000" stroke-width="1.0" stroke-linecap="butt" d="m231.51785 457.11765l-1.5454407 -0.37548828l2.5676422 2.053894l-0.646698 -3.2238464z" fill-rule="evenodd"/><path fill="#000000" fill-opacity="0.0" d="m1.0 186.24672l109.732285 0l0 90.14174l-109.732285 0z" fill-rule="evenodd"/><path fill="#000000" d="m11.46875 211.23758l0 -13.359375l5.921875 0q1.78125 0 2.703125 0.359375q0.9375 0.359375 1.484375 1.28125q0.5625 0.90625 0.5625 2.015625q0 1.40625 -0.921875 2.390625q-0.921875 0.96875 -2.84375 1.234375q0.703125 0.34375 1.078125 0.671875q0.765625 0.703125 1.453125 1.765625l2.328125 3.640625l-2.21875 0l-1.765625 -2.78125q-0.78125 -1.203125 -1.28125 -1.828125q-0.5 -0.640625 -0.90625 -0.890625q-0.390625 -0.265625 -0.796875 -0.359375q-0.296875 -0.078125 -0.984375 -0.078125l-2.046875 0l0 5.9375l-1.765625 0zm1.765625 -7.453125l3.796875 0q1.21875 0 1.890625 -0.25q0.6875 -0.265625 1.046875 -0.8125q0.359375 -0.546875 0.359375 -1.1875q0 -0.953125 -0.6875 -1.5625q-0.6875 -0.609375 -2.1875 -0.609375l-4.21875 0l0 4.421875z" fill-rule="nonzero"/><path fill="#000000" d="m13.421875 232.47571q-1.0625 -1.34375 -1.796875 -3.140625q-0.734375 -1.8125 -0.734375 -3.734375q0 -1.703125 0.546875 -3.265625q0.640625 -1.8125 1.984375 -3.609375l0.921875 0q-0.859375 1.484375 -1.140625 2.125q-0.4375 0.984375 -0.6875 2.0625q-0.296875 1.34375 -0.296875 2.6875q0 3.453125 2.125 6.875l-0.921875 0zm10.068146 -6.75l1.390625 0.34375q-0.4375 1.703125 -1.578125 2.609375q-1.125 0.890625 -2.765625 0.890625q-1.6875 0 -2.75 -0.6875q-1.0625 -0.6875 -1.625 -2.0q-0.546875 -1.3125 -0.546875 -2.8125q0 -1.640625 0.625 -2.859375q0.625 -1.21875 1.78125 -1.84375q1.15625 -0.640625 2.546875 -0.640625q1.5625 0 2.640625 0.8125q1.078125 0.796875 1.5 2.25l-1.375 0.3125q-0.359375 -1.140625 -1.0625 -1.65625q-0.6875 -0.53125 -1.734375 -0.53125q-1.21875 0 -2.03125 0.578125q-0.8125 0.578125 -1.140625 1.5625q-0.328125 0.96875 -0.328125 2.015625q0 1.328125 0.390625 2.328125q0.390625 1.0 1.21875 1.5q0.828125 0.484375 1.78125 0.484375q1.171875 0 1.96875 -0.671875q0.8125 -0.671875 1.09375 -1.984375zm2.4592743 -0.125q0 -2.109375 1.171875 -3.125q0.984375 -0.84375 2.390625 -0.84375q1.578125 0 2.5625 1.03125q1.0 1.015625 1.0 2.828125q0 1.46875 -0.4375 2.3125q-0.4375 0.828125 -1.28125 1.296875q-0.84375 0.46875 -1.84375 0.46875q-1.59375 0 -2.578125 -1.015625q-0.984375 -1.03125 -0.984375 -2.953125zm1.328125 0q0 1.453125 0.625 2.1875q0.640625 0.71875 1.609375 0.71875q0.96875 0 1.59375 -0.71875q0.640625 -0.734375 0.640625 -2.234375q0 -1.40625 -0.640625 -2.125q-0.640625 -0.734375 -1.59375 -0.734375q-0.96875 0 -1.609375 0.71875q-0.625 0.71875 -0.625 2.1875zm9.416733 3.796875l-2.890625 -7.59375l1.359375 0l1.625 4.546875q0.265625 0.734375 0.5 1.53125q0.15625 -0.609375 0.46875 -1.453125l1.6875 -4.625l1.328125 0l-2.875 7.59375l-1.203125 0zm10.421875 -2.453125l1.328125 0.171875q-0.3125 1.171875 -1.171875 1.8125q-0.84375 0.640625 -2.171875 0.640625q-1.671875 0 -2.65625 -1.015625q-0.96875 -1.03125 -0.96875 -2.890625q0 -1.921875 0.984375 -2.96875q1.0 -1.0625 2.578125 -1.0625q1.515625 0 2.484375 1.03125q0.96875 1.03125 0.96875 2.921875q0 0.109375 -0.015625 0.34375l-5.65625 0q0.0625 1.25 0.703125 1.921875q0.640625 0.65625 1.59375 0.65625q0.703125 0 1.203125 -0.359375q0.5 -0.375 0.796875 -1.203125zm-4.234375 -2.078125l4.25 0q-0.09375 -0.953125 -0.484375 -1.4375q-0.625 -0.75 -1.609375 -0.75q-0.875 0 -1.484375 0.59375q-0.609375 0.59375 -0.671875 1.59375zm7.166733 4.53125l0 -7.59375l1.15625 0l0 1.140625q0.453125 -0.796875 0.828125 -1.046875q0.375 -0.265625 0.8125 -0.265625q0.65625 0 1.328125 0.40625l-0.4375 1.203125q-0.46875 -0.28125 -0.953125 -0.28125q-0.421875 0 -0.765625 0.25q-0.328125 0.25 -0.46875 0.703125q-0.21875 0.6875 -0.21875 1.5l0 3.984375l-1.28125 0zm4.3806458 -2.265625l1.265625 -0.203125q0.109375 0.765625 0.59375 1.171875q0.5 0.40625 1.375 0.40625q0.890625 0 1.3125 -0.359375q0.4375 -0.359375 0.4375 -0.84375q0 -0.4375 -0.375 -0.6875q-0.265625 -0.171875 -1.3125 -0.4375q-1.421875 -0.359375 -1.96875 -0.609375q-0.546875 -0.265625 -0.828125 -0.734375q-0.28125 -0.46875 -0.28125 -1.015625q0 -0.515625 0.21875 -0.9375q0.234375 -0.4375 0.640625 -0.734375q0.296875 -0.21875 0.8125 -0.359375q0.53125 -0.15625 1.125 -0.15625q0.890625 0 1.5625 0.265625q0.671875 0.25 1.0 0.6875q0.328125 0.4375 0.4375 1.171875l-1.25 0.171875q-0.09375 -0.578125 -0.5 -0.90625q-0.40625 -0.34375 -1.15625 -0.34375q-0.890625 0 -1.28125 0.296875q-0.375 0.296875 -0.375 0.6875q0 0.25 0.15625 0.453125q0.15625 0.203125 0.5 0.34375q0.1875 0.078125 1.140625 0.328125q1.359375 0.359375 1.890625 0.59375q0.546875 0.234375 0.859375 0.6875q0.3125 0.4375 0.3125 1.09375q0 0.640625 -0.375 1.21875q-0.375 0.5625 -1.09375 0.875q-0.703125 0.3125 -1.59375 0.3125q-1.484375 0 -2.265625 -0.609375q-0.765625 -0.625 -0.984375 -1.828125zm13.103226 2.265625l-1.203125 0l0 -10.484375l1.296875 0l0 3.734375q0.8125 -1.015625 2.078125 -1.015625q0.703125 0 1.328125 0.28125q0.625 0.28125 1.03125 0.796875q0.40625 0.5 0.625 1.234375q0.234375 0.71875 0.234375 1.53125q0 1.96875 -0.96875 3.03125q-0.953125 1.0625 -2.3125 1.0625q-1.34375 0 -2.109375 -1.125l0 0.953125zm-0.015625 -3.859375q0 1.375 0.375 1.984375q0.609375 0.984375 1.640625 0.984375q0.84375 0 1.453125 -0.734375q0.625 -0.734375 0.625 -2.1875q0 -1.484375 -0.59375 -2.1875q-0.59375 -0.71875 -1.421875 -0.71875q-0.84375 0 -1.46875 0.734375q-0.609375 0.734375 -0.609375 2.125zm6.494858 0.0625q0 -2.109375 1.171875 -3.125q0.984375 -0.84375 2.390625 -0.84375q1.578125 0 2.5625 1.03125q1.0 1.015625 1.0 2.828125q0 1.46875 -0.4375 2.3125q-0.4375 0.828125 -1.28125 1.296875q-0.84375 0.46875 -1.84375 0.46875q-1.59375 0 -2.578125 -1.015625q-0.984375 -1.03125 -0.984375 -2.953125zm1.328125 0q0 1.453125 0.625 2.1875q0.640625 0.71875 1.609375 0.71875q0.96875 0 1.59375 -0.71875q0.640625 -0.734375 0.640625 -2.234375q0 -1.40625 -0.640625 -2.125q-0.640625 -0.734375 -1.59375 -0.734375q-0.96875 0 -1.609375 0.71875q-0.625 0.71875 -0.625 2.1875zm10.119858 2.640625l0.1875 1.140625q-0.546875 0.109375 -0.984375 0.109375q-0.6875 0 -1.078125 -0.21875q-0.390625 -0.21875 -0.546875 -0.578125q-0.15625 -0.359375 -0.15625 -1.515625l0 -4.375l-0.953125 0l0 -1.0l0.953125 0l0 -1.890625l1.28125 -0.765625l0 2.65625l1.296875 0l0 1.0l-1.296875 0l0 4.4375q0 0.546875 0.0625 0.71875q0.078125 0.15625 0.21875 0.25q0.15625 0.078125 0.453125 0.078125q0.203125 0 0.5625 -0.046875zm1.2594757 1.15625l0 -10.484375l1.28125 0l0 3.75q0.90625 -1.03125 2.28125 -1.03125q0.84375 0 1.46875 0.328125q0.625 0.328125 0.890625 0.921875q0.265625 0.578125 0.265625 1.703125l0 4.8125l-1.28125 0l0 -4.8125q0 -0.96875 -0.421875 -1.40625q-0.421875 -0.4375 -1.1875 -0.4375q-0.578125 0 -1.078125 0.296875q-0.5 0.296875 -0.71875 0.8125q-0.21875 0.5 -0.21875 1.390625l0 4.15625l-1.28125 0z" fill-rule="nonzero"/><path fill="#000000" d="m11.15625 247.39758l0 -10.484375l4.640625 0q1.40625 0 2.140625 0.28125q0.734375 0.28125 1.171875 1.0q0.4375 0.703125 0.4375 1.578125q0 1.109375 -0.734375 1.875q-0.71875 0.765625 -2.234375 0.984375q0.5625 0.25 0.84375 0.515625q0.609375 0.5625 1.15625 1.390625l1.8125 2.859375l-1.734375 0l-1.390625 -2.1875q-0.609375 -0.9375 -1.0 -1.4375q-0.390625 -0.5 -0.703125 -0.703125q-0.3125 -0.203125 -0.640625 -0.28125q-0.234375 -0.046875 -0.765625 -0.046875l-1.609375 0l0 4.65625l-1.390625 0zm1.390625 -5.859375l2.984375 0q0.9375 0 1.46875 -0.1875q0.546875 -0.203125 0.828125 -0.640625q0.28125 -0.4375 0.28125 -0.9375q0 -0.75 -0.546875 -1.21875q-0.53125 -0.484375 -1.703125 -0.484375l-3.3125 0l0 3.46875zm14.203125 5.859375l-0.96875 0l0 -4.4375q0 -1.875 0.0625 -2.375q0.078125 -0.890625 0.3125 -1.46875q0.25 -0.578125 0.78125 -1.125q0.53125 -0.5625 1.3125 -0.90625q0.796875 -0.359375 1.6875 -0.359375q0.84375 0 1.609375 0.328125q0.78125 0.328125 1.34375 0.90625q0.578125 0.578125 0.8125 1.21875q0.25 0.640625 0.328125 1.609375q0.03125 0.375 0.03125 2.171875l0 4.4375l-0.953125 0l0 -4.5q0 -1.625 -0.046875 -2.0625q-0.0625 -0.828125 -0.265625 -1.296875q-0.1875 -0.484375 -0.59375 -0.90625q-0.390625 -0.4375 -1.015625 -0.703125q-0.609375 -0.265625 -1.265625 -0.265625q-0.65625 0 -1.296875 0.28125q-0.640625 0.28125 -1.0625 0.75q-0.40625 0.46875 -0.578125 1.03125q-0.15625 0.5625 -0.203125 1.296875q-0.03125 0.390625 -0.03125 1.875l0 4.5zm21.12178 -3.671875l1.390625 0.34375q-0.4375 1.703125 -1.578125 2.609375q-1.125 0.890625 -2.765625 0.890625q-1.6875 0 -2.75 -0.6875q-1.0625 -0.6875 -1.625 -2.0q-0.546875 -1.3125 -0.546875 -2.8125q0 -1.640625 0.625 -2.859375q0.625 -1.21875 1.78125 -1.84375q1.15625 -0.640625 2.546875 -0.640625q1.5625 0 2.640625 0.8125q1.078125 0.796875 1.5 2.25l-1.375 0.3125q-0.359375 -1.140625 -1.0625 -1.65625q-0.6875 -0.53125 -1.734375 -0.53125q-1.21875 0 -2.03125 0.578125q-0.8125 0.578125 -1.140625 1.5625q-0.328125 0.96875 -0.328125 2.015625q0 1.328125 0.390625 2.328125q0.390625 1.0 1.21875 1.5q0.828125 0.484375 1.78125 0.484375q1.171875 0 1.96875 -0.671875q0.8125 -0.671875 1.09375 -1.984375zm6.03125 3.671875l4.015625 -10.484375l1.5 0l4.296875 10.484375l-1.578125 0l-1.234375 -3.171875l-4.375 0l-1.15625 3.171875l-1.46875 0zm3.015625 -4.3125l3.5625 0l-1.09375 -2.90625q-0.5 -1.3125 -0.75 -2.171875q-0.203125 1.015625 -0.5625 2.0l-1.15625 3.078125zm7.7443542 4.3125l0 -7.59375l1.15625 0l0 1.078125q0.84375 -1.25 2.421875 -1.25q0.6875 0 1.265625 0.25q0.578125 0.234375 0.859375 0.640625q0.28125 0.40625 0.40625 0.953125q0.0625 0.359375 0.0625 1.25l0 4.671875l-1.28125 0l0 -4.625q0 -0.78125 -0.15625 -1.171875q-0.15625 -0.390625 -0.546875 -0.625q-0.375 -0.234375 -0.890625 -0.234375q-0.8125 0 -1.421875 0.53125q-0.59375 0.515625 -0.59375 1.96875l0 4.15625l-1.28125 0zm13.072983 0l0 -0.953125q-0.71875 1.125 -2.125 1.125q-0.90625 0 -1.671875 -0.5q-0.75 -0.5 -1.171875 -1.390625q-0.421875 -0.90625 -0.421875 -2.078125q0 -1.140625 0.375 -2.0625q0.390625 -0.921875 1.140625 -1.40625q0.765625 -0.5 1.703125 -0.5q0.6875 0 1.21875 0.296875q0.53125 0.28125 0.875 0.734375l0 -3.75l1.28125 0l0 10.484375l-1.203125 0zm-4.0625 -3.796875q0 1.46875 0.609375 2.1875q0.625 0.71875 1.453125 0.71875q0.84375 0 1.4375 -0.6875q0.59375 -0.6875 0.59375 -2.109375q0 -1.5625 -0.609375 -2.28125q-0.59375 -0.734375 -1.484375 -0.734375q-0.84375 0 -1.421875 0.703125q-0.578125 0.703125 -0.578125 2.203125z" fill-rule="nonzero"/><path fill="#000000" d="m11.15625 265.39758l0 -10.484375l4.640625 0q1.40625 0 2.140625 0.28125q0.734375 0.28125 1.171875 1.0q0.4375 0.703125 0.4375 1.578125q0 1.109375 -0.734375 1.875q-0.71875 0.765625 -2.234375 0.984375q0.5625 0.25 0.84375 0.515625q0.609375 0.5625 1.15625 1.390625l1.8125 2.859375l-1.734375 0l-1.390625 -2.1875q-0.609375 -0.9375 -1.0 -1.4375q-0.390625 -0.5 -0.703125 -0.703125q-0.3125 -0.203125 -0.640625 -0.28125q-0.234375 -0.046875 -0.765625 -0.046875l-1.609375 0l0 4.65625l-1.390625 0zm1.390625 -5.859375l2.984375 0q0.9375 0 1.46875 -0.1875q0.546875 -0.203125 0.828125 -0.640625q0.28125 -0.4375 0.28125 -0.9375q0 -0.75 -0.546875 -1.21875q-0.53125 -0.484375 -1.703125 -0.484375l-3.3125 0l0 3.46875zm14.203125 5.859375l-0.96875 0l0 -4.4375q0 -1.875 0.0625 -2.375q0.078125 -0.890625 0.3125 -1.46875q0.25 -0.578125 0.78125 -1.125q0.53125 -0.5625 1.3125 -0.90625q0.796875 -0.359375 1.6875 -0.359375q0.84375 0 1.609375 0.328125q0.78125 0.328125 1.34375 0.90625q0.578125 0.578125 0.8125 1.21875q0.25 0.640625 0.328125 1.609375q0.03125 0.375 0.03125 2.171875l0 4.4375l-0.953125 0l0 -4.5q0 -1.625 -0.046875 -2.0625q-0.0625 -0.828125 -0.265625 -1.296875q-0.1875 -0.484375 -0.59375 -0.90625q-0.390625 -0.4375 -1.015625 -0.703125q-0.609375 -0.265625 -1.265625 -0.265625q-0.65625 0 -1.296875 0.28125q-0.640625 0.28125 -1.0625 0.75q-0.40625 0.46875 -0.578125 1.03125q-0.15625 0.5625 -0.203125 1.296875q-0.03125 0.390625 -0.03125 1.875l0 4.5zm13.62178 0l0 -10.484375l1.4375 0l5.5 8.234375l0 -8.234375l1.328125 0l0 10.484375l-1.421875 0l-5.5 -8.25l0 8.25l-1.34375 0zm18.084274 -3.671875l1.390625 0.34375q-0.4375 1.703125 -1.578125 2.609375q-1.125 0.890625 -2.765625 0.890625q-1.6875 0 -2.75 -0.6875q-1.0625 -0.6875 -1.625 -2.0q-0.546875 -1.3125 -0.546875 -2.8125q0 -1.640625 0.625 -2.859375q0.625 -1.21875 1.78125 -1.84375q1.15625 -0.640625 2.546875 -0.640625q1.5625 0 2.640625 0.8125q1.078125 0.796875 1.5 2.25l-1.375 0.3125q-0.359375 -1.140625 -1.0625 -1.65625q-0.6875 -0.53125 -1.734375 -0.53125q-1.21875 0 -2.03125 0.578125q-0.8125 0.578125 -1.140625 1.5625q-0.328125 0.96875 -0.328125 2.015625q0 1.328125 0.390625 2.328125q0.390625 1.0 1.21875 1.5q0.828125 0.484375 1.78125 0.484375q1.171875 0 1.96875 -0.671875q0.8125 -0.671875 1.09375 -1.984375zm3.7873993 6.75l-0.921875 0q2.140625 -3.421875 2.140625 -6.875q0 -1.34375 -0.3125 -2.671875q-0.25 -1.0625 -0.671875 -2.046875q-0.28125 -0.65625 -1.15625 -2.15625l0.921875 0q1.34375 1.796875 1.984375 3.609375q0.546875 1.5625 0.546875 3.265625q0 1.921875 -0.734375 3.734375q-0.734375 1.796875 -1.796875 3.140625z" fill-rule="nonzero"/><path fill="#000000" fill-opacity="0.0" d="m541.7087 188.78215l115.49603 0l0 85.07088l-115.49603 0z" fill-rule="evenodd"/><path fill="#000000" d="m552.13055 211.23758l0 -13.359375l1.8125 0l7.015625 10.484375l0 -10.484375l1.6875 0l0 13.359375l-1.8125 0l-7.015625 -10.5l0 10.5l-1.6875 0zm13.519775 0l0 -13.359375l5.921875 0q1.78125 0 2.703125 0.359375q0.9375 0.359375 1.484375 1.28125q0.5625 0.90625 0.5625 2.015625q0 1.40625 -0.921875 2.390625q-0.921875 0.96875 -2.84375 1.234375q0.703125 0.34375 1.078125 0.671875q0.765625 0.703125 1.453125 1.765625l2.328125 3.640625l-2.21875 0l-1.765625 -2.78125q-0.78125 -1.203125 -1.28125 -1.828125q-0.5 -0.640625 -0.90625 -0.890625q-0.390625 -0.265625 -0.796875 -0.359375q-0.296875 -0.078125 -0.984375 -0.078125l-2.046875 0l0 5.9375l-1.765625 0zm1.765625 -7.453125l3.796875 0q1.21875 0 1.890625 -0.25q0.6875 -0.265625 1.046875 -0.8125q0.359375 -0.546875 0.359375 -1.1875q0 -0.953125 -0.6875 -1.5625q-0.6875 -0.609375 -2.1875 -0.609375l-4.21875 0l0 4.421875z" fill-rule="nonzero"/><path fill="#000000" d="m554.13055 232.47571q-1.0625 -1.34375 -1.796875 -3.140625q-0.734375 -1.8125 -0.734375 -3.734375q0 -1.703125 0.546875 -3.265625q0.640625 -1.8125 1.984375 -3.609375l0.921875 0q-0.859375 1.484375 -1.140625 2.125q-0.4375 0.984375 -0.6875 2.0625q-0.296875 1.34375 -0.296875 2.6875q0 3.453125 2.125 6.875l-0.921875 0zm10.068115 -6.75l1.390625 0.34375q-0.4375 1.703125 -1.578125 2.609375q-1.125 0.890625 -2.765625 0.890625q-1.6875 0 -2.75 -0.6875q-1.0625 -0.6875 -1.625 -2.0q-0.546875 -1.3125 -0.546875 -2.8125q0 -1.640625 0.625 -2.859375q0.625 -1.21875 1.78125 -1.84375q1.15625 -0.640625 2.546875 -0.640625q1.5625 0 2.640625 0.8125q1.078125 0.796875 1.5 2.25l-1.375 0.3125q-0.359375 -1.140625 -1.0625 -1.65625q-0.6875 -0.53125 -1.734375 -0.53125q-1.21875 0 -2.03125 0.578125q-0.8125 0.578125 -1.140625 1.5625q-0.328125 0.96875 -0.328125 2.015625q0 1.328125 0.390625 2.328125q0.390625 1.0 1.21875 1.5q0.828125 0.484375 1.78125 0.484375q1.171875 0 1.96875 -0.671875q0.8125 -0.671875 1.09375 -1.984375zm2.4592896 -0.125q0 -2.109375 1.171875 -3.125q0.984375 -0.84375 2.390625 -0.84375q1.578125 0 2.5625 1.03125q1.0 1.015625 1.0 2.828125q0 1.46875 -0.4375 2.3125q-0.4375 0.828125 -1.28125 1.296875q-0.84375 0.46875 -1.84375 0.46875q-1.59375 0 -2.578125 -1.015625q-0.984375 -1.03125 -0.984375 -2.953125zm1.328125 0q0 1.453125 0.625 2.1875q0.640625 0.71875 1.609375 0.71875q0.96875 0 1.59375 -0.71875q0.640625 -0.734375 0.640625 -2.234375q0 -1.40625 -0.640625 -2.125q-0.640625 -0.734375 -1.59375 -0.734375q-0.96875 0 -1.609375 0.71875q-0.625 0.71875 -0.625 2.1875zm9.416748 3.796875l-2.890625 -7.59375l1.359375 0l1.625 4.546875q0.265625 0.734375 0.5 1.53125q0.15625 -0.609375 0.46875 -1.453125l1.6875 -4.625l1.328125 0l-2.875 7.59375l-1.203125 0zm10.421875 -2.453125l1.328125 0.171875q-0.3125 1.171875 -1.171875 1.8125q-0.84375 0.640625 -2.171875 0.640625q-1.671875 0 -2.65625 -1.015625q-0.96875 -1.03125 -0.96875 -2.890625q0 -1.921875 0.984375 -2.96875q1.0 -1.0625 2.578125 -1.0625q1.515625 0 2.484375 1.03125q0.96875 1.03125 0.96875 2.921875q0 0.109375 -0.015625 0.34375l-5.65625 0q0.0625 1.25 0.703125 1.921875q0.640625 0.65625 1.59375 0.65625q0.703125 0 1.203125 -0.359375q0.5 -0.375 0.796875 -1.203125zm-4.234375 -2.078125l4.25 0q-0.09375 -0.953125 -0.484375 -1.4375q-0.625 -0.75 -1.609375 -0.75q-0.875 0 -1.484375 0.59375q-0.609375 0.59375 -0.671875 1.59375zm7.166687 4.53125l0 -7.59375l1.15625 0l0 1.140625q0.453125 -0.796875 0.828125 -1.046875q0.375 -0.265625 0.8125 -0.265625q0.65625 0 1.328125 0.40625l-0.4375 1.203125q-0.46875 -0.28125 -0.953125 -0.28125q-0.421875 0 -0.765625 0.25q-0.328125 0.25 -0.46875 0.703125q-0.21875 0.6875 -0.21875 1.5l0 3.984375l-1.28125 0zm4.3806763 -2.265625l1.265625 -0.203125q0.109375 0.765625 0.59375 1.171875q0.5 0.40625 1.375 0.40625q0.890625 0 1.3125 -0.359375q0.4375 -0.359375 0.4375 -0.84375q0 -0.4375 -0.375 -0.6875q-0.265625 -0.171875 -1.3125 -0.4375q-1.421875 -0.359375 -1.96875 -0.609375q-0.546875 -0.265625 -0.828125 -0.734375q-0.28125 -0.46875 -0.28125 -1.015625q0 -0.515625 0.21875 -0.9375q0.234375 -0.4375 0.640625 -0.734375q0.296875 -0.21875 0.8125 -0.359375q0.53125 -0.15625 1.125 -0.15625q0.890625 0 1.5625 0.265625q0.671875 0.25 1.0 0.6875q0.328125 0.4375 0.4375 1.171875l-1.25 0.171875q-0.09375 -0.578125 -0.5 -0.90625q-0.40625 -0.34375 -1.15625 -0.34375q-0.890625 0 -1.28125 0.296875q-0.375 0.296875 -0.375 0.6875q0 0.25 0.15625 0.453125q0.15625 0.203125 0.5 0.34375q0.1875 0.078125 1.140625 0.328125q1.359375 0.359375 1.890625 0.59375q0.546875 0.234375 0.859375 0.6875q0.3125 0.4375 0.3125 1.09375q0 0.640625 -0.375 1.21875q-0.375 0.5625 -1.09375 0.875q-0.703125 0.3125 -1.59375 0.3125q-1.484375 0 -2.265625 -0.609375q-0.765625 -0.625 -0.984375 -1.828125zm13.10321 2.265625l-1.203125 0l0 -10.484375l1.296875 0l0 3.734375q0.8125 -1.015625 2.078125 -1.015625q0.703125 0 1.328125 0.28125q0.625 0.28125 1.03125 0.796875q0.40625 0.5 0.625 1.234375q0.234375 0.71875 0.234375 1.53125q0 1.96875 -0.96875 3.03125q-0.953125 1.0625 -2.3125 1.0625q-1.34375 0 -2.109375 -1.125l0 0.953125zm-0.015625 -3.859375q0 1.375 0.375 1.984375q0.609375 0.984375 1.640625 0.984375q0.84375 0 1.453125 -0.734375q0.625 -0.734375 0.625 -2.1875q0 -1.484375 -0.59375 -2.1875q-0.59375 -0.71875 -1.421875 -0.71875q-0.84375 0 -1.46875 0.734375q-0.609375 0.734375 -0.609375 2.125zm6.494873 0.0625q0 -2.109375 1.171875 -3.125q0.984375 -0.84375 2.390625 -0.84375q1.578125 0 2.5625 1.03125q1.0 1.015625 1.0 2.828125q0 1.46875 -0.4375 2.3125q-0.4375 0.828125 -1.28125 1.296875q-0.84375 0.46875 -1.84375 0.46875q-1.59375 0 -2.578125 -1.015625q-0.984375 -1.03125 -0.984375 -2.953125zm1.328125 0q0 1.453125 0.625 2.1875q0.640625 0.71875 1.609375 0.71875q0.96875 0 1.59375 -0.71875q0.640625 -0.734375 0.640625 -2.234375q0 -1.40625 -0.640625 -2.125q-0.640625 -0.734375 -1.59375 -0.734375q-0.96875 0 -1.609375 0.71875q-0.625 0.71875 -0.625 2.1875zm10.119873 2.640625l0.1875 1.140625q-0.546875 0.109375 -0.984375 0.109375q-0.6875 0 -1.078125 -0.21875q-0.390625 -0.21875 -0.546875 -0.578125q-0.15625 -0.359375 -0.15625 -1.515625l0 -4.375l-0.953125 0l0 -1.0l0.953125 0l0 -1.890625l1.28125 -0.765625l0 2.65625l1.296875 0l0 1.0l-1.296875 0l0 4.4375q0 0.546875 0.0625 0.71875q0.078125 0.15625 0.21875 0.25q0.15625 0.078125 0.453125 0.078125q0.203125 0 0.5625 -0.046875zm1.2594604 1.15625l0 -10.484375l1.28125 0l0 3.75q0.90625 -1.03125 2.28125 -1.03125q0.84375 0 1.46875 0.328125q0.625 0.328125 0.890625 0.921875q0.265625 0.578125 0.265625 1.703125l0 4.8125l-1.28125 0l0 -4.8125q0 -0.96875 -0.421875 -1.40625q-0.421875 -0.4375 -1.1875 -0.4375q-0.578125 0 -1.078125 0.296875q-0.5 0.296875 -0.71875 0.8125q-0.21875 0.5 -0.21875 1.390625l0 4.15625l-1.28125 0z" fill-rule="nonzero"/><path fill="#000000" d="m551.81805 247.39758l0 -10.484375l1.4375 0l5.5 8.234375l0 -8.234375l1.328125 0l0 10.484375l-1.421875 0l-5.5 -8.25l0 8.25l-1.34375 0zm10.6311035 0l0 -10.484375l4.640625 0q1.40625 0 2.140625 0.28125q0.734375 0.28125 1.171875 1.0q0.4375 0.703125 0.4375 1.578125q0 1.109375 -0.734375 1.875q-0.71875 0.765625 -2.234375 0.984375q0.5625 0.25 0.84375 0.515625q0.609375 0.5625 1.15625 1.390625l1.8125 2.859375l-1.734375 0l-1.390625 -2.1875q-0.609375 -0.9375 -1.0 -1.4375q-0.390625 -0.5 -0.703125 -0.703125q-0.3125 -0.203125 -0.640625 -0.28125q-0.234375 -0.046875 -0.765625 -0.046875l-1.609375 0l0 4.65625l-1.390625 0zm1.390625 -5.859375l2.984375 0q0.9375 0 1.46875 -0.1875q0.546875 -0.203125 0.828125 -0.640625q0.28125 -0.4375 0.28125 -0.9375q0 -0.75 -0.546875 -1.21875q-0.53125 -0.484375 -1.703125 -0.484375l-3.3125 0l0 3.46875zm14.203125 5.859375l-0.96875 0l0 -4.4375q0 -1.875 0.0625 -2.375q0.078125 -0.890625 0.3125 -1.46875q0.25 -0.578125 0.78125 -1.125q0.53125 -0.5625 1.3125 -0.90625q0.796875 -0.359375 1.6875 -0.359375q0.84375 0 1.609375 0.328125q0.78125 0.328125 1.34375 0.90625q0.578125 0.578125 0.8125 1.21875q0.25 0.640625 0.328125 1.609375q0.03125 0.375 0.03125 2.171875l0 4.4375l-0.953125 0l0 -4.5q0 -1.625 -0.046875 -2.0625q-0.0625 -0.828125 -0.265625 -1.296875q-0.1875 -0.484375 -0.59375 -0.90625q-0.390625 -0.4375 -1.015625 -0.703125q-0.609375 -0.265625 -1.265625 -0.265625q-0.65625 0 -1.296875 0.28125q-0.640625 0.28125 -1.0625 0.75q-0.40625 0.46875 -0.578125 1.03125q-0.15625 0.5625 -0.203125 1.296875q-0.03125 0.390625 -0.03125 1.875l0 4.5zm21.121826 -3.671875l1.390625 0.34375q-0.4375 1.703125 -1.578125 2.609375q-1.125 0.890625 -2.765625 0.890625q-1.6875 0 -2.75 -0.6875q-1.0625 -0.6875 -1.625 -2.0q-0.546875 -1.3125 -0.546875 -2.8125q0 -1.640625 0.625 -2.859375q0.625 -1.21875 1.78125 -1.84375q1.15625 -0.640625 2.546875 -0.640625q1.5625 0 2.640625 0.8125q1.078125 0.796875 1.5 2.25l-1.375 0.3125q-0.359375 -1.140625 -1.0625 -1.65625q-0.6875 -0.53125 -1.734375 -0.53125q-1.21875 0 -2.03125 0.578125q-0.8125 0.578125 -1.140625 1.5625q-0.328125 0.96875 -0.328125 2.015625q0 1.328125 0.390625 2.328125q0.390625 1.0 1.21875 1.5q0.828125 0.484375 1.78125 0.484375q1.171875 0 1.96875 -0.671875q0.8125 -0.671875 1.09375 -1.984375zm6.03125 3.671875l4.015625 -10.484375l1.5 0l4.296875 10.484375l-1.578125 0l-1.234375 -3.171875l-4.375 0l-1.15625 3.171875l-1.46875 0zm3.015625 -4.3125l3.5625 0l-1.09375 -2.90625q-0.5 -1.3125 -0.75 -2.171875q-0.203125 1.015625 -0.5625 2.0l-1.15625 3.078125zm7.7443237 4.3125l0 -7.59375l1.15625 0l0 1.078125q0.84375 -1.25 2.421875 -1.25q0.6875 0 1.265625 0.25q0.578125 0.234375 0.859375 0.640625q0.28125 0.40625 0.40625 0.953125q0.0625 0.359375 0.0625 1.25l0 4.671875l-1.28125 0l0 -4.625q0 -0.78125 -0.15625 -1.171875q-0.15625 -0.390625 -0.546875 -0.625q-0.375 -0.234375 -0.890625 -0.234375q-0.8125 0 -1.421875 0.53125q-0.59375 0.515625 -0.59375 1.96875l0 4.15625l-1.28125 0zm13.072998 0l0 -0.953125q-0.71875 1.125 -2.125 1.125q-0.90625 0 -1.671875 -0.5q-0.75 -0.5 -1.171875 -1.390625q-0.421875 -0.90625 -0.421875 -2.078125q0 -1.140625 0.375 -2.0625q0.390625 -0.921875 1.140625 -1.40625q0.765625 -0.5 1.703125 -0.5q0.6875 0 1.21875 0.296875q0.53125 0.28125 0.875 0.734375l0 -3.75l1.28125 0l0 10.484375l-1.203125 0zm-4.0625 -3.796875q0 1.46875 0.609375 2.1875q0.625 0.71875 1.453125 0.71875q0.84375 0 1.4375 -0.6875q0.59375 -0.6875 0.59375 -2.109375q0 -1.5625 -0.609375 -2.28125q-0.59375 -0.734375 -1.484375 -0.734375q-0.84375 0 -1.421875 0.703125q-0.578125 0.703125 -0.578125 2.203125z" fill-rule="nonzero"/><path fill="#000000" d="m551.81805 265.39758l0 -10.484375l1.4375 0l5.5 8.234375l0 -8.234375l1.328125 0l0 10.484375l-1.421875 0l-5.5 -8.25l0 8.25l-1.34375 0zm10.6311035 0l0 -10.484375l4.640625 0q1.40625 0 2.140625 0.28125q0.734375 0.28125 1.171875 1.0q0.4375 0.703125 0.4375 1.578125q0 1.109375 -0.734375 1.875q-0.71875 0.765625 -2.234375 0.984375q0.5625 0.25 0.84375 0.515625q0.609375 0.5625 1.15625 1.390625l1.8125 2.859375l-1.734375 0l-1.390625 -2.1875q-0.609375 -0.9375 -1.0 -1.4375q-0.390625 -0.5 -0.703125 -0.703125q-0.3125 -0.203125 -0.640625 -0.28125q-0.234375 -0.046875 -0.765625 -0.046875l-1.609375 0l0 4.65625l-1.390625 0zm1.390625 -5.859375l2.984375 0q0.9375 0 1.46875 -0.1875q0.546875 -0.203125 0.828125 -0.640625q0.28125 -0.4375 0.28125 -0.9375q0 -0.75 -0.546875 -1.21875q-0.53125 -0.484375 -1.703125 -0.484375l-3.3125 0l0 3.46875zm14.203125 5.859375l-0.96875 0l0 -4.4375q0 -1.875 0.0625 -2.375q0.078125 -0.890625 0.3125 -1.46875q0.25 -0.578125 0.78125 -1.125q0.53125 -0.5625 1.3125 -0.90625q0.796875 -0.359375 1.6875 -0.359375q0.84375 0 1.609375 0.328125q0.78125 0.328125 1.34375 0.90625q0.578125 0.578125 0.8125 1.21875q0.25 0.640625 0.328125 1.609375q0.03125 0.375 0.03125 2.171875l0 4.4375l-0.953125 0l0 -4.5q0 -1.625 -0.046875 -2.0625q-0.0625 -0.828125 -0.265625 -1.296875q-0.1875 -0.484375 -0.59375 -0.90625q-0.390625 -0.4375 -1.015625 -0.703125q-0.609375 -0.265625 -1.265625 -0.265625q-0.65625 0 -1.296875 0.28125q-0.640625 0.28125 -1.0625 0.75q-0.40625 0.46875 -0.578125 1.03125q-0.15625 0.5625 -0.203125 1.296875q-0.03125 0.390625 -0.03125 1.875l0 4.5zm13.621826 0l0 -10.484375l1.4375 0l5.5 8.234375l0 -8.234375l1.328125 0l0 10.484375l-1.421875 0l-5.5 -8.25l0 8.25l-1.34375 0zm18.084229 -3.671875l1.390625 0.34375q-0.4375 1.703125 -1.578125 2.609375q-1.125 0.890625 -2.765625 0.890625q-1.6875 0 -2.75 -0.6875q-1.0625 -0.6875 -1.625 -2.0q-0.546875 -1.3125 -0.546875 -2.8125q0 -1.640625 0.625 -2.859375q0.625 -1.21875 1.78125 -1.84375q1.15625 -0.640625 2.546875 -0.640625q1.5625 0 2.640625 0.8125q1.078125 0.796875 1.5 2.25l-1.375 0.3125q-0.359375 -1.140625 -1.0625 -1.65625q-0.6875 -0.53125 -1.734375 -0.53125q-1.21875 0 -2.03125 0.578125q-0.8125 0.578125 -1.140625 1.5625q-0.328125 0.96875 -0.328125 2.015625q0 1.328125 0.390625 2.328125q0.390625 1.0 1.21875 1.5q0.828125 0.484375 1.78125 0.484375q1.171875 0 1.96875 -0.671875q0.8125 -0.671875 1.09375 -1.984375zm3.7874146 6.75l-0.921875 0q2.140625 -3.421875 2.140625 -6.875q0 -1.34375 -0.3125 -2.671875q-0.25 -1.0625 -0.671875 -2.046875q-0.28125 -0.65625 -1.15625 -2.15625l0.921875 0q1.34375 1.796875 1.984375 3.609375q0.546875 1.5625 0.546875 3.265625q0 1.921875 -0.734375 3.734375q-0.734375 1.796875 -1.796875 3.140625z" fill-rule="nonzero"/></g></svg>
