<svg version="1.1" viewBox="0.0 0.0 470.0 270.0" fill="none" stroke="none" stroke-linecap="square" stroke-miterlimit="10" xmlns:xlink="http://www.w3.org/1999/xlink" xmlns="http://www.w3.org/2000/svg"><clipPath id="p.0"><path d="m0 0l800.0 0l0 600.0l-800.0 0l0 -600.0z" clip-rule="nonzero"/></clipPath><g clip-path="url(#p.0)"><path fill="#000000" fill-opacity="0.0" d="m0 0l800.0 0l0 600.0l-800.0 0z" fill-rule="evenodd"/><path fill="#efefef" d="m118.4895 47.007874l0 0c0 -12.150265 9.849731 -22.0 22.0 -22.0l0 0c5.8347626 0 11.430542 2.31785 15.556351 6.443651c4.1257935 4.125799 6.4436493 9.721586 6.4436493 15.556349l0 0c0 12.150265 -9.849731 22.0 -22.0 22.0l0 0c-12.150269 0 -22.0 -9.849735 -22.0 -22.0z" fill-rule="evenodd"/><path stroke="#000000" stroke-width="1.0" stroke-linejoin="round" stroke-linecap="butt" d="m118.4895 47.007874l0 0c0 -12.150265 9.849731 -22.0 22.0 -22.0l0 0c5.8347626 0 11.430542 2.31785 15.556351 6.443651c4.1257935 4.125799 6.4436493 9.721586 6.4436493 15.556349l0 0c0 12.150265 -9.849731 22.0 -22.0 22.0l0 0c-12.150269 0 -22.0 -9.849735 -22.0 -22.0z" fill-rule="evenodd"/><path fill="#000000" d="m142.25476 53.92787l-1.640625 0l0 -10.453125q-0.59375 0.5625 -1.5625 1.140625q-0.953125 0.5625 -1.71875 0.84375l0 -1.59375q1.375 -0.640625 2.40625 -1.5625q1.03125 -0.921875 1.453125 -1.78125l1.0625 0l0 13.40625z" fill-rule="nonzero"/><path fill="#efefef" d="m305.4895 47.007874l0 0c0 -12.150265 9.849731 -22.0 22.0 -22.0l0 0c5.8347473 0 11.430542 2.31785 15.556335 6.443651c4.125824 4.125799 6.4436646 9.721586 6.4436646 15.556349l0 0c0 12.150265 -9.849731 22.0 -22.0 22.0l0 0c-12.150269 0 -22.0 -9.849735 -22.0 -22.0z" fill-rule="evenodd"/><path stroke="#000000" stroke-width="1.0" stroke-linejoin="round" stroke-linecap="butt" d="m305.4895 47.007874l0 0c0 -12.150265 9.849731 -22.0 22.0 -22.0l0 0c5.8347473 0 11.430542 2.31785 15.556335 6.443651c4.125824 4.125799 6.4436646 9.721586 6.4436646 15.556349l0 0c0 12.150265 -9.849731 22.0 -22.0 22.0l0 0c-12.150269 0 -22.0 -9.849735 -22.0 -22.0z" fill-rule="evenodd"/><path fill="#000000" d="m331.69226 52.349747l0 1.578125l-8.828125 0q-0.015625 -0.59375 0.1875 -1.140625q0.34375 -0.90625 1.078125 -1.78125q0.75 -0.875 2.15625 -2.015625q2.171875 -1.78125 2.9375 -2.828125q0.765625 -1.046875 0.765625 -1.96875q0 -0.984375 -0.703125 -1.640625q-0.6875 -0.671875 -1.8125 -0.671875q-1.1875 0 -1.90625 0.71875q-0.703125 0.703125 -0.703125 1.953125l-1.6875 -0.171875q0.171875 -1.890625 1.296875 -2.875q1.140625 -0.984375 3.03125 -0.984375q1.921875 0 3.046875 1.0625q1.125 1.0625 1.125 2.640625q0 0.796875 -0.328125 1.578125q-0.328125 0.78125 -1.09375 1.640625q-0.75 0.84375 -2.53125 2.34375q-1.46875 1.234375 -1.890625 1.6875q-0.421875 0.4375 -0.6875 0.875l6.546875 0z" fill-rule="nonzero"/><path fill="#efefef" d="m211.98557 178.47507l0 0c0 -12.150269 9.849731 -22.0 22.0 -22.0l0 0c5.8347626 0 11.430542 2.3178558 15.556351 6.4436493c4.1257935 4.1257935 6.4436493 9.721588 6.4436493 15.556351l0 0c0 12.150269 -9.849731 22.0 -22.0 22.0l0 0c-12.150269 0 -22.0 -9.849731 -22.0 -22.0z" fill-rule="evenodd"/><path stroke="#000000" stroke-width="1.0" stroke-linejoin="round" stroke-linecap="butt" d="m211.98557 178.47507l0 0c0 -12.150269 9.849731 -22.0 22.0 -22.0l0 0c5.8347626 0 11.430542 2.3178558 15.556351 6.4436493c4.1257935 4.1257935 6.4436493 9.721588 6.4436493 15.556351l0 0c0 12.150269 -9.849731 22.0 -22.0 22.0l0 0c-12.150269 0 -22.0 -9.849731 -22.0 -22.0z" fill-rule="evenodd"/><path fill="#000000" d="m229.57895 181.86382l1.640625 -0.21875q0.28125 1.40625 0.953125 2.015625q0.6875 0.609375 1.65625 0.609375q1.15625 0 1.953125 -0.796875q0.796875 -0.796875 0.796875 -1.984375q0 -1.125 -0.734375 -1.859375q-0.734375 -0.734375 -1.875 -0.734375q-0.46875 0 -1.15625 0.171875l0.1875 -1.4375q0.15625 0.015625 0.265625 0.015625q1.046875 0 1.875 -0.546875q0.84375 -0.546875 0.84375 -1.671875q0 -0.90625 -0.609375 -1.5q-0.609375 -0.59375 -1.578125 -0.59375q-0.953125 0 -1.59375 0.609375q-0.640625 0.59375 -0.8125 1.796875l-1.640625 -0.296875q0.296875 -1.640625 1.359375 -2.546875q1.0625 -0.90625 2.65625 -0.90625q1.09375 0 2.0 0.46875q0.921875 0.46875 1.40625 1.28125q0.5 0.8125 0.5 1.71875q0 0.859375 -0.46875 1.578125q-0.46875 0.703125 -1.375 1.125q1.1875 0.28125 1.84375 1.140625q0.65625 0.859375 0.65625 2.15625q0 1.734375 -1.28125 2.953125q-1.265625 1.21875 -3.21875 1.21875q-1.765625 0 -2.921875 -1.046875q-1.15625 -1.046875 -1.328125 -2.71875z" fill-rule="nonzero"/><path fill="#000000" fill-opacity="0.0" d="m140.4895 69.00787c0 54.740158 35.74803 109.480316 71.49606 109.480316" fill-rule="evenodd"/><path stroke="#000000" stroke-width="1.0" stroke-linejoin="round" stroke-linecap="butt" d="m140.5373 72.43463l0.010665894 0.42145538c0.012939453 0.42742157 0.027999878 0.85476685 0.045181274 1.2820053c0.068725586 1.7089615 0.1712799 3.4162445 0.30656433 5.1201935c0.2705536 3.407898 0.6720123 6.802429 1.1956635 10.170235c1.0473022 6.7356033 2.5833588 13.364296 4.53833 19.77916c3.9099426 12.82972 9.495575 24.80413 16.198318 35.06791c6.702759 10.263779 14.522644 18.816925 22.901093 24.804138c4.1892242 2.9936066 8.518082 5.3457184 12.916763 6.9494324c2.1993256 0.80184937 4.4161377 1.416626 6.641678 1.8309174c0.55636597 0.1035614 1.1132812 0.1946106 1.670639 0.2729187c0.27867126 0.039138794 0.5574341 0.07511902 0.83628845 0.10787964c0.13943481 0.01638794 0.27886963 0.031951904 0.41835022 0.04673767l0.3456726 0.034591675" fill-rule="evenodd"/><path fill="#000000" stroke="#000000" stroke-width="1.0" stroke-linecap="butt" d="m140.53731 72.43462l1.140152 1.1087952l-1.167572 -3.0737839l-1.0813751 3.105156z" fill-rule="evenodd"/><path fill="#000000" stroke="#000000" stroke-width="1.0" stroke-linecap="butt" d="m208.5625 178.3222l-1.1777344 1.0687866l3.1406097 -0.9736023l-3.0316772 -1.2729187z" fill-rule="evenodd"/><path fill="#000000" fill-opacity="0.0" d="m255.98557 178.47507c35.748016 0 71.49606 -54.740158 71.49606 -109.480316" fill-rule="evenodd"/><path stroke="#000000" stroke-width="1.0" stroke-linejoin="round" stroke-linecap="butt" d="m259.40863 178.30908l0.3456726 -0.034591675c0.13946533 -0.014785767 0.27893066 -0.030349731 0.41836548 -0.04673767c0.2788391 -0.03277588 0.5576172 -0.068740845 0.8362732 -0.10787964c0.5573425 -0.078308105 1.1142883 -0.1693573 1.6706543 -0.2729187c2.225525 -0.41429138 4.442322 -1.029068 6.6416626 -1.8309174c4.3986816 -1.603714 8.727539 -3.955841 12.916779 -6.9494324c8.378418 -5.987213 16.198303 -14.5403595 22.901062 -24.804138c6.702759 -10.263779 12.288391 -22.23819 16.198334 -35.06791c1.9549866 -6.4148636 3.4910278 -13.043556 4.53833 -19.77916c0.5236511 -3.3678055 0.92510986 -6.7623367 1.1956787 -10.170235c0.13528442 -1.703949 0.23782349 -3.411232 0.30654907 -5.1201935c0.017181396 -0.42723846 0.03225708 -0.85458374 0.045166016 -1.2820053l0.010681152 -0.42145538" fill-rule="evenodd"/><path fill="#000000" stroke="#000000" stroke-width="1.0" stroke-linecap="butt" d="m259.40863 178.30908l1.0687866 -1.1777344l-3.0316772 1.2729187l3.140625 0.9736023z" fill-rule="evenodd"/><path fill="#000000" stroke="#000000" stroke-width="1.0" stroke-linecap="butt" d="m327.43384 72.4215l1.1087646 1.1401596l-1.0813599 -3.1051483l-1.167572 3.0737762z" fill-rule="evenodd"/><path fill="#000000" fill-opacity="0.0" d="m305.4895 47.007874c-35.750183 0 -53.626343 0.01574707 -71.50035 0.031497955c-17.874023 0.01574707 -35.745895 0.03149414 -71.491776 0.03149414" fill-rule="evenodd"/><path stroke="#000000" stroke-width="1.0" stroke-linejoin="round" stroke-linecap="butt" d="m302.0624 47.008263l-20.313416 0.002319336c-6.9825134 0.0017204285 -13.127197 0.004180908 -18.713226 0.007133484c-11.172058 0.0059051514 -20.109604 0.013782501 -29.046616 0.021656036c-8.937012 0.007873535 -17.873474 0.01574707 -29.043945 0.021652222c-5.5852203 0.0029525757 -11.728943 0.0054130554 -18.71048 0.0071372986l-20.310272 0.0023155212" fill-rule="evenodd"/><path fill="#000000" stroke="#000000" stroke-width="1.0" stroke-linecap="butt" d="m302.0624 47.008266l-1.1244507 1.1247101l3.0896301 -1.1249352l-3.0898743 -1.1242332z" fill-rule="evenodd"/><path fill="#000000" stroke="#000000" stroke-width="1.0" stroke-linecap="butt" d="m165.92447 47.070477l1.1244507 -1.1247139l-3.0896454 1.1249352l3.0899048 1.1242332z" fill-rule="evenodd"/><path fill="#000000" fill-opacity="0.0" d="m96.4895 0l61.007874 0l0 25.007874l-61.007874 0z" fill-rule="evenodd"/><path fill="#000000" d="m105.802 18.363937l0 -1.140625l5.28125 -6.0625q-0.890625 0.046875 -1.578125 0.046875l-3.390625 0l0 -1.140625l6.78125 0l0 0.921875l-4.484375 5.265625l-0.875 0.96875q0.953125 -0.078125 1.78125 -0.078125l3.828125 0l0 1.21875l-7.34375 0zm16.140625 -6.734375l-7.5625 0l0 -1.3125l7.5625 0l0 1.3125zm0 3.46875l-7.5625 0l0 -1.3125l7.5625 0l0 1.3125zm6.859375 3.265625l-1.40625 0l0 -8.96875q-0.515625 0.484375 -1.34375 0.96875q-0.8125 0.484375 -1.46875 0.734375l0 -1.359375q1.171875 -0.5625 2.046875 -1.34375q0.890625 -0.796875 1.265625 -1.53125l0.90625 0l0 11.5z" fill-rule="nonzero"/><path fill="#000000" fill-opacity="0.0" d="m283.48163 0.07611549l61.007874 0l0 25.007875l-61.007874 0z" fill-rule="evenodd"/><path fill="#000000" d="m292.79413 18.440052l0 -1.140625l5.28125 -6.062499q-0.890625 0.046875 -1.578125 0.046875l-3.390625 0l0 -1.140625l6.78125 0l0 0.921875l-4.484375 5.265624l-0.875 0.96875q0.953125 -0.078125 1.78125 -0.078125l3.828125 0l0 1.21875l-7.34375 0zm16.140625 -6.734374l-7.5625 0l0 -1.3125l7.5625 0l0 1.3125zm0 3.46875l-7.5625 0l0 -1.3125l7.5625 0l0 1.3125zm6.859375 3.265624l-1.40625 0l0 -8.968749q-0.515625 0.484375 -1.34375 0.96875q-0.8125 0.484375 -1.46875 0.734375l0 -1.359375q1.171875 -0.5625 2.046875 -1.34375q0.890625 -0.796875 1.265625 -1.53125l0.90625 0l0 11.499999z" fill-rule="nonzero"/><path fill="#000000" fill-opacity="0.0" d="m187.4895 132.10498l61.007874 0l0 25.007874l-61.007874 0z" fill-rule="evenodd"/><path fill="#000000" d="m196.802 150.46892l0 -1.140625l5.28125 -6.0625q-0.890625 0.046875 -1.578125 0.046875l-3.390625 0l0 -1.140625l6.78125 0l0 0.921875l-4.484375 5.265625l-0.875 0.96875q0.953125 -0.078125 1.78125 -0.078125l3.828125 0l0 1.21875l-7.34375 0zm16.140625 -6.734375l-7.5625 0l0 -1.3125l7.5625 0l0 1.3125zm0 3.46875l-7.5625 0l0 -1.3125l7.5625 0l0 1.3125zm6.859375 3.265625l-1.40625 0l0 -8.96875q-0.515625 0.484375 -1.34375 0.96875q-0.8125 0.484375 -1.46875 0.734375l0 -1.359375q1.171875 -0.5625 2.046875 -1.34375q0.890625 -0.796875 1.265625 -1.53125l0.90625 0l0 11.5z" fill-rule="nonzero"/><path fill="#000000" fill-opacity="0.0" d="m0 28.236221l76.0 0l0 37.6063l-76.0 0z" fill-rule="evenodd"/><path fill="#000000" d="m13.03125 52.89937l0 -11.453125l5.078125 0q1.53125 0 2.328125 0.3125q0.796875 0.296875 1.265625 1.078125q0.484375 0.78125 0.484375 1.734375q0 1.21875 -0.796875 2.0625q-0.78125 0.828125 -2.4375 1.046875q0.609375 0.296875 0.921875 0.578125q0.65625 0.609375 1.25 1.515625l2.0 3.125l-1.90625 0l-1.515625 -2.390625q-0.671875 -1.03125 -1.109375 -1.578125q-0.421875 -0.546875 -0.765625 -0.765625q-0.328125 -0.21875 -0.6875 -0.296875q-0.25 -0.0625 -0.84375 -0.0625l-1.75 0l0 5.09375l-1.515625 0zm1.515625 -6.40625l3.25 0q1.046875 0 1.625 -0.203125q0.59375 -0.21875 0.890625 -0.6875q0.3125 -0.484375 0.3125 -1.03125q0 -0.8125 -0.59375 -1.328125q-0.59375 -0.53125 -1.859375 -0.53125l-3.625 0l0 3.78125zm15.5078125 3.734375l1.453125 0.171875q-0.34375 1.28125 -1.28125 1.984375q-0.921875 0.703125 -2.359375 0.703125q-1.828125 0 -2.890625 -1.125q-1.0625 -1.125 -1.0625 -3.140625q0 -2.09375 1.078125 -3.25q1.078125 -1.15625 2.796875 -1.15625q1.65625 0 2.703125 1.140625q1.0625 1.125 1.0625 3.171875q0 0.125 0 0.375l-6.1875 0q0.078125 1.375 0.765625 2.109375q0.703125 0.71875 1.734375 0.71875q0.78125 0 1.328125 -0.40625q0.546875 -0.40625 0.859375 -1.296875zm-4.609375 -2.28125l4.625 0q-0.09375 -1.046875 -0.53125 -1.5625q-0.671875 -0.8125 -1.734375 -0.8125q-0.96875 0 -1.640625 0.65625q-0.65625 0.640625 -0.71875 1.71875zm13.2421875 3.921875q-0.78125 0.671875 -1.5 0.953125q-0.71875 0.265625 -1.546875 0.265625q-1.375 0 -2.109375 -0.671875q-0.734375 -0.671875 -0.734375 -1.703125q0 -0.609375 0.28125 -1.109375q0.28125 -0.515625 0.71875 -0.8125q0.453125 -0.3125 1.015625 -0.46875q0.421875 -0.109375 1.25 -0.203125q1.703125 -0.203125 2.515625 -0.484375q0 -0.296875 0 -0.375q0 -0.859375 -0.390625 -1.203125q-0.546875 -0.484375 -1.609375 -0.484375q-0.984375 0 -1.46875 0.359375q-0.46875 0.34375 -0.6875 1.21875l-1.375 -0.1875q0.1875 -0.875 0.609375 -1.421875q0.4375 -0.546875 1.25 -0.828125q0.8125 -0.296875 1.875 -0.296875q1.0625 0 1.71875 0.25q0.671875 0.25 0.984375 0.625q0.3125 0.375 0.4375 0.953125q0.078125 0.359375 0.078125 1.296875l0 1.875q0 1.96875 0.078125 2.484375q0.09375 0.515625 0.359375 1.0l-1.46875 0q-0.21875 -0.4375 -0.28125 -1.03125zm-0.109375 -3.140625q-0.765625 0.3125 -2.296875 0.53125q-0.875 0.125 -1.234375 0.28125q-0.359375 0.15625 -0.5625 0.46875q-0.1875 0.296875 -0.1875 0.65625q0 0.5625 0.421875 0.9375q0.4375 0.375 1.25 0.375q0.8125 0 1.4375 -0.34375q0.640625 -0.359375 0.9375 -0.984375q0.234375 -0.46875 0.234375 -1.40625l0 -0.515625zm8.9765625 4.171875l0 -1.046875q-0.78125 1.234375 -2.3125 1.234375q-1.0 0 -1.828125 -0.546875q-0.828125 -0.546875 -1.296875 -1.53125q-0.453125 -0.984375 -0.453125 -2.25q0 -1.25 0.40625 -2.25q0.421875 -1.015625 1.25 -1.546875q0.828125 -0.546875 1.859375 -0.546875q0.75 0 1.328125 0.3125q0.59375 0.3125 0.953125 0.828125l0 -4.109375l1.40625 0l0 11.453125l-1.3125 0zm-4.4375 -4.140625q0 1.59375 0.671875 2.390625q0.671875 0.78125 1.578125 0.78125q0.921875 0 1.5625 -0.75q0.65625 -0.765625 0.65625 -2.3125q0 -1.703125 -0.65625 -2.5q-0.65625 -0.796875 -1.625 -0.796875q-0.9375 0 -1.5625 0.765625q-0.625 0.765625 -0.625 2.421875zm11.671875 4.140625l0 -1.40625l5.859375 -7.34375q0.625 -0.78125 1.1875 -1.359375l-6.390625 0l0 -1.34375l8.203125 0l0 1.34375l-6.421875 7.953125l-0.703125 0.796875l7.3125 0l0 1.359375l-9.046875 0z" fill-rule="nonzero"/><path fill="#000000" fill-opacity="0.0" d="m39.538322 31.833168l0 0c11.766499 -8.233206 31.697899 -11.400497 49.558258 -7.8752823c17.86036 3.5252151 29.680069 12.959427 29.389023 23.457619c-0.29105377 10.498188 -12.628174 19.72705 -30.675537 22.947021c-18.047363 3.2199707 -37.793793 -0.28461456 -49.09834 -8.7139435l35.52712 -14.609211z" fill-rule="evenodd"/><path fill="#000000" fill-opacity="0.0" d="m39.538322 31.833168l0 0c11.766499 -8.233206 31.697899 -11.400497 49.558258 -7.8752823c17.86036 3.5252151 29.680069 12.959427 29.389023 23.457619c-0.29105377 10.498188 -12.628174 19.72705 -30.675537 22.947021c-18.047363 3.2199707 -37.793793 -0.28461456 -49.09834 -8.7139435" fill-rule="evenodd"/><path stroke="#6aa84f" stroke-width="2.0" stroke-linejoin="round" stroke-linecap="butt" d="m39.538322 31.833166l0 0c11.766499 -8.233206 31.697899 -11.400496 49.558258 -7.8752823c17.86036 3.525217 29.680069 12.959429 29.389015 23.45762c-0.2910385 10.498188 -12.628166 19.72705 -30.675522 22.947021c-9.023689 1.6099854 -18.472137 1.538826 -27.077736 0.011512756c-4.3027954 -0.7636566 -8.394878 -1.8913574 -12.117802 -3.3549728c-1.861454 -0.7318115 -3.6306267 -1.5475998 -5.287697 -2.4438477l-0.45516586 -0.25108337" fill-rule="evenodd"/><path fill="#6aa84f" stroke="#6aa84f" stroke-width="2.0" stroke-linecap="butt" d="m42.871674 64.324135l1.5993309 -0.3473091l-3.3001862 -0.7466316l2.0481644 2.6932755z" fill-rule="evenodd"/><path fill="#000000" fill-opacity="0.0" d="m391.9895 28.204725l76.0 0l0 37.606293l-76.0 0z" fill-rule="evenodd"/><path fill="#000000" d="m405.02075 52.867874l0 -11.453125l5.078125 0q1.53125 0 2.328125 0.3125q0.796875 0.296875 1.265625 1.078125q0.484375 0.78125 0.484375 1.734375q0 1.21875 -0.796875 2.0625q-0.78125 0.828125 -2.4375 1.046875q0.609375 0.296875 0.921875 0.578125q0.65625 0.609375 1.25 1.515625l2.0 3.125l-1.90625 0l-1.515625 -2.390625q-0.671875 -1.03125 -1.109375 -1.578125q-0.421875 -0.546875 -0.765625 -0.765625q-0.328125 -0.21875 -0.6875 -0.296875q-0.25 -0.0625 -0.84375 -0.0625l-1.75 0l0 5.09375l-1.515625 0zm1.515625 -6.40625l3.25 0q1.046875 0 1.625 -0.203125q0.59375 -0.21875 0.890625 -0.6875q0.3125 -0.484375 0.3125 -1.03125q0 -0.8125 -0.59375 -1.328125q-0.59375 -0.53125 -1.859375 -0.53125l-3.625 0l0 3.78125zm15.5078125 3.734375l1.453125 0.171875q-0.34375 1.28125 -1.28125 1.984375q-0.921875 0.703125 -2.359375 0.703125q-1.828125 0 -2.890625 -1.125q-1.0625 -1.125 -1.0625 -3.140625q0 -2.09375 1.078125 -3.25q1.078125 -1.15625 2.796875 -1.15625q1.65625 0 2.703125 1.140625q1.0625 1.125 1.0625 3.171875q0 0.125 0 0.375l-6.1875 0q0.078125 1.375 0.765625 2.109375q0.703125 0.71875 1.734375 0.71875q0.78125 0 1.328125 -0.40625q0.546875 -0.40625 0.859375 -1.296875zm-4.609375 -2.28125l4.625 0q-0.09375 -1.046875 -0.53125 -1.5625q-0.671875 -0.8125 -1.734375 -0.8125q-0.96875 0 -1.640625 0.65625q-0.65625 0.640625 -0.71875 1.71875zm13.2421875 3.921875q-0.78125 0.671875 -1.5 0.953125q-0.71875 0.265625 -1.546875 0.265625q-1.375 0 -2.109375 -0.671875q-0.734375 -0.671875 -0.734375 -1.703125q0 -0.609375 0.28125 -1.109375q0.28125 -0.515625 0.71875 -0.8125q0.453125 -0.3125 1.015625 -0.46875q0.421875 -0.109375 1.25 -0.203125q1.703125 -0.203125 2.515625 -0.484375q0 -0.296875 0 -0.375q0 -0.859375 -0.390625 -1.203125q-0.546875 -0.484375 -1.609375 -0.484375q-0.984375 0 -1.46875 0.359375q-0.46875 0.34375 -0.6875 1.21875l-1.375 -0.1875q0.1875 -0.875 0.609375 -1.421875q0.4375 -0.546875 1.25 -0.828125q0.8125 -0.296875 1.875 -0.296875q1.0625 0 1.71875 0.25q0.671875 0.25 0.984375 0.625q0.3125 0.375 0.4375 0.953125q0.078125 0.359375 0.078125 1.296875l0 1.875q0 1.96875 0.078125 2.484375q0.09375 0.515625 0.359375 1.0l-1.46875 0q-0.21875 -0.4375 -0.28125 -1.03125zm-0.109375 -3.140625q-0.765625 0.3125 -2.296875 0.53125q-0.875 0.125 -1.234375 0.28125q-0.359375 0.15625 -0.5625 0.46875q-0.1875 0.296875 -0.1875 0.65625q0 0.5625 0.421875 0.9375q0.4375 0.375 1.25 0.375q0.8125 0 1.4375 -0.34375q0.640625 -0.359375 0.9375 -0.984375q0.234375 -0.46875 0.234375 -1.40625l0 -0.515625zm8.9765625 4.171875l0 -1.046875q-0.78125 1.234375 -2.3125 1.234375q-1.0 0 -1.828125 -0.546875q-0.828125 -0.546875 -1.296875 -1.53125q-0.453125 -0.984375 -0.453125 -2.25q0 -1.25 0.40625 -2.25q0.421875 -1.015625 1.25 -1.546875q0.828125 -0.546875 1.859375 -0.546875q0.75 0 1.328125 0.3125q0.59375 0.3125 0.953125 0.828125l0 -4.109375l1.40625 0l0 11.453125l-1.3125 0zm-4.4375 -4.140625q0 1.59375 0.671875 2.390625q0.671875 0.78125 1.578125 0.78125q0.921875 0 1.5625 -0.75q0.65625 -0.765625 0.65625 -2.3125q0 -1.703125 -0.65625 -2.5q-0.65625 -0.796875 -1.625 -0.796875q-0.9375 0 -1.5625 0.765625q-0.625 0.765625 -0.625 2.421875zm11.671875 4.140625l0 -1.40625l5.859375 -7.34375q0.625 -0.78125 1.1875 -1.359375l-6.390625 0l0 -1.34375l8.203125 0l0 1.34375l-6.421875 7.953125l-0.703125 0.796875l7.3125 0l0 1.359375l-9.046875 0z" fill-rule="nonzero"/><path fill="#000000" fill-opacity="0.0" d="m428.45117 31.833168l0 0c-11.7664795 -8.233206 -31.697876 -11.400497 -49.558258 -7.8752823c-17.860352 3.5252151 -29.680054 12.959427 -29.389008 23.457619c0.29104614 10.498188 12.628174 19.72705 30.675537 22.947021c18.047363 3.2199707 37.793793 -0.28461456 49.098328 -8.7139435l-35.5271 -14.609211z" fill-rule="evenodd"/><path fill="#000000" fill-opacity="0.0" d="m428.45117 31.833168l0 0c-11.7664795 -8.233206 -31.697876 -11.400497 -49.558258 -7.8752823c-17.860352 3.5252151 -29.680054 12.959427 -29.389008 23.457619c0.29104614 10.498188 12.628174 19.72705 30.675537 22.947021c18.047363 3.2199707 37.793793 -0.28461456 49.098328 -8.7139435" fill-rule="evenodd"/><path stroke="#6aa84f" stroke-width="2.0" stroke-linejoin="round" stroke-linecap="butt" d="m428.4512 31.833166l0 0c-11.766541 -8.233206 -31.697906 -11.400496 -49.55829 -7.8752823c-17.860352 3.525217 -29.680084 12.959429 -29.389008 23.45762c0.29104614 10.498188 12.628174 19.72705 30.675507 22.947021c9.023682 1.6099854 18.472168 1.538826 27.077728 0.011512756c4.302826 -0.7636566 8.394897 -1.8913574 12.117828 -3.3549728c1.8614502 -0.7318115 3.6306152 -1.5475998 5.287689 -2.4438477l0.45516968 -0.25108337" fill-rule="evenodd"/><path fill="#6aa84f" stroke="#6aa84f" stroke-width="2.0" stroke-linecap="butt" d="m425.11783 64.324135l-0.34732056 1.5993347l2.0481567 -2.6932716l-3.300171 0.7466316z" fill-rule="evenodd"/><path fill="#000000" fill-opacity="0.0" d="m195.98688 228.08661l76.0 0l0 37.606293l-76.0 0z" fill-rule="evenodd"/><path fill="#000000" d="m209.01813 252.74976l0 -11.453125l5.078125 0q1.53125 0 2.328125 0.3125q0.796875 0.296875 1.265625 1.078125q0.484375 0.78125 0.484375 1.734375q0 1.21875 -0.796875 2.0625q-0.78125 0.828125 -2.4375 1.046875q0.609375 0.296875 0.921875 0.578125q0.65625 0.609375 1.25 1.515625l2.0 3.125l-1.90625 0l-1.515625 -2.390625q-0.671875 -1.03125 -1.109375 -1.578125q-0.421875 -0.546875 -0.765625 -0.765625q-0.328125 -0.21875 -0.6875 -0.296875q-0.25 -0.0625 -0.84375 -0.0625l-1.75 0l0 5.09375l-1.515625 0zm1.515625 -6.40625l3.25 0q1.046875 0 1.625 -0.203125q0.59375 -0.21875 0.890625 -0.6875q0.3125 -0.484375 0.3125 -1.03125q0 -0.8125 -0.59375 -1.328125q-0.59375 -0.53125 -1.859375 -0.53125l-3.625 0l0 3.78125zm15.5078125 3.734375l1.453125 0.171875q-0.34375 1.28125 -1.28125 1.984375q-0.921875 0.703125 -2.359375 0.703125q-1.828125 0 -2.890625 -1.125q-1.0625 -1.125 -1.0625 -3.140625q0 -2.09375 1.078125 -3.25q1.078125 -1.15625 2.796875 -1.15625q1.65625 0 2.703125 1.140625q1.0625 1.125 1.0625 3.171875q0 0.125 0 0.375l-6.1875 0q0.078125 1.375 0.765625 2.109375q0.703125 0.71875 1.734375 0.71875q0.78125 0 1.328125 -0.40625q0.546875 -0.40625 0.859375 -1.296875zm-4.609375 -2.28125l4.625 0q-0.09375 -1.046875 -0.53125 -1.5625q-0.671875 -0.8125 -1.734375 -0.8125q-0.96875 0 -1.640625 0.65625q-0.65625 0.640625 -0.71875 1.71875zm13.2421875 3.921875q-0.78125 0.671875 -1.5 0.953125q-0.71875 0.265625 -1.546875 0.265625q-1.375 0 -2.109375 -0.671875q-0.734375 -0.671875 -0.734375 -1.703125q0 -0.609375 0.28125 -1.109375q0.28125 -0.515625 0.71875 -0.8125q0.453125 -0.3125 1.015625 -0.46875q0.421875 -0.109375 1.25 -0.203125q1.703125 -0.203125 2.515625 -0.484375q0 -0.296875 0 -0.375q0 -0.859375 -0.390625 -1.203125q-0.546875 -0.484375 -1.609375 -0.484375q-0.984375 0 -1.46875 0.359375q-0.46875 0.34375 -0.6875 1.21875l-1.375 -0.1875q0.1875 -0.875 0.609375 -1.421875q0.4375 -0.546875 1.25 -0.828125q0.8125 -0.296875 1.875 -0.296875q1.0625 0 1.71875 0.25q0.671875 0.25 0.984375 0.625q0.3125 0.375 0.4375 0.953125q0.078125 0.359375 0.078125 1.296875l0 1.875q0 1.96875 0.078125 2.484375q0.09375 0.515625 0.359375 1.0l-1.46875 0q-0.21875 -0.4375 -0.28125 -1.03125zm-0.109375 -3.140625q-0.765625 0.3125 -2.296875 0.53125q-0.875 0.125 -1.234375 0.28125q-0.359375 0.15625 -0.5625 0.46875q-0.1875 0.296875 -0.1875 0.65625q0 0.5625 0.421875 0.9375q0.4375 0.375 1.25 0.375q0.8125 0 1.4375 -0.34375q0.640625 -0.359375 0.9375 -0.984375q0.234375 -0.46875 0.234375 -1.40625l0 -0.515625zm8.9765625 4.171875l0 -1.046875q-0.78125 1.234375 -2.3125 1.234375q-1.0 0 -1.828125 -0.546875q-0.828125 -0.546875 -1.296875 -1.53125q-0.453125 -0.984375 -0.453125 -2.25q0 -1.25 0.40625 -2.25q0.421875 -1.015625 1.25 -1.546875q0.828125 -0.546875 1.859375 -0.546875q0.75 0 1.328125 0.3125q0.59375 0.3125 0.953125 0.828125l0 -4.109375l1.40625 0l0 11.453125l-1.3125 0zm-4.4375 -4.140625q0 1.59375 0.671875 2.390625q0.671875 0.78125 1.578125 0.78125q0.921875 0 1.5625 -0.75q0.65625 -0.765625 0.65625 -2.3125q0 -1.703125 -0.65625 -2.5q-0.65625 -0.796875 -1.625 -0.796875q-0.9375 0 -1.5625 0.765625q-0.625 0.765625 -0.625 2.421875zm11.671875 4.140625l0 -1.40625l5.859375 -7.34375q0.625 -0.78125 1.1875 -1.359375l-6.390625 0l0 -1.34375l8.203125 0l0 1.34375l-6.421875 7.953125l-0.703125 0.796875l7.3125 0l0 1.359375l-9.046875 0z" fill-rule="nonzero"/><path fill="#000000" fill-opacity="0.0" d="m201.21672 241.3962l0 0c-16.262054 -9.923019 -15.11377 -25.239029 2.577652 -34.38153c17.691422 -9.142487 45.364136 -8.720459 62.119965 0.94740295c16.755829 9.667847 16.379913 24.995636 -0.84384155 34.407974l-31.083618 -17.440903z" fill-rule="evenodd"/><path fill="#000000" fill-opacity="0.0" d="m201.21672 241.3962l0 0c-16.262054 -9.923019 -15.11377 -25.239029 2.577652 -34.38153c17.691422 -9.142487 45.364136 -8.720459 62.119965 0.94740295c16.755829 9.667847 16.379913 24.995636 -0.84384155 34.407974" fill-rule="evenodd"/><path stroke="#6aa84f" stroke-width="2.0" stroke-linejoin="round" stroke-linecap="butt" d="m201.21672 241.39621l0 0c-16.262054 -9.923035 -15.113785 -25.239044 2.577652 -34.381546c17.691422 -9.142487 45.364136 -8.720459 62.119965 0.94740295c8.377899 4.8339233 12.4729 11.08284 12.320435 17.299805c-0.07623291 3.1084747 -1.214325 6.2089844 -3.409851 9.120636c-1.0977783 1.4558258 -2.4599 2.864441 -4.0858154 4.203232c-0.40646362 0.33470154 -0.82943726 0.6650238 -1.2688904 0.99064636l-0.21490479 0.15716553" fill-rule="evenodd"/><path fill="#6aa84f" stroke="#6aa84f" stroke-width="2.0" stroke-linecap="butt" d="m269.2553 239.73357l0.36227417 -1.5960083l-2.0733032 2.6739655l3.3070374 -0.715683z" fill-rule="evenodd"/><path fill="#000000" fill-opacity="0.0" d="m55.73491 76.00787l28.913383 0l0 25.007874l-28.913383 0z" fill-rule="evenodd"/><path fill="#000000" d="m71.569176 93.59181l-1.28125 0l0 -8.203125q-0.46875 0.4375 -1.21875 0.890625q-0.75 0.4375 -1.359375 0.65625l0 -1.25q1.078125 -0.5 1.890625 -1.21875q0.8125 -0.734375 1.140625 -1.40625l0.828125 0l0 10.53125z" fill-rule="nonzero"/><path fill="#000000" fill-opacity="0.0" d="m379.29398 76.00787l28.91336 0l0 25.007874l-28.91336 0z" fill-rule="evenodd"/><path fill="#000000" d="m395.12823 93.59181l-1.28125 0l0 -8.203125q-0.46875 0.4375 -1.21875 0.890625q-0.75 0.4375 -1.359375 0.65625l0 -1.25q1.078125 -0.5 1.890625 -1.21875q0.8125 -0.734375 1.140625 -1.40625l0.828125 0l0 10.53125z" fill-rule="nonzero"/><path fill="#000000" fill-opacity="0.0" d="m283.48294 212.4252l28.913391 0l0 25.007874l-28.913391 0z" fill-rule="evenodd"/><path fill="#000000" d="m299.3172 230.00914l-1.28125 0l0 -8.203125q-0.46875 0.4375 -1.21875 0.890625q-0.75 0.4375 -1.359375 0.65625l0 -1.25q1.078125 -0.5 1.890625 -1.21875q0.8125 -0.734375 1.140625 -1.40625l0.828125 0l0 10.53125z" fill-rule="nonzero"/></g></svg>
