<svg version="1.1" viewBox="0.0 0.0 470.0 270.0" fill="none" stroke="none" stroke-linecap="square" stroke-miterlimit="10" xmlns:xlink="http://www.w3.org/1999/xlink" xmlns="http://www.w3.org/2000/svg"><clipPath id="p.0"><path d="m0 0l800.0 0l0 600.0l-800.0 0l0 -600.0z" clip-rule="nonzero"/></clipPath><g clip-path="url(#p.0)"><path fill="#000000" fill-opacity="0.0" d="m0 0l800.0 0l0 600.0l-800.0 0z" fill-rule="evenodd"/><path fill="#efefef" d="m118.4895 47.007874l0 0c0 -12.150265 9.849731 -22.0 22.0 -22.0l0 0c5.8347626 0 11.430542 2.31785 15.556351 6.443651c4.1257935 4.125799 6.4436493 9.721586 6.4436493 15.556349l0 0c0 12.150265 -9.849731 22.0 -22.0 22.0l0 0c-12.150269 0 -22.0 -9.849735 -22.0 -22.0z" fill-rule="evenodd"/><path stroke="#000000" stroke-width="1.0" stroke-linejoin="round" stroke-linecap="butt" d="m118.4895 47.007874l0 0c0 -12.150265 9.849731 -22.0 22.0 -22.0l0 0c5.8347626 0 11.430542 2.31785 15.556351 6.443651c4.1257935 4.125799 6.4436493 9.721586 6.4436493 15.556349l0 0c0 12.150265 -9.849731 22.0 -22.0 22.0l0 0c-12.150269 0 -22.0 -9.849735 -22.0 -22.0z" fill-rule="evenodd"/><path fill="#000000" d="m142.25476 53.92787l-1.640625 0l0 -10.453125q-0.59375 0.5625 -1.5625 1.140625q-0.953125 0.5625 -1.71875 0.84375l0 -1.59375q1.375 -0.640625 2.40625 -1.5625q1.03125 -0.921875 1.453125 -1.78125l1.0625 0l0 13.40625z" fill-rule="nonzero"/><path fill="#efefef" d="m305.4895 47.007874l0 0c0 -12.150265 9.849731 -22.0 22.0 -22.0l0 0c5.8347473 0 11.430542 2.31785 15.556335 6.443651c4.125824 4.125799 6.4436646 9.721586 6.4436646 15.556349l0 0c0 12.150265 -9.849731 22.0 -22.0 22.0l0 0c-12.150269 0 -22.0 -9.849735 -22.0 -22.0z" fill-rule="evenodd"/><path stroke="#000000" stroke-width="1.0" stroke-linejoin="round" stroke-linecap="butt" d="m305.4895 47.007874l0 0c0 -12.150265 9.849731 -22.0 22.0 -22.0l0 0c5.8347473 0 11.430542 2.31785 15.556335 6.443651c4.125824 4.125799 6.4436646 9.721586 6.4436646 15.556349l0 0c0 12.150265 -9.849731 22.0 -22.0 22.0l0 0c-12.150269 0 -22.0 -9.849735 -22.0 -22.0z" fill-rule="evenodd"/><path fill="#000000" d="m331.69226 52.349747l0 1.578125l-8.828125 0q-0.015625 -0.59375 0.1875 -1.140625q0.34375 -0.90625 1.078125 -1.78125q0.75 -0.875 2.15625 -2.015625q2.171875 -1.78125 2.9375 -2.828125q0.765625 -1.046875 0.765625 -1.96875q0 -0.984375 -0.703125 -1.640625q-0.6875 -0.671875 -1.8125 -0.671875q-1.1875 0 -1.90625 0.71875q-0.703125 0.703125 -0.703125 1.953125l-1.6875 -0.171875q0.171875 -1.890625 1.296875 -2.875q1.140625 -0.984375 3.03125 -0.984375q1.921875 0 3.046875 1.0625q1.125 1.0625 1.125 2.640625q0 0.796875 -0.328125 1.578125q-0.328125 0.78125 -1.09375 1.640625q-0.75 0.84375 -2.53125 2.34375q-1.46875 1.234375 -1.890625 1.6875q-0.421875 0.4375 -0.6875 0.875l6.546875 0z" fill-rule="nonzero"/><path fill="#efefef" d="m211.98557 178.47507l0 0c0 -12.150269 9.849731 -22.0 22.0 -22.0l0 0c5.8347626 0 11.430542 2.3178558 15.556351 6.4436493c4.1257935 4.1257935 6.4436493 9.721588 6.4436493 15.556351l0 0c0 12.150269 -9.849731 22.0 -22.0 22.0l0 0c-12.150269 0 -22.0 -9.849731 -22.0 -22.0z" fill-rule="evenodd"/><path stroke="#000000" stroke-width="1.0" stroke-linejoin="round" stroke-linecap="butt" d="m211.98557 178.47507l0 0c0 -12.150269 9.849731 -22.0 22.0 -22.0l0 0c5.8347626 0 11.430542 2.3178558 15.556351 6.4436493c4.1257935 4.1257935 6.4436493 9.721588 6.4436493 15.556351l0 0c0 12.150269 -9.849731 22.0 -22.0 22.0l0 0c-12.150269 0 -22.0 -9.849731 -22.0 -22.0z" fill-rule="evenodd"/><path fill="#000000" d="m229.57895 181.86382l1.640625 -0.21875q0.28125 1.40625 0.953125 2.015625q0.6875 0.609375 1.65625 0.609375q1.15625 0 1.953125 -0.796875q0.796875 -0.796875 0.796875 -1.984375q0 -1.125 -0.734375 -1.859375q-0.734375 -0.734375 -1.875 -0.734375q-0.46875 0 -1.15625 0.171875l0.1875 -1.4375q0.15625 0.015625 0.265625 0.015625q1.046875 0 1.875 -0.546875q0.84375 -0.546875 0.84375 -1.671875q0 -0.90625 -0.609375 -1.5q-0.609375 -0.59375 -1.578125 -0.59375q-0.953125 0 -1.59375 0.609375q-0.640625 0.59375 -0.8125 1.796875l-1.640625 -0.296875q0.296875 -1.640625 1.359375 -2.546875q1.0625 -0.90625 2.65625 -0.90625q1.09375 0 2.0 0.46875q0.921875 0.46875 1.40625 1.28125q0.5 0.8125 0.5 1.71875q0 0.859375 -0.46875 1.578125q-0.46875 0.703125 -1.375 1.125q1.1875 0.28125 1.84375 1.140625q0.65625 0.859375 0.65625 2.15625q0 1.734375 -1.28125 2.953125q-1.265625 1.21875 -3.21875 1.21875q-1.765625 0 -2.921875 -1.046875q-1.15625 -1.046875 -1.328125 -2.71875z" fill-rule="nonzero"/><path fill="#000000" fill-opacity="0.0" d="m140.4895 69.00787c0 54.740158 35.74803 109.480316 71.49606 109.480316" fill-rule="evenodd"/><path stroke="#000000" stroke-width="1.0" stroke-linejoin="round" stroke-linecap="butt" d="m140.5373 72.43463l0.010665894 0.42145538c0.012939453 0.42742157 0.027999878 0.85476685 0.045181274 1.2820053c0.068725586 1.7089615 0.1712799 3.4162445 0.30656433 5.1201935c0.2705536 3.407898 0.6720123 6.802429 1.1956635 10.170235c1.0473022 6.7356033 2.5833588 13.364296 4.53833 19.77916c3.9099426 12.82972 9.495575 24.80413 16.198318 35.06791c6.702759 10.263779 14.522644 18.816925 22.901093 24.804138c4.1892242 2.9936066 8.518082 5.3457184 12.916763 6.9494324c2.1993256 0.80184937 4.4161377 1.416626 6.641678 1.8309174c0.55636597 0.1035614 1.1132812 0.1946106 1.670639 0.2729187c0.27867126 0.039138794 0.5574341 0.07511902 0.83628845 0.10787964c0.13943481 0.01638794 0.27886963 0.031951904 0.41835022 0.04673767l0.3456726 0.034591675" fill-rule="evenodd"/><path fill="#000000" stroke="#000000" stroke-width="1.0" stroke-linecap="butt" d="m140.53731 72.43462l1.140152 1.1087952l-1.167572 -3.0737839l-1.0813751 3.105156z" fill-rule="evenodd"/><path fill="#000000" stroke="#000000" stroke-width="1.0" stroke-linecap="butt" d="m208.5625 178.3222l-1.1777344 1.0687866l3.1406097 -0.9736023l-3.0316772 -1.2729187z" fill-rule="evenodd"/><path fill="#000000" fill-opacity="0.0" d="m255.98557 178.47507c35.748016 0 71.49606 -54.740158 71.49606 -109.480316" fill-rule="evenodd"/><path stroke="#000000" stroke-width="1.0" stroke-linejoin="round" stroke-linecap="butt" d="m259.40863 178.30908l0.3456726 -0.034591675c0.13946533 -0.014785767 0.27893066 -0.030349731 0.41836548 -0.04673767c0.2788391 -0.03277588 0.5576172 -0.068740845 0.8362732 -0.10787964c0.5573425 -0.078308105 1.1142883 -0.1693573 1.6706543 -0.2729187c2.225525 -0.41429138 4.442322 -1.029068 6.6416626 -1.8309174c4.3986816 -1.603714 8.727539 -3.955841 12.916779 -6.9494324c8.378418 -5.987213 16.198303 -14.5403595 22.901062 -24.804138c6.702759 -10.263779 12.288391 -22.23819 16.198334 -35.06791c1.9549866 -6.4148636 3.4910278 -13.043556 4.53833 -19.77916c0.5236511 -3.3678055 0.92510986 -6.7623367 1.1956787 -10.170235c0.13528442 -1.703949 0.23782349 -3.411232 0.30654907 -5.1201935c0.017181396 -0.42723846 0.03225708 -0.85458374 0.045166016 -1.2820053l0.010681152 -0.42145538" fill-rule="evenodd"/><path fill="#000000" stroke="#000000" stroke-width="1.0" stroke-linecap="butt" d="m259.40863 178.30908l1.0687866 -1.1777344l-3.0316772 1.2729187l3.140625 0.9736023z" fill-rule="evenodd"/><path fill="#000000" stroke="#000000" stroke-width="1.0" stroke-linecap="butt" d="m327.43384 72.4215l1.1087646 1.1401596l-1.0813599 -3.1051483l-1.167572 3.0737762z" fill-rule="evenodd"/><path fill="#000000" fill-opacity="0.0" d="m305.4895 47.007874c-35.750183 0 -53.626343 0.01574707 -71.50035 0.031497955c-17.874023 0.01574707 -35.745895 0.03149414 -71.491776 0.03149414" fill-rule="evenodd"/><path stroke="#000000" stroke-width="1.0" stroke-linejoin="round" stroke-linecap="butt" d="m302.0624 47.008263l-20.313416 0.002319336c-6.9825134 0.0017204285 -13.127197 0.004180908 -18.713226 0.007133484c-11.172058 0.0059051514 -20.109604 0.013782501 -29.046616 0.021656036c-8.937012 0.007873535 -17.873474 0.01574707 -29.043945 0.021652222c-5.5852203 0.0029525757 -11.728943 0.0054130554 -18.71048 0.0071372986l-20.310272 0.0023155212" fill-rule="evenodd"/><path fill="#000000" stroke="#000000" stroke-width="1.0" stroke-linecap="butt" d="m302.0624 47.008266l-1.1244507 1.1247101l3.0896301 -1.1249352l-3.0898743 -1.1242332z" fill-rule="evenodd"/><path fill="#000000" stroke="#000000" stroke-width="1.0" stroke-linecap="butt" d="m165.92447 47.070477l1.1244507 -1.1247139l-3.0896454 1.1249352l3.0899048 1.1242332z" fill-rule="evenodd"/><path fill="#000000" fill-opacity="0.0" d="m96.4895 0l61.007874 0l0 25.007874l-61.007874 0z" fill-rule="evenodd"/><path fill="#000000" d="m105.802 18.363937l0 -1.140625l5.28125 -6.0625q-0.890625 0.046875 -1.578125 0.046875l-3.390625 0l0 -1.140625l6.78125 0l0 0.921875l-4.484375 5.265625l-0.875 0.96875q0.953125 -0.078125 1.78125 -0.078125l3.828125 0l0 1.21875l-7.34375 0zm16.140625 -6.734375l-7.5625 0l0 -1.3125l7.5625 0l0 1.3125zm0 3.46875l-7.5625 0l0 -1.3125l7.5625 0l0 1.3125zm8.953125 1.90625l0 1.359375l-7.578125 0q-0.015625 -0.515625 0.171875 -0.984375q0.28125 -0.765625 0.921875 -1.515625q0.640625 -0.75 1.84375 -1.734375q1.859375 -1.53125 2.515625 -2.421875q0.65625 -0.90625 0.65625 -1.703125q0 -0.828125 -0.59375 -1.40625q-0.59375 -0.578125 -1.5625 -0.578125q-1.015625 0 -1.625 0.609375q-0.609375 0.609375 -0.609375 1.6875l-1.453125 -0.140625q0.15625 -1.625 1.125 -2.46875q0.96875 -0.84375 2.59375 -0.84375q1.65625 0 2.609375 0.921875q0.96875 0.90625 0.96875 2.25q0 0.6875 -0.28125 1.359375q-0.28125 0.65625 -0.9375 1.390625q-0.65625 0.734375 -2.171875 2.015625q-1.265625 1.0625 -1.625 1.453125q-0.359375 0.375 -0.59375 0.75l5.625 0z" fill-rule="nonzero"/><path fill="#000000" fill-opacity="0.0" d="m283.48163 0.07611549l61.007874 0l0 25.007875l-61.007874 0z" fill-rule="evenodd"/><path fill="#000000" d="m292.79413 18.440052l0 -1.140625l5.28125 -6.062499q-0.890625 0.046875 -1.578125 0.046875l-3.390625 0l0 -1.140625l6.78125 0l0 0.921875l-4.484375 5.265624l-0.875 0.96875q0.953125 -0.078125 1.78125 -0.078125l3.828125 0l0 1.21875l-7.34375 0zm16.140625 -6.734374l-7.5625 0l0 -1.3125l7.5625 0l0 1.3125zm0 3.46875l-7.5625 0l0 -1.3125l7.5625 0l0 1.3125zm6.859375 3.265624l-1.40625 0l0 -8.968749q-0.515625 0.484375 -1.34375 0.96875q-0.8125 0.484375 -1.46875 0.734375l0 -1.359375q1.171875 -0.5625 2.046875 -1.34375q0.890625 -0.796875 1.265625 -1.53125l0.90625 0l0 11.499999z" fill-rule="nonzero"/><path fill="#000000" fill-opacity="0.0" d="m255.98557 186.10498l61.007874 0l0 25.007874l-61.007874 0z" fill-rule="evenodd"/><path fill="#000000" d="m265.29807 204.46892l0 -1.140625l5.28125 -6.0625q-0.890625 0.046875 -1.578125 0.046875l-3.390625 0l0 -1.140625l6.78125 0l0 0.921875l-4.484375 5.265625l-0.875 0.96875q0.953125 -0.078125 1.78125 -0.078125l3.828125 0l0 1.21875l-7.34375 0zm16.140625 -6.734375l-7.5625 0l0 -1.3125l7.5625 0l0 1.3125zm0 3.46875l-7.5625 0l0 -1.3125l7.5625 0l0 1.3125zm6.859375 3.265625l-1.40625 0l0 -8.96875q-0.515625 0.484375 -1.34375 0.96875q-0.8125 0.484375 -1.46875 0.734375l0 -1.359375q1.171875 -0.5625 2.046875 -1.34375q0.890625 -0.796875 1.265625 -1.53125l0.90625 0l0 11.5z" fill-rule="nonzero"/><path fill="#000000" fill-opacity="0.0" d="m0 28.236221l96.50394 0l0 37.6063l-96.50394 0z" fill-rule="evenodd"/><path fill="#000000" d="m16.591812 52.89937l-3.03125 -11.453125l1.546875 0l1.75 7.5q0.28125 1.1875 0.484375 2.34375q0.4375 -1.828125 0.515625 -2.109375l2.171875 -7.734375l1.828125 0l1.640625 5.796875q0.625 2.15625 0.890625 4.046875q0.21875 -1.078125 0.578125 -2.484375l1.796875 -7.359375l1.515625 0l-3.140625 11.453125l-1.453125 0l-2.421875 -8.734375q-0.296875 -1.09375 -0.359375 -1.34375q-0.171875 0.796875 -0.328125 1.34375l-2.4375 8.734375l-1.546875 0zm12.9140625 0l0 -8.296875l1.265625 0l0 1.25q0.484375 -0.875 0.890625 -1.15625q0.40625 -0.28125 0.90625 -0.28125q0.703125 0 1.4375 0.453125l-0.484375 1.296875q-0.515625 -0.296875 -1.03125 -0.296875q-0.453125 0 -0.828125 0.28125q-0.359375 0.265625 -0.515625 0.765625q-0.234375 0.75 -0.234375 1.640625l0 4.34375l-1.40625 0zm5.34375 -9.84375l0 -1.609375l1.40625 0l0 1.609375l-1.40625 0zm0 9.84375l0 -8.296875l1.40625 0l0 8.296875l-1.40625 0zm6.6171875 -1.265625l0.203125 1.25q-0.59375 0.125 -1.0625 0.125q-0.765625 0 -1.1875 -0.234375q-0.421875 -0.25 -0.59375 -0.640625q-0.171875 -0.40625 -0.171875 -1.671875l0 -4.765625l-1.03125 0l0 -1.09375l1.03125 0l0 -2.0625l1.40625 -0.84375l0 2.90625l1.40625 0l0 1.09375l-1.40625 0l0 4.84375q0 0.609375 0.0625 0.78125q0.078125 0.171875 0.25 0.28125q0.171875 0.09375 0.484375 0.09375q0.234375 0 0.609375 -0.0625zm7.0546875 -1.40625l1.453125 0.171875q-0.34375 1.28125 -1.28125 1.984375q-0.921875 0.703125 -2.359375 0.703125q-1.828125 0 -2.890625 -1.125q-1.0625 -1.125 -1.0625 -3.140625q0 -2.09375 1.078125 -3.25q1.078125 -1.15625 2.796875 -1.15625q1.65625 0 2.703125 1.140625q1.0625 1.125 1.0625 3.171875q0 0.125 0 0.375l-6.1875 0q0.078125 1.375 0.765625 2.109375q0.703125 0.71875 1.734375 0.71875q0.78125 0 1.328125 -0.40625q0.546875 -0.40625 0.859375 -1.296875zm-4.609375 -2.28125l4.625 0q-0.09375 -1.046875 -0.53125 -1.5625q-0.671875 -0.8125 -1.734375 -0.8125q-0.96875 0 -1.640625 0.65625q-0.65625 0.640625 -0.71875 1.71875zm11.546875 4.953125l0 -1.40625l5.859375 -7.34375q0.625 -0.78125 1.1875 -1.359375l-6.390625 0l0 -1.34375l8.203125 0l0 1.34375l-6.421875 7.953125l-0.703125 0.796875l7.3125 0l0 1.359375l-9.046875 0zm17.898438 -6.734375l-7.5625 0l0 -1.3125l7.5625 0l0 1.3125zm0 3.46875l-7.5625 0l0 -1.3125l7.5625 0l0 1.3125zm8.953125 1.90625l0 1.359375l-7.578125 0q-0.015625 -0.515625 0.171875 -0.984375q0.28125 -0.765625 0.921875 -1.515625q0.640625 -0.75 1.84375 -1.734375q1.859375 -1.53125 2.515625 -2.421875q0.65625 -0.90625 0.65625 -1.703125q0 -0.828125 -0.59375 -1.40625q-0.59375 -0.578125 -1.5625 -0.578125q-1.015625 0 -1.625 0.609375q-0.609375 0.609375 -0.609375 1.6875l-1.453125 -0.140625q0.15625 -1.625 1.125 -2.46875q0.96875 -0.84375 2.59375 -0.84375q1.65625 0 2.609375 0.921875q0.96875 0.90625 0.96875 2.25q0 0.6875 -0.28125 1.359375q-0.28125 0.65625 -0.9375 1.390625q-0.65625 0.734375 -2.171875 2.015625q-1.265625 1.0625 -1.625 1.453125q-0.359375 0.375 -0.59375 0.75l5.625 0z" fill-rule="nonzero"/><path fill="#000000" fill-opacity="0.0" d="m39.538322 31.833168l0 0c11.167538 -7.814104 29.768585 -11.10511 47.049522 -8.324276c17.280945 2.7808342 29.799576 11.07959 31.664665 20.990894l-44.013664 2.539585z" fill-rule="evenodd"/><path fill="#000000" fill-opacity="0.0" d="m39.538322 31.833168l0 0c11.167538 -7.814104 29.768585 -11.10511 47.049522 -8.324276c17.280945 2.7808342 29.799576 11.07959 31.664665 20.990894" fill-rule="evenodd"/><path stroke="#6aa84f" stroke-width="2.0" stroke-linejoin="round" stroke-linecap="butt" d="m39.538322 31.833166l0 0c11.167534 -7.814102 29.768585 -11.105108 47.049522 -8.324274c8.640472 1.3904171 16.090363 4.1603146 21.613281 7.8215218c2.7614517 1.8306007 5.0411606 3.8840332 6.747078 6.09927c0.42647552 0.5538063 0.8171005 1.1177292 1.1704178 1.6908112c0.0883255 0.14326859 0.17432404 0.28710938 0.2579651 0.43151093l0.17094421 0.30485153" fill-rule="evenodd"/><path fill="#6aa84f" stroke="#6aa84f" stroke-width="2.0" stroke-linecap="butt" d="m116.54753 39.856853l-1.4852448 -0.68740463l2.1823502 2.5857353l-0.00969696 -3.3835754z" fill-rule="evenodd"/><path fill="#000000" fill-opacity="0.0" d="m203.48688 22.535433l61.007874 0l0 25.007875l-61.007874 0z" fill-rule="evenodd"/><path fill="#cc0000" d="m212.79938 40.899372l0 -1.140625l5.28125 -6.0625q-0.890625 0.046875 -1.578125 0.046875l-3.390625 0l0 -1.140625l6.78125 0l0 0.921875l-4.484375 5.265625l-0.875 0.96875q0.953125 -0.078125 1.78125 -0.078125l3.828125 0l0 1.21875l-7.34375 0zm16.140625 -6.734375l-7.5625 0l0 -1.3125l7.5625 0l0 1.3125zm0 3.46875l-7.5625 0l0 -1.3125l7.5625 0l0 1.3125zm8.953125 1.90625l0 1.359375l-7.578125 0q-0.015625 -0.515625 0.171875 -0.984375q0.28125 -0.765625 0.921875 -1.515625q0.640625 -0.75 1.84375 -1.734375q1.859375 -1.53125 2.515625 -2.421875q0.65625 -0.90625 0.65625 -1.703125q0 -0.8281269 -0.59375 -1.4062519q-0.59375 -0.578125 -1.5625 -0.578125q-1.015625 0 -1.625 0.609375q-0.609375 0.609375 -0.609375 1.6875019l-1.453125 -0.140625q0.15625 -1.6250019 1.125 -2.468752q0.96875 -0.84375 2.59375 -0.84375q1.65625 0 2.609375 0.921875q0.96875 0.90625 0.96875 2.250002q0 0.6875 -0.28125 1.359375q-0.28125 0.65625 -0.9375 1.390625q-0.65625 0.734375 -2.171875 2.015625q-1.265625 1.0625 -1.625 1.453125q-0.359375 0.375 -0.59375 0.75l5.625 0z" fill-rule="nonzero"/><path fill="#000000" fill-opacity="0.0" d="m150.979 111.23097l61.007874 0l0 25.007874l-61.007874 0z" fill-rule="evenodd"/><path fill="#cc0000" d="m160.2915 129.59491l0 -1.140625l5.28125 -6.0625q-0.890625 0.046875 -1.578125 0.046875l-3.390625 0l0 -1.140625l6.78125 0l0 0.921875l-4.484375 5.265625l-0.875 0.96875q0.953125 -0.078125 1.78125 -0.078125l3.828125 0l0 1.21875l-7.34375 0zm16.140625 -6.734375l-7.5625 0l0 -1.3125l7.5625 0l0 1.3125zm0 3.46875l-7.5625 0l0 -1.3125l7.5625 0l0 1.3125zm8.953125 1.90625l0 1.359375l-7.578125 0q-0.015625 -0.515625 0.171875 -0.984375q0.28125 -0.765625 0.921875 -1.515625q0.640625 -0.75 1.84375 -1.734375q1.859375 -1.53125 2.515625 -2.421875q0.65625 -0.90625 0.65625 -1.703125q0 -0.828125 -0.59375 -1.40625q-0.59375 -0.578125 -1.5625 -0.578125q-1.015625 0 -1.625 0.609375q-0.609375 0.609375 -0.609375 1.6875l-1.453125 -0.140625q0.15625 -1.625 1.125 -2.46875q0.96875 -0.84375 2.59375 -0.84375q1.65625 0 2.609375 0.921875q0.96875 0.90625 0.96875 2.25q0 0.6875 -0.28125 1.359375q-0.28125 0.65625 -0.9375 1.390625q-0.65625 0.734375 -2.171875 2.015625q-1.265625 1.0625 -1.625 1.453125q-0.359375 0.375 -0.59375 0.75l5.625 0z" fill-rule="nonzero"/><path fill="#000000" fill-opacity="0.0" d="m247.73228 35.03937l21.511795 0" fill-rule="evenodd"/><path stroke="#000000" stroke-width="1.0" stroke-linejoin="round" stroke-linecap="butt" d="m247.73228 35.03937l15.511795 0" fill-rule="evenodd"/><path fill="#000000" stroke="#000000" stroke-width="1.0" stroke-linecap="butt" d="m263.24408 36.6911l4.5381165 -1.6517296l-4.5381165 -1.6517334z" fill-rule="evenodd"/><path fill="#000000" fill-opacity="0.0" d="m174.49081 136.23885l14.204727 16.97638" fill-rule="evenodd"/><path stroke="#000000" stroke-width="1.0" stroke-linejoin="round" stroke-linecap="butt" d="m174.49081 136.23885l10.354385 12.374756" fill-rule="evenodd"/><path fill="#000000" stroke="#000000" stroke-width="1.0" stroke-linecap="butt" d="m183.57843 149.67355l4.1789703 2.4204865l-1.6454163 -4.54039z" fill-rule="evenodd"/></g></svg>
