<svg version="1.1" viewBox="0.0 0.0 800.0 280.0" fill="none" stroke="none" stroke-linecap="square" stroke-miterlimit="10" xmlns:xlink="http://www.w3.org/1999/xlink" xmlns="http://www.w3.org/2000/svg"><clipPath id="p.0"><path d="m0 0l800.0 0l0 600.0l-800.0 0l0 -600.0z" clip-rule="nonzero"/></clipPath><g clip-path="url(#p.0)"><path fill="#000000" fill-opacity="0.0" d="m0 0l800.0 0l0 600.0l-800.0 0z" fill-rule="evenodd"/><path fill="#efefef" d="m100.414604 39.839172l0 0c0 -10.297348 8.347649 -18.644999 18.644997 -18.644999l0 0c4.9449615 0 9.687393 1.9643784 13.184006 5.460993c3.4966125 3.4966164 5.4609985 8.239044 5.4609985 13.184006l0 0c0 10.297352 -8.347656 18.645 -18.645004 18.645l0 0c-10.297348 0 -18.644997 -8.347649 -18.644997 -18.645z" fill-rule="evenodd"/><path stroke="#000000" stroke-width="1.0" stroke-linejoin="round" stroke-linecap="butt" d="m100.414604 39.839172l0 0c0 -10.297348 8.347649 -18.644999 18.644997 -18.644999l0 0c4.9449615 0 9.687393 1.9643784 13.184006 5.460993c3.4966125 3.4966164 5.4609985 8.239044 5.4609985 13.184006l0 0c0 10.297352 -8.347656 18.645 -18.645004 18.645l0 0c-10.297348 0 -18.644997 -8.347649 -18.644997 -18.645z" fill-rule="evenodd"/><path fill="#000000" d="m120.32211 44.63917l-1.171875 0l0 -7.46875q-0.421875 0.40625 -1.109375 0.8125q-0.6875 0.40625 -1.234375 0.609375l0 -1.140625q0.984375 -0.453125 1.71875 -1.109375q0.734375 -0.671875 1.03125 -1.28125l0.765625 0l0 9.578125z" fill-rule="nonzero"/><path fill="#efefef" d="m258.8971 39.839172l0 0c0 -10.297348 8.347656 -18.644999 18.64502 -18.644999l0 0c4.9449463 0 9.687378 1.9643784 13.1839905 5.460993c3.4966125 3.4966164 5.4609985 8.239044 5.4609985 13.184006l0 0c0 10.297352 -8.347656 18.645 -18.644989 18.645l0 0c-10.297363 0 -18.64502 -8.347649 -18.64502 -18.645z" fill-rule="evenodd"/><path stroke="#000000" stroke-width="1.0" stroke-linejoin="round" stroke-linecap="butt" d="m258.8971 39.839172l0 0c0 -10.297348 8.347656 -18.644999 18.64502 -18.644999l0 0c4.9449463 0 9.687378 1.9643784 13.1839905 5.460993c3.4966125 3.4966164 5.4609985 8.239044 5.4609985 13.184006l0 0c0 10.297352 -8.347656 18.645 -18.644989 18.645l0 0c-10.297363 0 -18.64502 -8.347649 -18.64502 -18.645z" fill-rule="evenodd"/><path fill="#000000" d="m280.539 43.51417l0 1.125l-6.296875 0q-0.015625 -0.421875 0.140625 -0.8125q0.234375 -0.640625 0.765625 -1.265625q0.53125 -0.625 1.53125 -1.453125q1.5625 -1.265625 2.109375 -2.015625q0.546875 -0.75 0.546875 -1.40625q0 -0.703125 -0.5 -1.171875q-0.5 -0.484375 -1.296875 -0.484375q-0.859375 0 -1.375 0.515625q-0.5 0.5 -0.5 1.390625l-1.203125 -0.109375q0.125 -1.359375 0.921875 -2.0625q0.8125 -0.703125 2.171875 -0.703125q1.375 0 2.171875 0.765625q0.8125 0.75 0.8125 1.875q0 0.578125 -0.234375 1.140625q-0.234375 0.546875 -0.78125 1.15625q-0.546875 0.609375 -1.8125 1.671875q-1.046875 0.890625 -1.359375 1.21875q-0.296875 0.3125 -0.484375 0.625l4.671875 0z" fill-rule="nonzero"/><path fill="#efefef" d="m179.65251 151.25761l0 0c0 -10.297348 8.347656 -18.644989 18.645004 -18.644989l0 0c4.9449615 0 9.687393 1.9643707 13.184006 5.4609833c3.4966125 3.4966125 5.4609985 8.239044 5.4609985 13.184006l0 0c0 10.297348 -8.347656 18.645004 -18.645004 18.645004l0 0c-10.297348 0 -18.645004 -8.347656 -18.645004 -18.645004z" fill-rule="evenodd"/><path stroke="#000000" stroke-width="1.0" stroke-linejoin="round" stroke-linecap="butt" d="m179.65251 151.25761l0 0c0 -10.297348 8.347656 -18.644989 18.645004 -18.644989l0 0c4.9449615 0 9.687393 1.9643707 13.184006 5.4609833c3.4966125 3.4966125 5.4609985 8.239044 5.4609985 13.184006l0 0c0 10.297348 -8.347656 18.645004 -18.645004 18.645004l0 0c-10.297348 0 -18.645004 -8.347656 -18.645004 -18.645004z" fill-rule="evenodd"/><path fill="#000000" d="m195.15378 153.54199l1.171875 -0.15625q0.203125 1.0 0.6875 1.4375q0.484375 0.4375 1.171875 0.4375q0.828125 0 1.390625 -0.578125q0.578125 -0.578125 0.578125 -1.421875q0 -0.796875 -0.53125 -1.3125q-0.515625 -0.53125 -1.328125 -0.53125q-0.34375 0 -0.828125 0.125l0.125 -1.03125q0.125 0.015625 0.1875 0.015625q0.75 0 1.34375 -0.390625q0.609375 -0.390625 0.609375 -1.203125q0 -0.640625 -0.4375 -1.0625q-0.4375 -0.421875 -1.125 -0.421875q-0.6875 0 -1.140625 0.4375q-0.453125 0.421875 -0.59375 1.28125l-1.171875 -0.21875q0.21875 -1.171875 0.984375 -1.8125q0.765625 -0.65625 1.890625 -0.65625q0.78125 0 1.4375 0.34375q0.65625 0.328125 1.0 0.90625q0.359375 0.578125 0.359375 1.234375q0 0.609375 -0.34375 1.125q-0.328125 0.5 -0.96875 0.796875q0.84375 0.203125 1.3125 0.828125q0.46875 0.609375 0.46875 1.53125q0 1.25 -0.921875 2.125q-0.90625 0.859375 -2.296875 0.859375q-1.25 0 -2.09375 -0.75q-0.828125 -0.75 -0.9375 -1.9375z" fill-rule="nonzero"/><path fill="#000000" fill-opacity="0.0" d="m119.0596 58.484173c0 46.392284 30.296463 92.78456 60.59291 92.78456" fill-rule="evenodd"/><path stroke="#000000" stroke-width="1.0" stroke-linejoin="round" stroke-linecap="butt" d="m119.11496 61.910812l0.032470703 0.9212227c0.058250427 1.4483452 0.14515686 2.8952675 0.25980377 4.339367c0.22930145 2.8881912 0.56954193 5.7650604 1.0133362 8.61927c0.88759613 5.7084274 2.1893997 11.326241 3.8462372 16.762833c3.313675 10.873192 8.047493 21.0215 13.728081 29.720055c5.680588 8.698547 12.307938 15.947357 19.40866 21.021515c3.5503693 2.5370636 7.2190857 4.530487 10.94696 5.889633c1.8639526 0.6795807 3.742691 1.200592 5.6288147 1.5516968c0.47154236 0.08778381 0.9435425 0.16494751 1.4158783 0.23130798c0.23617554 0.033172607 0.4724121 0.06365967 0.7087555 0.091430664l0.12705994 0.014190674" fill-rule="evenodd"/><path fill="#000000" stroke="#000000" stroke-width="1.0" stroke-linecap="butt" d="m119.11496 61.910816l1.1426086 1.1062698l-1.1743546 -3.0712013l-1.0745239 3.1075325z" fill-rule="evenodd"/><path fill="#000000" stroke="#000000" stroke-width="1.0" stroke-linecap="butt" d="m176.231 151.07333l-1.1868744 1.0586243l3.1488647 -0.946579l-3.0206146 -1.2989197z" fill-rule="evenodd"/><path fill="#000000" fill-opacity="0.0" d="m216.94252 151.25761c30.296448 0 60.59291 -46.39228 60.59291 -92.78456" fill-rule="evenodd"/><path stroke="#000000" stroke-width="1.0" stroke-linejoin="round" stroke-linecap="butt" d="m220.36403 151.06221l0.12704468 -0.014190674c0.23632812 -0.027770996 0.4725952 -0.058258057 0.70877075 -0.091430664c0.47233582 -0.06636047 0.9443207 -0.14352417 1.415863 -0.23130798c1.8861389 -0.35110474 3.7648773 -0.8721161 5.6288147 -1.5516968c3.7278748 -1.3591461 7.396591 -3.3525696 10.94696 -5.889633c7.1007233 -5.0741577 13.728073 -12.322968 19.408676 -21.021515c5.6805725 -8.698555 10.414398 -18.846863 13.728058 -29.720055c1.6568604 -5.436592 2.9586487 -11.054405 3.8462524 -16.762833c0.44378662 -2.85421 0.7840271 -5.731079 1.0133057 -8.61927c0.11465454 -1.4440994 0.2015686 -2.8910217 0.25982666 -4.339367l0.032470703 -0.9212227" fill-rule="evenodd"/><path fill="#000000" stroke="#000000" stroke-width="1.0" stroke-linecap="butt" d="m220.36403 151.06221l1.0586395 -1.1868744l-3.0206146 1.2989197l3.1488647 0.946579z" fill-rule="evenodd"/><path fill="#000000" stroke="#000000" stroke-width="1.0" stroke-linecap="butt" d="m277.48007 61.89969l1.1062622 1.1426048l-1.0745239 -3.1075325l-1.1743469 3.0711975z" fill-rule="evenodd"/><path fill="#000000" fill-opacity="0.0" d="m258.8971 39.839172c-30.298264 0 -45.44832 0.013347626 -60.596542 0.026695251c-15.148224 0.013343811 -30.294632 0.026691437 -60.58928 0.026691437" fill-rule="evenodd"/><path stroke="#000000" stroke-width="1.0" stroke-linejoin="round" stroke-linecap="butt" d="m255.47002 39.83956l-16.692993 0.0019035339c-5.917694 0.001461029 -11.125305 0.0035476685 -15.859451 0.006046295c-9.468338 0.0050086975 -17.042908 0.011680603 -24.61702 0.018352509c-7.574112 0.00667572 -15.147766 0.01335144 -24.61473 0.018352509c-4.7334747 0.002506256 -9.940292 0.004589081 -15.857147 0.00605011l-16.690308 0.0019035339" fill-rule="evenodd"/><path fill="#000000" stroke="#000000" stroke-width="1.0" stroke-linecap="butt" d="m255.47002 39.83956l-1.1244507 1.1247139l3.0896454 -1.1249352l-3.0899048 -1.1242332z" fill-rule="evenodd"/><path fill="#000000" stroke="#000000" stroke-width="1.0" stroke-linecap="butt" d="m141.13837 39.89217l1.1244507 -1.1247139l-3.0896454 1.124939l3.0899048 1.1242294z" fill-rule="evenodd"/><path fill="#000000" fill-opacity="0.0" d="m81.7696 0l51.70417 0l0 21.194174l-51.70417 0z" fill-rule="evenodd"/><path fill="#000000" d="m91.035225 15.397086l0 -0.953125l4.390625 -5.046875q-0.75 0.03125 -1.3125 0.03125l-2.828125 0l0 -0.9375l5.65625 0l0 0.765625l-3.75 4.390625l-0.71875 0.796875q0.796875 -0.0625 1.484375 -0.0625l3.1875 0l0 1.015625l-6.109375 0zm13.4453125 -5.609375l-6.3125 0l0 -1.09375l6.3125 0l0 1.09375zm0 2.890625l-6.3125 0l0 -1.09375l6.3125 0l0 1.09375zm7.4396667 1.59375l0 1.125l-6.296875 0q-0.015625 -0.421875 0.140625 -0.8125q0.234375 -0.640625 0.765625 -1.265625q0.53125 -0.625 1.53125 -1.453125q1.5625 -1.265625 2.109375 -2.015625q0.546875 -0.75 0.546875 -1.40625q0 -0.703125 -0.5 -1.171875q-0.5 -0.484375 -1.296875 -0.484375q-0.859375 0 -1.375 0.515625q-0.5 0.5 -0.5 1.390625l-1.203125 -0.109375q0.125 -1.359375 0.921875 -2.0625q0.8125 -0.703125 2.171875 -0.703125q1.375 0 2.171875 0.765625q0.8125 0.75 0.8125 1.875q0 0.578125 -0.234375 1.140625q-0.234375 0.546875 -0.78125 1.15625q-0.546875 0.609375 -1.8125 1.671875q-1.046875 0.890625 -1.359375 1.21875q-0.296875 0.3125 -0.484375 0.625l4.671875 0z" fill-rule="nonzero"/><path fill="#000000" fill-opacity="0.0" d="m240.24542 0.06450787l51.704193 0l0 21.194172l-51.704193 0z" fill-rule="evenodd"/><path fill="#000000" d="m249.51105 15.461594l0 -0.953125l4.390625 -5.046875q-0.75 0.03125 -1.3125 0.03125l-2.828125 0l0 -0.9375l5.65625 0l0 0.765625l-3.75 4.390625l-0.71875 0.796875q0.796875 -0.0625 1.484375 -0.0625l3.1875 0l0 1.015625l-6.109375 0zm13.4453125 -5.609375l-6.3125 0l0 -1.09375l6.3125 0l0 1.09375zm0 2.890625l-6.3125 0l0 -1.09375l6.3125 0l0 1.09375zm7.4396667 1.59375l0 1.125l-6.296875 0q-0.015625 -0.421875 0.140625 -0.8125q0.234375 -0.640625 0.765625 -1.265625q0.53125 -0.625 1.53125 -1.453125q1.5625 -1.265625 2.109375 -2.015625q0.546875 -0.75 0.546875 -1.40625q0 -0.7031245 -0.5 -1.1718745q-0.5 -0.484375 -1.296875 -0.484375q-0.859375 0 -1.375 0.515625q-0.5 0.5 -0.5 1.3906245l-1.203125 -0.109375q0.125 -1.3593745 0.921875 -2.0624995q0.8125 -0.703125 2.171875 -0.703125q1.375 0 2.171875 0.765625q0.8125 0.75 0.8125 1.8749995q0 0.578125 -0.234375 1.140625q-0.234375 0.546875 -0.78125 1.15625q-0.546875 0.609375 -1.8125 1.671875q-1.046875 0.890625 -1.359375 1.21875q-0.296875 0.3125 -0.484375 0.625l4.671875 0z" fill-rule="nonzero"/><path fill="#000000" fill-opacity="0.0" d="m158.8921 111.95898l51.704178 0l0 21.194176l-51.704178 0z" fill-rule="evenodd"/><path fill="#000000" d="m168.15773 127.356064l0 -0.953125l4.390625 -5.046875q-0.75 0.03125 -1.3125 0.03125l-2.828125 0l0 -0.9375l5.65625 0l0 0.765625l-3.75 4.390625l-0.71875 0.796875q0.796875 -0.0625 1.484375 -0.0625l3.1875 0l0 1.015625l-6.109375 0zm13.4453125 -5.609375l-6.3125 0l0 -1.09375l6.3125 0l0 1.09375zm0 2.890625l-6.3125 0l0 -1.09375l6.3125 0l0 1.09375zm7.4396667 1.59375l0 1.125l-6.296875 0q-0.015625 -0.421875 0.140625 -0.8125q0.234375 -0.640625 0.765625 -1.265625q0.53125 -0.625 1.53125 -1.453125q1.5625 -1.265625 2.109375 -2.015625q0.546875 -0.75 0.546875 -1.40625q0 -0.703125 -0.5 -1.171875q-0.5 -0.484375 -1.296875 -0.484375q-0.859375 0 -1.375 0.515625q-0.5 0.5 -0.5 1.390625l-1.203125 -0.109375q0.125 -1.359375 0.921875 -2.0625q0.8125 -0.703125 2.171875 -0.703125q1.375 0 2.171875 0.765625q0.8125 0.75 0.8125 1.875q0 0.578125 -0.234375 1.140625q-0.234375 0.546875 -0.78125 1.15625q-0.546875 0.609375 -1.8125 1.671875q-1.046875 0.890625 -1.359375 1.21875q-0.296875 0.3125 -0.484375 0.625l4.671875 0z" fill-rule="nonzero"/><path fill="#000000" fill-opacity="0.0" d="m-0.005249344 23.930197l64.409996 0l0 31.87134l-64.409996 0z" fill-rule="evenodd"/><path fill="#000000" d="m11.393164 44.665867l0 -9.546875l4.234375 0q1.265625 0 1.921875 0.265625q0.671875 0.25 1.0625 0.90625q0.40625 0.65625 0.40625 1.4375q0 1.015625 -0.65625 1.71875q-0.65625 0.6875 -2.03125 0.875q0.5 0.25 0.765625 0.484375q0.546875 0.5 1.046875 1.265625l1.65625 2.59375l-1.578125 0l-1.265625 -1.984375q-0.5625 -0.859375 -0.921875 -1.3125q-0.34375 -0.453125 -0.640625 -0.640625q-0.28125 -0.1875 -0.5625 -0.25q-0.21875 -0.046875 -0.703125 -0.046875l-1.46875 0l0 4.234375l-1.265625 0zm1.265625 -5.328125l2.71875 0q0.859375 0 1.34375 -0.171875q0.484375 -0.1875 0.734375 -0.578125q0.265625 -0.390625 0.265625 -0.859375q0 -0.671875 -0.5 -1.109375q-0.484375 -0.4375 -1.546875 -0.4375l-3.015625 0l0 3.15625zm12.922028 3.109375l1.203125 0.140625q-0.28125 1.0625 -1.0625 1.65625q-0.765625 0.578125 -1.96875 0.578125q-1.515625 0 -2.40625 -0.9375q-0.890625 -0.9375 -0.890625 -2.609375q0 -1.75 0.890625 -2.703125q0.90625 -0.96875 2.34375 -0.96875q1.390625 0 2.265625 0.9375q0.875 0.9375 0.875 2.65625q0 0.109375 0 0.3125l-5.15625 0q0.0625 1.140625 0.640625 1.75q0.578125 0.59375 1.4375 0.59375q0.65625 0 1.109375 -0.328125q0.453125 -0.34375 0.71875 -1.078125zm-3.84375 -1.90625l3.859375 0q-0.078125 -0.859375 -0.4375 -1.296875q-0.5625 -0.6875 -1.453125 -0.6875q-0.8125 0 -1.359375 0.546875q-0.546875 0.53125 -0.609375 1.4375zm11.0374775 3.265625q-0.65625 0.5625 -1.2656269 0.796875q-0.59375 0.21875 -1.28125 0.21875q-1.140625 0 -1.75 -0.546875q-0.609375 -0.5625 -0.609375 -1.4375q0 -0.5 0.21875 -0.921875q0.234375 -0.421875 0.609375 -0.671875q0.375 -0.25 0.84375 -0.390625q0.34375 -0.078125 1.046875 -0.171875q1.4218769 -0.171875 2.093752 -0.40625q0 -0.234375 0 -0.296875q0 -0.71875 -0.328125 -1.015625q-0.4531269 -0.390625 -1.3437519 -0.390625q-0.8125 0 -1.21875 0.296875q-0.390625 0.28125 -0.578125 1.015625l-1.140625 -0.15625q0.15625 -0.734375 0.515625 -1.1875q0.359375 -0.453125 1.03125 -0.6875q0.671875 -0.25 1.5625 -0.25q0.8906269 0 1.4375019 0.203125q0.5625 0.203125 0.8125 0.53125q0.265625 0.3125 0.375 0.796875q0.046875 0.296875 0.046875 1.078125l0 1.5625q0 1.625 0.078125 2.0625q0.078125 0.4375 0.296875 0.828125l-1.21875 0q-0.1875 -0.359375 -0.234375 -0.859375zm-0.09375 -2.609375q-0.640625 0.265625 -1.9218769 0.4375q-0.71875 0.109375 -1.015625 0.25q-0.296875 0.125 -0.46875 0.375q-0.15625 0.25 -0.15625 0.546875q0 0.46875 0.34375 0.78125q0.359375 0.3125 1.046875 0.3125q0.671875 0 1.203125 -0.296875q0.5312519 -0.296875 0.7812519 -0.8125q0.1875 -0.390625 0.1875 -1.171875l0 -0.421875zm7.4749756 3.46875l0 -0.875q-0.65625 1.03125 -1.9375 1.03125q-0.8125 0 -1.515625 -0.453125q-0.6875 -0.453125 -1.078125 -1.265625q-0.375 -0.828125 -0.375 -1.890625q0 -1.03125 0.34375 -1.875q0.34375 -0.84375 1.03125 -1.28125q0.703125 -0.453125 1.546875 -0.453125q0.625 0 1.109375 0.265625q0.5 0.25 0.796875 0.671875l0 -3.421875l1.171875 0l0 9.546875l-1.09375 0zm-3.703125 -3.453125q0 1.328125 0.5625 1.984375q0.5625 0.65625 1.328125 0.65625q0.765625 0 1.296875 -0.625q0.53125 -0.625 0.53125 -1.90625q0 -1.421875 -0.546875 -2.078125q-0.546875 -0.671875 -1.34375 -0.671875q-0.78125 0 -1.3125 0.640625q-0.515625 0.625 -0.515625 2.0zm9.724838 3.453125l0 -1.171875l4.890625 -6.109375q0.515625 -0.65625 0.984375 -1.140625l-5.328125 0l0 -1.125l6.84375 0l0 1.125l-5.359375 6.625l-0.578125 0.671875l6.09375 0l0 1.125l-7.546875 0z" fill-rule="nonzero"/><path fill="#000000" fill-opacity="0.0" d="m33.50348 26.97861l0 0c9.972107 -6.977642 26.863968 -9.661921 42.000626 -6.674301c15.13665 2.9876194 25.153854 10.983114 24.907188 19.880331c-0.24665833 8.897217 -10.702377 16.718674 -25.997513 19.447601c-15.2951355 2.7289238 -32.030235 -0.24121094 -41.61084 -7.385067l30.10923 -12.381306z" fill-rule="evenodd"/><path fill="#000000" fill-opacity="0.0" d="m33.50348 26.97861l0 0c9.972107 -6.977642 26.863968 -9.661921 42.000626 -6.674301c15.13665 2.9876194 25.153854 10.983114 24.907188 19.880331c-0.24665833 8.897217 -10.702377 16.718674 -25.997513 19.447601c-15.2951355 2.7289238 -32.030235 -0.24121094 -41.61084 -7.385067" fill-rule="evenodd"/><path stroke="#6aa84f" stroke-width="2.0" stroke-linejoin="round" stroke-linecap="butt" d="m33.50348 26.978611l0 0c9.972103 -6.977644 26.863972 -9.661922 42.000626 -6.674303c15.13665 2.9876194 25.153854 10.983114 24.907188 19.880331c-0.24665833 8.897213 -10.702377 16.718674 -25.997513 19.447598c-7.6475677 1.3644638 -15.6551285 1.3041611 -22.948372 0.00976181c-3.646618 -0.6471977 -7.114662 -1.6029205 -10.269836 -2.843338c-0.7887955 -0.31010056 -1.558033 -0.6380005 -2.305622 -0.98332214c-0.37379074 -0.17265701 -0.74217224 -0.3496704 -1.1048775 -0.5309906c-0.18135071 -0.09066391 -0.36128616 -0.18239975 -0.5397682 -0.27521133l-0.2523079 -0.13380814" fill-rule="evenodd"/><path fill="#6aa84f" stroke="#6aa84f" stroke-width="2.0" stroke-linecap="butt" d="m36.992996 54.875328l1.5952835 -0.36544418l-3.3084526 -0.7091141l2.0786133 2.6698418z" fill-rule="evenodd"/><path fill="#000000" fill-opacity="0.0" d="m332.20584 23.903503l64.41 0l0 31.871338l-64.41 0z" fill-rule="evenodd"/><path fill="#000000" d="m343.60428 44.63917l0 -9.546875l4.234375 0q1.265625 0 1.921875 0.265625q0.671875 0.25 1.0625 0.90625q0.40625 0.65625 0.40625 1.4375q0 1.015625 -0.65625 1.71875q-0.65625 0.6875 -2.03125 0.875q0.5 0.25 0.765625 0.484375q0.546875 0.5 1.046875 1.265625l1.65625 2.59375l-1.578125 0l-1.265625 -1.984375q-0.5625 -0.859375 -0.921875 -1.3125q-0.34375 -0.453125 -0.640625 -0.640625q-0.28125 -0.1875 -0.5625 -0.25q-0.21875 -0.046875 -0.703125 -0.046875l-1.46875 0l0 4.234375l-1.265625 0zm1.265625 -5.328125l2.71875 0q0.859375 0 1.34375 -0.171875q0.484375 -0.1875 0.734375 -0.578125q0.265625 -0.390625 0.265625 -0.859375q0 -0.671875 -0.5 -1.109375q-0.484375 -0.4375 -1.546875 -0.4375l-3.015625 0l0 3.15625zm12.922028 3.109375l1.203125 0.140625q-0.28125 1.0625 -1.0625 1.65625q-0.765625 0.578125 -1.96875 0.578125q-1.515625 0 -2.40625 -0.9375q-0.890625 -0.9375 -0.890625 -2.609375q0 -1.75 0.890625 -2.703125q0.90625 -0.96875 2.34375 -0.96875q1.390625 0 2.265625 0.9375q0.875 0.9375 0.875 2.65625q0 0.109375 0 0.3125l-5.15625 0q0.0625 1.140625 0.640625 1.75q0.578125 0.59375 1.4375 0.59375q0.65625 0 1.109375 -0.328125q0.453125 -0.34375 0.71875 -1.078125zm-3.84375 -1.90625l3.859375 0q-0.078125 -0.859375 -0.4375 -1.296875q-0.5625 -0.6875 -1.453125 -0.6875q-0.8125 0 -1.359375 0.546875q-0.546875 0.53125 -0.609375 1.4375zm11.037476 3.265625q-0.65625 0.5625 -1.265625 0.796875q-0.59375 0.21875 -1.28125 0.21875q-1.140625 0 -1.75 -0.546875q-0.609375 -0.5625 -0.609375 -1.4375q0 -0.5 0.21875 -0.921875q0.234375 -0.421875 0.609375 -0.671875q0.375 -0.25 0.84375 -0.390625q0.34375 -0.078125 1.046875 -0.171875q1.421875 -0.171875 2.09375 -0.40625q0 -0.234375 0 -0.296875q0 -0.71875 -0.328125 -1.015625q-0.453125 -0.390625 -1.34375 -0.390625q-0.8125 0 -1.21875 0.296875q-0.390625 0.28125 -0.578125 1.015625l-1.140625 -0.15625q0.15625 -0.734375 0.515625 -1.1875q0.359375 -0.453125 1.03125 -0.6875q0.671875 -0.25 1.5625 -0.25q0.890625 0 1.4375 0.203125q0.5625 0.203125 0.8125 0.53125q0.265625 0.3125 0.375 0.796875q0.046875 0.296875 0.046875 1.078125l0 1.5625q0 1.625 0.078125 2.0625q0.078125 0.4375 0.296875 0.828125l-1.21875 0q-0.1875 -0.359375 -0.234375 -0.859375zm-0.09375 -2.609375q-0.640625 0.265625 -1.921875 0.4375q-0.71875 0.109375 -1.015625 0.25q-0.296875 0.125 -0.46875 0.375q-0.15625 0.25 -0.15625 0.546875q0 0.46875 0.34375 0.78125q0.359375 0.3125 1.046875 0.3125q0.671875 0 1.203125 -0.296875q0.53125 -0.296875 0.78125 -0.8125q0.1875 -0.390625 0.1875 -1.171875l0 -0.421875zm7.4749756 3.46875l0 -0.875q-0.65625 1.03125 -1.9375 1.03125q-0.8125 0 -1.515625 -0.453125q-0.6875 -0.453125 -1.078125 -1.265625q-0.375 -0.828125 -0.375 -1.890625q0 -1.03125 0.34375 -1.875q0.34375 -0.84375 1.03125 -1.28125q0.703125 -0.453125 1.546875 -0.453125q0.625 0 1.109375 0.265625q0.5 0.25 0.796875 0.671875l0 -3.421875l1.171875 0l0 9.546875l-1.09375 0zm-3.703125 -3.453125q0 1.328125 0.5625 1.984375q0.5625 0.65625 1.328125 0.65625q0.765625 0 1.296875 -0.625q0.53125 -0.625 0.53125 -1.90625q0 -1.421875 -0.546875 -2.078125q-0.546875 -0.671875 -1.34375 -0.671875q-0.78125 0 -1.3125 0.640625q-0.515625 0.625 -0.515625 2.0zm9.724823 3.453125l0 -1.171875l4.890625 -6.109375q0.515625 -0.65625 0.984375 -1.140625l-5.328125 0l0 -1.125l6.84375 0l0 1.125l-5.359375 6.625l-0.578125 0.671875l6.09375 0l0 1.125l-7.546875 0z" fill-rule="nonzero"/><path fill="#000000" fill-opacity="0.0" d="m363.10712 26.97861l0 0c-9.972107 -6.977642 -26.863953 -9.661921 -42.00061 -6.674301c-15.136658 2.9876194 -25.15387 10.983114 -24.907196 19.880331c0.24667358 8.897217 10.702362 16.718674 25.997498 19.447601c15.295166 2.7289238 32.030243 -0.24121094 41.61087 -7.385067l-30.109253 -12.381306z" fill-rule="evenodd"/><path fill="#000000" fill-opacity="0.0" d="m363.10712 26.97861l0 0c-9.972107 -6.977642 -26.863953 -9.661921 -42.00061 -6.674301c-15.136658 2.9876194 -25.15387 10.983114 -24.907196 19.880331c0.24667358 8.897217 10.702362 16.718674 25.997498 19.447601c15.295166 2.7289238 32.030243 -0.24121094 41.61087 -7.385067" fill-rule="evenodd"/><path stroke="#6aa84f" stroke-width="2.0" stroke-linejoin="round" stroke-linecap="butt" d="m363.10712 26.978611l0 0c-9.972107 -6.977644 -26.863953 -9.661922 -42.00061 -6.674303c-15.136658 2.9876194 -25.15387 10.983114 -24.907196 19.880331c0.24667358 8.897213 10.702362 16.718674 25.997528 19.447598c7.647583 1.3644638 15.655121 1.3041611 22.948395 0.00976181c3.6466064 -0.6471977 7.1146545 -1.6029205 10.269806 -2.843338c0.78878784 -0.31010056 1.5580139 -0.6380005 2.305603 -0.98332214c0.3738098 -0.17265701 0.7421875 -0.3496704 1.1048889 -0.5309906c0.18136597 -0.09066391 0.3612671 -0.18239975 0.5397949 -0.27521133l0.25228882 -0.13380814" fill-rule="evenodd"/><path fill="#6aa84f" stroke="#6aa84f" stroke-width="2.0" stroke-linecap="butt" d="m359.6176 54.87533l-0.365448 1.5952835l2.0786133 -2.6698456l-3.3084717 0.7091179z" fill-rule="evenodd"/><path fill="#000000" fill-opacity="0.0" d="m166.09363 193.3034l64.41 0l0 31.871338l-64.41 0z" fill-rule="evenodd"/><path fill="#000000" d="m177.49203 214.03908l0 -9.546875l4.234375 0q1.265625 0 1.921875 0.265625q0.671875 0.25 1.0625 0.90625q0.40625 0.65625 0.40625 1.4375q0 1.015625 -0.65625 1.71875q-0.65625 0.6875 -2.03125 0.875q0.5 0.25 0.765625 0.484375q0.546875 0.5 1.046875 1.265625l1.65625 2.59375l-1.578125 0l-1.265625 -1.984375q-0.5625 -0.859375 -0.921875 -1.3125q-0.34375 -0.453125 -0.640625 -0.640625q-0.28125 -0.1875 -0.5625 -0.25q-0.21875 -0.046875 -0.703125 -0.046875l-1.46875 0l0 4.234375l-1.265625 0zm1.265625 -5.328125l2.71875 0q0.859375 0 1.34375 -0.171875q0.484375 -0.1875 0.734375 -0.578125q0.265625 -0.390625 0.265625 -0.859375q0 -0.671875 -0.5 -1.109375q-0.484375 -0.4375 -1.546875 -0.4375l-3.015625 0l0 3.15625zm12.922028 3.109375l1.203125 0.140625q-0.28125 1.0625 -1.0625 1.65625q-0.765625 0.578125 -1.96875 0.578125q-1.515625 0 -2.40625 -0.9375q-0.890625 -0.9375 -0.890625 -2.609375q0 -1.75 0.890625 -2.703125q0.90625 -0.96875 2.34375 -0.96875q1.390625 0 2.265625 0.9375q0.875 0.9375 0.875 2.65625q0 0.109375 0 0.3125l-5.15625 0q0.0625 1.140625 0.640625 1.75q0.578125 0.59375 1.4375 0.59375q0.65625 0 1.109375 -0.328125q0.453125 -0.34375 0.71875 -1.078125zm-3.84375 -1.90625l3.859375 0q-0.078125 -0.859375 -0.4375 -1.296875q-0.5625 -0.6875 -1.453125 -0.6875q-0.8125 0 -1.359375 0.546875q-0.546875 0.53125 -0.609375 1.4375zm11.037491 3.265625q-0.65625 0.5625 -1.2656403 0.796875q-0.59375 0.21875 -1.28125 0.21875q-1.140625 0 -1.75 -0.546875q-0.609375 -0.5625 -0.609375 -1.4375q0 -0.5 0.21875 -0.921875q0.234375 -0.421875 0.609375 -0.671875q0.375 -0.25 0.84375 -0.390625q0.34375 -0.078125 1.046875 -0.171875q1.4218903 -0.171875 2.0937653 -0.40625q0 -0.234375 0 -0.296875q0 -0.71875 -0.328125 -1.015625q-0.45314026 -0.390625 -1.3437653 -0.390625q-0.8125 0 -1.21875 0.296875q-0.390625 0.28125 -0.578125 1.015625l-1.140625 -0.15625q0.15625 -0.734375 0.515625 -1.1875q0.359375 -0.453125 1.03125 -0.6875q0.671875 -0.25 1.5625 -0.25q0.89064026 0 1.4375153 0.203125q0.5625 0.203125 0.8125 0.53125q0.265625 0.3125 0.375 0.796875q0.046875 0.296875 0.046875 1.078125l0 1.5625q0 1.625 0.078125 2.0625q0.078125 0.4375 0.296875 0.828125l-1.21875 0q-0.1875 -0.359375 -0.234375 -0.859375zm-0.09375 -2.609375q-0.640625 0.265625 -1.9218903 0.4375q-0.71875 0.109375 -1.015625 0.25q-0.296875 0.125 -0.46875 0.375q-0.15625 0.25 -0.15625 0.546875q0 0.46875 0.34375 0.78125q0.359375 0.3125 1.046875 0.3125q0.671875 0 1.203125 -0.296875q0.53126526 -0.296875 0.78126526 -0.8125q0.1875 -0.390625 0.1875 -1.171875l0 -0.421875zm7.4749756 3.46875l0 -0.875q-0.65625 1.03125 -1.9375 1.03125q-0.8125 0 -1.515625 -0.453125q-0.6875 -0.453125 -1.078125 -1.265625q-0.375 -0.828125 -0.375 -1.890625q0 -1.03125 0.34375 -1.875q0.34375 -0.84375 1.03125 -1.28125q0.703125 -0.453125 1.546875 -0.453125q0.625 0 1.109375 0.265625q0.5 0.25 0.796875 0.671875l0 -3.421875l1.171875 0l0 9.546875l-1.09375 0zm-3.703125 -3.453125q0 1.328125 0.5625 1.984375q0.5625 0.65625 1.328125 0.65625q0.765625 0 1.296875 -0.625q0.53125 -0.625 0.53125 -1.90625q0 -1.421875 -0.546875 -2.078125q-0.546875 -0.671875 -1.34375 -0.671875q-0.78125 0 -1.3125 0.640625q-0.515625 0.625 -0.515625 2.0zm9.724838 3.453125l0 -1.171875l4.890625 -6.109375q0.515625 -0.65625 0.984375 -1.140625l-5.328125 0l0 -1.125l6.84375 0l0 1.125l-5.359375 6.625l-0.578125 0.671875l6.09375 0l0 1.125l-7.546875 0z" fill-rule="nonzero"/><path fill="#000000" fill-opacity="0.0" d="m170.52592 204.58328l0 0c-13.782089 -8.4097595 -12.808929 -21.39009 2.184555 -29.138351c14.9934845 -7.7482605 38.446106 -7.3905945 52.646667 0.8029175c14.200577 8.193497 13.881989 21.183807 -0.7151489 29.160751l-26.343369 -14.781158z" fill-rule="evenodd"/><path fill="#000000" fill-opacity="0.0" d="m170.52592 204.58328l0 0c-13.782089 -8.4097595 -12.808929 -21.39009 2.184555 -29.138351c14.9934845 -7.7482605 38.446106 -7.3905945 52.646667 0.8029175c14.200577 8.193497 13.881989 21.183807 -0.7151489 29.160751" fill-rule="evenodd"/><path stroke="#6aa84f" stroke-width="2.0" stroke-linejoin="round" stroke-linecap="butt" d="m170.52592 204.58327l0 0c-13.782089 -8.409744 -12.808929 -21.39006 2.184555 -29.138351c14.9934845 -7.7482452 38.446106 -7.390579 52.646683 0.80293274c7.1002655 4.096756 10.5707855 9.3927 10.441559 14.661575c-0.06460571 2.6344604 -1.0291595 5.2621155 -2.889862 7.7297516c-0.9303436 1.2338104 -2.0847473 2.4276123 -3.4627075 3.5622253c-0.17224121 0.14183044 -0.34799194 0.28274536 -0.52723694 0.42268372l-0.1250763 0.09638977" fill-rule="evenodd"/><path fill="#6aa84f" stroke="#6aa84f" stroke-width="2.0" stroke-linecap="butt" d="m228.79384 202.72047l0.34246826 -1.6003723l-2.0400085 2.699463l3.2979126 -0.75660706z" fill-rule="evenodd"/><path fill="#000000" fill-opacity="0.0" d="m47.230083 64.41667l24.504093 0l0 21.194176l-24.504093 0z" fill-rule="evenodd"/><path fill="#000000" d="m62.93321 78.68876l0 1.125l-6.296875 0q-0.015625 -0.421875 0.140625 -0.8125q0.234375 -0.640625 0.765625 -1.265625q0.53125 -0.625 1.53125 -1.453125q1.5625 -1.265625 2.109375 -2.015625q0.546875 -0.75 0.546875 -1.40625q0 -0.703125 -0.5 -1.171875q-0.5 -0.484375 -1.296875 -0.484375q-0.859375 0 -1.375 0.515625q-0.5 0.5 -0.5 1.390625l-1.203125 -0.109375q0.125 -1.359375 0.921875 -2.0625q0.8125 -0.703125 2.171875 -0.703125q1.375 0 2.171875 0.765625q0.8125 0.75 0.8125 1.875q0 0.578125 -0.234375 1.140625q-0.234375 0.546875 -0.78125 1.15625q-0.546875 0.609375 -1.8125 1.671875q-1.046875 0.890625 -1.359375 1.21875q-0.296875 0.3125 -0.484375 0.625l4.671875 0z" fill-rule="nonzero"/><path fill="#000000" fill-opacity="0.0" d="m321.44638 64.41667l24.50409 0l0 21.194176l-24.50409 0z" fill-rule="evenodd"/><path fill="#000000" d="m337.1495 78.68876l0 1.125l-6.296875 0q-0.015625 -0.421875 0.140625 -0.8125q0.234375 -0.640625 0.765625 -1.265625q0.53125 -0.625 1.53125 -1.453125q1.5625 -1.265625 2.109375 -2.015625q0.546875 -0.75 0.546875 -1.40625q0 -0.703125 -0.5 -1.171875q-0.5 -0.484375 -1.296875 -0.484375q-0.859375 0 -1.375 0.515625q-0.5 0.5 -0.5 1.390625l-1.203125 -0.109375q0.125 -1.359375 0.921875 -2.0625q0.8125 -0.703125 2.171875 -0.703125q1.375 0 2.171875 0.765625q0.8125 0.75 0.8125 1.875q0 0.578125 -0.234375 1.140625q-0.234375 0.546875 -0.78125 1.15625q-0.546875 0.609375 -1.8125 1.671875q-1.046875 0.890625 -1.359375 1.21875q-0.296875 0.3125 -0.484375 0.625l4.671875 0z" fill-rule="nonzero"/><path fill="#000000" fill-opacity="0.0" d="m240.24654 180.03035l24.504105 0l0 21.194183l-24.504105 0z" fill-rule="evenodd"/><path fill="#000000" d="m255.94966 194.30244l0 1.125l-6.296875 0q-0.015625 -0.421875 0.140625 -0.8125q0.234375 -0.640625 0.765625 -1.265625q0.53125 -0.625 1.53125 -1.453125q1.5625 -1.265625 2.109375 -2.015625q0.546875 -0.75 0.546875 -1.40625q0 -0.703125 -0.5 -1.171875q-0.5 -0.484375 -1.296875 -0.484375q-0.859375 0 -1.375 0.515625q-0.5 0.5 -0.5 1.390625l-1.203125 -0.109375q0.125 -1.359375 0.921875 -2.0625q0.8125 -0.703125 2.171875 -0.703125q1.375 0 2.171875 0.765625q0.8125 0.75 0.8125 1.875q0 0.578125 -0.234375 1.140625q-0.234375 0.546875 -0.78125 1.15625q-0.546875 0.609375 -1.8125 1.671875q-1.046875 0.890625 -1.359375 1.21875q-0.296875 0.3125 -0.484375 0.625l4.671875 0z" fill-rule="nonzero"/><path fill="#efefef" d="m503.8045 39.839172l0 0c0 -10.297348 8.347656 -18.644999 18.64502 -18.644999l0 0c4.9449463 0 9.687378 1.9643784 13.184021 5.460993c3.496582 3.4966164 5.4609375 8.239044 5.4609375 13.184006l0 0c0 10.297352 -8.347595 18.645 -18.644958 18.645l0 0c-10.297363 0 -18.64502 -8.347649 -18.64502 -18.645z" fill-rule="evenodd"/><path stroke="#000000" stroke-width="1.0" stroke-linejoin="round" stroke-linecap="butt" d="m503.8045 39.839172l0 0c0 -10.297348 8.347656 -18.644999 18.64502 -18.644999l0 0c4.9449463 0 9.687378 1.9643784 13.184021 5.460993c3.496582 3.4966164 5.4609375 8.239044 5.4609375 13.184006l0 0c0 10.297352 -8.347595 18.645 -18.644958 18.645l0 0c-10.297363 0 -18.64502 -8.347649 -18.64502 -18.645z" fill-rule="evenodd"/><path fill="#000000" d="m523.58136 44.359173l-1.046875 0l0 -6.71875q-0.390625 0.359375 -1.015625 0.734375q-0.609375 0.359375 -1.09375 0.53125l0 -1.015625q0.875 -0.421875 1.53125 -1.0q0.671875 -0.59375 0.953125 -1.15625l0.671875 0l0 8.625z" fill-rule="nonzero"/><path fill="#efefef" d="m662.287 39.839172l0 0c0 -10.297348 8.347656 -18.644999 18.64502 -18.644999l0 0c4.9449463 0 9.687378 1.9643784 13.184021 5.460993c3.496582 3.4966164 5.4609985 8.239044 5.4609985 13.184006l0 0c0 10.297352 -8.347656 18.645 -18.64502 18.645l0 0c-10.297363 0 -18.64502 -8.347649 -18.64502 -18.645z" fill-rule="evenodd"/><path stroke="#000000" stroke-width="1.0" stroke-linejoin="round" stroke-linecap="butt" d="m662.287 39.839172l0 0c0 -10.297348 8.347656 -18.644999 18.64502 -18.644999l0 0c4.9449463 0 9.687378 1.9643784 13.184021 5.460993c3.496582 3.4966164 5.4609985 8.239044 5.4609985 13.184006l0 0c0 10.297352 -8.347656 18.645 -18.64502 18.645l0 0c-10.297363 0 -18.64502 -8.347649 -18.64502 -18.645z" fill-rule="evenodd"/><path fill="#000000" d="m683.64197 43.343548l0 1.015625l-5.6875 0q0 -0.375 0.125 -0.734375q0.21875 -0.578125 0.6875 -1.140625q0.484375 -0.5625 1.390625 -1.296875q1.40625 -1.15625 1.890625 -1.828125q0.5 -0.671875 0.5 -1.265625q0 -0.625 -0.453125 -1.046875q-0.453125 -0.4375 -1.171875 -0.4375q-0.765625 0 -1.21875 0.453125q-0.453125 0.453125 -0.46875 1.265625l-1.078125 -0.109375q0.109375 -1.21875 0.828125 -1.84375q0.734375 -0.640625 1.96875 -0.640625q1.234375 0 1.953125 0.6875q0.71875 0.6875 0.71875 1.703125q0 0.515625 -0.21875 1.015625q-0.203125 0.484375 -0.703125 1.046875q-0.484375 0.546875 -1.609375 1.5q-0.953125 0.796875 -1.234375 1.09375q-0.265625 0.28125 -0.4375 0.5625l4.21875 0z" fill-rule="nonzero"/><path fill="#efefef" d="m583.0424 151.25761l0 0c0 -10.297348 8.347656 -18.644989 18.64502 -18.644989l0 0c4.9449463 0 9.687378 1.9643707 13.18396 5.4609833c3.496643 3.4966125 5.4609985 8.239044 5.4609985 13.184006l0 0c0 10.297348 -8.347656 18.645004 -18.644958 18.645004l0 0c-10.297363 0 -18.64502 -8.347656 -18.64502 -18.645004z" fill-rule="evenodd"/><path stroke="#000000" stroke-width="1.0" stroke-linejoin="round" stroke-linecap="butt" d="m583.0424 151.25761l0 0c0 -10.297348 8.347656 -18.644989 18.64502 -18.644989l0 0c4.9449463 0 9.687378 1.9643707 13.18396 5.4609833c3.496643 3.4966125 5.4609985 8.239044 5.4609985 13.184006l0 0c0 10.297348 -8.347656 18.645004 -18.644958 18.645004l0 0c-10.297363 0 -18.64502 -8.347656 -18.64502 -18.645004z" fill-rule="evenodd"/><path fill="#000000" d="m598.8505 153.512l1.0625 -0.140625q0.171875 0.890625 0.609375 1.296875q0.4375 0.390625 1.0625 0.390625q0.75 0 1.265625 -0.515625q0.515625 -0.515625 0.515625 -1.28125q0 -0.71875 -0.484375 -1.1875q-0.46875 -0.484375 -1.203125 -0.484375q-0.296875 0 -0.75 0.125l0.125 -0.9375q0.109375 0.015625 0.171875 0.015625q0.671875 0 1.203125 -0.34375q0.546875 -0.359375 0.546875 -1.09375q0 -0.578125 -0.390625 -0.953125q-0.390625 -0.390625 -1.015625 -0.390625q-0.609375 0 -1.03125 0.390625q-0.40625 0.390625 -0.515625 1.15625l-1.0625 -0.1875q0.1875 -1.046875 0.875 -1.625q0.6875 -0.59375 1.703125 -0.59375q0.703125 0 1.296875 0.3125q0.59375 0.296875 0.90625 0.8125q0.3125 0.515625 0.3125 1.109375q0 0.546875 -0.296875 1.015625q-0.296875 0.453125 -0.875 0.71875q0.75 0.171875 1.171875 0.734375q0.421875 0.546875 0.421875 1.390625q0 1.125 -0.828125 1.90625q-0.8125 0.78125 -2.0625 0.78125q-1.125 0 -1.875 -0.671875q-0.75 -0.6875 -0.859375 -1.75z" fill-rule="nonzero"/><path fill="#000000" fill-opacity="0.0" d="m522.4495 58.484173c0 46.392284 30.296448 92.78456 60.592896 92.78456" fill-rule="evenodd"/><path stroke="#000000" stroke-width="1.0" stroke-linejoin="round" stroke-linecap="butt" d="m522.5049 61.910812l0.032470703 0.9212227c0.05822754 1.4483452 0.1451416 2.8952675 0.25982666 4.339367c0.22924805 2.8881912 0.56951904 5.7650604 1.0133057 8.61927c0.88757324 5.7084274 2.189392 11.326241 3.8461914 16.762833c3.3137207 10.873192 8.047546 21.0215 13.728149 29.720055c5.680542 8.698547 12.307922 15.947357 19.40863 21.021515c3.550354 2.5370636 7.219116 4.530487 10.94696 5.889633c1.8639526 0.6795807 3.7426758 1.200592 5.628784 1.5516968c0.47155762 0.08778381 0.9435425 0.16494751 1.4158936 0.23130798c0.23614502 0.033172607 0.4724121 0.06365967 0.70874023 0.091430664l0.1270752 0.014190674" fill-rule="evenodd"/><path fill="#000000" stroke="#000000" stroke-width="1.0" stroke-linecap="butt" d="m522.5049 61.910816l1.1425781 1.1062698l-1.1743164 -3.0712013l-1.0745239 3.1075325z" fill-rule="evenodd"/><path fill="#000000" stroke="#000000" stroke-width="1.0" stroke-linecap="butt" d="m579.6209 151.07333l-1.1868896 1.0586243l3.1488647 -0.946579l-3.02063 -1.2989197z" fill-rule="evenodd"/><path fill="#000000" fill-opacity="0.0" d="m620.3324 151.25761c30.296509 0 60.592957 -46.39228 60.592957 -92.78456" fill-rule="evenodd"/><path stroke="#000000" stroke-width="1.0" stroke-linejoin="round" stroke-linecap="butt" d="m623.75397 151.06221l0.12701416 -0.014190674c0.23632812 -0.027770996 0.4725952 -0.058258057 0.70874023 -0.091430664c0.47235107 -0.06636047 0.94433594 -0.14352417 1.4158936 -0.23130798c1.8861694 -0.35110474 3.7648926 -0.8721161 5.628845 -1.5516968c3.7278442 -1.3591461 7.3966064 -3.3525696 10.94696 -5.889633c7.100708 -5.0741577 13.728027 -12.322968 19.40863 -21.021515c5.680603 -8.698555 10.414368 -18.846863 13.728088 -29.720055c1.6567993 -5.436592 2.9586182 -11.054405 3.8461914 -16.762833c0.44384766 -2.85421 0.7840576 -5.731079 1.0133667 -8.61927c0.11462402 -1.4440994 0.20153809 -2.8910217 0.25976562 -4.339367l0.032470703 -0.9212227" fill-rule="evenodd"/><path fill="#000000" stroke="#000000" stroke-width="1.0" stroke-linecap="butt" d="m623.75397 151.06221l1.0585938 -1.1868744l-3.02063 1.2989197l3.1488647 0.946579z" fill-rule="evenodd"/><path fill="#000000" stroke="#000000" stroke-width="1.0" stroke-linecap="butt" d="m680.86993 61.89969l1.1063232 1.1426048l-1.0745239 -3.1075325l-1.1743774 3.0711975z" fill-rule="evenodd"/><path fill="#000000" fill-opacity="0.0" d="m662.287 39.839172c-30.298279 0 -45.448303 0.013347626 -60.596497 0.026695251c-15.148254 0.013343811 -30.294678 0.026691437 -60.589294 0.026691437" fill-rule="evenodd"/><path stroke="#000000" stroke-width="1.0" stroke-linejoin="round" stroke-linecap="butt" d="m658.8599 39.83956l-16.692993 0.0019035339c-5.9177246 0.001461029 -11.125305 0.0035476685 -15.859497 0.006046295c-9.468262 0.0050086975 -17.042847 0.011680603 -24.617004 0.018352509c-7.5740967 0.00667572 -15.147766 0.01335144 -24.614685 0.018352509c-4.7335205 0.002506256 -9.940308 0.004589081 -15.857178 0.00605011l-16.690308 0.0019035339" fill-rule="evenodd"/><path fill="#000000" stroke="#000000" stroke-width="1.0" stroke-linecap="butt" d="m658.8599 39.83956l-1.1244507 1.1247139l3.0895996 -1.1249352l-3.0899048 -1.1242332z" fill-rule="evenodd"/><path fill="#000000" stroke="#000000" stroke-width="1.0" stroke-linecap="butt" d="m544.52826 39.89217l1.1244507 -1.1247139l-3.0896606 1.124939l3.0899048 1.1242294z" fill-rule="evenodd"/><path fill="#000000" fill-opacity="0.0" d="m485.15952 0l51.704193 0l0 21.194174l-51.704193 0z" fill-rule="evenodd"/><path fill="#000000" d="m494.3939 15.117086l0 -0.859375l3.96875 -4.546875q-0.6875 0.03125 -1.203125 0.03125l-2.53125 0l0 -0.84375l5.09375 0l0 0.6875l-3.375 3.953125l-0.65625 0.71875q0.71875 -0.046875 1.328125 -0.046875l2.890625 0l0 0.90625l-5.515625 0zm12.109375 -5.046875l-5.671875 0l0 -0.984375l5.671875 0l0 0.984375zm0 2.609375l-5.671875 0l0 -0.984375l5.671875 0l0 0.984375zm6.710907 1.421875l0 1.015625l-5.6874695 0q0 -0.375 0.125 -0.734375q0.21875 -0.578125 0.6875 -1.140625q0.484375 -0.5625 1.390625 -1.296875q1.40625 -1.15625 1.890625 -1.828125q0.49996948 -0.671875 0.49996948 -1.265625q0 -0.625 -0.45309448 -1.046875q-0.453125 -0.4375 -1.171875 -0.4375q-0.765625 0 -1.21875 0.453125q-0.453125 0.453125 -0.46875 1.265625l-1.078125 -0.109375q0.109375 -1.21875 0.828125 -1.84375q0.734375 -0.640625 1.96875 -0.640625q1.234375 0 1.9530945 0.6875q0.71875 0.6875 0.71875 1.703125q0 0.515625 -0.21875 1.015625q-0.203125 0.484375 -0.703125 1.046875q-0.48434448 0.546875 -1.6093445 1.5q-0.953125 0.796875 -1.234375 1.09375q-0.265625 0.28125 -0.4375 0.5625l4.2187195 0z" fill-rule="nonzero"/><path fill="#000000" fill-opacity="0.0" d="m643.6353 0.06450787l51.704224 0l0 21.194172l-51.704224 0z" fill-rule="evenodd"/><path fill="#000000" d="m652.8697 15.181594l0 -0.859375l3.96875 -4.546875q-0.6875 0.03125 -1.203125 0.03125l-2.53125 0l0 -0.84375l5.09375 0l0 0.6875l-3.375 3.953125l-0.65625 0.71875q0.71875 -0.046875 1.328125 -0.046875l2.890625 0l0 0.90625l-5.515625 0zm12.109375 -5.046875l-5.671875 0l0 -0.984375l5.671875 0l0 0.984375zm0 2.609375l-5.671875 0l0 -0.984375l5.671875 0l0 0.984375zm5.1328125 2.4375l-1.046875 0l0 -6.71875q-0.390625 0.359375 -1.015625 0.734375q-0.609375 0.359375 -1.09375 0.53125l0 -1.015625q0.875 -0.421875 1.53125 -0.9999995q0.671875 -0.59375 0.953125 -1.15625l0.671875 0l0 8.625z" fill-rule="nonzero"/><path fill="#000000" fill-opacity="0.0" d="m562.282 111.95898l51.704224 0l0 21.194176l-51.704224 0z" fill-rule="evenodd"/><path fill="#000000" d="m571.5476 127.356064l0 -0.953125l4.390625 -5.046875q-0.75 0.03125 -1.3125 0.03125l-2.828125 0l0 -0.9375l5.65625 0l0 0.765625l-3.75 4.390625l-0.71875 0.796875q0.796875 -0.0625 1.484375 -0.0625l3.1875 0l0 1.015625l-6.109375 0zm13.4453125 -5.609375l-6.3125 0l0 -1.09375l6.3125 0l0 1.09375zm0 2.890625l-6.3125 0l0 -1.09375l6.3125 0l0 1.09375zm5.7053223 2.71875l-1.171875 0l0 -7.46875q-0.421875 0.40625 -1.109375 0.8125q-0.6875 0.40625 -1.234375 0.609375l0 -1.140625q0.984375 -0.453125 1.71875 -1.109375q0.734375 -0.671875 1.03125 -1.28125l0.765625 0l0 9.578125z" fill-rule="nonzero"/><path fill="#000000" fill-opacity="0.0" d="m403.38464 23.930197l64.41 0l0 31.87134l-64.41 0z" fill-rule="evenodd"/><path fill="#000000" d="m416.85138 44.385868l0 -8.59375l3.8125 0q1.15625 0 1.75 0.234375q0.59375 0.234375 0.953125 0.828125q0.359375 0.578125 0.359375 1.28125q0 0.921875 -0.59375 1.546875q-0.59375 0.625 -1.828125 0.796875q0.453125 0.21875 0.6875 0.421875q0.5 0.453125 0.9375 1.140625l1.5 2.34375l-1.4375 0l-1.125 -1.78125q-0.5 -0.78125 -0.828125 -1.1875q-0.3125 -0.40625 -0.578125 -0.5625q-0.25 -0.171875 -0.515625 -0.25q-0.1875 -0.03125 -0.625 -0.03125l-1.328125 0l0 3.8125l-1.140625 0zm1.140625 -4.796875l2.453125 0q0.765625 0 1.203125 -0.15625q0.453125 -0.171875 0.671875 -0.515625q0.234375 -0.359375 0.234375 -0.78125q0 -0.609375 -0.453125 -1.0q-0.4375 -0.390625 -1.390625 -0.390625l-2.71875 0l0 2.84375zm11.634766 2.796875l1.09375 0.125q-0.25 0.953125 -0.953125 1.484375q-0.703125 0.53125 -1.78125 0.53125q-1.359375 0 -2.171875 -0.84375q-0.796875 -0.84375 -0.796875 -2.359375q0 -1.5625 0.8125 -2.421875q0.8125 -0.875 2.09375 -0.875q1.25 0 2.03125 0.84375q0.796875 0.84375 0.796875 2.390625q0 0.09375 0 0.28125l-4.640625 0q0.0625 1.03125 0.578125 1.578125q0.515625 0.53125 1.296875 0.53125q0.578125 0 0.984375 -0.296875q0.421875 -0.3125 0.65625 -0.96875zm-3.453125 -1.703125l3.46875 0q-0.0625 -0.796875 -0.390625 -1.1875q-0.515625 -0.609375 -1.3125 -0.609375q-0.734375 0 -1.234375 0.484375q-0.484375 0.484375 -0.53125 1.3125zm9.939453 2.9375q-0.59375 0.5 -1.140625 0.703125q-0.53125 0.203125 -1.15625 0.203125q-1.03125 0 -1.578125 -0.5q-0.546875 -0.5 -0.546875 -1.28125q0 -0.453125 0.203125 -0.828125q0.203125 -0.390625 0.546875 -0.609375q0.34375 -0.234375 0.765625 -0.34375q0.296875 -0.09375 0.9375 -0.171875q1.265625 -0.140625 1.875 -0.359375q0 -0.21875 0 -0.265625q0 -0.65625 -0.296875 -0.921875q-0.40625 -0.34375 -1.203125 -0.34375q-0.734375 0 -1.09375 0.265625q-0.359375 0.25 -0.53125 0.90625l-1.03125 -0.140625q0.140625 -0.65625 0.46875 -1.0625q0.328125 -0.40625 0.9375 -0.625q0.609375 -0.21875 1.40625 -0.21875q0.796875 0 1.296875 0.1875q0.5 0.1875 0.734375 0.46875q0.234375 0.28125 0.328125 0.71875q0.046875 0.265625 0.046875 0.96875l0 1.40625q0 1.46875 0.0625 1.859375q0.078125 0.390625 0.28125 0.75l-1.109375 0q-0.15625 -0.328125 -0.203125 -0.765625zm-0.09375 -2.359375q-0.578125 0.234375 -1.71875 0.40625q-0.65625 0.09375 -0.921875 0.21875q-0.265625 0.109375 -0.421875 0.328125q-0.140625 0.21875 -0.140625 0.5q0 0.421875 0.3125 0.703125q0.328125 0.28125 0.9375 0.28125q0.609375 0 1.078125 -0.265625q0.484375 -0.265625 0.703125 -0.734375q0.171875 -0.359375 0.171875 -1.046875l0 -0.390625zm6.736328 3.125l0 -0.78125q-0.59375 0.921875 -1.734375 0.921875q-0.75 0 -1.375 -0.40625q-0.625 -0.421875 -0.96875 -1.15625q-0.34375 -0.734375 -0.34375 -1.6875q0 -0.921875 0.3125 -1.6875q0.3125 -0.765625 0.9375 -1.15625q0.625 -0.40625 1.390625 -0.40625q0.5625 0 1.0 0.234375q0.4375 0.234375 0.71875 0.609375l0 -3.078125l1.046875 0l0 8.59375l-0.984375 0zm-3.328125 -3.109375q0 1.203125 0.5 1.796875q0.5 0.578125 1.1875 0.578125q0.6875 0 1.171875 -0.5625q0.484375 -0.5625 0.484375 -1.71875q0 -1.28125 -0.5 -1.875q-0.484375 -0.59375 -1.203125 -0.59375q-0.703125 0 -1.171875 0.578125q-0.46875 0.5625 -0.46875 1.796875zm8.7421875 3.109375l0 -1.0625l4.40625 -5.5q0.46875 -0.578125 0.890625 -1.015625l-4.796875 0l0 -1.015625l6.15625 0l0 1.015625l-4.828125 5.953125l-0.515625 0.609375l5.484375 0l0 1.015625l-6.796875 0z" fill-rule="nonzero"/><path fill="#000000" fill-opacity="0.0" d="m436.89337 26.97861l0 0c9.972107 -6.977642 26.863983 -9.661921 42.00064 -6.674301c15.136658 2.9876194 25.15387 10.983114 24.907196 19.880331c-0.24667358 8.897217 -10.702393 16.718674 -25.997528 19.447601c-15.2951355 2.7289238 -32.030243 -0.24121094 -41.61084 -7.385067l30.109222 -12.381306z" fill-rule="evenodd"/><path fill="#000000" fill-opacity="0.0" d="m436.89337 26.97861l0 0c9.972107 -6.977642 26.863983 -9.661921 42.00064 -6.674301c15.136658 2.9876194 25.15387 10.983114 24.907196 19.880331c-0.24667358 8.897217 -10.702393 16.718674 -25.997528 19.447601c-15.2951355 2.7289238 -32.030243 -0.24121094 -41.61084 -7.385067" fill-rule="evenodd"/><path stroke="#6aa84f" stroke-width="2.0" stroke-linejoin="round" stroke-linecap="butt" d="m436.89337 26.978611l0 0c9.972107 -6.977644 26.863983 -9.661922 42.00061 -6.674303c15.136688 2.9876194 25.15387 10.983114 24.907227 19.880331c-0.24667358 8.897213 -10.702362 16.718674 -25.997528 19.447598c-7.647583 1.3644638 -15.655151 1.3041611 -22.948364 0.00976181c-3.6466064 -0.6471977 -7.1146545 -1.6029205 -10.269836 -2.843338c-0.78881836 -0.31010056 -1.5580444 -0.6380005 -2.3056335 -0.98332214c-0.3738098 -0.17265701 -0.742157 -0.3496704 -1.1048584 -0.5309906c-0.18139648 -0.09066391 -0.3612976 -0.18239975 -0.5397644 -0.27521133l-0.25234985 -0.13381195" fill-rule="evenodd"/><path fill="#6aa84f" stroke="#6aa84f" stroke-width="2.0" stroke-linecap="butt" d="m440.38287 54.875324l1.5953064 -0.36544418l-3.3084717 -0.7091141l2.0786133 2.6698456z" fill-rule="evenodd"/><path fill="#000000" fill-opacity="0.0" d="m735.59576 23.903503l64.40997 0l0 31.871338l-64.40997 0z" fill-rule="evenodd"/><path fill="#000000" d="m749.0625 44.359173l0 -8.59375l3.8125 0q1.15625 0 1.75 0.234375q0.59375 0.234375 0.953125 0.828125q0.359375 0.578125 0.359375 1.28125q0 0.921875 -0.59375 1.546875q-0.59375 0.625 -1.828125 0.796875q0.453125 0.21875 0.6875 0.421875q0.5 0.453125 0.9375 1.140625l1.5 2.34375l-1.4375 0l-1.125 -1.78125q-0.5 -0.78125 -0.828125 -1.1875q-0.3125 -0.40625 -0.578125 -0.5625q-0.25 -0.171875 -0.515625 -0.25q-0.1875 -0.03125 -0.625 -0.03125l-1.328125 0l0 3.8125l-1.140625 0zm1.140625 -4.796875l2.453125 0q0.765625 0 1.203125 -0.15625q0.453125 -0.171875 0.671875 -0.515625q0.234375 -0.359375 0.234375 -0.78125q0 -0.609375 -0.453125 -1.0q-0.4375 -0.390625 -1.390625 -0.390625l-2.71875 0l0 2.84375zm11.634766 2.796875l1.09375 0.125q-0.25 0.953125 -0.953125 1.484375q-0.703125 0.53125 -1.78125 0.53125q-1.359375 0 -2.171875 -0.84375q-0.796875 -0.84375 -0.796875 -2.359375q0 -1.5625 0.8125 -2.421875q0.8125 -0.875 2.09375 -0.875q1.25 0 2.03125 0.84375q0.796875 0.84375 0.796875 2.390625q0 0.09375 0 0.28125l-4.640625 0q0.0625 1.03125 0.578125 1.578125q0.515625 0.53125 1.296875 0.53125q0.578125 0 0.984375 -0.296875q0.421875 -0.3125 0.65625 -0.96875zm-3.453125 -1.703125l3.46875 0q-0.0625 -0.796875 -0.390625 -1.1875q-0.515625 -0.609375 -1.3125 -0.609375q-0.734375 0 -1.234375 0.484375q-0.484375 0.484375 -0.53125 1.3125zm9.939453 2.9375q-0.59375 0.5 -1.140625 0.703125q-0.53125 0.203125 -1.15625 0.203125q-1.03125 0 -1.578125 -0.5q-0.546875 -0.5 -0.546875 -1.28125q0 -0.453125 0.203125 -0.828125q0.203125 -0.390625 0.546875 -0.609375q0.34375 -0.234375 0.765625 -0.34375q0.296875 -0.09375 0.9375 -0.171875q1.265625 -0.140625 1.875 -0.359375q0 -0.21875 0 -0.265625q0 -0.65625 -0.296875 -0.921875q-0.40625 -0.34375 -1.203125 -0.34375q-0.734375 0 -1.09375 0.265625q-0.359375 0.25 -0.53125 0.90625l-1.03125 -0.140625q0.140625 -0.65625 0.46875 -1.0625q0.328125 -0.40625 0.9375 -0.625q0.609375 -0.21875 1.40625 -0.21875q0.796875 0 1.296875 0.1875q0.5 0.1875 0.734375 0.46875q0.234375 0.28125 0.328125 0.71875q0.046875 0.265625 0.046875 0.96875l0 1.40625q0 1.46875 0.0625 1.859375q0.078125 0.390625 0.28125 0.75l-1.109375 0q-0.15625 -0.328125 -0.203125 -0.765625zm-0.09375 -2.359375q-0.578125 0.234375 -1.71875 0.40625q-0.65625 0.09375 -0.921875 0.21875q-0.265625 0.109375 -0.421875 0.328125q-0.140625 0.21875 -0.140625 0.5q0 0.421875 0.3125 0.703125q0.328125 0.28125 0.9375 0.28125q0.609375 0 1.078125 -0.265625q0.484375 -0.265625 0.703125 -0.734375q0.171875 -0.359375 0.171875 -1.046875l0 -0.390625zm6.736328 3.125l0 -0.78125q-0.59375 0.921875 -1.734375 0.921875q-0.75 0 -1.375 -0.40625q-0.625 -0.421875 -0.96875 -1.15625q-0.34375 -0.734375 -0.34375 -1.6875q0 -0.921875 0.3125 -1.6875q0.3125 -0.765625 0.9375 -1.15625q0.625 -0.40625 1.390625 -0.40625q0.5625 0 1.0 0.234375q0.4375 0.234375 0.71875 0.609375l0 -3.078125l1.046875 0l0 8.59375l-0.984375 0zm-3.328125 -3.109375q0 1.203125 0.5 1.796875q0.5 0.578125 1.1875 0.578125q0.6875 0 1.171875 -0.5625q0.484375 -0.5625 0.484375 -1.71875q0 -1.28125 -0.5 -1.875q-0.484375 -0.59375 -1.203125 -0.59375q-0.703125 0 -1.171875 0.578125q-0.46875 0.5625 -0.46875 1.796875zm8.7421875 3.109375l0 -1.0625l4.40625 -5.5q0.46875 -0.578125 0.890625 -1.015625l-4.796875 0l0 -1.015625l6.15625 0l0 1.015625l-4.828125 5.953125l-0.515625 0.609375l5.484375 0l0 1.015625l-6.796875 0z" fill-rule="nonzero"/><path fill="#000000" fill-opacity="0.0" d="m766.497 26.97861l0 0c-9.972107 -6.977642 -26.863953 -9.661921 -42.00061 -6.674301c-15.136658 2.9876194 -25.15387 10.983114 -24.907166 19.880331c0.24664307 8.897217 10.702332 16.718674 25.997498 19.447601c15.295166 2.7289238 32.030212 -0.24121094 41.61084 -7.385067l-30.109253 -12.381306z" fill-rule="evenodd"/><path fill="#000000" fill-opacity="0.0" d="m766.497 26.97861l0 0c-9.972107 -6.977642 -26.863953 -9.661921 -42.00061 -6.674301c-15.136658 2.9876194 -25.15387 10.983114 -24.907166 19.880331c0.24664307 8.897217 10.702332 16.718674 25.997498 19.447601c15.295166 2.7289238 32.030212 -0.24121094 41.61084 -7.385067" fill-rule="evenodd"/><path stroke="#6aa84f" stroke-width="2.0" stroke-linejoin="round" stroke-linecap="butt" d="m766.4971 26.978611l0 0c-9.972107 -6.977644 -26.864014 -9.661922 -42.00067 -6.674303c-15.136658 2.9876194 -25.15387 10.983114 -24.907166 19.880331c0.24664307 8.897213 10.702332 16.718674 25.997437 19.447598c7.647583 1.3644638 15.655212 1.3041611 22.948425 0.00976181c3.6466675 -0.6471977 7.114685 -1.6029205 10.269836 -2.843338c0.78881836 -0.31010056 1.5579834 -0.6380005 2.305603 -0.98332214c0.3737793 -0.17265701 0.74224854 -0.3496704 1.1049194 -0.5309906c0.18133545 -0.09066391 0.36132812 -0.18239975 0.5397949 -0.27521133l0.25231934 -0.13381195" fill-rule="evenodd"/><path fill="#6aa84f" stroke="#6aa84f" stroke-width="2.0" stroke-linecap="butt" d="m763.0075 54.875324l-0.36541748 1.5952873l2.0786133 -2.6698456l-3.3084717 0.7091141z" fill-rule="evenodd"/><path fill="#000000" fill-opacity="0.0" d="m569.4835 193.3034l64.410034 0l0 31.871338l-64.410034 0z" fill-rule="evenodd"/><path fill="#000000" d="m582.95026 213.75908l0 -8.59375l3.8125 0q1.15625 0 1.75 0.234375q0.59375 0.234375 0.953125 0.828125q0.359375 0.578125 0.359375 1.28125q0 0.921875 -0.59375 1.546875q-0.59375 0.625 -1.828125 0.796875q0.453125 0.21875 0.6875 0.421875q0.5 0.453125 0.9375 1.140625l1.5 2.34375l-1.4375 0l-1.125 -1.78125q-0.5 -0.78125 -0.828125 -1.1875q-0.3125 -0.40625 -0.578125 -0.5625q-0.25 -0.171875 -0.515625 -0.25q-0.1875 -0.03125 -0.625 -0.03125l-1.328125 0l0 3.8125l-1.140625 0zm1.140625 -4.796875l2.453125 0q0.765625 0 1.203125 -0.15625q0.453125 -0.171875 0.671875 -0.515625q0.234375 -0.359375 0.234375 -0.78125q0 -0.609375 -0.453125 -1.0q-0.4375 -0.390625 -1.390625 -0.390625l-2.71875 0l0 2.84375zm11.634766 2.796875l1.09375 0.125q-0.25 0.953125 -0.953125 1.484375q-0.703125 0.53125 -1.78125 0.53125q-1.359375 0 -2.171875 -0.84375q-0.796875 -0.84375 -0.796875 -2.359375q0 -1.5625 0.8125 -2.421875q0.8125 -0.875 2.09375 -0.875q1.25 0 2.03125 0.84375q0.796875 0.84375 0.796875 2.390625q0 0.09375 0 0.28125l-4.640625 0q0.0625 1.03125 0.578125 1.578125q0.515625 0.53125 1.296875 0.53125q0.578125 0 0.984375 -0.296875q0.421875 -0.3125 0.65625 -0.96875zm-3.453125 -1.703125l3.46875 0q-0.0625 -0.796875 -0.390625 -1.1875q-0.515625 -0.609375 -1.3125 -0.609375q-0.734375 0 -1.234375 0.484375q-0.484375 0.484375 -0.53125 1.3125zm9.939453 2.9375q-0.59375 0.5 -1.140625 0.703125q-0.53125 0.203125 -1.15625 0.203125q-1.03125 0 -1.578125 -0.5q-0.546875 -0.5 -0.546875 -1.28125q0 -0.453125 0.203125 -0.828125q0.203125 -0.390625 0.546875 -0.609375q0.34375 -0.234375 0.765625 -0.34375q0.296875 -0.09375 0.9375 -0.171875q1.265625 -0.140625 1.875 -0.359375q0 -0.21875 0 -0.265625q0 -0.65625 -0.296875 -0.921875q-0.40625 -0.34375 -1.203125 -0.34375q-0.734375 0 -1.09375 0.265625q-0.359375 0.25 -0.53125 0.90625l-1.03125 -0.140625q0.140625 -0.65625 0.46875 -1.0625q0.328125 -0.40625 0.9375 -0.625q0.609375 -0.21875 1.40625 -0.21875q0.796875 0 1.296875 0.1875q0.5 0.1875 0.734375 0.46875q0.234375 0.28125 0.328125 0.71875q0.046875 0.265625 0.046875 0.96875l0 1.40625q0 1.46875 0.0625 1.859375q0.078125 0.390625 0.28125 0.75l-1.109375 0q-0.15625 -0.328125 -0.203125 -0.765625zm-0.09375 -2.359375q-0.578125 0.234375 -1.71875 0.40625q-0.65625 0.09375 -0.921875 0.21875q-0.265625 0.109375 -0.421875 0.328125q-0.140625 0.21875 -0.140625 0.5q0 0.421875 0.3125 0.703125q0.328125 0.28125 0.9375 0.28125q0.609375 0 1.078125 -0.265625q0.484375 -0.265625 0.703125 -0.734375q0.171875 -0.359375 0.171875 -1.046875l0 -0.390625zm6.736328 3.125l0 -0.78125q-0.59375 0.921875 -1.734375 0.921875q-0.75 0 -1.375 -0.40625q-0.625 -0.421875 -0.96875 -1.15625q-0.34375 -0.734375 -0.34375 -1.6875q0 -0.921875 0.3125 -1.6875q0.3125 -0.765625 0.9375 -1.15625q0.625 -0.40625 1.390625 -0.40625q0.5625 0 1.0 0.234375q0.4375 0.234375 0.71875 0.609375l0 -3.078125l1.046875 0l0 8.59375l-0.984375 0zm-3.328125 -3.109375q0 1.203125 0.5 1.796875q0.5 0.578125 1.1875 0.578125q0.6875 0 1.171875 -0.5625q0.484375 -0.5625 0.484375 -1.71875q0 -1.28125 -0.5 -1.875q-0.484375 -0.59375 -1.203125 -0.59375q-0.703125 0 -1.171875 0.578125q-0.46875 0.5625 -0.46875 1.796875zm8.7421875 3.109375l0 -1.0625l4.40625 -5.5q0.46875 -0.578125 0.890625 -1.015625l-4.796875 0l0 -1.015625l6.15625 0l0 1.015625l-4.828125 5.953125l-0.515625 0.609375l5.484375 0l0 1.015625l-6.796875 0z" fill-rule="nonzero"/><path fill="#000000" fill-opacity="0.0" d="m573.91583 204.58328l0 0c-13.7821045 -8.4097595 -12.80896 -21.39009 2.1845703 -29.138351c14.993469 -7.7482605 38.446106 -7.3905945 52.646667 0.8029175c14.200562 8.193497 13.881958 21.183807 -0.7151489 29.160751l-26.343384 -14.781158z" fill-rule="evenodd"/><path fill="#000000" fill-opacity="0.0" d="m573.91583 204.58328l0 0c-13.7821045 -8.4097595 -12.80896 -21.39009 2.1845703 -29.138351c14.993469 -7.7482605 38.446106 -7.3905945 52.646667 0.8029175c14.200562 8.193497 13.881958 21.183807 -0.7151489 29.160751" fill-rule="evenodd"/><path stroke="#6aa84f" stroke-width="2.0" stroke-linejoin="round" stroke-linecap="butt" d="m573.91583 204.58327l0 0c-13.7821045 -8.409744 -12.808899 -21.39006 2.1845703 -29.138351c14.993469 -7.7482452 38.446106 -7.390579 52.646667 0.80293274c7.100281 4.096756 10.57074 9.3927 10.441589 14.661575c-0.06463623 2.6344604 -1.0291748 5.2621155 -2.8898926 7.7297516c-0.9303589 1.2338104 -2.0847168 2.4276123 -3.4627075 3.5622253c-0.17224121 0.14183044 -0.34802246 0.28274536 -0.5272217 0.42268372l-0.12512207 0.09640503" fill-rule="evenodd"/><path fill="#6aa84f" stroke="#6aa84f" stroke-width="2.0" stroke-linecap="butt" d="m632.1837 202.72049l0.34246826 -1.6003723l-2.039978 2.6994476l3.2979126 -0.75660706z" fill-rule="evenodd"/><path fill="#000000" fill-opacity="0.0" d="m450.62 64.41667l24.50409 0l0 21.194176l-24.50409 0z" fill-rule="evenodd"/><path fill="#000000" d="m465.66687 78.518135l0 1.015625l-5.6875 0q0 -0.375 0.125 -0.734375q0.21875 -0.578125 0.6875 -1.140625q0.484375 -0.5625 1.390625 -1.296875q1.40625 -1.15625 1.890625 -1.828125q0.5 -0.671875 0.5 -1.265625q0 -0.625 -0.453125 -1.046875q-0.453125 -0.4375 -1.171875 -0.4375q-0.765625 0 -1.21875 0.453125q-0.453125 0.453125 -0.46875 1.265625l-1.078125 -0.109375q0.109375 -1.21875 0.828125 -1.84375q0.734375 -0.640625 1.96875 -0.640625q1.234375 0 1.953125 0.6875q0.71875 0.6875 0.71875 1.703125q0 0.515625 -0.21875 1.015625q-0.203125 0.484375 -0.703125 1.046875q-0.484375 0.546875 -1.609375 1.5q-0.953125 0.796875 -1.234375 1.09375q-0.265625 0.28125 -0.4375 0.5625l4.21875 0z" fill-rule="nonzero"/><path fill="#000000" fill-opacity="0.0" d="m724.8363 64.41667l24.50409 0l0 21.194176l-24.50409 0z" fill-rule="evenodd"/><path fill="#000000" d="m738.30505 79.53376l-1.046875 0l0 -6.71875q-0.390625 0.359375 -1.015625 0.734375q-0.609375 0.359375 -1.09375 0.53125l0 -1.015625q0.875 -0.421875 1.53125 -1.0q0.671875 -0.59375 0.953125 -1.15625l0.671875 0l0 8.625z" fill-rule="nonzero"/><path fill="#000000" fill-opacity="0.0" d="m643.6365 180.03035l24.50409 0l0 21.194183l-24.50409 0z" fill-rule="evenodd"/><path fill="#000000" d="m657.1052 195.14745l-1.046875 0l0 -6.71875q-0.390625 0.359375 -1.015625 0.734375q-0.609375 0.359375 -1.09375 0.53125l0 -1.015625q0.875 -0.421875 1.53125 -1.0q0.671875 -0.59375 0.953125 -1.15625l0.671875 0l0 8.625z" fill-rule="nonzero"/><path fill="#000000" fill-opacity="0.0" d="m124.30708 229.39896l148.00002 0l0 44.0l-148.00002 0z" fill-rule="evenodd"/><path fill="#000000" d="m148.23131 248.19894l0 -9.546875l4.234375 0q1.265625 0 1.921875 0.265625q0.671875 0.25 1.0625 0.90625q0.40625 0.65625 0.40625 1.4375q0 1.015625 -0.65625 1.71875q-0.65625 0.6875 -2.03125 0.875q0.5 0.25 0.765625 0.484375q0.546875 0.5 1.046875 1.265625l1.65625 2.59375l-1.578125 0l-1.265625 -1.984375q-0.5625 -0.859375 -0.921875 -1.3125q-0.34375 -0.453125 -0.640625 -0.640625q-0.28125 -0.1875 -0.5625 -0.25q-0.21875 -0.046875 -0.703125 -0.046875l-1.46875 0l0 4.234375l-1.265625 0zm1.265625 -5.328125l2.71875 0q0.859375 0 1.34375 -0.171875q0.484375 -0.1875 0.734375 -0.578125q0.265625 -0.390625 0.265625 -0.859375q0 -0.671875 -0.5 -1.109375q-0.484375 -0.4375 -1.546875 -0.4375l-3.015625 0l0 3.15625zm12.922028 3.109375l1.203125 0.140625q-0.28125 1.0625 -1.0625 1.65625q-0.765625 0.578125 -1.96875 0.578125q-1.515625 0 -2.40625 -0.9375q-0.890625 -0.9375 -0.890625 -2.609375q0 -1.75 0.890625 -2.703125q0.90625 -0.96875 2.34375 -0.96875q1.390625 0 2.265625 0.9375q0.875 0.9375 0.875 2.65625q0 0.109375 0 0.3125l-5.15625 0q0.0625 1.140625 0.640625 1.75q0.578125 0.59375 1.4375 0.59375q0.65625 0 1.109375 -0.328125q0.453125 -0.34375 0.71875 -1.078125zm-3.84375 -1.90625l3.859375 0q-0.078125 -0.859375 -0.4375 -1.296875q-0.5625 -0.6875 -1.453125 -0.6875q-0.8125 0 -1.359375 0.546875q-0.546875 0.53125 -0.609375 1.4375zm11.037476 3.265625q-0.65625 0.5625 -1.265625 0.796875q-0.59375 0.21875 -1.28125 0.21875q-1.140625 0 -1.75 -0.546875q-0.609375 -0.5625 -0.609375 -1.4375q0 -0.5 0.21875 -0.921875q0.234375 -0.421875 0.609375 -0.671875q0.375 -0.25 0.84375 -0.390625q0.34375 -0.078125 1.046875 -0.171875q1.421875 -0.171875 2.09375 -0.40625q0 -0.234375 0 -0.296875q0 -0.71875 -0.328125 -1.015625q-0.453125 -0.390625 -1.34375 -0.390625q-0.8125 0 -1.21875 0.296875q-0.390625 0.28125 -0.578125 1.015625l-1.140625 -0.15625q0.15625 -0.734375 0.515625 -1.1875q0.359375 -0.453125 1.03125 -0.6875q0.671875 -0.25 1.5625 -0.25q0.890625 0 1.4375 0.203125q0.5625 0.203125 0.8125 0.53125q0.265625 0.3125 0.375 0.796875q0.046875 0.296875 0.046875 1.078125l0 1.5625q0 1.625 0.078125 2.0625q0.078125 0.4375 0.296875 0.828125l-1.21875 0q-0.1875 -0.359375 -0.234375 -0.859375zm-0.09375 -2.609375q-0.640625 0.265625 -1.921875 0.4375q-0.71875 0.109375 -1.015625 0.25q-0.296875 0.125 -0.46875 0.375q-0.15625 0.25 -0.15625 0.546875q0 0.46875 0.34375 0.78125q0.359375 0.3125 1.046875 0.3125q0.671875 0 1.203125 -0.296875q0.53125 -0.296875 0.78125 -0.8125q0.1875 -0.390625 0.1875 -1.171875l0 -0.421875zm7.4749756 3.46875l0 -0.875q-0.65625 1.03125 -1.9375 1.03125q-0.8125 0 -1.515625 -0.453125q-0.6875 -0.453125 -1.078125 -1.265625q-0.375 -0.828125 -0.375 -1.890625q0 -1.03125 0.34375 -1.875q0.34375 -0.84375 1.03125 -1.28125q0.703125 -0.453125 1.546875 -0.453125q0.625 0 1.109375 0.265625q0.5 0.25 0.796875 0.671875l0 -3.421875l1.171875 0l0 9.546875l-1.09375 0zm-3.703125 -3.453125q0 1.328125 0.5625 1.984375q0.5625 0.65625 1.328125 0.65625q0.765625 0 1.296875 -0.625q0.53125 -0.625 0.53125 -1.90625q0 -1.421875 -0.546875 -2.078125q-0.546875 -0.671875 -1.34375 -0.671875q-0.78125 0 -1.3125 0.640625q-0.515625 0.625 -0.515625 2.0zm14.849838 2.59375q-0.65625 0.5625 -1.265625 0.796875q-0.59375 0.21875 -1.28125 0.21875q-1.140625 0 -1.75 -0.546875q-0.609375 -0.5625 -0.609375 -1.4375q0 -0.5 0.21875 -0.921875q0.234375 -0.421875 0.609375 -0.671875q0.375 -0.25 0.84375 -0.390625q0.34375 -0.078125 1.046875 -0.171875q1.421875 -0.171875 2.09375 -0.40625q0 -0.234375 0 -0.296875q0 -0.71875 -0.328125 -1.015625q-0.453125 -0.390625 -1.34375 -0.390625q-0.8125 0 -1.21875 0.296875q-0.390625 0.28125 -0.578125 1.015625l-1.140625 -0.15625q0.15625 -0.734375 0.515625 -1.1875q0.359375 -0.453125 1.03125 -0.6875q0.671875 -0.25 1.5625 -0.25q0.890625 0 1.4375 0.203125q0.5625 0.203125 0.8125 0.53125q0.265625 0.3125 0.375 0.796875q0.046875 0.296875 0.046875 1.078125l0 1.5625q0 1.625 0.078125 2.0625q0.078125 0.4375 0.296875 0.828125l-1.21875 0q-0.1875 -0.359375 -0.234375 -0.859375zm-0.09375 -2.609375q-0.640625 0.265625 -1.921875 0.4375q-0.71875 0.109375 -1.015625 0.25q-0.296875 0.125 -0.46875 0.375q-0.15625 0.25 -0.15625 0.546875q0 0.46875 0.34375 0.78125q0.359375 0.3125 1.046875 0.3125q0.671875 0 1.203125 -0.296875q0.53125 -0.296875 0.78125 -0.8125q0.1875 -0.390625 0.1875 -1.171875l0 -0.421875zm3.2718506 3.46875l0 -6.0l-1.03125 0l0 -0.90625l1.03125 0l0 -0.734375q0 -0.703125 0.125 -1.046875q0.171875 -0.453125 0.59375 -0.734375q0.421875 -0.28125 1.203125 -0.28125q0.484375 0 1.09375 0.109375l-0.1875 1.03125q-0.359375 -0.0625 -0.6875 -0.0625q-0.53125 0 -0.75 0.234375q-0.21875 0.21875 -0.21875 0.84375l0 0.640625l1.34375 0l0 0.90625l-1.34375 0l0 6.0l-1.171875 0zm5.9842377 -1.046875l0.171875 1.03125q-0.5 0.109375 -0.890625 0.109375q-0.640625 0 -1.0 -0.203125q-0.34375 -0.203125 -0.484375 -0.53125q-0.140625 -0.328125 -0.140625 -1.390625l0 -3.96875l-0.859375 0l0 -0.90625l0.859375 0l0 -1.71875l1.171875 -0.703125l0 2.421875l1.171875 0l0 0.90625l-1.171875 0l0 4.046875q0 0.5 0.046875 0.640625q0.0625 0.140625 0.203125 0.234375q0.140625 0.078125 0.40625 0.078125q0.203125 0 0.515625 -0.046875zm5.8748627 -1.171875l1.203125 0.140625q-0.28125 1.0625 -1.0625 1.65625q-0.765625 0.578125 -1.96875 0.578125q-1.515625 0 -2.40625 -0.9375q-0.890625 -0.9375 -0.890625 -2.609375q0 -1.75 0.890625 -2.703125q0.90625 -0.96875 2.34375 -0.96875q1.390625 0 2.265625 0.9375q0.875 0.9375 0.875 2.65625q0 0.109375 0 0.3125l-5.15625 0q0.0625 1.140625 0.640625 1.75q0.578125 0.59375 1.4375 0.59375q0.65625 0 1.109375 -0.328125q0.453125 -0.34375 0.71875 -1.078125zm-3.84375 -1.90625l3.859375 0q-0.078125 -0.859375 -0.4375 -1.296875q-0.5625 -0.6875 -1.453125 -0.6875q-0.8125 0 -1.359375 0.546875q-0.546875 0.53125 -0.609375 1.4375zm6.5062256 4.125l0 -6.90625l1.0625 0l0 1.046875q0.40625 -0.734375 0.734375 -0.96875q0.34375 -0.234375 0.765625 -0.234375q0.59375 0 1.203125 0.375l-0.40625 1.078125q-0.4375 -0.25 -0.859375 -0.25q-0.390625 0 -0.703125 0.234375q-0.296875 0.234375 -0.421875 0.640625q-0.203125 0.625 -0.203125 1.359375l0 3.625l-1.171875 0zm7.6882324 -2.0625l1.15625 -0.1875q0.109375 0.703125 0.546875 1.078125q0.453125 0.359375 1.25 0.359375q0.8125 0 1.203125 -0.328125q0.390625 -0.328125 0.390625 -0.765625q0 -0.390625 -0.359375 -0.625q-0.234375 -0.15625 -1.1875 -0.390625q-1.296875 -0.328125 -1.796875 -0.5625q-0.484375 -0.25 -0.75 -0.65625q-0.25 -0.421875 -0.25 -0.9375q0 -0.453125 0.203125 -0.84375q0.21875 -0.40625 0.578125 -0.671875q0.28125 -0.1875 0.75 -0.328125q0.46875 -0.140625 1.015625 -0.140625q0.8125 0 1.421875 0.234375q0.609375 0.234375 0.90625 0.640625q0.296875 0.390625 0.40625 1.0625l-1.140625 0.15625q-0.078125 -0.53125 -0.453125 -0.828125q-0.375 -0.3125 -1.0625 -0.3125q-0.8125 0 -1.15625 0.265625q-0.34375 0.265625 -0.34375 0.625q0 0.234375 0.140625 0.421875q0.15625 0.1875 0.453125 0.3125q0.171875 0.0625 1.03125 0.296875q1.25 0.328125 1.734375 0.546875q0.5 0.203125 0.78125 0.609375q0.28125 0.40625 0.28125 1.0q0 0.59375 -0.34375 1.109375q-0.34375 0.515625 -1.0 0.796875q-0.640625 0.28125 -1.453125 0.28125q-1.34375 0 -2.046875 -0.5625q-0.703125 -0.5625 -0.90625 -1.65625zm9.6953125 1.015625l0.171875 1.03125q-0.5 0.109375 -0.890625 0.109375q-0.640625 0 -1.0 -0.203125q-0.34375 -0.203125 -0.484375 -0.53125q-0.140625 -0.328125 -0.140625 -1.390625l0 -3.96875l-0.859375 0l0 -0.90625l0.859375 0l0 -1.71875l1.171875 -0.703125l0 2.421875l1.171875 0l0 0.90625l-1.171875 0l0 4.046875q0 0.5 0.046875 0.640625q0.0625 0.140625 0.203125 0.234375q0.140625 0.078125 0.40625 0.078125q0.203125 0 0.515625 -0.046875zm5.8748627 -1.171875l1.203125 0.140625q-0.28125 1.0625 -1.0625 1.65625q-0.765625 0.578125 -1.96875 0.578125q-1.515625 0 -2.40625 -0.9375q-0.890625 -0.9375 -0.890625 -2.609375q0 -1.75 0.890625 -2.703125q0.90625 -0.96875 2.34375 -0.96875q1.390625 0 2.265625 0.9375q0.875 0.9375 0.875 2.65625q0 0.109375 0 0.3125l-5.15625 0q0.0625 1.140625 0.640625 1.75q0.578125 0.59375 1.4375 0.59375q0.65625 0 1.109375 -0.328125q0.453125 -0.34375 0.71875 -1.078125zm-3.84375 -1.90625l3.859375 0q-0.078125 -0.859375 -0.4375 -1.296875q-0.5625 -0.6875 -1.453125 -0.6875q-0.8125 0 -1.359375 0.546875q-0.546875 0.53125 -0.609375 1.4375zm6.5218506 6.78125l0 -9.5625l1.078125 0l0 0.890625q0.375 -0.53125 0.84375 -0.78125q0.484375 -0.265625 1.15625 -0.265625q0.875 0 1.546875 0.453125q0.6875 0.453125 1.03125 1.28125q0.34375 0.828125 0.34375 1.828125q0 1.046875 -0.375 1.90625q-0.375 0.84375 -1.109375 1.296875q-0.71875 0.453125 -1.53125 0.453125q-0.578125 0 -1.046875 -0.25q-0.46875 -0.25 -0.765625 -0.625l0 3.375l-1.171875 0zm1.0625 -6.078125q0 1.34375 0.53125 1.984375q0.546875 0.625 1.3125 0.625q0.78125 0 1.34375 -0.65625q0.5625 -0.65625 0.5625 -2.046875q0 -1.3125 -0.546875 -1.96875q-0.546875 -0.671875 -1.296875 -0.671875q-0.75 0 -1.328125 0.703125q-0.578125 0.703125 -0.578125 2.03125zm13.490463 3.421875l0 -2.28125l-4.140625 0l0 -1.078125l4.34375 -6.1875l0.96875 0l0 6.1875l1.28125 0l0 1.078125l-1.28125 0l0 2.28125l-1.171875 0zm0 -3.359375l0 -4.296875l-2.984375 4.296875l2.984375 0z" fill-rule="nonzero"/><path fill="#000000" d="m171.32703 260.76144l1.984375 0.296875q-0.578125 1.609375 -1.734375 2.46875q-1.15625 0.84375 -2.71875 0.84375q-1.75 0 -2.734375 -1.046875q-0.984375 -1.0625 -0.984375 -3.0625q0 -1.640625 0.65625 -2.984375q0.65625 -1.34375 1.828125 -2.0625q1.171875 -0.71875 2.5625 -0.71875q1.546875 0 2.5 0.828125q0.953125 0.828125 1.125 2.265625l-1.875 0.171875q-0.15625 -0.828125 -0.609375 -1.203125q-0.4375 -0.375 -1.1875 -0.375q-0.8125 0 -1.515625 0.5q-0.703125 0.5 -1.125 1.546875q-0.421875 1.046875 -0.421875 2.09375q0 1.140625 0.546875 1.765625q0.546875 0.625 1.359375 0.625q0.765625 0 1.390625 -0.484375q0.640625 -0.5 0.953125 -1.46875zm2.9845276 0.5625q0 -1.921875 1.078125 -3.0625q1.078125 -1.140625 2.84375 -1.140625q1.53125 0 2.390625 0.84375q0.859375 0.84375 0.859375 2.265625q0 1.6875 -1.078125 2.90625q-1.0625 1.21875 -2.875 1.21875q-0.96875 0 -1.734375 -0.390625q-0.75 -0.390625 -1.125 -1.09375q-0.359375 -0.71875 -0.359375 -1.546875zm5.3125 -1.328125q0 -0.671875 -0.390625 -1.0625q-0.375 -0.40625 -0.984375 -0.40625q-0.609375 0 -1.078125 0.375q-0.46875 0.375 -0.734375 1.09375q-0.25 0.703125 -0.25 1.3125q0 0.734375 0.390625 1.171875q0.40625 0.4375 1.015625 0.4375q0.78125 0 1.296875 -0.65625q0.734375 -0.9375 0.734375 -2.265625zm4.0163574 -2.703125l1.78125 0l-0.1875 0.890625q0.65625 -0.578125 1.234375 -0.8125q0.578125 -0.25 1.21875 -0.25q0.84375 0 1.328125 0.5q0.5 0.484375 0.5 1.28125q0 0.375 -0.203125 1.390625l-0.8125 3.90625l-1.875 0l0.828125 -3.921875q0.171875 -0.875 0.171875 -1.046875q0 -0.359375 -0.21875 -0.5625q-0.203125 -0.203125 -0.578125 -0.203125q-0.40625 0 -0.90625 0.34375q-0.5 0.34375 -0.796875 0.90625q-0.203125 0.40625 -0.46875 1.640625l-0.59375 2.84375l-1.859375 0l1.4375 -6.90625zm6.4382324 4.96875l1.8125 -0.28125q0.234375 0.578125 0.59375 0.8125q0.359375 0.234375 0.96875 0.234375q0.640625 0 1.03125 -0.28125q0.265625 -0.203125 0.265625 -0.484375q0 -0.1875 -0.140625 -0.328125q-0.140625 -0.15625 -0.78125 -0.359375q-1.6875 -0.5625 -2.09375 -0.875q-0.625 -0.515625 -0.625 -1.328125q0 -0.828125 0.609375 -1.421875q0.859375 -0.828125 2.53125 -0.828125q1.34375 0 2.015625 0.5q0.6875 0.484375 0.875 1.3125l-1.734375 0.296875q-0.125 -0.375 -0.4375 -0.5625q-0.421875 -0.25 -1.0 -0.25q-0.59375 0 -0.859375 0.203125q-0.25 0.1875 -0.25 0.4375q0 0.265625 0.265625 0.421875q0.15625 0.109375 1.046875 0.375q1.375 0.390625 1.828125 0.78125q0.65625 0.53125 0.65625 1.296875q0 0.984375 -0.828125 1.703125q-0.828125 0.71875 -2.328125 0.71875q-1.5 0 -2.328125 -0.546875q-0.8125 -0.546875 -1.09375 -1.546875zm9.646851 -7.609375l1.859375 0l-0.34375 1.703125l-1.875 0l0.359375 -1.703125zm-0.546875 2.640625l1.859375 0l-1.4375 6.90625l-1.875 0l1.453125 -6.90625zm2.0154877 4.96875l1.8125 -0.28125q0.234375 0.578125 0.59375 0.8125q0.359375 0.234375 0.96875 0.234375q0.640625 0 1.03125 -0.28125q0.265625 -0.203125 0.265625 -0.484375q0 -0.1875 -0.140625 -0.328125q-0.140625 -0.15625 -0.78125 -0.359375q-1.6875 -0.5625 -2.09375 -0.875q-0.625 -0.515625 -0.625 -1.328125q0 -0.828125 0.609375 -1.421875q0.859375 -0.828125 2.53125 -0.828125q1.34375 0 2.015625 0.5q0.6875 0.484375 0.875 1.3125l-1.734375 0.296875q-0.125 -0.375 -0.4375 -0.5625q-0.421875 -0.25 -1.0 -0.25q-0.59375 0 -0.859375 0.203125q-0.25 0.1875 -0.25 0.4375q0 0.265625 0.265625 0.421875q0.15625 0.109375 1.046875 0.375q1.375 0.390625 1.828125 0.78125q0.65625 0.53125 0.65625 1.296875q0 0.984375 -0.828125 1.703125q-0.828125 0.71875 -2.328125 0.71875q-1.5 0 -2.328125 -0.546875q-0.8125 -0.546875 -1.09375 -1.546875zm8.115601 -3.59375l0.28125 -1.375l0.921875 0l0.21875 -1.109375l2.140625 -1.296875l-0.5 2.40625l1.140625 0l-0.28125 1.375l-1.140625 0l-0.609375 2.90625q-0.171875 0.78125 -0.171875 0.890625q0 0.21875 0.140625 0.34375q0.140625 0.109375 0.5 0.109375q0.125 0 0.609375 -0.046875l-0.28125 1.390625q-0.484375 0.09375 -1.0 0.09375q-0.984375 0 -1.4375 -0.375q-0.4375 -0.375 -0.4375 -1.0625q0 -0.3125 0.234375 -1.46875l0.578125 -2.78125l-0.90625 0zm10.703995 2.65625l-4.6875 0q0 0.109375 0 0.171875q0 0.6875 0.390625 1.109375q0.390625 0.421875 0.953125 0.421875q0.9375 0 1.453125 -0.96875l1.671875 0.28125q-0.484375 1.015625 -1.3125 1.515625q-0.8125 0.5 -1.828125 0.5q-1.390625 0 -2.265625 -0.875q-0.859375 -0.875 -0.859375 -2.328125q0 -1.421875 0.78125 -2.53125q1.078125 -1.5 3.0625 -1.5q1.265625 0 2.015625 0.796875q0.75 0.78125 0.75 2.1875q0 0.671875 -0.125 1.21875zm-1.578125 -1.140625q0 -0.125 0 -0.1875q0 -0.765625 -0.34375 -1.140625q-0.34375 -0.390625 -0.921875 -0.390625q-0.578125 0 -1.046875 0.4375q-0.453125 0.421875 -0.609375 1.28125l2.921875 0zm3.7249756 -2.890625l1.78125 0l-0.1875 0.890625q0.65625 -0.578125 1.234375 -0.8125q0.578125 -0.25 1.21875 -0.25q0.84375 0 1.328125 0.5q0.5 0.484375 0.5 1.28125q0 0.375 -0.203125 1.390625l-0.8125 3.90625l-1.875 0l0.828125 -3.921875q0.171875 -0.875 0.171875 -1.046875q0 -0.359375 -0.21875 -0.5625q-0.203125 -0.203125 -0.578125 -0.203125q-0.40625 0 -0.90625 0.34375q-0.5 0.34375 -0.796875 0.90625q-0.203125 0.40625 -0.46875 1.640625l-0.59375 2.84375l-1.859375 0l1.4375 -6.90625zm7.1413574 1.375l0.28125 -1.375l0.921875 0l0.21875 -1.109375l2.140625 -1.296875l-0.5 2.40625l1.140625 0l-0.28125 1.375l-1.140625 0l-0.609375 2.90625q-0.171875 0.78125 -0.171875 0.890625q0 0.21875 0.140625 0.34375q0.140625 0.109375 0.5 0.109375q0.125 0 0.609375 -0.046875l-0.28125 1.390625q-0.484375 0.09375 -1.0 0.09375q-0.984375 0 -1.4375 -0.375q-0.4375 -0.375 -0.4375 -1.0625q0 -0.3125 0.234375 -1.46875l0.578125 -2.78125l-0.90625 0z" fill-rule="nonzero"/><path fill="#000000" fill-opacity="0.0" d="m527.69556 229.39896l148.0 0l0 44.0l-148.0 0z" fill-rule="evenodd"/><path fill="#000000" d="m546.42975 248.19894l0 -9.546875l4.234375 0q1.265625 0 1.921875 0.265625q0.671875 0.25 1.0625 0.90625q0.40625 0.65625 0.40625 1.4375q0 1.015625 -0.65625 1.71875q-0.65625 0.6875 -2.03125 0.875q0.5 0.25 0.765625 0.484375q0.546875 0.5 1.046875 1.265625l1.65625 2.59375l-1.578125 0l-1.265625 -1.984375q-0.5625 -0.859375 -0.921875 -1.3125q-0.34375 -0.453125 -0.640625 -0.640625q-0.28125 -0.1875 -0.5625 -0.25q-0.21875 -0.046875 -0.703125 -0.046875l-1.46875 0l0 4.234375l-1.265625 0zm1.265625 -5.328125l2.71875 0q0.859375 0 1.34375 -0.171875q0.484375 -0.1875 0.734375 -0.578125q0.265625 -0.390625 0.265625 -0.859375q0 -0.671875 -0.5 -1.109375q-0.484375 -0.4375 -1.546875 -0.4375l-3.015625 0l0 3.15625zm12.921997 3.109375l1.203125 0.140625q-0.28125 1.0625 -1.0625 1.65625q-0.765625 0.578125 -1.96875 0.578125q-1.515625 0 -2.40625 -0.9375q-0.890625 -0.9375 -0.890625 -2.609375q0 -1.75 0.890625 -2.703125q0.90625 -0.96875 2.34375 -0.96875q1.390625 0 2.265625 0.9375q0.875 0.9375 0.875 2.65625q0 0.109375 0 0.3125l-5.15625 0q0.0625 1.140625 0.640625 1.75q0.578125 0.59375 1.4375 0.59375q0.65625 0 1.109375 -0.328125q0.453125 -0.34375 0.71875 -1.078125zm-3.84375 -1.90625l3.859375 0q-0.078125 -0.859375 -0.4375 -1.296875q-0.5625 -0.6875 -1.453125 -0.6875q-0.8125 0 -1.359375 0.546875q-0.546875 0.53125 -0.609375 1.4375zm11.037476 3.265625q-0.65625 0.5625 -1.265625 0.796875q-0.59375 0.21875 -1.28125 0.21875q-1.140625 0 -1.75 -0.546875q-0.609375 -0.5625 -0.609375 -1.4375q0 -0.5 0.21875 -0.921875q0.234375 -0.421875 0.609375 -0.671875q0.375 -0.25 0.84375 -0.390625q0.34375 -0.078125 1.046875 -0.171875q1.421875 -0.171875 2.09375 -0.40625q0 -0.234375 0 -0.296875q0 -0.71875 -0.328125 -1.015625q-0.453125 -0.390625 -1.34375 -0.390625q-0.8125 0 -1.21875 0.296875q-0.390625 0.28125 -0.578125 1.015625l-1.140625 -0.15625q0.15625 -0.734375 0.515625 -1.1875q0.359375 -0.453125 1.03125 -0.6875q0.671875 -0.25 1.5625 -0.25q0.890625 0 1.4375 0.203125q0.5625 0.203125 0.8125 0.53125q0.265625 0.3125 0.375 0.796875q0.046875 0.296875 0.046875 1.078125l0 1.5625q0 1.625 0.078125 2.0625q0.078125 0.4375 0.296875 0.828125l-1.21875 0q-0.1875 -0.359375 -0.234375 -0.859375zm-0.09375 -2.609375q-0.640625 0.265625 -1.921875 0.4375q-0.71875 0.109375 -1.015625 0.25q-0.296875 0.125 -0.46875 0.375q-0.15625 0.25 -0.15625 0.546875q0 0.46875 0.34375 0.78125q0.359375 0.3125 1.046875 0.3125q0.671875 0 1.203125 -0.296875q0.53125 -0.296875 0.78125 -0.8125q0.1875 -0.390625 0.1875 -1.171875l0 -0.421875zm7.4749756 3.46875l0 -0.875q-0.65625 1.03125 -1.9375 1.03125q-0.8125 0 -1.515625 -0.453125q-0.6875 -0.453125 -1.078125 -1.265625q-0.375 -0.828125 -0.375 -1.890625q0 -1.03125 0.34375 -1.875q0.34375 -0.84375 1.03125 -1.28125q0.703125 -0.453125 1.546875 -0.453125q0.625 0 1.109375 0.265625q0.5 0.25 0.796875 0.671875l0 -3.421875l1.171875 0l0 9.546875l-1.09375 0zm-3.703125 -3.453125q0 1.328125 0.5625 1.984375q0.5625 0.65625 1.328125 0.65625q0.765625 0 1.296875 -0.625q0.53125 -0.625 0.53125 -1.90625q0 -1.421875 -0.546875 -2.078125q-0.546875 -0.671875 -1.34375 -0.671875q-0.78125 0 -1.3125 0.640625q-0.515625 0.625 -0.515625 2.0zm14.8186035 3.453125l0 -0.875q-0.65625 1.03125 -1.9375 1.03125q-0.8125 0 -1.515625 -0.453125q-0.6875 -0.453125 -1.078125 -1.265625q-0.375 -0.828125 -0.375 -1.890625q0 -1.03125 0.34375 -1.875q0.34375 -0.84375 1.03125 -1.28125q0.703125 -0.453125 1.546875 -0.453125q0.625 0 1.109375 0.265625q0.5 0.25 0.796875 0.671875l0 -3.421875l1.171875 0l0 9.546875l-1.09375 0zm-3.703125 -3.453125q0 1.328125 0.5625 1.984375q0.5625 0.65625 1.328125 0.65625q0.765625 0 1.296875 -0.625q0.53125 -0.625 0.53125 -1.90625q0 -1.421875 -0.546875 -2.078125q-0.546875 -0.671875 -1.34375 -0.671875q-0.78125 0 -1.3125 0.640625q-0.515625 0.625 -0.515625 2.0zm11.162476 3.453125l0 -1.015625q-0.8125 1.171875 -2.1875 1.171875q-0.609375 0 -1.140625 -0.234375q-0.53125 -0.234375 -0.796875 -0.578125q-0.25 -0.359375 -0.359375 -0.875q-0.0625 -0.34375 -0.0625 -1.09375l0 -4.28125l1.171875 0l0 3.828125q0 0.921875 0.0625 1.234375q0.109375 0.46875 0.46875 0.734375q0.359375 0.25 0.890625 0.25q0.515625 0 0.984375 -0.265625q0.46875 -0.265625 0.65625 -0.734375q0.1875 -0.46875 0.1875 -1.34375l0 -3.703125l1.171875 0l0 6.90625l-1.046875 0zm2.8656006 0l0 -6.90625l1.0625 0l0 1.046875q0.40625 -0.734375 0.734375 -0.96875q0.34375 -0.234375 0.765625 -0.234375q0.59375 0 1.203125 0.375l-0.40625 1.078125q-0.4375 -0.25 -0.859375 -0.25q-0.390625 0 -0.703125 0.234375q-0.296875 0.234375 -0.421875 0.640625q-0.203125 0.625 -0.203125 1.359375l0 3.625l-1.171875 0zm4.4696045 -8.1875l0 -1.359375l1.171875 0l0 1.359375l-1.171875 0zm0 8.1875l0 -6.90625l1.171875 0l0 6.90625l-1.171875 0zm2.9454956 0l0 -6.90625l1.0625 0l0 0.984375q0.75 -1.140625 2.1875 -1.140625q0.625 0 1.15625 0.21875q0.53125 0.21875 0.78125 0.59375q0.265625 0.359375 0.375 0.859375q0.0625 0.328125 0.0625 1.140625l0 4.25l-1.171875 0l0 -4.203125q0 -0.71875 -0.140625 -1.0625q-0.140625 -0.359375 -0.484375 -0.5625q-0.34375 -0.21875 -0.8125 -0.21875q-0.75 0 -1.296875 0.46875q-0.546875 0.46875 -0.546875 1.796875l0 3.78125l-1.171875 0zm7.1937256 0.578125l1.140625 0.15625q0.078125 0.53125 0.40625 0.78125q0.4375 0.3125 1.1875 0.3125q0.8125 0 1.25 -0.328125q0.453125 -0.3125 0.609375 -0.90625q0.09375 -0.359375 0.078125 -1.5q-0.765625 0.90625 -1.90625 0.90625q-1.4375 0 -2.21875 -1.03125q-0.78125 -1.03125 -0.78125 -2.46875q0 -0.984375 0.359375 -1.8125q0.359375 -0.84375 1.03125 -1.296875q0.6875 -0.453125 1.609375 -0.453125q1.21875 0 2.015625 0.984375l0 -0.828125l1.078125 0l0 5.96875q0 1.609375 -0.328125 2.28125q-0.328125 0.6875 -1.046875 1.078125q-0.703125 0.390625 -1.75 0.390625q-1.234375 0 -2.0 -0.5625q-0.75 -0.5625 -0.734375 -1.671875zm0.984375 -4.15625q0 1.359375 0.53125 1.984375q0.546875 0.625 1.359375 0.625q0.796875 0 1.34375 -0.625q0.546875 -0.625 0.546875 -1.953125q0 -1.265625 -0.5625 -1.90625q-0.5625 -0.640625 -1.359375 -0.640625q-0.765625 0 -1.3125 0.640625q-0.546875 0.625 -0.546875 1.875zm9.8810425 1.515625l1.15625 -0.1875q0.109375 0.703125 0.546875 1.078125q0.453125 0.359375 1.25 0.359375q0.8125 0 1.203125 -0.328125q0.390625 -0.328125 0.390625 -0.765625q0 -0.390625 -0.359375 -0.625q-0.234375 -0.15625 -1.1875 -0.390625q-1.296875 -0.328125 -1.796875 -0.5625q-0.484375 -0.25 -0.75 -0.65625q-0.25 -0.421875 -0.25 -0.9375q0 -0.453125 0.203125 -0.84375q0.21875 -0.40625 0.578125 -0.671875q0.28125 -0.1875 0.75 -0.328125q0.46875 -0.140625 1.015625 -0.140625q0.8125 0 1.421875 0.234375q0.609375 0.234375 0.90625 0.640625q0.296875 0.390625 0.40625 1.0625l-1.140625 0.15625q-0.078125 -0.53125 -0.453125 -0.828125q-0.375 -0.3125 -1.0625 -0.3125q-0.8125 0 -1.15625 0.265625q-0.34375 0.265625 -0.34375 0.625q0 0.234375 0.140625 0.421875q0.15625 0.1875 0.453125 0.3125q0.171875 0.0625 1.03125 0.296875q1.25 0.328125 1.734375 0.546875q0.5 0.203125 0.78125 0.609375q0.28125 0.40625 0.28125 1.0q0 0.59375 -0.34375 1.109375q-0.34375 0.515625 -1.0 0.796875q-0.640625 0.28125 -1.453125 0.28125q-1.34375 0 -2.046875 -0.5625q-0.703125 -0.5625 -0.90625 -1.65625zm9.6953125 1.015625l0.171875 1.03125q-0.5 0.109375 -0.890625 0.109375q-0.640625 0 -1.0 -0.203125q-0.34375 -0.203125 -0.484375 -0.53125q-0.140625 -0.328125 -0.140625 -1.390625l0 -3.96875l-0.859375 0l0 -0.90625l0.859375 0l0 -1.71875l1.171875 -0.703125l0 2.421875l1.171875 0l0 0.90625l-1.171875 0l0 4.046875q0 0.5 0.046875 0.640625q0.0625 0.140625 0.203125 0.234375q0.140625 0.078125 0.40625 0.078125q0.203125 0 0.515625 -0.046875zm5.874878 -1.171875l1.203125 0.140625q-0.28125 1.0625 -1.0625 1.65625q-0.765625 0.578125 -1.96875 0.578125q-1.515625 0 -2.40625 -0.9375q-0.890625 -0.9375 -0.890625 -2.609375q0 -1.75 0.890625 -2.703125q0.90625 -0.96875 2.34375 -0.96875q1.390625 0 2.265625 0.9375q0.875 0.9375 0.875 2.65625q0 0.109375 0 0.3125l-5.15625 0q0.0625 1.140625 0.640625 1.75q0.578125 0.59375 1.4375 0.59375q0.65625 0 1.109375 -0.328125q0.453125 -0.34375 0.71875 -1.078125zm-3.84375 -1.90625l3.859375 0q-0.078125 -0.859375 -0.4375 -1.296875q-0.5625 -0.6875 -1.453125 -0.6875q-0.8125 0 -1.359375 0.546875q-0.546875 0.53125 -0.609375 1.4375zm6.5218506 6.78125l0 -9.5625l1.078125 0l0 0.890625q0.375 -0.53125 0.84375 -0.78125q0.484375 -0.265625 1.15625 -0.265625q0.875 0 1.546875 0.453125q0.6875 0.453125 1.03125 1.28125q0.34375 0.828125 0.34375 1.828125q0 1.046875 -0.375 1.90625q-0.375 0.84375 -1.109375 1.296875q-0.71875 0.453125 -1.53125 0.453125q-0.578125 0 -1.046875 -0.25q-0.46875 -0.25 -0.765625 -0.625l0 3.375l-1.171875 0zm1.0625 -6.078125q0 1.34375 0.53125 1.984375q0.546875 0.625 1.3125 0.625q0.78125 0 1.34375 -0.65625q0.5625 -0.65625 0.5625 -2.046875q0 -1.3125 -0.546875 -1.96875q-0.546875 -0.671875 -1.296875 -0.671875q-0.75 0 -1.328125 0.703125q-0.578125 0.703125 -0.578125 2.03125zm15.8811035 2.296875l0 1.125l-6.296875 0q-0.015625 -0.421875 0.140625 -0.8125q0.234375 -0.640625 0.765625 -1.265625q0.53125 -0.625 1.53125 -1.453125q1.5625 -1.265625 2.109375 -2.015625q0.546875 -0.75 0.546875 -1.40625q0 -0.703125 -0.5 -1.171875q-0.5 -0.484375 -1.296875 -0.484375q-0.859375 0 -1.375 0.515625q-0.5 0.5 -0.5 1.390625l-1.203125 -0.109375q0.125 -1.359375 0.921875 -2.0625q0.8125 -0.703125 2.171875 -0.703125q1.375 0 2.171875 0.765625q0.8125 0.75 0.8125 1.875q0 0.578125 -0.234375 1.140625q-0.234375 0.546875 -0.78125 1.15625q-0.546875 0.609375 -1.8125 1.671875q-1.046875 0.890625 -1.359375 1.21875q-0.296875 0.3125 -0.484375 0.625l4.671875 0z" fill-rule="nonzero"/><path fill="#000000" d="m562.9153 264.19894l1.984375 -9.546875l1.96875 0l-2.0 9.546875l-1.953125 0zm5.234192 -6.90625l1.78125 0l-0.1875 0.890625q0.65625 -0.578125 1.234375 -0.8125q0.578125 -0.25 1.21875 -0.25q0.84375 0 1.328125 0.5q0.5 0.484375 0.5 1.28125q0 0.375 -0.203125 1.390625l-0.8125 3.90625l-1.875 0l0.828125 -3.921875q0.171875 -0.875 0.171875 -1.046875q0 -0.359375 -0.21875 -0.5625q-0.203125 -0.203125 -0.578125 -0.203125q-0.40625 0 -0.90625 0.34375q-0.5 0.34375 -0.796875 0.90625q-0.203125 0.40625 -0.46875 1.640625l-0.59375 2.84375l-1.859375 0l1.4375 -6.90625zm11.360107 4.296875l1.8125 0.296875q-0.4375 1.21875 -1.328125 1.84375q-0.875 0.625 -2.03125 0.625q-1.328125 0 -2.109375 -0.78125q-0.765625 -0.78125 -0.765625 -2.171875q0 -1.125 0.46875 -2.125q0.46875 -1.0 1.40625 -1.578125q0.953125 -0.578125 2.078125 -0.578125q1.21875 0 1.953125 0.640625q0.734375 0.640625 0.8125 1.6875l-1.765625 0.1875q-0.0625 -0.578125 -0.359375 -0.84375q-0.28125 -0.28125 -0.75 -0.28125q-0.546875 0 -1.015625 0.40625q-0.46875 0.390625 -0.71875 1.203125q-0.25 0.796875 -0.25 1.5q0 0.609375 0.296875 0.953125q0.296875 0.328125 0.75 0.328125q0.453125 0 0.859375 -0.328125q0.421875 -0.328125 0.65625 -0.984375zm3.0062256 -0.265625q0 -1.921875 1.078125 -3.0625q1.078125 -1.140625 2.84375 -1.140625q1.53125 0 2.390625 0.84375q0.859375 0.84375 0.859375 2.265625q0 1.6875 -1.078125 2.90625q-1.0625 1.21875 -2.875 1.21875q-0.96875 0 -1.734375 -0.390625q-0.75 -0.390625 -1.125 -1.09375q-0.359375 -0.71875 -0.359375 -1.546875zm5.3125 -1.328125q0 -0.671875 -0.390625 -1.0625q-0.375 -0.40625 -0.984375 -0.40625q-0.609375 0 -1.078125 0.375q-0.46875 0.375 -0.734375 1.09375q-0.25 0.703125 -0.25 1.3125q0 0.734375 0.390625 1.171875q0.40625 0.4375 1.015625 0.4375q0.78125 0 1.296875 -0.65625q0.734375 -0.9375 0.734375 -2.265625zm4.0163574 -2.703125l1.78125 0l-0.1875 0.890625q0.65625 -0.578125 1.234375 -0.8125q0.578125 -0.25 1.21875 -0.25q0.84375 0 1.328125 0.5q0.5 0.484375 0.5 1.28125q0 0.375 -0.203125 1.390625l-0.8125 3.90625l-1.875 0l0.828125 -3.921875q0.171875 -0.875 0.171875 -1.046875q0 -0.359375 -0.21875 -0.5625q-0.203125 -0.203125 -0.578125 -0.203125q-0.40625 0 -0.90625 0.34375q-0.5 0.34375 -0.796875 0.90625q-0.203125 0.40625 -0.46875 1.640625l-0.59375 2.84375l-1.859375 0l1.4375 -6.90625zm6.4382324 4.96875l1.8125 -0.28125q0.234375 0.578125 0.59375 0.8125q0.359375 0.234375 0.96875 0.234375q0.640625 0 1.03125 -0.28125q0.265625 -0.203125 0.265625 -0.484375q0 -0.1875 -0.140625 -0.328125q-0.140625 -0.15625 -0.78125 -0.359375q-1.6875 -0.5625 -2.09375 -0.875q-0.625 -0.515625 -0.625 -1.328125q0 -0.828125 0.609375 -1.421875q0.859375 -0.828125 2.53125 -0.828125q1.34375 0 2.015625 0.5q0.6875 0.484375 0.875 1.3125l-1.734375 0.296875q-0.125 -0.375 -0.4375 -0.5625q-0.421875 -0.25 -1.0 -0.25q-0.59375 0 -0.859375 0.203125q-0.25 0.1875 -0.25 0.4375q0 0.265625 0.265625 0.421875q0.15625 0.109375 1.046875 0.375q1.375 0.390625 1.828125 0.78125q0.65625 0.53125 0.65625 1.296875q0 0.984375 -0.828125 1.703125q-0.828125 0.71875 -2.328125 0.71875q-1.5 0 -2.328125 -0.546875q-0.8125 -0.546875 -1.09375 -1.546875zm9.646851 -7.609375l1.859375 0l-0.34375 1.703125l-1.875 0l0.359375 -1.703125zm-0.546875 2.640625l1.859375 0l-1.4375 6.90625l-1.875 0l1.453125 -6.90625zm2.015503 4.96875l1.8125 -0.28125q0.234375 0.578125 0.59375 0.8125q0.359375 0.234375 0.96875 0.234375q0.640625 0 1.03125 -0.28125q0.265625 -0.203125 0.265625 -0.484375q0 -0.1875 -0.140625 -0.328125q-0.140625 -0.15625 -0.78125 -0.359375q-1.6875 -0.5625 -2.09375 -0.875q-0.625 -0.515625 -0.625 -1.328125q0 -0.828125 0.609375 -1.421875q0.859375 -0.828125 2.53125 -0.828125q1.34375 0 2.015625 0.5q0.6875 0.484375 0.875 1.3125l-1.734375 0.296875q-0.125 -0.375 -0.4375 -0.5625q-0.421875 -0.25 -1.0 -0.25q-0.59375 0 -0.859375 0.203125q-0.25 0.1875 -0.25 0.4375q0 0.265625 0.265625 0.421875q0.15625 0.109375 1.046875 0.375q1.375 0.390625 1.828125 0.78125q0.65625 0.53125 0.65625 1.296875q0 0.984375 -0.828125 1.703125q-0.828125 0.71875 -2.328125 0.71875q-1.5 0 -2.328125 -0.546875q-0.8125 -0.546875 -1.09375 -1.546875zm8.115601 -3.59375l0.28125 -1.375l0.921875 0l0.21875 -1.109375l2.140625 -1.296875l-0.5 2.40625l1.140625 0l-0.28125 1.375l-1.140625 0l-0.609375 2.90625q-0.171875 0.78125 -0.171875 0.890625q0 0.21875 0.140625 0.34375q0.140625 0.109375 0.5 0.109375q0.125 0 0.609375 -0.046875l-0.28125 1.390625q-0.484375 0.09375 -1.0 0.09375q-0.984375 0 -1.4375 -0.375q-0.4375 -0.375 -0.4375 -1.0625q0 -0.3125 0.234375 -1.46875l0.578125 -2.78125l-0.90625 0zm10.7039795 2.65625l-4.6875 0q0 0.109375 0 0.171875q0 0.6875 0.390625 1.109375q0.390625 0.421875 0.953125 0.421875q0.9375 0 1.453125 -0.96875l1.671875 0.28125q-0.484375 1.015625 -1.3125 1.515625q-0.8125 0.5 -1.828125 0.5q-1.390625 0 -2.265625 -0.875q-0.859375 -0.875 -0.859375 -2.328125q0 -1.421875 0.78125 -2.53125q1.078125 -1.5 3.0625 -1.5q1.265625 0 2.015625 0.796875q0.75 0.78125 0.75 2.1875q0 0.671875 -0.125 1.21875zm-1.578125 -1.140625q0 -0.125 0 -0.1875q0 -0.765625 -0.34375 -1.140625q-0.34375 -0.390625 -0.921875 -0.390625q-0.578125 0 -1.046875 0.4375q-0.453125 0.421875 -0.609375 1.28125l2.921875 0zm3.7249756 -2.890625l1.78125 0l-0.1875 0.890625q0.65625 -0.578125 1.234375 -0.8125q0.578125 -0.25 1.21875 -0.25q0.84375 0 1.328125 0.5q0.5 0.484375 0.5 1.28125q0 0.375 -0.203125 1.390625l-0.8125 3.90625l-1.875 0l0.828125 -3.921875q0.171875 -0.875 0.171875 -1.046875q0 -0.359375 -0.21875 -0.5625q-0.203125 -0.203125 -0.578125 -0.203125q-0.40625 0 -0.90625 0.34375q-0.5 0.34375 -0.796875 0.90625q-0.203125 0.40625 -0.46875 1.640625l-0.59375 2.84375l-1.859375 0l1.4375 -6.90625zm7.1413574 1.375l0.28125 -1.375l0.921875 0l0.21875 -1.109375l2.140625 -1.296875l-0.5 2.40625l1.140625 0l-0.28125 1.375l-1.140625 0l-0.609375 2.90625q-0.171875 0.78125 -0.171875 0.890625q0 0.21875 0.140625 0.34375q0.140625 0.109375 0.5 0.109375q0.125 0 0.609375 -0.046875l-0.28125 1.390625q-0.484375 0.09375 -1.0 0.09375q-0.984375 0 -1.4375 -0.375q-0.4375 -0.375 -0.4375 -1.0625q0 -0.3125 0.234375 -1.46875l0.578125 -2.78125l-0.90625 0z" fill-rule="nonzero"/><path fill="#000000" fill-opacity="0.0" d="m564.029 18.535433l51.77954 0l0 19.685041l-51.77954 0z" fill-rule="evenodd"/><path fill="#cc0000" d="m573.93524 35.8342l0 -12.203125l2.578125 0l0 0.96875l-1.40625 0l0 10.25l1.40625 0l0 0.984375l-2.578125 0zm3.062378 -2.65625l0 -0.953125l4.390625 -5.046875q-0.75 0.03125 -1.3125 0.03125l-2.828125 0l0 -0.9375l5.65625 0l0 0.765625l-3.75 4.390625l-0.71875 0.796875q0.796875 -0.0625 1.484375 -0.0625l3.1875 0l0 1.015625l-6.109375 0zm13.4453125 -5.609375l-6.3125 0l0 -1.09375l6.3125 0l0 1.09375zm0 2.890625l-6.3125 0l0 -1.09375l6.3125 0l0 1.09375zm7.439636 1.59375l0 1.125l-6.296875 0q-0.015625 -0.421875 0.140625 -0.8125q0.234375 -0.640625 0.765625 -1.265625q0.53125 -0.625 1.53125 -1.453125q1.5625 -1.265625 2.109375 -2.015625q0.546875 -0.75 0.546875 -1.40625q0 -0.703125 -0.5 -1.171875q-0.5 -0.484375 -1.296875 -0.484375q-0.859375 0 -1.375 0.515625q-0.5 0.5 -0.5 1.390625l-1.203125 -0.109375q0.125 -1.359375 0.921875 -2.0625q0.8125 -0.703125 2.171875 -0.703125q1.375 0 2.171875 0.765625q0.8125 0.75 0.8125 1.875q0 0.578125 -0.234375 1.140625q-0.234375 0.546875 -0.78125 1.15625q-0.546875 0.609375 -1.8125 1.671875q-1.046875 0.890625 -1.359375 1.21875q-0.296875 0.3125 -0.484375 0.625l4.671875 0zm3.5531006 3.78125l-2.59375 0l0 -0.984375l1.421875 0l0 -10.25l-1.421875 0l0 -0.96875l2.59375 0l0 12.203125z" fill-rule="nonzero"/><path fill="#000000" fill-opacity="0.0" d="m524.69556 88.35171l56.31494 0l0 19.685036l-56.31494 0z" fill-rule="evenodd"/><path fill="#cc0000" d="m534.6018 105.650475l0 -12.203125l2.578125 0l0 0.96875l-1.40625 0l0 10.25l1.40625 0l0 0.984375l-2.578125 0zm3.062317 -2.65625l0 -0.953125l4.390625 -5.046875q-0.75 0.03125 -1.3125 0.03125l-2.828125 0l0 -0.9375l5.65625 0l0 0.765625l-3.75 4.390625l-0.71875 0.796875q0.796875 -0.0625 1.484375 -0.0625l3.1875 0l0 1.015625l-6.109375 0zm13.4453125 -5.609375l-6.3125 0l0 -1.09375l6.3125 0l0 1.09375zm0 2.890625l-6.3125 0l0 -1.09375l6.3125 0l0 1.09375zm7.4396973 1.59375l0 1.125l-6.296875 0q-0.015625 -0.421875 0.140625 -0.8125q0.234375 -0.640625 0.765625 -1.265625q0.53125 -0.625 1.53125 -1.453125q1.5625 -1.265625 2.109375 -2.015625q0.546875 -0.75 0.546875 -1.40625q0 -0.703125 -0.5 -1.171875q-0.5 -0.484375 -1.296875 -0.484375q-0.859375 0 -1.375 0.515625q-0.5 0.5 -0.5 1.390625l-1.203125 -0.109375q0.125 -1.359375 0.921875 -2.0625q0.8125 -0.703125 2.171875 -0.703125q1.375 0 2.171875 0.765625q0.8125 0.75 0.8125 1.875q0 0.578125 -0.234375 1.140625q-0.234375 0.546875 -0.78125 1.15625q-0.546875 0.609375 -1.8125 1.671875q-1.046875 0.890625 -1.359375 1.21875q-0.296875 0.3125 -0.484375 0.625l4.671875 0zm3.5531006 3.78125l-2.59375 0l0 -0.984375l1.421875 0l0 -10.25l-1.421875 0l0 -0.96875l2.59375 0l0 12.203125z" fill-rule="nonzero"/><path fill="#000000" fill-opacity="0.0" d="m603.8562 29.377851l16.944885 0" fill-rule="evenodd"/><path stroke="#000000" stroke-width="1.0" stroke-linejoin="round" stroke-linecap="butt" d="m603.8562 29.377853l10.944885 0" fill-rule="evenodd"/><path fill="#000000" stroke="#000000" stroke-width="1.0" stroke-linecap="butt" d="m614.8011 31.029585l4.538086 -1.6517315l-4.538086 -1.6517334z" fill-rule="evenodd"/><path fill="#000000" fill-opacity="0.0" d="m546.2032 109.036575l11.181091 13.354324" fill-rule="evenodd"/><path stroke="#000000" stroke-width="1.0" stroke-linejoin="round" stroke-linecap="butt" d="m546.2032 109.03657l7.3292847 8.753906" fill-rule="evenodd"/><path fill="#000000" stroke="#000000" stroke-width="1.0" stroke-linecap="butt" d="m552.26605 118.85083l4.1797485 2.4191742l-1.6468506 -4.539871z" fill-rule="evenodd"/></g></svg>
