<svg version="1.1" viewBox="0.0 0.0 290.0 220.0" fill="none" stroke="none" stroke-linecap="square" stroke-miterlimit="10" xmlns:xlink="http://www.w3.org/1999/xlink" xmlns="http://www.w3.org/2000/svg"><clipPath id="p.0"><path d="m0 0l800.0 0l0 600.0l-800.0 0l0 -600.0z" clip-rule="nonzero"/></clipPath><g clip-path="url(#p.0)"><path fill="#000000" fill-opacity="0.0" d="m0 0l800.0 0l0 600.0l-800.0 0z" fill-rule="evenodd"/><path fill="#efefef" d="m30.0 47.00656l0 0c0 -12.150265 9.849735 -22.0 22.0 -22.0l0 0c5.8347626 0 11.43055 2.31785 15.556351 6.443651c4.125801 4.125799 6.4436493 9.721586 6.4436493 15.556349l0 0c0 12.150265 -9.849739 22.0 -22.0 22.0l0 0c-12.150265 0 -22.0 -9.849735 -22.0 -22.0z" fill-rule="evenodd"/><path stroke="#000000" stroke-width="1.0" stroke-linejoin="round" stroke-linecap="butt" d="m30.0 47.00656l0 0c0 -12.150265 9.849735 -22.0 22.0 -22.0l0 0c5.8347626 0 11.43055 2.31785 15.556351 6.443651c4.125801 4.125799 6.4436493 9.721586 6.4436493 15.556349l0 0c0 12.150265 -9.849739 22.0 -22.0 22.0l0 0c-12.150265 0 -22.0 -9.849735 -22.0 -22.0z" fill-rule="evenodd"/><path fill="#000000" d="m53.765266 53.92656l-1.640625 0l0 -10.453125q-0.59375 0.5625 -1.5625 1.140625q-0.953125 0.5625 -1.71875 0.84375l0 -1.59375q1.375 -0.640625 2.40625 -1.5625q1.03125 -0.921875 1.453125 -1.78125l1.0625 0l0 13.40625z" fill-rule="nonzero"/><path fill="#ea9999" d="m217.0 47.00656l0 0c0 -12.150265 9.849731 -22.0 22.0 -22.0l0 0c5.8347626 0 11.430542 2.31785 15.556351 6.443651c4.1258087 4.125799 6.4436493 9.721586 6.4436493 15.556349l0 0c0 12.150265 -9.849731 22.0 -22.0 22.0l0 0c-12.150269 0 -22.0 -9.849735 -22.0 -22.0z" fill-rule="evenodd"/><path stroke="#000000" stroke-width="1.0" stroke-linejoin="round" stroke-linecap="butt" d="m217.0 47.00656l0 0c0 -12.150265 9.849731 -22.0 22.0 -22.0l0 0c5.8347626 0 11.430542 2.31785 15.556351 6.443651c4.1258087 4.125799 6.4436493 9.721586 6.4436493 15.556349l0 0c0 12.150265 -9.849731 22.0 -22.0 22.0l0 0c-12.150269 0 -22.0 -9.849735 -22.0 -22.0z" fill-rule="evenodd"/><path fill="#000000" d="m243.20276 52.348434l0 1.578125l-8.828125 0q-0.015625 -0.59375 0.1875 -1.140625q0.34375 -0.90625 1.078125 -1.78125q0.75 -0.875 2.15625 -2.015625q2.171875 -1.78125 2.9375 -2.828125q0.765625 -1.046875 0.765625 -1.96875q0 -0.984375 -0.703125 -1.640625q-0.6875 -0.671875 -1.8125 -0.671875q-1.1875 0 -1.90625 0.71875q-0.703125 0.703125 -0.703125 1.953125l-1.6875 -0.171875q0.171875 -1.890625 1.296875 -2.875q1.140625 -0.984375 3.03125 -0.984375q1.921875 0 3.046875 1.0625q1.125 1.0625 1.125 2.640625q0 0.796875 -0.328125 1.578125q-0.328125 0.78125 -1.09375 1.640625q-0.75 0.84375 -2.53125 2.34375q-1.46875 1.234375 -1.890625 1.6875q-0.421875 0.4375 -0.6875 0.875l6.546875 0z" fill-rule="nonzero"/><path fill="#efefef" d="m123.49606 178.47375l0 0c0 -12.150269 9.849731 -22.0 22.0 -22.0l0 0c5.8347626 0 11.430542 2.3178558 15.556351 6.4436493c4.1257935 4.1257935 6.4436493 9.721588 6.4436493 15.556351l0 0c0 12.150269 -9.849731 22.0 -22.0 22.0l0 0c-12.150269 0 -22.0 -9.849731 -22.0 -22.0z" fill-rule="evenodd"/><path stroke="#000000" stroke-width="1.0" stroke-linejoin="round" stroke-linecap="butt" d="m123.49606 178.47375l0 0c0 -12.150269 9.849731 -22.0 22.0 -22.0l0 0c5.8347626 0 11.430542 2.3178558 15.556351 6.4436493c4.1257935 4.1257935 6.4436493 9.721588 6.4436493 15.556351l0 0c0 12.150269 -9.849731 22.0 -22.0 22.0l0 0c-12.150269 0 -22.0 -9.849731 -22.0 -22.0z" fill-rule="evenodd"/><path fill="#000000" d="m141.08945 181.8625l1.640625 -0.21875q0.28125 1.40625 0.953125 2.015625q0.6875 0.609375 1.65625 0.609375q1.15625 0 1.953125 -0.796875q0.796875 -0.796875 0.796875 -1.984375q0 -1.125 -0.734375 -1.859375q-0.734375 -0.734375 -1.875 -0.734375q-0.46875 0 -1.15625 0.171875l0.1875 -1.4375q0.15625 0.015625 0.265625 0.015625q1.046875 0 1.875 -0.546875q0.84375 -0.546875 0.84375 -1.671875q0 -0.90625 -0.609375 -1.5q-0.609375 -0.59375 -1.578125 -0.59375q-0.953125 0 -1.59375 0.609375q-0.640625 0.59375 -0.8125 1.796875l-1.640625 -0.296875q0.296875 -1.640625 1.359375 -2.546875q1.0625 -0.90625 2.65625 -0.90625q1.09375 0 2.0 0.46875q0.921875 0.46875 1.40625 1.28125q0.5 0.8125 0.5 1.71875q0 0.859375 -0.46875 1.578125q-0.46875 0.703125 -1.375 1.125q1.1875 0.28125 1.84375 1.140625q0.65625 0.859375 0.65625 2.15625q0 1.734375 -1.28125 2.953125q-1.265625 1.21875 -3.21875 1.21875q-1.765625 0 -2.921875 -1.046875q-1.15625 -1.046875 -1.328125 -2.71875z" fill-rule="nonzero"/><path fill="#000000" fill-opacity="0.0" d="m52.0 69.00656c0 54.740158 35.74803 109.480316 71.49606 109.480316" fill-rule="evenodd"/><path stroke="#000000" stroke-width="1.0" stroke-linejoin="round" stroke-linecap="butt" d="m52.047802 72.43332l0.01064682 0.42145538c0.012939453 0.42742157 0.028007507 0.85476685 0.045188904 1.2820053c0.0687294 1.7089615 0.1712799 3.4162445 0.30656052 5.1201935c0.27054977 3.407898 0.67201614 6.802429 1.1956711 10.170235c1.0473061 6.7356033 2.583355 13.364296 4.5383224 19.77916c3.9099426 12.82972 9.495571 24.80413 16.19833 35.06791c6.702751 10.263779 14.522636 18.816925 22.901077 24.804138c4.1892242 2.9936066 8.518089 5.3457184 12.916771 6.9494324c2.1993408 0.80184937 4.4161377 1.416626 6.6416626 1.8309174c0.5563812 0.1035614 1.1133118 0.1946106 1.6706467 0.2729187c0.27866364 0.039138794 0.5574341 0.07511902 0.8362961 0.10787964c0.13941956 0.01638794 0.27886963 0.031951904 0.4183426 0.04673767l0.34568024 0.034591675" fill-rule="evenodd"/><path fill="#000000" stroke="#000000" stroke-width="1.0" stroke-linecap="butt" d="m52.047802 72.43331l1.1401596 1.1087952l-1.167572 -3.0737839l-1.0813751 3.105156z" fill-rule="evenodd"/><path fill="#000000" stroke="#000000" stroke-width="1.0" stroke-linecap="butt" d="m120.073 178.32089l-1.1777344 1.0687866l3.1406097 -0.9736023l-3.0316696 -1.2729187z" fill-rule="evenodd"/><path fill="#000000" fill-opacity="0.0" d="m167.49606 178.47375c35.74803 0 71.49606 -54.740158 71.49606 -109.480316" fill-rule="evenodd"/><path stroke="#000000" stroke-width="1.0" stroke-linejoin="round" stroke-linecap="butt" stroke-dasharray="1.0,3.0" d="m167.49606 178.47375c35.74803 0 71.49606 -54.740158 71.49606 -109.480316" fill-rule="evenodd"/><path fill="#000000" fill-opacity="0.0" d="m217.0 47.00656c-35.750183 0 -53.626343 0.01574707 -71.50035 0.031497955c-17.874016 0.01574707 -35.745888 0.03149414 -71.491776 0.03149414" fill-rule="evenodd"/><path stroke="#000000" stroke-width="1.0" stroke-linejoin="round" stroke-linecap="butt" stroke-dasharray="1.0,3.0" d="m217.0 47.00656c-35.750183 0 -53.626343 0.01574707 -71.50035 0.031497955c-17.874016 0.01574707 -35.745888 0.03149414 -71.491776 0.03149414" fill-rule="evenodd"/><path fill="#000000" fill-opacity="0.0" d="m8.0 -0.001312336l61.007874 0l0 25.007874l-61.007874 0z" fill-rule="evenodd"/><path fill="#000000" d="m17.3125 18.362625l0 -1.140625l5.28125 -6.0625q-0.890625 0.046875 -1.578125 0.046875l-3.390625 0l0 -1.140625l6.78125 0l0 0.921875l-4.484375 5.265625l-0.875 0.96875q0.953125 -0.078125 1.78125 -0.078125l3.828125 0l0 1.21875l-7.34375 0zm16.140625 -6.734375l-7.5625 0l0 -1.3125l7.5625 0l0 1.3125zm0 3.46875l-7.5625 0l0 -1.3125l7.5625 0l0 1.3125zm8.953125 1.90625l0 1.359375l-7.578125 0q-0.015625 -0.515625 0.171875 -0.984375q0.28125 -0.765625 0.921875 -1.515625q0.640625 -0.75 1.84375 -1.734375q1.859375 -1.53125 2.515625 -2.421875q0.65625 -0.90625 0.65625 -1.703125q0 -0.828125 -0.59375 -1.40625q-0.59375 -0.578125 -1.5625 -0.578125q-1.015625 0 -1.625 0.609375q-0.609375 0.609375 -0.609375 1.6875l-1.453125 -0.140625q0.15625 -1.625 1.125 -2.46875q0.96875 -0.84375 2.59375 -0.84375q1.65625 0 2.609375 0.921875q0.96875 0.90625 0.96875 2.25q0 0.6875 -0.28125 1.359375q-0.28125 0.65625 -0.9375 1.390625q-0.65625 0.734375 -2.171875 2.015625q-1.265625 1.0625 -1.625 1.453125q-0.359375 0.375 -0.59375 0.75l5.625 0z" fill-rule="nonzero"/><path fill="#000000" fill-opacity="0.0" d="m194.99213 0.07480315l61.007874 0l0 25.007875l-61.007874 0z" fill-rule="evenodd"/><path fill="#000000" d="m204.30463 18.43874l0 -1.140625l5.28125 -6.062499q-0.890625 0.046875 -1.578125 0.046875l-3.390625 0l0 -1.140625l6.78125 0l0 0.921875l-4.484375 5.265624l-0.875 0.96875q0.953125 -0.078125 1.78125 -0.078125l3.828125 0l0 1.21875l-7.34375 0zm16.140625 -6.734374l-7.5625 0l0 -1.3125l7.5625 0l0 1.3125zm0 3.46875l-7.5625 0l0 -1.3125l7.5625 0l0 1.3125zm8.953125 1.906249l0 1.359375l-7.578125 0q-0.015625 -0.515625 0.171875 -0.984375q0.28125 -0.765625 0.921875 -1.515624q0.640625 -0.75 1.84375 -1.734375q1.859375 -1.53125 2.515625 -2.421875q0.65625 -0.90625 0.65625 -1.703125q0 -0.828125 -0.59375 -1.40625q-0.59375 -0.578125 -1.5625 -0.578125q-1.015625 0 -1.625 0.609375q-0.609375 0.609375 -0.609375 1.6875l-1.453125 -0.140625q0.15625 -1.625 1.125 -2.46875q0.96875 -0.84375 2.59375 -0.84375q1.65625 0 2.609375 0.921875q0.96875 0.90625 0.96875 2.25q0 0.6875 -0.28125 1.359375q-0.28125 0.65625 -0.9375 1.390625q-0.65625 0.734375 -2.171875 2.015625q-1.265625 1.0625 -1.625 1.453124q-0.359375 0.375 -0.59375 0.75l5.625 0z" fill-rule="nonzero"/><path fill="#000000" fill-opacity="0.0" d="m99.0 132.10367l61.007874 0l0 25.007874l-61.007874 0z" fill-rule="evenodd"/><path fill="#000000" d="m108.3125 150.4676l0 -1.140625l5.28125 -6.0625q-0.890625 0.046875 -1.578125 0.046875l-3.390625 0l0 -1.140625l6.78125 0l0 0.921875l-4.484375 5.265625l-0.875 0.96875q0.953125 -0.078125 1.78125 -0.078125l3.828125 0l0 1.21875l-7.34375 0zm16.140625 -6.734375l-7.5625 0l0 -1.3125l7.5625 0l0 1.3125zm0 3.46875l-7.5625 0l0 -1.3125l7.5625 0l0 1.3125zm8.953125 1.90625l0 1.359375l-7.578125 0q-0.015625 -0.515625 0.171875 -0.984375q0.28125 -0.765625 0.921875 -1.515625q0.640625 -0.75 1.84375 -1.734375q1.859375 -1.53125 2.515625 -2.421875q0.65625 -0.90625 0.65625 -1.703125q0 -0.828125 -0.59375 -1.40625q-0.59375 -0.578125 -1.5625 -0.578125q-1.015625 0 -1.625 0.609375q-0.609375 0.609375 -0.609375 1.6875l-1.453125 -0.140625q0.15625 -1.625 1.125 -2.46875q0.96875 -0.84375 2.59375 -0.84375q1.65625 0 2.609375 0.921875q0.96875 0.90625 0.96875 2.25q0 0.6875 -0.28125 1.359375q-0.28125 0.65625 -0.9375 1.390625q-0.65625 0.734375 -2.171875 2.015625q-1.265625 1.0625 -1.625 1.453125q-0.359375 0.375 -0.59375 0.75l5.625 0z" fill-rule="nonzero"/><path fill="#000000" fill-opacity="0.0" d="m255.99213 124.27034l37.007874 0l0 54.204727l-37.007874 0z" fill-rule="evenodd"/><path fill="#000000" fill-opacity="0.0" d="m145.50394 2.9947507c0 74.18897 55.244095 148.37794 110.48819 148.37794" fill-rule="evenodd"/><path stroke="#000000" stroke-width="1.0" stroke-linejoin="round" stroke-linecap="butt" stroke-dasharray="4.0,3.0" d="m145.50394 2.9947507c0 74.18897 55.244095 148.37794 110.48819 148.37794" fill-rule="evenodd"/></g></svg>
