<svg version="1.1" viewBox="0.0 0.0 542.0 470.0" fill="none" stroke="none" stroke-linecap="square" stroke-miterlimit="10" xmlns:xlink="http://www.w3.org/1999/xlink" xmlns="http://www.w3.org/2000/svg"><clipPath id="p.0"><path d="m0 0l800.0 0l0 600.0l-800.0 0l0 -600.0z" clip-rule="nonzero"/></clipPath><g clip-path="url(#p.0)"><path fill="#000000" fill-opacity="0.0" d="m0 0l800.0 0l0 600.0l-800.0 0z" fill-rule="evenodd"/><path fill="#fff2cc" d="m1.0 29.0l0 0c0 -15.463973 12.536027 -28.0 28.0 -28.0l0 0c7.4260635 0 14.54797 2.9499915 19.798988 8.20101c5.2510185 5.2510185 8.201012 12.372929 8.201012 19.79899l0 0c0 15.463974 -12.536026 28.0 -28.0 28.0l0 0c-15.463973 0 -28.0 -12.536026 -28.0 -28.0z" fill-rule="evenodd"/><path stroke="#000000" stroke-width="1.0" stroke-linejoin="round" stroke-linecap="butt" d="m1.0 29.0l0 0c0 -15.463973 12.536027 -28.0 28.0 -28.0l0 0c7.4260635 0 14.54797 2.9499915 19.798988 8.20101c5.2510185 5.2510185 8.201012 12.372929 8.201012 19.79899l0 0c0 15.463974 -12.536026 28.0 -28.0 28.0l0 0c-15.463973 0 -28.0 -12.536026 -28.0 -28.0z" fill-rule="evenodd"/><path fill="#000000" d="m19.466635 34.86l0 -11.453127l8.28125 0l0 1.34375l-6.765625 0l0 3.515625l6.34375 0l0 1.34375l-6.34375 0l0 3.890627l7.03125 0l0 1.359375l-8.546875 0zm15.375002 0l-1.40625 0l0 -8.968752q-0.515625 0.484375 -1.34375 0.96875q-0.8125019 0.484375 -1.4687519 0.734375l0 -1.359375q1.171875 -0.5625 2.046877 -1.34375q0.890625 -0.796875 1.265625 -1.53125l0.90625 0l0 11.500002z" fill-rule="nonzero"/><path fill="#fff2cc" d="m90.0 29.0l0 0c0 -15.463973 12.536026 -28.0 28.0 -28.0l0 0c7.4260635 0 14.547974 2.9499915 19.798996 8.20101c5.251007 5.2510185 8.201004 12.372929 8.201004 19.79899l0 0c0 15.463974 -12.536026 28.0 -28.0 28.0l0 0c-15.463974 0 -28.0 -12.536026 -28.0 -28.0z" fill-rule="evenodd"/><path stroke="#000000" stroke-width="1.0" stroke-linejoin="round" stroke-linecap="butt" d="m90.0 29.0l0 0c0 -15.463973 12.536026 -28.0 28.0 -28.0l0 0c7.4260635 0 14.547974 2.9499915 19.798996 8.20101c5.251007 5.2510185 8.201004 12.372929 8.201004 19.79899l0 0c0 15.463974 -12.536026 28.0 -28.0 28.0l0 0c-15.463974 0 -28.0 -12.536026 -28.0 -28.0z" fill-rule="evenodd"/><path fill="#000000" d="m108.46664 34.86l0 -11.453127l8.28125 0l0 1.34375l-6.765625 0l0 3.515625l6.34375 0l0 1.34375l-6.34375 0l0 3.890627l7.03125 0l0 1.359375l-8.546875 0zm17.46875 -1.359375l0 1.359375l-7.578125 0q-0.015625 -0.515625 0.171875 -0.984375q0.28125 -0.765625 0.921875 -1.515625q0.640625 -0.7500019 1.84375 -1.7343769q1.859375 -1.53125 2.515625 -2.421875q0.65625 -0.90625 0.65625 -1.703125q0 -0.828125 -0.59375 -1.40625q-0.59375 -0.578125 -1.5625 -0.578125q-1.015625 0 -1.625 0.609375q-0.609375 0.609375 -0.609375 1.6875l-1.453125 -0.140625q0.15625 -1.625 1.125 -2.46875q0.96875 -0.84375 2.59375 -0.84375q1.65625 0 2.609375 0.921875q0.96875 0.90625 0.96875 2.25q0 0.6875 -0.28125 1.359375q-0.28125 0.65625 -0.9375 1.390625q-0.65625 0.734375 -2.171875 2.015625q-1.265625 1.0625019 -1.625 1.4531269q-0.359375 0.375 -0.59375 0.75l5.625 0z" fill-rule="nonzero"/><path fill="#fff2cc" d="m179.0 29.0l0 0c0 -15.463973 12.536026 -28.0 28.0 -28.0l0 0c7.426056 0 14.547974 2.9499915 19.798996 8.20101c5.251007 5.2510185 8.201004 12.372929 8.201004 19.79899l0 0c0 15.463974 -12.536026 28.0 -28.0 28.0l0 0c-15.463974 0 -28.0 -12.536026 -28.0 -28.0z" fill-rule="evenodd"/><path stroke="#000000" stroke-width="1.0" stroke-linejoin="round" stroke-linecap="butt" d="m179.0 29.0l0 0c0 -15.463973 12.536026 -28.0 28.0 -28.0l0 0c7.426056 0 14.547974 2.9499915 19.798996 8.20101c5.251007 5.2510185 8.201004 12.372929 8.201004 19.79899l0 0c0 15.463974 -12.536026 28.0 -28.0 28.0l0 0c-15.463974 0 -28.0 -12.536026 -28.0 -28.0z" fill-rule="evenodd"/><path fill="#000000" d="m197.46663 34.86l0 -11.453127l8.28125 0l0 1.34375l-6.765625 0l0 3.515625l6.34375 0l0 1.34375l-6.34375 0l0 3.890627l7.03125 0l0 1.359375l-8.546875 0zm10.078125 -3.031252l1.40625 -0.1875q0.25 1.2031269 0.828125 1.7343769q0.578125 0.515625 1.421875 0.515625q0.984375 0 1.671875 -0.6875q0.6875 -0.6875 0.6875 -1.7031269q0 -0.96875 -0.640625 -1.59375q-0.625 -0.625 -1.609375 -0.625q-0.390625 0 -0.984375 0.15625l0.15625 -1.234375q0.140625 0.015625 0.21875 0.015625q0.90625 0 1.625 -0.46875q0.71875 -0.46875 0.71875 -1.453125q0 -0.765625 -0.53125 -1.265625q-0.515625 -0.515625 -1.34375 -0.515625q-0.828125 0 -1.375 0.515625q-0.546875 0.515625 -0.703125 1.546875l-1.40625 -0.25q0.265625 -1.421875 1.171875 -2.1875q0.921875 -0.78125 2.28125 -0.78125q0.9375 0 1.71875 0.40625q0.796875 0.390625 1.203125 1.09375q0.421875 0.6875 0.421875 1.46875q0 0.75 -0.40625 1.359375q-0.390625 0.609375 -1.171875 0.96875q1.015625 0.234375 1.578125 0.96875q0.5625 0.734375 0.5625 1.84375q0 1.5000019 -1.09375 2.546877q-1.09375 1.046875 -2.765625 1.046875q-1.5 0 -2.5 -0.890625q-1.0 -0.90625 -1.140625 -2.343752z" fill-rule="nonzero"/><path fill="#a4c2f4" d="m1.0 111.5l0 0c0 -15.463974 12.536027 -28.0 28.0 -28.0l0 0c7.4260635 0 14.54797 2.9499893 19.798988 8.201012c5.2510185 5.2510147 8.201012 12.372925 8.201012 19.798988l0 0c0 15.463974 -12.536026 28.0 -28.0 28.0l0 0c-15.463973 0 -28.0 -12.536026 -28.0 -28.0z" fill-rule="evenodd"/><path stroke="#000000" stroke-width="1.0" stroke-linejoin="round" stroke-linecap="butt" d="m1.0 111.5l0 0c0 -15.463974 12.536027 -28.0 28.0 -28.0l0 0c7.4260635 0 14.54797 2.9499893 19.798988 8.201012c5.2510185 5.2510147 8.201012 12.372925 8.201012 19.798988l0 0c0 15.463974 -12.536026 28.0 -28.0 28.0l0 0c-15.463973 0 -28.0 -12.536026 -28.0 -28.0z" fill-rule="evenodd"/><path fill="#000000" d="m22.35726 117.36l0 -10.109375l-3.78125 0l0 -1.34375l9.078125 0l0 1.34375l-3.78125 0l0 10.109375l-1.515625 0zm11.585939 0l-1.40625 0l0 -8.96875q-0.515625 0.484375 -1.3437519 0.96875q-0.8125 0.484375 -1.46875 0.734375l0 -1.359375q1.171875 -0.5625 2.046875 -1.34375q0.8906269 -0.796875 1.2656269 -1.53125l0.90625 0l0 11.5z" fill-rule="nonzero"/><path fill="#a4c2f4" d="m90.0 111.5l0 0c0 -15.463974 12.536026 -28.0 28.0 -28.0l0 0c7.4260635 0 14.547974 2.9499893 19.798996 8.201012c5.251007 5.2510147 8.201004 12.372925 8.201004 19.798988l0 0c0 15.463974 -12.536026 28.0 -28.0 28.0l0 0c-15.463974 0 -28.0 -12.536026 -28.0 -28.0z" fill-rule="evenodd"/><path stroke="#000000" stroke-width="1.0" stroke-linejoin="round" stroke-linecap="butt" d="m90.0 111.5l0 0c0 -15.463974 12.536026 -28.0 28.0 -28.0l0 0c7.4260635 0 14.547974 2.9499893 19.798996 8.201012c5.251007 5.2510147 8.201004 12.372925 8.201004 19.798988l0 0c0 15.463974 -12.536026 28.0 -28.0 28.0l0 0c-15.463974 0 -28.0 -12.536026 -28.0 -28.0z" fill-rule="evenodd"/><path fill="#000000" d="m111.35726 117.36l0 -10.109375l-3.78125 0l0 -1.34375l9.078125 0l0 1.34375l-3.78125 0l0 10.109375l-1.515625 0zm13.6796875 -1.359375l0 1.359375l-7.578125 0q-0.015625 -0.515625 0.171875 -0.984375q0.28125 -0.765625 0.921875 -1.515625q0.640625 -0.75 1.84375 -1.734375q1.859375 -1.53125 2.515625 -2.421875q0.65625 -0.90625 0.65625 -1.703125q0 -0.828125 -0.59375 -1.40625q-0.59375 -0.578125 -1.5625 -0.578125q-1.015625 0 -1.625 0.609375q-0.609375 0.609375 -0.609375 1.6875l-1.453125 -0.140625q0.15625 -1.625 1.125 -2.46875q0.96875 -0.84375 2.59375 -0.84375q1.65625 0 2.609375 0.921875q0.96875 0.90625 0.96875 2.25q0 0.6875 -0.28125 1.359375q-0.28125 0.65625 -0.9375 1.390625q-0.65625 0.734375 -2.171875 2.015625q-1.265625 1.0625 -1.625 1.453125q-0.359375 0.375 -0.59375 0.75l5.625 0z" fill-rule="nonzero"/><path fill="#a4c2f4" d="m179.0 111.50131l0 0c0 -15.463974 12.536026 -28.0 28.0 -28.0l0 0c7.426056 0 14.547974 2.9499893 19.798996 8.201012c5.251007 5.2510147 8.201004 12.372925 8.201004 19.798988l0 0c0 15.463974 -12.536026 28.0 -28.0 28.0l0 0c-15.463974 0 -28.0 -12.536026 -28.0 -28.0z" fill-rule="evenodd"/><path stroke="#000000" stroke-width="1.0" stroke-linejoin="round" stroke-linecap="butt" d="m179.0 111.50131l0 0c0 -15.463974 12.536026 -28.0 28.0 -28.0l0 0c7.426056 0 14.547974 2.9499893 19.798996 8.201012c5.251007 5.2510147 8.201004 12.372925 8.201004 19.798988l0 0c0 15.463974 -12.536026 28.0 -28.0 28.0l0 0c-15.463974 0 -28.0 -12.536026 -28.0 -28.0z" fill-rule="evenodd"/><path fill="#000000" d="m200.35725 117.36131l0 -10.109375l-3.78125 0l0 -1.34375l9.078125 0l0 1.34375l-3.78125 0l0 10.109375l-1.515625 0zm6.2890625 -3.03125l1.40625 -0.1875q0.25 1.203125 0.828125 1.734375q0.578125 0.515625 1.421875 0.515625q0.984375 0 1.671875 -0.6875q0.6875 -0.6875 0.6875 -1.703125q0 -0.96875 -0.640625 -1.59375q-0.625 -0.625 -1.609375 -0.625q-0.390625 0 -0.984375 0.15625l0.15625 -1.234375q0.140625 0.015625 0.21875 0.015625q0.90625 0 1.625 -0.46875q0.71875 -0.46875 0.71875 -1.453125q0 -0.765625 -0.53125 -1.265625q-0.515625 -0.515625 -1.34375 -0.515625q-0.828125 0 -1.375 0.515625q-0.546875 0.515625 -0.703125 1.546875l-1.40625 -0.25q0.265625 -1.421875 1.171875 -2.1875q0.921875 -0.78125 2.28125 -0.78125q0.9375 0 1.71875 0.40625q0.796875 0.390625 1.203125 1.09375q0.421875 0.6875 0.421875 1.46875q0 0.75 -0.40625 1.359375q-0.390625 0.609375 -1.171875 0.96875q1.015625 0.234375 1.578125 0.96875q0.5625 0.734375 0.5625 1.84375q0 1.5 -1.09375 2.546875q-1.09375 1.046875 -2.765625 1.046875q-1.5 0 -2.5 -0.890625q-1.0 -0.90625 -1.140625 -2.34375z" fill-rule="nonzero"/><path fill="#000000" fill-opacity="0.0" d="m29.0 57.0l0 26.48819" fill-rule="evenodd"/><path stroke="#000000" stroke-width="1.0" stroke-linejoin="round" stroke-linecap="butt" d="m29.0 57.0l0 20.48819" fill-rule="evenodd"/><path fill="#000000" stroke="#000000" stroke-width="1.0" stroke-linecap="butt" d="m27.348269 77.48819l1.6517315 4.5380936l1.6517315 -4.5380936z" fill-rule="evenodd"/><path fill="#000000" fill-opacity="0.0" d="m98.20101 48.79899l-49.417324 42.897636" fill-rule="evenodd"/><path stroke="#000000" stroke-width="1.0" stroke-linejoin="round" stroke-linecap="butt" d="m98.20101 48.798992l-44.886337 38.96442" fill-rule="evenodd"/><path fill="#000000" stroke="#000000" stroke-width="1.0" stroke-linecap="butt" d="m52.231907 86.51608l-2.344246 4.2222137l4.509781 -1.7275543z" fill-rule="evenodd"/><path fill="#000000" fill-opacity="0.0" d="m118.0 57.0l0 26.48819" fill-rule="evenodd"/><path stroke="#000000" stroke-width="1.0" stroke-linejoin="round" stroke-linecap="butt" d="m118.0 57.0l0 20.48819" fill-rule="evenodd"/><path fill="#000000" stroke="#000000" stroke-width="1.0" stroke-linecap="butt" d="m116.34827 77.48819l1.6517334 4.5380936l1.6517334 -4.5380936z" fill-rule="evenodd"/><path fill="#000000" fill-opacity="0.0" d="m137.799 48.79899l49.417313 42.897636" fill-rule="evenodd"/><path stroke="#000000" stroke-width="1.0" stroke-linejoin="round" stroke-linecap="butt" d="m137.79898 48.798992l44.886353 38.96442" fill-rule="evenodd"/><path fill="#000000" stroke="#000000" stroke-width="1.0" stroke-linecap="butt" d="m181.60255 89.01074l4.509781 1.7275543l-2.3442383 -4.2222137z" fill-rule="evenodd"/><path fill="#000000" fill-opacity="0.0" d="m207.0 57.0l0 26.48819" fill-rule="evenodd"/><path stroke="#000000" stroke-width="1.0" stroke-linejoin="round" stroke-linecap="butt" d="m207.0 57.0l0 20.48819" fill-rule="evenodd"/><path fill="#000000" stroke="#000000" stroke-width="1.0" stroke-linecap="butt" d="m205.34827 77.48819l1.6517334 4.5380936l1.6517334 -4.5380936z" fill-rule="evenodd"/><path fill="#a4c2f4" d="m0.9986877 194.00262l0 0c0 -15.463974 12.536027 -28.0 28.0 -28.0l0 0c7.4260635 0 14.54797 2.949997 19.798988 8.201004c5.2510185 5.2510223 8.201012 12.37294 8.201012 19.798996l0 0c0 15.463974 -12.536026 28.0 -28.0 28.0l0 0c-15.463973 0 -28.0 -12.536026 -28.0 -28.0z" fill-rule="evenodd"/><path stroke="#000000" stroke-width="1.0" stroke-linejoin="round" stroke-linecap="butt" d="m0.9986877 194.00262l0 0c0 -15.463974 12.536027 -28.0 28.0 -28.0l0 0c7.4260635 0 14.54797 2.949997 19.798988 8.201004c5.2510185 5.2510223 8.201012 12.37294 8.201012 19.798996l0 0c0 15.463974 -12.536026 28.0 -28.0 28.0l0 0c-15.463973 0 -28.0 -12.536026 -28.0 -28.0z" fill-rule="evenodd"/><path fill="#000000" d="m22.355947 199.86263l0 -10.109375l-3.78125 0l0 -1.34375l9.078125 0l0 1.34375l-3.78125 0l0 10.109375l-1.515625 0zm10.789064 0l0 -2.75l-4.968752 0l0 -1.28125l5.234377 -7.421875l1.140625 0l0 7.421875l1.546875 0l0 1.28125l-1.546875 0l0 2.75l-1.40625 0zm0 -4.03125l0 -5.171875l-3.578127 5.171875l3.578127 0z" fill-rule="nonzero"/><path fill="#a4c2f4" d="m89.99869 194.00131l0 0c0 -15.463974 12.536026 -28.0 28.0 -28.0l0 0c7.4260635 0 14.547974 2.949997 19.798996 8.201004c5.251007 5.2510223 8.201004 12.37294 8.201004 19.798996l0 0c0 15.463974 -12.536026 28.0 -28.0 28.0l0 0c-15.463974 0 -28.0 -12.536026 -28.0 -28.0z" fill-rule="evenodd"/><path stroke="#000000" stroke-width="1.0" stroke-linejoin="round" stroke-linecap="butt" d="m89.99869 194.00131l0 0c0 -15.463974 12.536026 -28.0 28.0 -28.0l0 0c7.4260635 0 14.547974 2.949997 19.798996 8.201004c5.251007 5.2510223 8.201004 12.37294 8.201004 19.798996l0 0c0 15.463974 -12.536026 28.0 -28.0 28.0l0 0c-15.463974 0 -28.0 -12.536026 -28.0 -28.0z" fill-rule="evenodd"/><path fill="#000000" d="m111.35595 199.86131l0 -10.109375l-3.78125 0l0 -1.34375l9.078125 0l0 1.34375l-3.78125 0l0 10.109375l-1.515625 0zm6.2890625 -3.0l1.46875 -0.125q0.171875 1.078125 0.765625 1.625q0.59375 0.53125 1.4375 0.53125q1.015625 0 1.71875 -0.765625q0.703125 -0.765625 0.703125 -2.03125q0 -1.203125 -0.671875 -1.890625q-0.671875 -0.703125 -1.765625 -0.703125q-0.6875 0 -1.234375 0.3125q-0.546875 0.3125 -0.859375 0.796875l-1.3125 -0.171875l1.109375 -5.875l5.6875 0l0 1.34375l-4.5625 0l-0.625 3.078125q1.03125 -0.71875 2.171875 -0.71875q1.5 0 2.53125 1.046875q1.03125 1.03125 1.03125 2.65625q0 1.5625 -0.90625 2.6875q-1.109375 1.40625 -3.015625 1.40625q-1.5625 0 -2.546875 -0.875q-0.984375 -0.890625 -1.125 -2.328125z" fill-rule="nonzero"/><path fill="#a4c2f4" d="m0.9986877 276.50394l0 0c0 -15.463959 12.536027 -28.0 28.0 -28.0l0 0c7.4260635 0 14.54797 2.949997 19.798988 8.201019c5.2510185 5.251007 8.201012 12.372925 8.201012 19.79898l0 0c0 15.463959 -12.536026 28.0 -28.0 28.0l0 0c-15.463973 0 -28.0 -12.536041 -28.0 -28.0z" fill-rule="evenodd"/><path stroke="#000000" stroke-width="1.0" stroke-linejoin="round" stroke-linecap="butt" d="m0.9986877 276.50394l0 0c0 -15.463959 12.536027 -28.0 28.0 -28.0l0 0c7.4260635 0 14.54797 2.949997 19.798988 8.201019c5.2510185 5.251007 8.201012 12.372925 8.201012 19.79898l0 0c0 15.463959 -12.536026 28.0 -28.0 28.0l0 0c-15.463973 0 -28.0 -12.536041 -28.0 -28.0z" fill-rule="evenodd"/><path fill="#000000" d="m22.355947 282.36392l0 -10.109375l-3.78125 0l0 -1.34375l9.078125 0l0 1.34375l-3.78125 0l0 10.109375l-1.515625 0zm13.585939 -8.65625l-1.40625 0.109375q-0.1875 -0.828125 -0.53125 -1.203125q-0.5625 -0.59375 -1.40625 -0.59375q-0.6718769 0 -1.1718769 0.375q-0.671875 0.484375 -1.0625 1.421875q-0.375 0.921875 -0.390625 2.640625q0.515625 -0.78125 1.25 -1.15625q0.734375 -0.375 1.5312519 -0.375q1.40625 0 2.390625 1.046875q1.0 1.03125 1.0 2.671875q0 1.078125 -0.46875 2.0q-0.46875 0.921875 -1.28125 1.421875q-0.8125 0.5 -1.84375 0.5q-1.7500019 0 -2.859377 -1.296875q-1.109375 -1.296875 -1.109375 -4.265625q0 -3.328125 1.21875 -4.828125q1.078125 -1.3125 2.890627 -1.3125q1.34375 0 2.203125 0.765625q0.875 0.75 1.046875 2.078125zm-5.750002 4.9375q0 0.734375 0.3125 1.40625q0.3125 0.65625 0.859375 1.0q0.5625 0.34375 1.1718769 0.34375q0.890625 0 1.53125 -0.71875q0.640625 -0.71875 0.640625 -1.953125q0 -1.1875 -0.640625 -1.859375q-0.625 -0.6875 -1.59375 -0.6875q-0.9531269 0 -1.6250019 0.6875q-0.65625 0.671875 -0.65625 1.78125z" fill-rule="nonzero"/><path fill="#a4c2f4" d="m89.99344 276.50394l0 0c0 -15.463959 12.536026 -28.0 28.0 -28.0l0 0c7.4260635 0 14.547974 2.949997 19.798996 8.201019c5.251007 5.251007 8.201004 12.372925 8.201004 19.79898l0 0c0 15.463959 -12.536026 28.0 -28.0 28.0l0 0c-15.463974 0 -28.0 -12.536041 -28.0 -28.0z" fill-rule="evenodd"/><path stroke="#000000" stroke-width="1.0" stroke-linejoin="round" stroke-linecap="butt" d="m89.99344 276.50394l0 0c0 -15.463959 12.536026 -28.0 28.0 -28.0l0 0c7.4260635 0 14.547974 2.949997 19.798996 8.201019c5.251007 5.251007 8.201004 12.372925 8.201004 19.79898l0 0c0 15.463959 -12.536026 28.0 -28.0 28.0l0 0c-15.463974 0 -28.0 -12.536041 -28.0 -28.0z" fill-rule="evenodd"/><path fill="#000000" d="m111.3507 282.36392l0 -10.109375l-3.78125 0l0 -1.34375l9.078125 0l0 1.34375l-3.78125 0l0 10.109375l-1.515625 0zm6.3828125 -9.953125l0 -1.359375l7.40625 0l0 1.09375q-1.09375 1.171875 -2.171875 3.109375q-1.0625 1.921875 -1.65625 3.953125q-0.421875 1.4375 -0.53125 3.15625l-1.453125 0q0.03125 -1.359375 0.53125 -3.265625q0.515625 -1.921875 1.453125 -3.6875q0.953125 -1.78125 2.03125 -3.0l-5.609375 0z" fill-rule="nonzero"/><path fill="#fff2cc" d="m178.9895 276.49606l0 0c0 -15.463959 12.536026 -28.0 28.0 -28.0l0 0c7.426056 0 14.547974 2.949997 19.798996 8.201019c5.251007 5.251007 8.201004 12.372925 8.201004 19.79898l0 0c0 15.463959 -12.536026 28.0 -28.0 28.0l0 0c-15.463974 0 -28.0 -12.536041 -28.0 -28.0z" fill-rule="evenodd"/><path stroke="#000000" stroke-width="1.0" stroke-linejoin="round" stroke-linecap="butt" d="m178.9895 276.49606l0 0c0 -15.463959 12.536026 -28.0 28.0 -28.0l0 0c7.426056 0 14.547974 2.949997 19.798996 8.201019c5.251007 5.251007 8.201004 12.372925 8.201004 19.79898l0 0c0 15.463959 -12.536026 28.0 -28.0 28.0l0 0c-15.463974 0 -28.0 -12.536041 -28.0 -28.0z" fill-rule="evenodd"/><path fill="#000000" d="m197.45613 282.35605l0 -11.453125l8.28125 0l0 1.34375l-6.765625 0l0 3.515625l6.34375 0l0 1.34375l-6.34375 0l0 3.890625l7.03125 0l0 1.359375l-8.546875 0zm14.578125 0l0 -2.75l-4.96875 0l0 -1.28125l5.234375 -7.421875l1.140625 0l0 7.421875l1.546875 0l0 1.28125l-1.546875 0l0 2.75l-1.40625 0zm0 -4.03125l0 -5.171875l-3.578125 5.171875l3.578125 0z" fill-rule="nonzero"/><path fill="#000000" fill-opacity="0.0" d="m118.0 139.5l0 26.48819" fill-rule="evenodd"/><path stroke="#000000" stroke-width="1.0" stroke-linejoin="round" stroke-linecap="butt" d="m118.0 139.5l0 20.48819" fill-rule="evenodd"/><path fill="#000000" stroke="#000000" stroke-width="1.0" stroke-linecap="butt" d="m116.34827 159.98819l1.6517334 4.538101l1.6517334 -4.538101z" fill-rule="evenodd"/><path fill="#000000" fill-opacity="0.0" d="m187.201 131.30031l-49.417313 42.89763" fill-rule="evenodd"/><path stroke="#000000" stroke-width="1.0" stroke-linejoin="round" stroke-linecap="butt" d="m187.20102 131.3003l-44.886353 38.96443" fill-rule="evenodd"/><path fill="#000000" stroke="#000000" stroke-width="1.0" stroke-linecap="butt" d="m141.2319 169.0174l-2.3442383 4.2222137l4.509781 -1.7275543z" fill-rule="evenodd"/><path fill="#000000" fill-opacity="0.0" d="m48.79899 131.299l49.385826 42.89763" fill-rule="evenodd"/><path stroke="#000000" stroke-width="1.0" stroke-linejoin="round" stroke-linecap="butt" d="m48.798992 131.29898l44.856075 38.962997" fill-rule="evenodd"/><path fill="#000000" stroke="#000000" stroke-width="1.0" stroke-linecap="butt" d="m92.57191 171.50897l4.5092316 1.7289734l-2.3429108 -4.222946z" fill-rule="evenodd"/><path fill="#000000" fill-opacity="0.0" d="m29.0 139.5l0 26.48819" fill-rule="evenodd"/><path stroke="#000000" stroke-width="1.0" stroke-linejoin="round" stroke-linecap="butt" d="m29.0 139.5l0 20.48819" fill-rule="evenodd"/><path fill="#000000" stroke="#000000" stroke-width="1.0" stroke-linecap="butt" d="m27.348269 159.98819l1.6517315 4.538101l1.6517315 -4.538101z" fill-rule="evenodd"/><path fill="#000000" fill-opacity="0.0" d="m28.998688 222.00262l0 26.48819" fill-rule="evenodd"/><path stroke="#000000" stroke-width="1.0" stroke-linejoin="round" stroke-linecap="butt" d="m28.998688 222.00262l0 20.48819" fill-rule="evenodd"/><path fill="#000000" stroke="#000000" stroke-width="1.0" stroke-linecap="butt" d="m27.346954 242.49081l1.6517334 4.538101l1.6517315 -4.538101z" fill-rule="evenodd"/><path fill="#000000" fill-opacity="0.0" d="m117.99869 222.00131l0 26.48819" fill-rule="evenodd"/><path stroke="#000000" stroke-width="1.0" stroke-linejoin="round" stroke-linecap="butt" d="m117.99869 222.00131l0 20.48819" fill-rule="evenodd"/><path fill="#000000" stroke="#000000" stroke-width="1.0" stroke-linecap="butt" d="m116.346954 242.4895l1.6517334 4.538101l1.6517334 -4.538101z" fill-rule="evenodd"/><path fill="#000000" fill-opacity="0.0" d="m178.9895 276.49606l-33.007874 0" fill-rule="evenodd"/><path stroke="#000000" stroke-width="1.0" stroke-linejoin="round" stroke-linecap="butt" d="m178.9895 276.49606l-27.007874 0" fill-rule="evenodd"/><path fill="#000000" stroke="#000000" stroke-width="1.0" stroke-linecap="butt" d="m151.98163 274.84433l-4.538101 1.6517334l4.538101 1.6517334z" fill-rule="evenodd"/><path fill="#a4c2f4" d="m89.99344 359.00525l0 0c0 -15.463959 12.536026 -28.0 28.0 -28.0l0 0c7.4260635 0 14.547974 2.9499817 19.798996 8.201019c5.251007 5.251007 8.201004 12.372925 8.201004 19.79898l0 0c0 15.463959 -12.536026 28.0 -28.0 28.0l0 0c-15.463974 0 -28.0 -12.536041 -28.0 -28.0z" fill-rule="evenodd"/><path stroke="#000000" stroke-width="1.0" stroke-linejoin="round" stroke-linecap="butt" d="m89.99344 359.00525l0 0c0 -15.463959 12.536026 -28.0 28.0 -28.0l0 0c7.4260635 0 14.547974 2.9499817 19.798996 8.201019c5.251007 5.251007 8.201004 12.372925 8.201004 19.79898l0 0c0 15.463959 -12.536026 28.0 -28.0 28.0l0 0c-15.463974 0 -28.0 -12.536041 -28.0 -28.0z" fill-rule="evenodd"/><path fill="#000000" d="m111.3507 364.86523l0 -10.109375l-3.78125 0l0 -1.34375l9.078125 0l0 1.34375l-3.78125 0l0 10.109375l-1.515625 0zm8.4453125 -6.21875q-0.875 -0.3125 -1.296875 -0.90625q-0.421875 -0.59375 -0.421875 -1.421875q0 -1.25 0.890625 -2.09375q0.90625 -0.859375 2.40625 -0.859375q1.5 0 2.40625 0.875q0.921875 0.859375 0.921875 2.109375q0 0.796875 -0.421875 1.390625q-0.421875 0.59375 -1.265625 0.90625q1.046875 0.34375 1.59375 1.109375q0.5625 0.765625 0.5625 1.828125q0 1.46875 -1.046875 2.484375q-1.03125 1.0 -2.734375 1.0q-1.6875 0 -2.734375 -1.0q-1.03125 -1.015625 -1.03125 -2.515625q0 -1.125 0.5625 -1.875q0.5625 -0.75 1.609375 -1.03125zm-0.28125 -2.375q0 0.8125 0.515625 1.328125q0.53125 0.515625 1.375 0.515625q0.8125 0 1.328125 -0.515625q0.515625 -0.515625 0.515625 -1.25q0 -0.78125 -0.53125 -1.296875q-0.53125 -0.53125 -1.328125 -0.53125q-0.8125 0 -1.34375 0.515625q-0.53125 0.515625 -0.53125 1.234375zm-0.453125 5.28125q0 0.609375 0.28125 1.171875q0.296875 0.5625 0.859375 0.875q0.5625 0.296875 1.203125 0.296875q1.015625 0 1.671875 -0.640625q0.65625 -0.65625 0.65625 -1.65625q0 -1.015625 -0.6875 -1.671875q-0.671875 -0.671875 -1.6875 -0.671875q-0.984375 0 -1.640625 0.65625q-0.65625 0.65625 -0.65625 1.640625z" fill-rule="nonzero"/><path fill="#a2c4c9" d="m0.9986877 441.4987l0 0c0 -15.463959 12.536027 -28.0 28.0 -28.0l0 0c7.4260635 0 14.54797 2.9499817 19.798988 8.201019c5.2510185 5.251007 8.201012 12.372925 8.201012 19.79898l0 0c0 15.463959 -12.536026 28.0 -28.0 28.0l0 0c-15.463973 0 -28.0 -12.536041 -28.0 -28.0z" fill-rule="evenodd"/><path stroke="#000000" stroke-width="1.0" stroke-linejoin="round" stroke-linecap="butt" d="m0.9986877 441.4987l0 0c0 -15.463959 12.536027 -28.0 28.0 -28.0l0 0c7.4260635 0 14.54797 2.9499817 19.798988 8.201019c5.2510185 5.251007 8.201012 12.372925 8.201012 19.79898l0 0c0 15.463959 -12.536026 28.0 -28.0 28.0l0 0c-15.463973 0 -28.0 -12.536041 -28.0 -28.0z" fill-rule="evenodd"/><path fill="#000000" d="m19.371572 447.35867l0 -11.453125l1.515625 0l0 10.09375l5.640625 0l0 1.359375l-7.15625 0zm13.695314 0l-1.4062519 0l0 -8.96875q-0.515625 0.484375 -1.34375 0.96875q-0.8125 0.484375 -1.46875 0.734375l0 -1.359375q1.171875 -0.5625 2.046875 -1.34375q0.890625 -0.796875 1.2656269 -1.53125l0.90625 0l0 11.5z" fill-rule="nonzero"/><path fill="#a2c4c9" d="m178.99344 441.4908l0 0c0 -15.463959 12.536026 -28.0 28.0 -28.0l0 0c7.426056 0 14.547974 2.9499817 19.798996 8.201019c5.251007 5.251007 8.201004 12.372925 8.201004 19.79898l0 0c0 15.463959 -12.536026 28.0 -28.0 28.0l0 0c-15.463974 0 -28.0 -12.536041 -28.0 -28.0z" fill-rule="evenodd"/><path stroke="#000000" stroke-width="1.0" stroke-linejoin="round" stroke-linecap="butt" d="m178.99344 441.4908l0 0c0 -15.463959 12.536026 -28.0 28.0 -28.0l0 0c7.426056 0 14.547974 2.9499817 19.798996 8.201019c5.251007 5.251007 8.201004 12.372925 8.201004 19.79898l0 0c0 15.463959 -12.536026 28.0 -28.0 28.0l0 0c-15.463974 0 -28.0 -12.536041 -28.0 -28.0z" fill-rule="evenodd"/><path fill="#000000" d="m197.36632 447.3508l0 -11.453125l1.515625 0l0 10.09375l5.640625 0l0 1.359375l-7.15625 0zm15.7890625 -1.359375l0 1.359375l-7.578125 0q-0.015625 -0.515625 0.171875 -0.984375q0.28125 -0.765625 0.921875 -1.515625q0.640625 -0.75 1.84375 -1.734375q1.859375 -1.53125 2.515625 -2.421875q0.65625 -0.90625 0.65625 -1.703125q0 -0.828125 -0.59375 -1.40625q-0.59375 -0.578125 -1.5625 -0.578125q-1.015625 0 -1.625 0.609375q-0.609375 0.609375 -0.609375 1.6875l-1.453125 -0.140625q0.15625 -1.625 1.125 -2.46875q0.96875 -0.84375 2.59375 -0.84375q1.65625 0 2.609375 0.921875q0.96875 0.90625 0.96875 2.25q0 0.6875 -0.28125 1.359375q-0.28125 0.65625 -0.9375 1.390625q-0.65625 0.734375 -2.171875 2.015625q-1.265625 1.0625 -1.625 1.453125q-0.359375 0.375 -0.59375 0.75l5.625 0z" fill-rule="nonzero"/><path fill="#000000" fill-opacity="0.0" d="m48.797676 296.30292l49.385826 42.897644" fill-rule="evenodd"/><path stroke="#000000" stroke-width="1.0" stroke-linejoin="round" stroke-linecap="butt" d="m48.79768 296.30292l44.856075 38.962982" fill-rule="evenodd"/><path fill="#000000" stroke="#000000" stroke-width="1.0" stroke-linecap="butt" d="m92.570595 336.5129l4.5092316 1.7289734l-2.3429108 -4.2229614z" fill-rule="evenodd"/><path fill="#000000" fill-opacity="0.0" d="m117.99344 304.50394l0 26.48819" fill-rule="evenodd"/><path stroke="#000000" stroke-width="1.0" stroke-linejoin="round" stroke-linecap="butt" d="m117.99344 304.50394l0 20.48819" fill-rule="evenodd"/><path fill="#000000" stroke="#000000" stroke-width="1.0" stroke-linecap="butt" d="m116.341705 324.99213l1.6517334 4.538086l1.6517334 -4.538086z" fill-rule="evenodd"/><path fill="#000000" fill-opacity="0.0" d="m98.19445 378.80423l-49.38583 42.897644" fill-rule="evenodd"/><path stroke="#000000" stroke-width="1.0" stroke-linejoin="round" stroke-linecap="butt" d="m98.19445 378.80426l-44.856083 38.963013" fill-rule="evenodd"/><path fill="#000000" stroke="#000000" stroke-width="1.0" stroke-linecap="butt" d="m52.255203 416.52026l-2.3429108 4.2229614l4.5092354 -1.7289734z" fill-rule="evenodd"/><path fill="#000000" fill-opacity="0.0" d="m137.79243 378.80423l49.417313 42.897644" fill-rule="evenodd"/><path stroke="#000000" stroke-width="1.0" stroke-linejoin="round" stroke-linecap="butt" d="m137.79242 378.80426l44.886353 38.964447" fill-rule="evenodd"/><path fill="#000000" stroke="#000000" stroke-width="1.0" stroke-linecap="butt" d="m181.596 419.01602l4.509781 1.7275391l-2.3442383 -4.2221985z" fill-rule="evenodd"/><path fill="#000000" fill-opacity="0.0" d="m267.98425 182.23622l272.0 0l0 78.55119l-272.0 0z" fill-rule="evenodd"/><path stroke="#000000" stroke-width="1.0" stroke-linejoin="round" stroke-linecap="butt" d="m267.98425 182.23622l272.0 0l0 78.55119l-272.0 0z" fill-rule="evenodd"/><path fill="#000000" fill-opacity="0.0" d="m275.40027 204.1693l0 0c0 -9.114883 7.3890686 -16.503937 16.503937 -16.503937l0 0c4.3771057 0 8.574951 1.7388 11.670044 4.833893c3.0950928 3.0950775 4.833893 7.292923 4.833893 11.670044l0 0c0 9.114868 -7.3890686 16.503937 -16.503937 16.503937l0 0c-9.114868 0 -16.503937 -7.3890686 -16.503937 -16.503937z" fill-rule="evenodd"/><path stroke="#000000" stroke-width="1.0" stroke-linejoin="round" stroke-linecap="butt" d="m275.40027 204.1693l0 0c0 -9.114883 7.3890686 -16.503937 16.503937 -16.503937l0 0c4.3771057 0 8.574951 1.7388 11.670044 4.833893c3.0950928 3.0950775 4.833893 7.292923 4.833893 11.670044l0 0c0 9.114868 -7.3890686 16.503937 -16.503937 16.503937l0 0c-9.114868 0 -16.503937 -7.3890686 -16.503937 -16.503937z" fill-rule="evenodd"/><path fill="#000000" d="m294.98416 206.84929l-1.265625 0l-0.5 -1.296875l-2.28125 0l-0.46875 1.296875l-1.234375 0l2.234375 -5.734375l1.21875 0l2.296875 5.734375zm-2.125 -2.265625l-0.796875 -2.125l-0.765625 2.125l1.5625 0z" fill-rule="nonzero"/><path fill="#000000" fill-opacity="0.0" d="m331.89896 204.1693l0 0c0 -9.114883 7.3890686 -16.503937 16.503937 -16.503937l0 0c4.3771057 0 8.574951 1.7388 11.670044 4.833893c3.0950928 3.0950775 4.833893 7.292923 4.833893 11.670044l0 0c0 9.114868 -7.3890686 16.503937 -16.503937 16.503937l0 0c-9.114868 0 -16.503937 -7.3890686 -16.503937 -16.503937z" fill-rule="evenodd"/><path stroke="#000000" stroke-width="1.0" stroke-linejoin="round" stroke-linecap="butt" d="m331.89896 204.1693l0 0c0 -9.114883 7.3890686 -16.503937 16.503937 -16.503937l0 0c4.3771057 0 8.574951 1.7388 11.670044 4.833893c3.0950928 3.0950775 4.833893 7.292923 4.833893 11.670044l0 0c0 9.114868 -7.3890686 16.503937 -16.503937 16.503937l0 0c-9.114868 0 -16.503937 -7.3890686 -16.503937 -16.503937z" fill-rule="evenodd"/><path fill="#000000" d="m346.3266 201.11491l2.28125 0q0.6875 0 1.015625 0.0625q0.328125 0.0625 0.59375 0.25q0.265625 0.171875 0.4375 0.46875q0.1875 0.296875 0.1875 0.671875q0 0.390625 -0.21875 0.734375q-0.21875 0.328125 -0.59375 0.5q0.53125 0.15625 0.8125 0.53125q0.28125 0.359375 0.28125 0.859375q0 0.390625 -0.1875 0.765625q-0.1875 0.359375 -0.5 0.578125q-0.3125 0.21875 -0.765625 0.265625q-0.296875 0.03125 -1.40625 0.046875l-1.9375 0l0 -5.734375zm1.15625 0.953125l0 1.328125l0.75 0q0.671875 0 0.84375 -0.015625q0.296875 -0.03125 0.46875 -0.203125q0.171875 -0.171875 0.171875 -0.453125q0 -0.265625 -0.15625 -0.421875q-0.140625 -0.171875 -0.4375 -0.203125q-0.171875 -0.03125 -0.984375 -0.03125l-0.65625 0zm0 2.28125l0 1.53125l1.0625 0q0.625 0 0.796875 -0.03125q0.25 -0.046875 0.40625 -0.21875q0.171875 -0.1875 0.171875 -0.5q0 -0.25 -0.125 -0.421875q-0.125 -0.1875 -0.359375 -0.265625q-0.234375 -0.09375 -1.03125 -0.09375l-0.921875 0z" fill-rule="nonzero"/><path fill="#000000" fill-opacity="0.0" d="m308.40814 204.1693l23.496063 0" fill-rule="evenodd"/><path stroke="#000000" stroke-width="1.0" stroke-linejoin="round" stroke-linecap="butt" d="m308.40814 204.1693l17.496063 0" fill-rule="evenodd"/><path fill="#000000" stroke="#000000" stroke-width="1.0" stroke-linecap="butt" d="m325.9042 205.82103l4.538086 -1.6517334l-4.538086 -1.6517334z" fill-rule="evenodd"/><path fill="#000000" fill-opacity="0.0" d="m372.98425 187.66667l162.01575 0l0 33.007874l-162.01575 0z" fill-rule="evenodd"/><path fill="#000000" d="m382.453 197.28061l1.359375 -0.1875q0.0625 1.3125 0.5 1.796875q0.4375 0.484375 1.203125 0.484375q0.578125 0 0.984375 -0.265625q0.421875 -0.265625 0.578125 -0.703125q0.15625 -0.453125 0.15625 -1.4375l0 -7.890625l1.515625 0l0 7.796875q0 1.4375 -0.359375 2.234375q-0.34375 0.78125 -1.09375 1.203125q-0.75 0.421875 -1.765625 0.421875q-1.515625 0 -2.3125 -0.875q-0.796875 -0.875 -0.765625 -2.578125zm8.0625 -0.90625q0 -2.296875 1.28125 -3.40625q1.078125 -0.921875 2.609375 -0.921875q1.71875 0 2.796875 1.125q1.09375 1.109375 1.09375 3.09375q0 1.59375 -0.484375 2.515625q-0.484375 0.921875 -1.40625 1.4375q-0.90625 0.5 -2.0 0.5q-1.734375 0 -2.8125 -1.109375q-1.078125 -1.125 -1.078125 -3.234375zm1.453125 0q0 1.59375 0.6875 2.390625q0.703125 0.796875 1.75 0.796875q1.046875 0 1.734375 -0.796875q0.703125 -0.796875 0.703125 -2.4375q0 -1.53125 -0.703125 -2.328125q-0.6875 -0.796875 -1.734375 -0.796875q-1.046875 0 -1.75 0.796875q-0.6875 0.78125 -0.6875 2.375zm9.2734375 4.15625l-1.3125 0l0 -11.453125l1.40625 0l0 4.078125q0.890625 -1.109375 2.28125 -1.109375q0.765625 0 1.4375 0.3125q0.6875 0.296875 1.125 0.859375q0.453125 0.5625 0.703125 1.359375q0.25 0.78125 0.25 1.671875q0 2.140625 -1.0625 3.3125q-1.046875 1.15625 -2.53125 1.15625q-1.46875 0 -2.296875 -1.234375l0 1.046875zm-0.015625 -4.21875q0 1.5 0.40625 2.15625q0.65625 1.09375 1.796875 1.09375q0.921875 0 1.59375 -0.796875q0.671875 -0.8125 0.671875 -2.390625q0 -1.625 -0.65625 -2.390625q-0.640625 -0.78125 -1.546875 -0.78125q-0.921875 0 -1.59375 0.796875q-0.671875 0.796875 -0.671875 2.3125zm12.171875 4.21875l0 -11.453125l4.296875 0q1.3125 0 2.109375 0.34375q0.796875 0.34375 1.234375 1.078125q0.453125 0.71875 0.453125 1.5q0 0.734375 -0.40625 1.390625q-0.390625 0.640625 -1.1875 1.046875q1.03125 0.296875 1.59375 1.03125q0.5625 0.734375 0.5625 1.734375q0 0.8125 -0.34375 1.5q-0.34375 0.6875 -0.84375 1.0625q-0.5 0.375 -1.25 0.578125q-0.75 0.1875 -1.84375 0.1875l-4.375 0zm1.515625 -6.640625l2.484375 0q1.0 0 1.4375 -0.140625q0.578125 -0.171875 0.875 -0.5625q0.296875 -0.40625 0.296875 -1.0q0 -0.578125 -0.28125 -1.0q-0.265625 -0.4375 -0.78125 -0.59375q-0.5 -0.171875 -1.734375 -0.171875l-2.296875 0l0 3.46875zm0 5.28125l2.859375 0q0.734375 0 1.03125 -0.046875q0.515625 -0.09375 0.859375 -0.3125q0.359375 -0.21875 0.578125 -0.640625q0.234375 -0.421875 0.234375 -0.96875q0 -0.640625 -0.328125 -1.109375q-0.328125 -0.46875 -0.90625 -0.65625q-0.578125 -0.203125 -1.671875 -0.203125l-2.65625 0l0 3.9375zm18.867188 1.359375l0 -1.046875q-0.78125 1.234375 -2.3125 1.234375q-1.0 0 -1.828125 -0.546875q-0.828125 -0.546875 -1.296875 -1.53125q-0.453125 -0.984375 -0.453125 -2.25q0 -1.25 0.40625 -2.25q0.421875 -1.015625 1.25 -1.546875q0.828125 -0.546875 1.859375 -0.546875q0.75 0 1.328125 0.3125q0.59375 0.3125 0.953125 0.828125l0 -4.109375l1.40625 0l0 11.453125l-1.3125 0zm-4.4375 -4.140625q0 1.59375 0.671875 2.390625q0.671875 0.78125 1.578125 0.78125q0.921875 0 1.5625 -0.75q0.65625 -0.765625 0.65625 -2.3125q0 -1.703125 -0.65625 -2.5q-0.65625 -0.796875 -1.625 -0.796875q-0.9375 0 -1.5625 0.765625q-0.625 0.765625 -0.625 2.421875zm13.6328125 1.46875l1.453125 0.171875q-0.34375 1.28125 -1.28125 1.984375q-0.921875 0.703125 -2.359375 0.703125q-1.828125 0 -2.890625 -1.125q-1.0625 -1.125 -1.0625 -3.140625q0 -2.09375 1.078125 -3.25q1.078125 -1.15625 2.796875 -1.15625q1.65625 0 2.703125 1.140625q1.0625 1.125 1.0625 3.171875q0 0.125 0 0.375l-6.1875 0q0.078125 1.375 0.765625 2.109375q0.703125 0.71875 1.734375 0.71875q0.78125 0 1.328125 -0.40625q0.546875 -0.40625 0.859375 -1.296875zm-4.609375 -2.28125l4.625 0q-0.09375 -1.046875 -0.53125 -1.5625q-0.671875 -0.8125 -1.734375 -0.8125q-0.96875 0 -1.640625 0.65625q-0.65625 0.640625 -0.71875 1.71875zm7.8359375 8.140625l0 -11.484375l1.28125 0l0 1.078125q0.453125 -0.640625 1.015625 -0.953125q0.578125 -0.3125 1.390625 -0.3125q1.0625 0 1.875 0.546875q0.8125 0.546875 1.21875 1.546875q0.421875 0.984375 0.421875 2.171875q0 1.28125 -0.46875 2.296875q-0.453125 1.015625 -1.328125 1.5625q-0.859375 0.546875 -1.828125 0.546875q-0.703125 0 -1.265625 -0.296875q-0.546875 -0.296875 -0.90625 -0.75l0 4.046875l-1.40625 0zm1.265625 -7.296875q0 1.609375 0.640625 2.375q0.65625 0.765625 1.578125 0.765625q0.9375 0 1.609375 -0.796875q0.671875 -0.796875 0.671875 -2.453125q0 -1.59375 -0.65625 -2.375q-0.65625 -0.796875 -1.5625 -0.796875q-0.890625 0 -1.59375 0.84375q-0.6875 0.84375 -0.6875 2.4375zm13.3046875 1.4375l1.453125 0.171875q-0.34375 1.28125 -1.28125 1.984375q-0.921875 0.703125 -2.359375 0.703125q-1.828125 0 -2.890625 -1.125q-1.0625 -1.125 -1.0625 -3.140625q0 -2.09375 1.078125 -3.25q1.078125 -1.15625 2.796875 -1.15625q1.65625 0 2.703125 1.140625q1.0625 1.125 1.0625 3.171875q0 0.125 0 0.375l-6.1875 0q0.078125 1.375 0.765625 2.109375q0.703125 0.71875 1.734375 0.71875q0.78125 0 1.328125 -0.40625q0.546875 -0.40625 0.859375 -1.296875zm-4.609375 -2.28125l4.625 0q-0.09375 -1.046875 -0.53125 -1.5625q-0.671875 -0.8125 -1.734375 -0.8125q-0.96875 0 -1.640625 0.65625q-0.65625 0.640625 -0.71875 1.71875zm7.8359375 4.953125l0 -8.296875l1.265625 0l0 1.171875q0.90625 -1.359375 2.640625 -1.359375q0.75 0 1.375 0.265625q0.625 0.265625 0.9375 0.703125q0.3125 0.4375 0.4375 1.046875q0.078125 0.390625 0.078125 1.359375l0 5.109375l-1.40625 0l0 -5.046875q0 -0.859375 -0.171875 -1.28125q-0.15625 -0.4375 -0.578125 -0.6875q-0.40625 -0.25 -0.96875 -0.25q-0.90625 0 -1.5625 0.578125q-0.640625 0.5625 -0.640625 2.15625l0 4.53125l-1.40625 0zm14.2734375 0l0 -1.046875q-0.78125 1.234375 -2.3125 1.234375q-1.0 0 -1.828125 -0.546875q-0.828125 -0.546875 -1.296875 -1.53125q-0.453125 -0.984375 -0.453125 -2.25q0 -1.25 0.40625 -2.25q0.421875 -1.015625 1.25 -1.546875q0.828125 -0.546875 1.859375 -0.546875q0.75 0 1.328125 0.3125q0.59375 0.3125 0.953125 0.828125l0 -4.109375l1.40625 0l0 11.453125l-1.3125 0zm-4.4375 -4.140625q0 1.59375 0.671875 2.390625q0.671875 0.78125 1.578125 0.78125q0.921875 0 1.5625 -0.75q0.65625 -0.765625 0.65625 -2.3125q0 -1.703125 -0.65625 -2.5q-0.65625 -0.796875 -1.625 -0.796875q-0.9375 0 -1.5625 0.765625q-0.625 0.765625 -0.625 2.421875zm7.3984375 1.65625l1.390625 -0.21875q0.109375 0.84375 0.640625 1.296875q0.546875 0.4375 1.5 0.4375q0.96875 0 1.4375 -0.390625q0.46875 -0.40625 0.46875 -0.9375q0 -0.46875 -0.40625 -0.75q-0.296875 -0.1875 -1.4375 -0.46875q-1.546875 -0.390625 -2.15625 -0.671875q-0.59375 -0.296875 -0.90625 -0.796875q-0.296875 -0.5 -0.296875 -1.109375q0 -0.5625 0.25 -1.03125q0.25 -0.46875 0.6875 -0.78125q0.328125 -0.25 0.890625 -0.40625q0.578125 -0.171875 1.21875 -0.171875q0.984375 0 1.71875 0.28125q0.734375 0.28125 1.078125 0.765625q0.359375 0.46875 0.5 1.28125l-1.375 0.1875q-0.09375 -0.640625 -0.546875 -1.0q-0.453125 -0.359375 -1.265625 -0.359375q-0.96875 0 -1.390625 0.328125q-0.40625 0.3125 -0.40625 0.734375q0 0.28125 0.171875 0.5q0.171875 0.21875 0.53125 0.375q0.21875 0.078125 1.25 0.359375q1.484375 0.390625 2.078125 0.65625q0.59375 0.25 0.921875 0.734375q0.34375 0.484375 0.34375 1.203125q0 0.703125 -0.421875 1.328125q-0.40625 0.609375 -1.1875 0.953125q-0.765625 0.34375 -1.734375 0.34375q-1.625 0 -2.46875 -0.671875q-0.84375 -0.671875 -1.078125 -2.0zm12.4765625 -1.671875q0 -2.296875 1.28125 -3.40625q1.078125 -0.921875 2.609375 -0.921875q1.71875 0 2.796875 1.125q1.09375 1.109375 1.09375 3.09375q0 1.59375 -0.484375 2.515625q-0.484375 0.921875 -1.40625 1.4375q-0.90625 0.5 -2.0 0.5q-1.734375 0 -2.8125 -1.109375q-1.078125 -1.125 -1.078125 -3.234375zm1.453125 0q0 1.59375 0.6875 2.390625q0.703125 0.796875 1.75 0.796875q1.046875 0 1.734375 -0.796875q0.703125 -0.796875 0.703125 -2.4375q0 -1.53125 -0.703125 -2.328125q-0.6875 -0.796875 -1.734375 -0.796875q-1.046875 0 -1.75 0.796875q-0.6875 0.78125 -0.6875 2.375zm7.9765625 4.15625l0 -8.296875l1.265625 0l0 1.171875q0.90625 -1.359375 2.640625 -1.359375q0.75 0 1.375 0.265625q0.625 0.265625 0.9375 0.703125q0.3125 0.4375 0.4375 1.046875q0.078125 0.390625 0.078125 1.359375l0 5.109375l-1.40625 0l0 -5.046875q0 -0.859375 -0.171875 -1.28125q-0.15625 -0.4375 -0.578125 -0.6875q-0.40625 -0.25 -0.96875 -0.25q-0.90625 0 -1.5625 0.578125q-0.640625 0.5625 -0.640625 2.15625l0 4.53125l-1.40625 0z" fill-rule="nonzero"/><path fill="#000000" d="m382.453 216.28061l1.359375 -0.1875q0.0625 1.3125 0.5 1.796875q0.4375 0.484375 1.203125 0.484375q0.578125 0 0.984375 -0.265625q0.421875 -0.265625 0.578125 -0.703125q0.15625 -0.453125 0.15625 -1.4375l0 -7.890625l1.515625 0l0 7.796875q0 1.4375 -0.359375 2.234375q-0.34375 0.78125 -1.09375 1.203125q-0.75 0.421875 -1.765625 0.421875q-1.515625 0 -2.3125 -0.875q-0.796875 -0.875 -0.765625 -2.578125zm8.0625 -0.90625q0 -2.296875 1.28125 -3.40625q1.078125 -0.921875 2.609375 -0.921875q1.71875 0 2.796875 1.125q1.09375 1.109375 1.09375 3.09375q0 1.59375 -0.484375 2.515625q-0.484375 0.921875 -1.40625 1.4375q-0.90625 0.5 -2.0 0.5q-1.734375 0 -2.8125 -1.109375q-1.078125 -1.125 -1.078125 -3.234375zm1.453125 0q0 1.59375 0.6875 2.390625q0.703125 0.796875 1.75 0.796875q1.046875 0 1.734375 -0.796875q0.703125 -0.796875 0.703125 -2.4375q0 -1.53125 -0.703125 -2.328125q-0.6875 -0.796875 -1.734375 -0.796875q-1.046875 0 -1.75 0.796875q-0.6875 0.78125 -0.6875 2.375zm9.2734375 4.15625l-1.3125 0l0 -11.453125l1.40625 0l0 4.078125q0.890625 -1.109375 2.28125 -1.109375q0.765625 0 1.4375 0.3125q0.6875 0.296875 1.125 0.859375q0.453125 0.5625 0.703125 1.359375q0.25 0.78125 0.25 1.671875q0 2.140625 -1.0625 3.3125q-1.046875 1.15625 -2.53125 1.15625q-1.46875 0 -2.296875 -1.234375l0 1.046875zm-0.015625 -4.21875q0 1.5 0.40625 2.15625q0.65625 1.09375 1.796875 1.09375q0.921875 0 1.59375 -0.796875q0.671875 -0.8125 0.671875 -2.390625q0 -1.625 -0.65625 -2.390625q-0.640625 -0.78125 -1.546875 -0.78125q-0.921875 0 -1.59375 0.796875q-0.671875 0.796875 -0.671875 2.3125zm10.96875 4.21875l4.40625 -11.453125l1.640625 0l4.6875 11.453125l-1.734375 0l-1.328125 -3.46875l-4.796875 0l-1.25 3.46875l-1.625 0zm3.3125 -4.703125l3.890625 0l-1.203125 -3.171875q-0.546875 -1.453125 -0.8125 -2.375q-0.21875 1.09375 -0.609375 2.1875l-1.265625 3.359375z" fill-rule="nonzero"/><path fill="#000000" fill-opacity="0.0" d="m267.98425 223.00262l272.0 0l0 33.007874l-272.0 0z" fill-rule="evenodd"/><path fill="#000000" d="m277.53113 233.52531l1.171875 -0.078125q-0.09375 0.546875 -0.09375 0.8125q0 0.53125 0.328125 0.84375q0.328125 0.3125 0.90625 0.3125q0.421875 0 0.75 -0.1875q0.328125 -0.203125 0.515625 -0.59375q0.15625 -0.3125 0.328125 -1.109375l1.421875 -6.765625l1.265625 0l-1.453125 6.96875q-0.3125 1.484375 -1.03125 2.109375q-0.703125 0.625 -1.8125 0.625q-1.1875 0 -1.796875 -0.546875q-0.609375 -0.546875 -0.609375 -1.53125q0 -0.4375 0.109375 -0.859375zm6.7734375 0.15625q0 -2.015625 1.1875 -3.34375q0.984375 -1.09375 2.578125 -1.09375q1.25 0 2.015625 0.78125q0.765625 0.78125 0.765625 2.109375q0 1.1875 -0.484375 2.21875q-0.484375 1.015625 -1.375 1.5625q-0.890625 0.546875 -1.875 0.546875q-0.796875 0 -1.46875 -0.34375q-0.65625 -0.34375 -1.0 -0.96875q-0.34375 -0.640625 -0.34375 -1.46875zm1.171875 -0.109375q0 0.96875 0.46875 1.484375q0.46875 0.5 1.1875 0.5q0.375 0 0.75 -0.15625q0.375 -0.15625 0.6875 -0.46875q0.328125 -0.3125 0.546875 -0.703125q0.21875 -0.40625 0.359375 -0.875q0.203125 -0.640625 0.203125 -1.234375q0 -0.9375 -0.46875 -1.453125q-0.46875 -0.515625 -1.1875 -0.515625q-0.5625 0 -1.015625 0.265625q-0.453125 0.265625 -0.828125 0.78125q-0.359375 0.5 -0.53125 1.171875q-0.171875 0.671875 -0.171875 1.203125zm6.0218506 2.734375l2.0 -9.546875l1.171875 0l-0.703125 3.421875q0.5625 -0.515625 1.015625 -0.71875q0.453125 -0.21875 0.953125 -0.21875q0.96875 0 1.609375 0.71875q0.640625 0.71875 0.640625 2.09375q0 0.921875 -0.265625 1.6875q-0.25 0.765625 -0.640625 1.28125q-0.375 0.515625 -0.78125 0.828125q-0.40625 0.296875 -0.84375 0.453125q-0.421875 0.15625 -0.828125 0.15625q-0.6875 0 -1.203125 -0.359375q-0.515625 -0.359375 -0.8125 -1.109375l-0.265625 1.3125l-1.046875 0zm1.75 -2.84375l0 0.234375q0 0.875 0.421875 1.34375q0.421875 0.453125 1.046875 0.453125q0.625 0 1.140625 -0.421875q0.515625 -0.4375 0.84375 -1.34375q0.328125 -0.921875 0.328125 -1.703125q0 -0.875 -0.421875 -1.359375q-0.40625 -0.484375 -1.03125 -0.484375q-0.640625 0 -1.171875 0.5q-0.53125 0.484375 -0.890625 1.515625q-0.265625 0.765625 -0.265625 1.265625zm9.506073 2.84375l2.0 -9.546875l2.953125 0q0.8125 0 1.203125 0.078125q0.625 0.109375 1.0625 0.390625q0.453125 0.265625 0.6875 0.75q0.25 0.46875 0.25 1.046875q0 0.796875 -0.4375 1.390625q-0.4375 0.59375 -1.328125 0.90625q0.78125 0.265625 1.15625 0.78125q0.390625 0.5 0.390625 1.1875q0 0.78125 -0.453125 1.515625q-0.453125 0.71875 -1.203125 1.109375q-0.734375 0.390625 -1.65625 0.390625l-4.625 0zm2.421875 -5.46875l1.9375 0q1.375 0 1.984375 -0.4375q0.609375 -0.453125 0.609375 -1.296875q0 -0.390625 -0.1875 -0.6875q-0.1875 -0.296875 -0.5 -0.421875q-0.3125 -0.140625 -1.1875 -0.140625l-2.03125 0l-0.625 2.984375zm-0.921875 4.390625l2.171875 0q0.875 0 1.171875 -0.0625q0.609375 -0.109375 0.984375 -0.359375q0.375 -0.25 0.578125 -0.65625q0.21875 -0.40625 0.21875 -0.859375q0 -0.671875 -0.421875 -1.015625q-0.40625 -0.34375 -1.59375 -0.34375l-2.421875 0l-0.6875 3.296875zm10.952118 1.078125l1.453125 -6.90625l1.03125 0l-0.28125 1.40625q0.53125 -0.796875 1.03125 -1.171875q0.515625 -0.390625 1.046875 -0.390625q0.359375 0 0.875 0.25l-0.484375 1.09375q-0.3125 -0.21875 -0.671875 -0.21875q-0.625 0 -1.28125 0.6875q-0.640625 0.6875 -1.015625 2.484375l-0.578125 2.765625l-1.125 0zm9.157135 -1.25q-1.234375 1.40625 -2.546875 1.40625q-0.796875 0 -1.296875 -0.453125q-0.484375 -0.46875 -0.484375 -1.125q0 -0.4375 0.21875 -1.5l0.84375 -3.984375l1.171875 0l-0.921875 4.40625q-0.109375 0.5625 -0.109375 0.859375q0 0.390625 0.234375 0.609375q0.234375 0.21875 0.703125 0.21875q0.484375 0 0.953125 -0.234375q0.484375 -0.234375 0.8125 -0.640625q0.34375 -0.421875 0.5625 -0.984375q0.140625 -0.359375 0.328125 -1.25l0.625 -2.984375l1.1875 0l-1.453125 6.90625l-1.078125 0l0.25 -1.25zm2.6937256 1.25l1.453125 -6.90625l1.0625 0l-0.25 1.203125q0.6875 -0.71875 1.296875 -1.03125q0.609375 -0.328125 1.234375 -0.328125q0.84375 0 1.3125 0.453125q0.484375 0.453125 0.484375 1.21875q0 0.375 -0.171875 1.203125l-0.875 4.1875l-1.171875 0l0.921875 -4.375q0.125 -0.640625 0.125 -0.953125q0 -0.34375 -0.234375 -0.546875q-0.234375 -0.21875 -0.6875 -0.21875q-0.90625 0 -1.609375 0.65625q-0.703125 0.640625 -1.03125 2.21875l-0.671875 3.21875l-1.1875 0zm7.5218506 -2.359375l1.1875 -0.078125q0 0.515625 0.15625 0.875q0.15625 0.359375 0.578125 0.59375q0.421875 0.21875 0.96875 0.21875q0.78125 0 1.171875 -0.3125q0.390625 -0.3125 0.390625 -0.734375q0 -0.3125 -0.234375 -0.578125q-0.234375 -0.28125 -1.171875 -0.671875q-0.9375 -0.40625 -1.1875 -0.578125q-0.4375 -0.265625 -0.671875 -0.625q-0.21875 -0.359375 -0.21875 -0.828125q0 -0.8125 0.65625 -1.390625q0.65625 -0.59375 1.828125 -0.59375q1.296875 0 1.96875 0.609375q0.6875 0.59375 0.71875 1.578125l-1.15625 0.078125q-0.03125 -0.625 -0.453125 -0.984375q-0.40625 -0.375 -1.171875 -0.375q-0.609375 0 -0.953125 0.28125q-0.328125 0.28125 -0.328125 0.609375q0 0.3125 0.296875 0.5625q0.1875 0.171875 1.0 0.53125q1.359375 0.578125 1.703125 0.921875q0.5625 0.53125 0.5625 1.3125q0 0.515625 -0.3125 1.015625q-0.3125 0.484375 -0.96875 0.78125q-0.640625 0.296875 -1.515625 0.296875q-1.203125 0 -2.046875 -0.59375q-0.84375 -0.59375 -0.796875 -1.921875zm10.47641 -0.265625q0 -2.015625 1.1875 -3.34375q0.984375 -1.09375 2.578125 -1.09375q1.25 0 2.015625 0.78125q0.765625 0.78125 0.765625 2.109375q0 1.1875 -0.484375 2.21875q-0.484375 1.015625 -1.375 1.5625q-0.890625 0.546875 -1.875 0.546875q-0.796875 0 -1.46875 -0.34375q-0.65625 -0.34375 -1.0 -0.96875q-0.34375 -0.640625 -0.34375 -1.46875zm1.171875 -0.109375q0 0.96875 0.46875 1.484375q0.46875 0.5 1.1875 0.5q0.375 0 0.75 -0.15625q0.375 -0.15625 0.6875 -0.46875q0.328125 -0.3125 0.546875 -0.703125q0.21875 -0.40625 0.359375 -0.875q0.203125 -0.640625 0.203125 -1.234375q0 -0.9375 -0.46875 -1.453125q-0.46875 -0.515625 -1.1875 -0.515625q-0.5625 0 -1.015625 0.265625q-0.453125 0.265625 -0.828125 0.78125q-0.359375 0.5 -0.53125 1.171875q-0.171875 0.671875 -0.171875 1.203125zm6.0218506 2.734375l1.453125 -6.90625l1.0625 0l-0.25 1.203125q0.6875 -0.71875 1.296875 -1.03125q0.609375 -0.328125 1.234375 -0.328125q0.84375 0 1.3125 0.453125q0.484375 0.453125 0.484375 1.21875q0 0.375 -0.171875 1.203125l-0.875 4.1875l-1.171875 0l0.921875 -4.375q0.125 -0.640625 0.125 -0.953125q0 -0.34375 -0.234375 -0.546875q-0.234375 -0.21875 -0.6875 -0.21875q-0.90625 0 -1.609375 0.65625q-0.703125 0.640625 -1.03125 2.21875l-0.671875 3.21875l-1.1875 0zm7.3187256 0l2.0 -9.546875l1.171875 0l-1.984375 9.546875l-1.1875 0zm2.61734 2.671875l0.078125 -1.109375q0.359375 0.109375 0.703125 0.109375q0.359375 0 0.578125 -0.171875q0.28125 -0.21875 0.625 -0.796875l0.375 -0.6875l-1.15625 -6.921875l1.171875 0l0.515625 3.484375q0.15625 1.046875 0.265625 2.078125l3.09375 -5.5625l1.234375 0l-4.40625 7.828125q-0.640625 1.140625 -1.140625 1.515625q-0.5 0.375 -1.140625 0.375q-0.40625 0 -0.796875 -0.140625zm12.117065 -2.671875l-0.71875 -6.90625l1.140625 0l0.3125 3.09375l0.125 1.75q0 0.1875 0.03125 0.78125q0.203125 -0.65625 0.328125 -1.015625q0.140625 -0.359375 0.4375 -1.015625l1.65625 -3.59375l1.28125 0l0.21875 3.453125q0.0625 0.78125 0.0625 2.09375q0.328125 -0.859375 1.0625 -2.421875l1.484375 -3.125l1.1875 0l-3.390625 6.90625l-1.21875 0l-0.25 -4.046875q-0.03125 -0.390625 -0.046875 -1.484375q-0.265625 0.703125 -0.625 1.515625l-1.828125 4.015625l-1.25 0zm8.312653 0l2.0 -9.546875l1.171875 0l-0.765625 3.671875q0.65625 -0.640625 1.21875 -0.90625q0.578125 -0.28125 1.171875 -0.28125q0.859375 0 1.328125 0.453125q0.484375 0.453125 0.484375 1.1875q0 0.359375 -0.203125 1.34375l-0.859375 4.078125l-1.171875 0l0.875 -4.1875q0.1875 -0.90625 0.1875 -1.140625q0 -0.34375 -0.234375 -0.546875q-0.234375 -0.21875 -0.671875 -0.21875q-0.640625 0 -1.21875 0.34375q-0.578125 0.328125 -0.90625 0.90625q-0.328125 0.578125 -0.609375 1.875l-0.609375 2.96875l-1.1875 0zm12.490601 -2.34375l1.15625 0.109375q-0.25 0.859375 -1.140625 1.625q-0.890625 0.765625 -2.125 0.765625q-0.765625 0 -1.40625 -0.34375q-0.640625 -0.359375 -0.984375 -1.03125q-0.328125 -0.6875 -0.328125 -1.546875q0 -1.140625 0.515625 -2.203125q0.53125 -1.0625 1.359375 -1.578125q0.84375 -0.515625 1.8125 -0.515625q1.234375 0 1.96875 0.765625q0.75 0.765625 0.75 2.09375q0 0.5 -0.09375 1.046875l-5.09375 0q-0.03125 0.1875 -0.03125 0.359375q0 0.96875 0.4375 1.484375q0.453125 0.5 1.109375 0.5q0.59375 0 1.171875 -0.390625q0.59375 -0.390625 0.921875 -1.140625zm-3.421875 -1.71875l3.875 0q0.015625 -0.1875 0.015625 -0.265625q0 -0.875 -0.453125 -1.34375q-0.4375 -0.484375 -1.125 -0.484375q-0.765625 0 -1.390625 0.53125q-0.609375 0.515625 -0.921875 1.5625zm5.7562256 4.0625l1.453125 -6.90625l1.0625 0l-0.25 1.203125q0.6875 -0.71875 1.296875 -1.03125q0.609375 -0.328125 1.234375 -0.328125q0.84375 0 1.3125 0.453125q0.484375 0.453125 0.484375 1.21875q0 0.375 -0.171875 1.203125l-0.875 4.1875l-1.171875 0l0.921875 -4.375q0.125 -0.640625 0.125 -0.953125q0 -0.34375 -0.234375 -0.546875q-0.234375 -0.21875 -0.6875 -0.21875q-0.90625 0 -1.609375 0.65625q-0.703125 0.640625 -1.03125 2.21875l-0.671875 3.21875l-1.1875 0zm11.224823 -2.78125l1.171875 -0.078125q-0.09375 0.546875 -0.09375 0.8125q0 0.53125 0.328125 0.84375q0.328125 0.3125 0.90625 0.3125q0.421875 0 0.75 -0.1875q0.328125 -0.203125 0.515625 -0.59375q0.15625 -0.3125 0.328125 -1.109375l1.421875 -6.765625l1.265625 0l-1.453125 6.96875q-0.3125 1.484375 -1.03125 2.109375q-0.703125 0.625 -1.8125 0.625q-1.1875 0 -1.796875 -0.546875q-0.609375 -0.546875 -0.609375 -1.53125q0 -0.4375 0.109375 -0.859375zm6.7734375 0.15625q0 -2.015625 1.1875 -3.34375q0.984375 -1.09375 2.578125 -1.09375q1.25 0 2.015625 0.78125q0.765625 0.78125 0.765625 2.109375q0 1.1875 -0.484375 2.21875q-0.484375 1.015625 -1.375 1.5625q-0.890625 0.546875 -1.875 0.546875q-0.796875 0 -1.46875 -0.34375q-0.65625 -0.34375 -1.0 -0.96875q-0.34375 -0.640625 -0.34375 -1.46875zm1.171875 -0.109375q0 0.96875 0.46875 1.484375q0.46875 0.5 1.1875 0.5q0.375 0 0.75 -0.15625q0.375 -0.15625 0.6875 -0.46875q0.328125 -0.3125 0.546875 -0.703125q0.21875 -0.40625 0.359375 -0.875q0.203125 -0.640625 0.203125 -1.234375q0 -0.9375 -0.46875 -1.453125q-0.46875 -0.515625 -1.1875 -0.515625q-0.5625 0 -1.015625 0.265625q-0.453125 0.265625 -0.828125 0.78125q-0.359375 0.5 -0.53125 1.171875q-0.171875 0.671875 -0.171875 1.203125zm6.0218506 2.734375l2.0 -9.546875l1.171875 0l-0.703125 3.421875q0.5625 -0.515625 1.015625 -0.71875q0.453125 -0.21875 0.953125 -0.21875q0.96875 0 1.609375 0.71875q0.640625 0.71875 0.640625 2.09375q0 0.921875 -0.265625 1.6875q-0.25 0.765625 -0.640625 1.28125q-0.375 0.515625 -0.78125 0.828125q-0.40625 0.296875 -0.84375 0.453125q-0.421875 0.15625 -0.828125 0.15625q-0.6875 0 -1.203125 -0.359375q-0.515625 -0.359375 -0.8125 -1.109375l-0.265625 1.3125l-1.046875 0zm1.75 -2.84375l0 0.234375q0 0.875 0.421875 1.34375q0.421875 0.453125 1.046875 0.453125q0.625 0 1.140625 -0.421875q0.515625 -0.4375 0.84375 -1.34375q0.328125 -0.921875 0.328125 -1.703125q0 -0.875 -0.421875 -1.359375q-0.40625 -0.484375 -1.03125 -0.484375q-0.640625 0 -1.171875 0.5q-0.53125 0.484375 -0.890625 1.515625q-0.265625 0.765625 -0.265625 1.265625zm8.6623535 2.84375l5.40625 -9.546875l1.5 0l1.578125 9.546875l-1.234375 0l-0.46875 -2.75l-3.859375 0l-1.53125 2.75l-1.390625 0zm3.46875 -3.734375l3.15625 0l-0.359375 -2.390625q-0.21875 -1.421875 -0.265625 -2.375q-0.328125 0.828125 -0.953125 1.953125l-1.578125 2.8125zm11.498993 -4.46875l0.28125 -1.34375l1.171875 0l-0.28125 1.34375l-1.171875 0zm-1.71875 8.203125l1.453125 -6.90625l1.171875 0l-1.4375 6.90625l-1.1875 0zm3.11734 -2.359375l1.1875 -0.078125q0 0.515625 0.15625 0.875q0.15625 0.359375 0.578125 0.59375q0.421875 0.21875 0.96875 0.21875q0.78125 0 1.171875 -0.3125q0.390625 -0.3125 0.390625 -0.734375q0 -0.3125 -0.234375 -0.578125q-0.234375 -0.28125 -1.171875 -0.671875q-0.9375 -0.40625 -1.1875 -0.578125q-0.4375 -0.265625 -0.671875 -0.625q-0.21875 -0.359375 -0.21875 -0.828125q0 -0.8125 0.65625 -1.390625q0.65625 -0.59375 1.828125 -0.59375q1.296875 0 1.96875 0.609375q0.6875 0.59375 0.71875 1.578125l-1.15625 0.078125q-0.03125 -0.625 -0.453125 -0.984375q-0.40625 -0.375 -1.171875 -0.375q-0.609375 0 -0.953125 0.28125q-0.328125 0.28125 -0.328125 0.609375q0 0.3125 0.296875 0.5625q0.1875 0.171875 1.0 0.53125q1.359375 0.578125 1.703125 0.921875q0.5625 0.53125 0.5625 1.3125q0 0.515625 -0.3125 1.015625q-0.3125 0.484375 -0.96875 0.78125q-0.640625 0.296875 -1.515625 0.296875q-1.203125 0 -2.046875 -0.59375q-0.84375 -0.59375 -0.796875 -1.921875zm15.03891 -0.15625l1.171875 0.125q-0.4375 1.296875 -1.265625 1.921875q-0.8125 0.625 -1.84375 0.625q-1.140625 0 -1.84375 -0.71875q-0.6875 -0.734375 -0.6875 -2.046875q0 -1.125 0.4375 -2.21875q0.453125 -1.09375 1.28125 -1.65625q0.84375 -0.578125 1.921875 -0.578125q1.109375 0 1.765625 0.625q0.65625 0.625 0.65625 1.65625l-1.15625 0.078125q-0.015625 -0.65625 -0.390625 -1.015625q-0.375 -0.375 -0.984375 -0.375q-0.703125 0 -1.234375 0.453125q-0.515625 0.4375 -0.8125 1.359375q-0.296875 0.90625 -0.296875 1.75q0 0.890625 0.390625 1.34375q0.390625 0.4375 0.96875 0.4375q0.5625 0 1.078125 -0.4375q0.53125 -0.4375 0.84375 -1.328125zm2.1015625 -0.109375q0 -2.015625 1.1875 -3.34375q0.984375 -1.09375 2.578125 -1.09375q1.25 0 2.015625 0.78125q0.765625 0.78125 0.765625 2.109375q0 1.1875 -0.484375 2.21875q-0.484375 1.015625 -1.375 1.5625q-0.890625 0.546875 -1.875 0.546875q-0.796875 0 -1.46875 -0.34375q-0.65625 -0.34375 -1.0 -0.96875q-0.34375 -0.640625 -0.34375 -1.46875zm1.171875 -0.109375q0 0.96875 0.46875 1.484375q0.46875 0.5 1.1875 0.5q0.375 0 0.75 -0.15625q0.375 -0.15625 0.6875 -0.46875q0.328125 -0.3125 0.546875 -0.703125q0.21875 -0.40625 0.359375 -0.875q0.203125 -0.640625 0.203125 -1.234375q0 -0.9375 -0.46875 -1.453125q-0.46875 -0.515625 -1.1875 -0.515625q-0.5625 0 -1.015625 0.265625q-0.453125 0.265625 -0.828125 0.78125q-0.359375 0.5 -0.53125 1.171875q-0.171875 0.671875 -0.171875 1.203125zm6.0218506 2.734375l1.4375 -6.90625l1.1875 0l-0.25 1.140625q0.65625 -0.75 1.171875 -1.015625q0.53125 -0.28125 1.125 -0.28125q0.65625 0 1.078125 0.34375q0.4375 0.328125 0.578125 0.953125q0.515625 -0.65625 1.09375 -0.96875q0.59375 -0.328125 1.234375 -0.328125q0.875 0 1.296875 0.40625q0.4375 0.40625 0.4375 1.15625q0 0.3125 -0.15625 1.046875l-0.921875 4.453125l-1.171875 0l0.9375 -4.5625q0.125 -0.5625 0.125 -0.8125q0 -0.328125 -0.21875 -0.515625q-0.203125 -0.203125 -0.59375 -0.203125q-0.53125 0 -1.078125 0.328125q-0.546875 0.3125 -0.859375 0.828125q-0.296875 0.515625 -0.515625 1.59375l-0.703125 3.34375l-1.1875 0l0.984375 -4.671875q0.109375 -0.46875 0.109375 -0.671875q0 -0.34375 -0.21875 -0.546875q-0.21875 -0.203125 -0.546875 -0.203125q-0.5 0 -1.0625 0.328125q-0.546875 0.3125 -0.890625 0.875q-0.34375 0.5625 -0.5625 1.625l-0.6875 3.265625l-1.171875 0zm10.5243225 2.65625l2.0 -9.5625l1.09375 0l-0.203125 0.953125q0.59375 -0.625 1.078125 -0.859375q0.484375 -0.25 1.015625 -0.25q0.984375 0 1.625 0.71875q0.65625 0.71875 0.65625 2.0625q0 1.078125 -0.359375 1.96875q-0.34375 0.875 -0.875 1.421875q-0.515625 0.546875 -1.046875 0.796875q-0.53125 0.25 -1.09375 0.25q-1.25 0 -1.921875 -1.265625l-0.78125 3.765625l-1.1875 0zm2.328125 -5.484375q0 0.78125 0.109375 1.078125q0.171875 0.421875 0.53125 0.6875q0.375 0.25 0.875 0.25q1.015625 0 1.640625 -1.140625q0.625 -1.140625 0.625 -2.328125q0 -0.875 -0.421875 -1.359375q-0.421875 -0.484375 -1.046875 -0.484375q-0.453125 0 -0.84375 0.25q-0.375 0.234375 -0.703125 0.703125q-0.328125 0.46875 -0.546875 1.15625q-0.21875 0.6875 -0.21875 1.1875zm5.5687256 2.828125l2.0 -9.546875l1.171875 0l-1.984375 9.546875l-1.1875 0zm8.132965 -2.34375l1.15625 0.109375q-0.25 0.859375 -1.140625 1.625q-0.890625 0.765625 -2.125 0.765625q-0.765625 0 -1.40625 -0.34375q-0.640625 -0.359375 -0.984375 -1.03125q-0.328125 -0.6875 -0.328125 -1.546875q0 -1.140625 0.515625 -2.203125q0.53125 -1.0625 1.359375 -1.578125q0.84375 -0.515625 1.8125 -0.515625q1.234375 0 1.96875 0.765625q0.75 0.765625 0.75 2.09375q0 0.5 -0.09375 1.046875l-5.09375 0q-0.03125 0.1875 -0.03125 0.359375q0 0.96875 0.4375 1.484375q0.453125 0.5 1.109375 0.5q0.59375 0 1.171875 -0.390625q0.59375 -0.390625 0.921875 -1.140625zm-3.421875 -1.71875l3.875 0q0.015625 -0.1875 0.015625 -0.265625q0 -0.875 -0.453125 -1.34375q-0.4375 -0.484375 -1.125 -0.484375q-0.765625 0 -1.390625 0.53125q-0.609375 0.515625 -0.921875 1.5625zm8.521851 3.109375l-0.203125 0.953125q-0.421875 0.109375 -0.8125 0.109375q-0.703125 0 -1.125 -0.34375q-0.3125 -0.25 -0.3125 -0.703125q0 -0.234375 0.171875 -1.046875l0.828125 -4.015625l-0.921875 0l0.1875 -0.90625l0.9375 0l0.34375 -1.703125l1.359375 -0.8125l-0.53125 2.515625l1.15625 0l-0.1875 0.90625l-1.15625 0l-0.796875 3.8125q-0.15625 0.734375 -0.15625 0.875q0 0.21875 0.109375 0.328125q0.125 0.109375 0.40625 0.109375q0.390625 0 0.703125 -0.078125zm6.0154724 -1.390625l1.1562805 0.109375q-0.25 0.859375 -1.1406555 1.625q-0.890625 0.765625 -2.125 0.765625q-0.765625 0 -1.40625 -0.34375q-0.640625 -0.359375 -0.984375 -1.03125q-0.328125 -0.6875 -0.328125 -1.546875q0 -1.140625 0.515625 -2.203125q0.53125 -1.0625 1.359375 -1.578125q0.84375 -0.515625 1.8125 -0.515625q1.234375 0 1.9687805 0.765625q0.75 0.765625 0.75 2.09375q0 0.5 -0.09375 1.046875l-5.0937805 0q-0.03125 0.1875 -0.03125 0.359375q0 0.96875 0.4375 1.484375q0.453125 0.5 1.109375 0.5q0.59375 0 1.171875 -0.390625q0.59375 -0.390625 0.921875 -1.140625zm-3.421875 -1.71875l3.875 0q0.015625 -0.1875 0.015625 -0.265625q0 -0.875 -0.453125 -1.34375q-0.4375 -0.484375 -1.125 -0.484375q-0.765625 0 -1.390625 0.53125q-0.609375 0.515625 -0.921875 1.5625zm10.428131 3.0625q-1.015625 1.15625 -2.109375 1.15625q-0.984375 0 -1.640625 -0.71875q-0.65625 -0.734375 -0.65625 -2.109375q0 -1.265625 0.515625 -2.3125q0.515625 -1.046875 1.296875 -1.5625q0.78125 -0.515625 1.5625 -0.515625q1.28125 0 1.9375 1.234375l0.78125 -3.71875l1.171875 0l-1.984375 9.546875l-1.09375 0l0.21875 -1.0zm-3.234375 -1.890625q0 0.71875 0.140625 1.140625q0.140625 0.40625 0.484375 0.6875q0.34375 0.28125 0.828125 0.28125q0.796875 0 1.453125 -0.84375q0.875 -1.109375 0.875 -2.734375q0 -0.8125 -0.4375 -1.265625q-0.421875 -0.46875 -1.078125 -0.46875q-0.421875 0 -0.765625 0.1875q-0.34375 0.1875 -0.6875 0.640625q-0.34375 0.453125 -0.578125 1.15625q-0.234375 0.6875 -0.234375 1.21875z" fill-rule="nonzero"/><path fill="#000000" d="m277.53113 249.94719l1.1875 -0.078125q0 0.515625 0.15625 0.875q0.15625 0.359375 0.578125 0.59375q0.421875 0.21875 0.96875 0.21875q0.78125 0 1.171875 -0.3125q0.390625 -0.3125 0.390625 -0.734375q0 -0.3125 -0.234375 -0.578125q-0.234375 -0.28125 -1.171875 -0.671875q-0.9375 -0.40625 -1.1875 -0.578125q-0.4375 -0.265625 -0.671875 -0.625q-0.21875 -0.359375 -0.21875 -0.828125q0 -0.8125 0.65625 -1.390625q0.65625 -0.59375 1.828125 -0.59375q1.296875 0 1.96875 0.609375q0.6875 0.59375 0.71875 1.578125l-1.15625 0.078125q-0.03125 -0.625 -0.453125 -0.984375q-0.40625 -0.375 -1.171875 -0.375q-0.609375 0 -0.953125 0.28125q-0.328125 0.28125 -0.328125 0.609375q0 0.3125 0.296875 0.5625q0.1875 0.171875 1.0 0.53125q1.359375 0.578125 1.703125 0.921875q0.5625 0.53125 0.5625 1.3125q0 0.515625 -0.3125 1.015625q-0.3125 0.484375 -0.96875 0.78125q-0.640625 0.296875 -1.515625 0.296875q-1.203125 0 -2.046875 -0.59375q-0.84375 -0.59375 -0.796875 -1.921875zm11.2734375 1.109375q-1.234375 1.40625 -2.546875 1.40625q-0.796875 0 -1.296875 -0.453125q-0.484375 -0.46875 -0.484375 -1.125q0 -0.4375 0.21875 -1.5l0.84375 -3.984375l1.171875 0l-0.921875 4.40625q-0.109375 0.5625 -0.109375 0.859375q0 0.390625 0.234375 0.609375q0.234375 0.21875 0.703125 0.21875q0.484375 0 0.953125 -0.234375q0.484375 -0.234375 0.8125 -0.640625q0.34375 -0.421875 0.5625 -0.984375q0.140625 -0.359375 0.328125 -1.25l0.625 -2.984375l1.1875 0l-1.453125 6.90625l-1.078125 0l0.25 -1.25zm7.4749756 -1.265625l1.171875 0.125q-0.4375 1.296875 -1.265625 1.921875q-0.8125 0.625 -1.84375 0.625q-1.140625 0 -1.84375 -0.71875q-0.6875 -0.734375 -0.6875 -2.046875q0 -1.125 0.4375 -2.21875q0.453125 -1.09375 1.28125 -1.65625q0.84375 -0.578125 1.921875 -0.578125q1.109375 0 1.765625 0.625q0.65625 0.625 0.65625 1.65625l-1.15625 0.078125q-0.015625 -0.65625 -0.390625 -1.015625q-0.375 -0.375 -0.984375 -0.375q-0.703125 0 -1.234375 0.453125q-0.515625 0.4375 -0.8125 1.359375q-0.296875 0.90625 -0.296875 1.75q0 0.890625 0.390625 1.34375q0.390625 0.4375 0.96875 0.4375q0.5625 0 1.078125 -0.4375q0.53125 -0.4375 0.84375 -1.328125zm6.6640625 0l1.171875 0.125q-0.4375 1.296875 -1.265625 1.921875q-0.8125 0.625 -1.84375 0.625q-1.140625 0 -1.84375 -0.71875q-0.6875 -0.734375 -0.6875 -2.046875q0 -1.125 0.4375 -2.21875q0.453125 -1.09375 1.28125 -1.65625q0.84375 -0.578125 1.921875 -0.578125q1.109375 0 1.765625 0.625q0.65625 0.625 0.65625 1.65625l-1.15625 0.078125q-0.015625 -0.65625 -0.390625 -1.015625q-0.375 -0.375 -0.984375 -0.375q-0.703125 0 -1.234375 0.453125q-0.515625 0.4375 -0.8125 1.359375q-0.296875 0.90625 -0.296875 1.75q0 0.890625 0.390625 1.34375q0.390625 0.4375 0.96875 0.4375q0.5625 0 1.078125 -0.4375q0.53125 -0.4375 0.84375 -1.328125zm6.9609375 0.171875l1.15625 0.109375q-0.25 0.859375 -1.140625 1.625q-0.890625 0.765625 -2.125 0.765625q-0.765625 0 -1.40625 -0.34375q-0.640625 -0.359375 -0.984375 -1.03125q-0.328125 -0.6875 -0.328125 -1.546875q0 -1.140625 0.515625 -2.203125q0.53125 -1.0625 1.359375 -1.578125q0.84375 -0.515625 1.8125 -0.515625q1.234375 0 1.96875 0.765625q0.75 0.765625 0.75 2.09375q0 0.5 -0.09375 1.046875l-5.09375 0q-0.03125 0.1875 -0.03125 0.359375q0 0.96875 0.4375 1.484375q0.453125 0.5 1.109375 0.5q0.59375 0 1.171875 -0.390625q0.59375 -0.390625 0.921875 -1.140625zm-3.421875 -1.71875l3.875 0q0.015625 -0.1875 0.015625 -0.265625q0 -0.875 -0.453125 -1.34375q-0.4375 -0.484375 -1.125 -0.484375q-0.765625 0 -1.390625 0.53125q-0.609375 0.515625 -0.921875 1.5625zm5.8656006 1.703125l1.1875 -0.078125q0 0.515625 0.15625 0.875q0.15625 0.359375 0.578125 0.59375q0.421875 0.21875 0.96875 0.21875q0.78125 0 1.171875 -0.3125q0.390625 -0.3125 0.390625 -0.734375q0 -0.3125 -0.234375 -0.578125q-0.234375 -0.28125 -1.171875 -0.671875q-0.9375 -0.40625 -1.1875 -0.578125q-0.4375 -0.265625 -0.671875 -0.625q-0.21875 -0.359375 -0.21875 -0.828125q0 -0.8125 0.65625 -1.390625q0.65625 -0.59375 1.828125 -0.59375q1.296875 0 1.96875 0.609375q0.6875 0.59375 0.71875 1.578125l-1.15625 0.078125q-0.03125 -0.625 -0.453125 -0.984375q-0.40625 -0.375 -1.171875 -0.375q-0.609375 0 -0.953125 0.28125q-0.328125 0.28125 -0.328125 0.609375q0 0.3125 0.296875 0.5625q0.1875 0.171875 1.0 0.53125q1.359375 0.578125 1.703125 0.921875q0.5625 0.53125 0.5625 1.3125q0 0.515625 -0.3125 1.015625q-0.3125 0.484375 -0.96875 0.78125q-0.640625 0.296875 -1.515625 0.296875q-1.203125 0 -2.046875 -0.59375q-0.84375 -0.59375 -0.796875 -1.921875zm6.6640625 0l1.1875 -0.078125q0 0.515625 0.15625 0.875q0.15625 0.359375 0.578125 0.59375q0.421875 0.21875 0.96875 0.21875q0.78125 0 1.171875 -0.3125q0.390625 -0.3125 0.390625 -0.734375q0 -0.3125 -0.234375 -0.578125q-0.234375 -0.28125 -1.171875 -0.671875q-0.9375 -0.40625 -1.1875 -0.578125q-0.4375 -0.265625 -0.671875 -0.625q-0.21875 -0.359375 -0.21875 -0.828125q0 -0.8125 0.65625 -1.390625q0.65625 -0.59375 1.828125 -0.59375q1.296875 0 1.96875 0.609375q0.6875 0.59375 0.71875 1.578125l-1.15625 0.078125q-0.03125 -0.625 -0.453125 -0.984375q-0.40625 -0.375 -1.171875 -0.375q-0.609375 0 -0.953125 0.28125q-0.328125 0.28125 -0.328125 0.609375q0 0.3125 0.296875 0.5625q0.1875 0.171875 1.0 0.53125q1.359375 0.578125 1.703125 0.921875q0.5625 0.53125 0.5625 1.3125q0 0.515625 -0.3125 1.015625q-0.3125 0.484375 -0.96875 0.78125q-0.640625 0.296875 -1.515625 0.296875q-1.203125 0 -2.046875 -0.59375q-0.84375 -0.59375 -0.796875 -1.921875zm6.7265625 2.359375l1.25 -6.0l-1.046875 0l0.1875 -0.90625l1.046875 0l0.203125 -0.984375q0.15625 -0.734375 0.3125 -1.0625q0.171875 -0.328125 0.546875 -0.53125q0.375 -0.21875 1.015625 -0.21875q0.453125 0 1.3125 0.1875l-0.21875 1.03125q-0.59375 -0.15625 -1.0 -0.15625q-0.34375 0 -0.53125 0.171875q-0.171875 0.171875 -0.296875 0.8125l-0.15625 0.75l1.3125 0l-0.1875 0.90625l-1.3125 0l-1.265625 6.0l-1.171875 0zm8.249847 -1.25q-1.234375 1.40625 -2.546875 1.40625q-0.796875 0 -1.296875 -0.453125q-0.484375 -0.46875 -0.484375 -1.125q0 -0.4375 0.21875 -1.5l0.84375 -3.984375l1.171875 0l-0.921875 4.40625q-0.109375 0.5625 -0.109375 0.859375q0 0.390625 0.234375 0.609375q0.234375 0.21875 0.703125 0.21875q0.484375 0 0.953125 -0.234375q0.484375 -0.234375 0.8125 -0.640625q0.34375 -0.421875 0.5625 -0.984375q0.140625 -0.359375 0.328125 -1.25l0.625 -2.984375l1.1875 0l-1.453125 6.90625l-1.078125 0l0.25 -1.25zm2.5999756 1.25l2.0 -9.546875l1.171875 0l-1.984375 9.546875l-1.1875 0zm2.96109 0l2.0 -9.546875l1.171875 0l-1.984375 9.546875l-1.1875 0zm2.61734 2.671875l0.078125 -1.109375q0.359375 0.109375 0.703125 0.109375q0.359375 0 0.578125 -0.171875q0.28125 -0.21875 0.625 -0.796875l0.375 -0.6875l-1.15625 -6.921875l1.171875 0l0.515625 3.484375q0.15625 1.046875 0.265625 2.078125l3.09375 -5.5625l1.234375 0l-4.40625 7.828125q-0.640625 1.140625 -1.140625 1.515625q-0.5 0.375 -1.140625 0.375q-0.40625 0 -0.796875 -0.140625zm7.4296875 -2.671875l0.28125 -1.328125l1.328125 0l-0.28125 1.328125l-1.328125 0z" fill-rule="nonzero"/></g></svg>
