<svg version="1.1" viewBox="0.0 0.0 520 375" fill="none" stroke="none" stroke-linecap="square" stroke-miterlimit="10" xmlns:xlink="http://www.w3.org/1999/xlink" xmlns="http://www.w3.org/2000/svg"><clipPath id="p.0"><path d="m0 0l800.0 0l0 600.0l-800.0 0l0 -600.0z" clip-rule="nonzero"/></clipPath><g clip-path="url(#p.0)"><path fill="#000000" fill-opacity="0.0" d="m0 0l800.0 0l0 600.0l-800.0 0z" fill-rule="evenodd"/><path fill="#000000" fill-opacity="0.0" d="m393.27542 3.007874l122.33072 0l0 59.023624l-122.33072 0z" fill-rule="evenodd"/><path stroke="#000000" stroke-width="1.0" stroke-linejoin="round" stroke-linecap="butt" d="m393.27542 3.007874l122.33072 0l0 59.023624l-122.33072 0z" fill-rule="evenodd"/><path fill="#000000" fill-opacity="0.0" d="m473.3758 16.007874l26.68982 0" fill-rule="evenodd"/><path stroke="#000000" stroke-width="1.0" stroke-linejoin="round" stroke-linecap="butt" d="m473.37582 16.007874l23.262695 0" fill-rule="evenodd"/><path fill="#000000" stroke="#000000" stroke-width="1.0" stroke-linecap="butt" d="m496.63852 16.007874l-1.1245728 1.1245842l3.0897827 -1.1245842l-3.0897827 -1.1245832z" fill-rule="evenodd"/><path fill="#000000" fill-opacity="0.0" d="m393.28302 1.0l80.100586 0l0 30.015749l-80.100586 0z" fill-rule="evenodd"/><path fill="#000000" d="m408.72052 21.867874l0 -1.046875q-0.78125 1.234375 -2.3125 1.234375q-1.0 0 -1.828125 -0.546875q-0.828125 -0.546875 -1.296875 -1.53125q-0.453125 -0.984375 -0.453125 -2.25q0 -1.25 0.40625 -2.25q0.421875 -1.015625 1.25 -1.546875q0.828125 -0.546875 1.859375 -0.546875q0.75 0 1.328125 0.3125q0.59375 0.3125 0.953125 0.828125l0 -4.109375l1.40625 0l0 11.453125l-1.3125 0zm-4.4375 -4.140625q0 1.59375 0.671875 2.390625q0.671875 0.78125 1.578125 0.78125q0.921875 0 1.5625 -0.75q0.65625 -0.765625 0.65625 -2.3125q0 -1.703125 -0.65625 -2.5q-0.65625 -0.796875 -1.625 -0.796875q-0.9375 0 -1.5625 0.765625q-0.625 0.765625 -0.625 2.421875zm13.3671875 3.109375q-0.78125 0.671875 -1.5 0.953125q-0.71875 0.265625 -1.546875 0.265625q-1.375 0 -2.109375 -0.671875q-0.734375 -0.671875 -0.734375 -1.703125q0 -0.609375 0.28125 -1.109375q0.28125 -0.515625 0.71875 -0.8125q0.453125 -0.3125 1.015625 -0.46875q0.421875 -0.109375 1.25 -0.203125q1.703125 -0.203125 2.515625 -0.484375q0 -0.296875 0 -0.375q0 -0.859375 -0.390625 -1.203125q-0.546875 -0.484375 -1.609375 -0.484375q-0.984375 0 -1.46875 0.359375q-0.46875 0.34375 -0.6875 1.21875l-1.375 -0.1875q0.1875 -0.875 0.609375 -1.421875q0.4375 -0.546875 1.25 -0.828125q0.8125 -0.296875 1.875 -0.296875q1.0625 0 1.71875 0.25q0.671875 0.25 0.984375 0.625q0.3125 0.375 0.4375 0.953125q0.078125 0.359375 0.078125 1.296875l0 1.875q0 1.96875 0.078125 2.484375q0.09375 0.515625 0.359375 1.0l-1.46875 0q-0.21875 -0.4375 -0.28125 -1.03125zm-0.109375 -3.140625q-0.765625 0.3125 -2.296875 0.53125q-0.875 0.125 -1.234375 0.28125q-0.359375 0.15625 -0.5625 0.46875q-0.1875 0.296875 -0.1875 0.65625q0 0.5625 0.421875 0.9375q0.4375 0.375 1.25 0.375q0.8125 0 1.4375 -0.34375q0.640625 -0.359375 0.9375 -0.984375q0.234375 -0.46875 0.234375 -1.40625l0 -0.515625zm6.6640625 2.90625l0.203125 1.25q-0.59375 0.125 -1.0625 0.125q-0.765625 0 -1.1875 -0.234375q-0.421875 -0.25 -0.59375 -0.640625q-0.171875 -0.40625 -0.171875 -1.671875l0 -4.765625l-1.03125 0l0 -1.09375l1.03125 0l0 -2.0625l1.40625 -0.84375l0 2.90625l1.40625 0l0 1.09375l-1.40625 0l0 4.84375q0 0.609375 0.0625 0.78125q0.078125 0.171875 0.25 0.28125q0.171875 0.09375 0.484375 0.09375q0.234375 0 0.609375 -0.0625zm6.7890625 0.234375q-0.78125 0.671875 -1.5 0.953125q-0.71875 0.265625 -1.546875 0.265625q-1.375 0 -2.109375 -0.671875q-0.734375 -0.671875 -0.734375 -1.703125q0 -0.609375 0.28125 -1.109375q0.28125 -0.515625 0.71875 -0.8125q0.453125 -0.3125 1.015625 -0.46875q0.421875 -0.109375 1.25 -0.203125q1.703125 -0.203125 2.515625 -0.484375q0 -0.296875 0 -0.375q0 -0.859375 -0.390625 -1.203125q-0.546875 -0.484375 -1.609375 -0.484375q-0.984375 0 -1.46875 0.359375q-0.46875 0.34375 -0.6875 1.21875l-1.375 -0.1875q0.1875 -0.875 0.609375 -1.421875q0.4375 -0.546875 1.25 -0.828125q0.8125 -0.296875 1.875 -0.296875q1.0625 0 1.71875 0.25q0.671875 0.25 0.984375 0.625q0.3125 0.375 0.4375 0.953125q0.078125 0.359375 0.078125 1.296875l0 1.875q0 1.96875 0.078125 2.484375q0.09375 0.515625 0.359375 1.0l-1.46875 0q-0.21875 -0.4375 -0.28125 -1.03125zm-0.109375 -3.140625q-0.765625 0.3125 -2.296875 0.53125q-0.875 0.125 -1.234375 0.28125q-0.359375 0.15625 -0.5625 0.46875q-0.1875 0.296875 -0.1875 0.65625q0 0.5625 0.421875 0.9375q0.4375 0.375 1.25 0.375q0.8125 0 1.4375 -0.34375q0.640625 -0.359375 0.9375 -0.984375q0.234375 -0.46875 0.234375 -1.40625l0 -0.515625zm3.9296875 4.171875l0 -7.203125l-1.234375 0l0 -1.09375l1.234375 0l0 -0.890625q0 -0.828125 0.15625 -1.234375q0.203125 -0.546875 0.703125 -0.890625q0.515625 -0.34375 1.4375 -0.34375q0.59375 0 1.3125 0.140625l-0.203125 1.234375q-0.4375 -0.078125 -0.828125 -0.078125q-0.640625 0 -0.90625 0.28125q-0.265625 0.265625 -0.265625 1.015625l0 0.765625l1.609375 0l0 1.09375l-1.609375 0l0 7.203125l-1.40625 0zm4.0859375 0l0 -11.453125l1.40625 0l0 11.453125l-1.40625 0zm3.0546875 -4.15625q0 -2.296875 1.28125 -3.40625q1.078125 -0.921875 2.609375 -0.921875q1.71875 0 2.796875 1.125q1.09375 1.109375 1.09375 3.09375q0 1.59375 -0.484375 2.515625q-0.484375 0.921875 -1.40625 1.4375q-0.90625 0.5 -2.0 0.5q-1.734375 0 -2.8125 -1.109375q-1.078125 -1.125 -1.078125 -3.234375zm1.453125 0q0 1.59375 0.6875 2.390625q0.703125 0.796875 1.75 0.796875q1.046875 0 1.734375 -0.796875q0.703125 -0.796875 0.703125 -2.4375q0 -1.53125 -0.703125 -2.328125q-0.6875 -0.796875 -1.734375 -0.796875q-1.046875 0 -1.75 0.796875q-0.6875 0.78125 -0.6875 2.375zm9.5078125 4.15625l-2.546875 -8.296875l1.453125 0l1.328125 4.78125l0.484375 1.78125q0.03125 -0.125 0.4375 -1.703125l1.3125 -4.859375l1.453125 0l1.234375 4.8125l0.421875 1.578125l0.46875 -1.59375l1.421875 -4.796875l1.375 0l-2.59375 8.296875l-1.46875 0l-1.3125 -4.96875l-0.328125 -1.421875l-1.671875 6.390625l-1.46875 0z" fill-rule="nonzero"/><path fill="#000000" fill-opacity="0.0" d="m393.2752 32.015747l80.100586 0l0 30.01575l-80.100586 0z" fill-rule="evenodd"/><path fill="#000000" d="m408.74396 49.836746l1.390625 0.1875q-0.234375 1.421875 -1.171875 2.234375q-0.921875 0.8125 -2.28125 0.8125q-1.703125 0 -2.75 -1.109375q-1.03125 -1.125 -1.03125 -3.203125q0 -1.34375 0.4375 -2.34375q0.453125 -1.015625 1.359375 -1.515625q0.921875 -0.5 1.984375 -0.5q1.359375 0 2.21875 0.6875q0.859375 0.671875 1.09375 1.9375l-1.359375 0.203125q-0.203125 -0.828125 -0.703125 -1.25q-0.484375 -0.421875 -1.1875 -0.421875q-1.0625 0 -1.734375 0.765625q-0.65625 0.75 -0.65625 2.40625q0 1.671875 0.640625 2.4375q0.640625 0.75 1.671875 0.75q0.828125 0 1.375 -0.5q0.5625 -0.515625 0.703125 -1.578125zm2.59375 3.046875l0 -11.453125l1.40625 0l0 4.109375q0.984375 -1.140625 2.484375 -1.140625q0.921875 0 1.59375 0.359375q0.6875 0.359375 0.96875 1.0q0.296875 0.640625 0.296875 1.859375l0 5.265625l-1.40625 0l0 -5.265625q0 -1.046875 -0.453125 -1.53125q-0.453125 -0.484375 -1.296875 -0.484375q-0.625 0 -1.171875 0.328125q-0.546875 0.328125 -0.78125 0.890625q-0.234375 0.546875 -0.234375 1.515625l0 4.546875l-1.40625 0zm14.3046875 -1.03125q-0.78125 0.671875 -1.5 0.953125q-0.71875 0.265625 -1.546875 0.265625q-1.375 0 -2.109375 -0.671875q-0.734375 -0.671875 -0.734375 -1.703125q0 -0.609375 0.28125 -1.109375q0.28125 -0.515625 0.71875 -0.8125q0.453125 -0.3125 1.015625 -0.46875q0.421875 -0.109375 1.25 -0.203125q1.703125 -0.203125 2.515625 -0.484375q0 -0.296875 0 -0.375q0 -0.859375 -0.390625 -1.203125q-0.546875 -0.484375 -1.609375 -0.484375q-0.984375 0 -1.46875 0.359375q-0.46875 0.34375 -0.6875 1.21875l-1.375 -0.1875q0.1875 -0.875 0.609375 -1.421875q0.4375 -0.546875 1.25 -0.828125q0.8125 -0.296875 1.875 -0.296875q1.0625 0 1.71875 0.25q0.671875 0.25 0.984375 0.625q0.3125 0.375 0.4375 0.953125q0.078125 0.359375 0.078125 1.296875l0 1.875q0 1.96875 0.078125 2.484375q0.09375 0.515625 0.359375 1.0l-1.46875 0q-0.21875 -0.4375 -0.28125 -1.03125zm-0.109375 -3.140625q-0.765625 0.3125 -2.296875 0.53125q-0.875 0.125 -1.234375 0.28125q-0.359375 0.15625 -0.5625 0.46875q-0.1875 0.296875 -0.1875 0.65625q0 0.5625 0.421875 0.9375q0.4375 0.375 1.25 0.375q0.8125 0 1.4375 -0.34375q0.640625 -0.359375 0.9375 -0.984375q0.234375 -0.46875 0.234375 -1.40625l0 -0.515625zm3.6015625 4.171875l0 -8.296875l1.265625 0l0 1.171875q0.90625 -1.359375 2.640625 -1.359375q0.75 0 1.375 0.265625q0.625 0.265625 0.9375 0.703125q0.3125 0.4375 0.4375 1.046875q0.078125 0.390625 0.078125 1.359375l0 5.109375l-1.40625 0l0 -5.046875q0 -0.859375 -0.171875 -1.28125q-0.15625 -0.4375 -0.578125 -0.6875q-0.40625 -0.25 -0.96875 -0.25q-0.90625 0 -1.5625 0.578125q-0.640625 0.5625 -0.640625 2.15625l0 4.53125l-1.40625 0zm8.8984375 0l0 -8.296875l1.265625 0l0 1.171875q0.90625 -1.359375 2.640625 -1.359375q0.75 0 1.375 0.265625q0.625 0.265625 0.9375 0.703125q0.3125 0.4375 0.4375 1.046875q0.078125 0.390625 0.078125 1.359375l0 5.109375l-1.40625 0l0 -5.046875q0 -0.859375 -0.171875 -1.28125q-0.15625 -0.4375 -0.578125 -0.6875q-0.40625 -0.25 -0.96875 -0.25q-0.90625 0 -1.5625 0.578125q-0.640625 0.5625 -0.640625 2.15625l0 4.53125l-1.40625 0zm14.5703125 -2.671875l1.453125 0.171875q-0.34375 1.28125 -1.28125 1.984375q-0.921875 0.703125 -2.359375 0.703125q-1.828125 0 -2.890625 -1.125q-1.0625 -1.125 -1.0625 -3.140625q0 -2.09375 1.078125 -3.25q1.078125 -1.15625 2.796875 -1.15625q1.65625 0 2.703125 1.140625q1.0625 1.125 1.0625 3.171875q0 0.125 0 0.375l-6.1875 0q0.078125 1.375 0.765625 2.109375q0.703125 0.71875 1.734375 0.71875q0.78125 0 1.328125 -0.40625q0.546875 -0.40625 0.859375 -1.296875zm-4.609375 -2.28125l4.625 0q-0.09375 -1.046875 -0.53125 -1.5625q-0.671875 -0.8125 -1.734375 -0.8125q-0.96875 0 -1.640625 0.65625q-0.65625 0.640625 -0.71875 1.71875zm7.8046875 4.953125l0 -11.453125l1.40625 0l0 11.453125l-1.40625 0z" fill-rule="nonzero"/><path fill="#ffff00" d="m477.0151 42.19295l14.558075 0c2.0100403 0 3.6395264 2.1627808 3.6395264 4.8307076c0 2.6679268 -1.6294861 4.8307114 -3.6395264 4.8307114l-14.558075 0l0 0c-2.0100708 0 -3.6395264 -2.1627846 -3.6395264 -4.8307114c0 -2.6679268 1.6294556 -4.8307076 3.6395264 -4.8307076z" fill-rule="evenodd"/><path fill="#000000" fill-opacity="0.0" d="m491.57318 51.85437c-2.0100708 0 -3.6395264 -2.1627846 -3.6395264 -4.8307114c0 -2.6679268 1.6294556 -4.8307076 3.6395264 -4.8307076" fill-rule="evenodd"/><path fill="#000000" fill-opacity="0.0" d="m477.0151 42.19295l14.558075 0c2.0100403 0 3.6395264 2.1627808 3.6395264 4.8307076c0 2.6679268 -1.6294861 4.8307114 -3.6395264 4.8307114l-14.558075 0l0 0c-2.0100708 0 -3.6395264 -2.1627846 -3.6395264 -4.8307114c0 -2.6679268 1.6294556 -4.8307076 3.6395264 -4.8307076z" fill-rule="evenodd"/><path stroke="#000000" stroke-width="1.0" stroke-linejoin="round" stroke-linecap="butt" d="m491.57318 51.85437c-2.0100708 0 -3.6395264 -2.1627846 -3.6395264 -4.8307114c0 -2.6679268 1.6294556 -4.8307076 3.6395264 -4.8307076" fill-rule="evenodd"/><path stroke="#000000" stroke-width="1.0" stroke-linejoin="round" stroke-linecap="butt" d="m477.0151 42.19295l14.558075 0c2.0100403 0 3.6395264 2.1627808 3.6395264 4.8307076c0 2.6679268 -1.6294861 4.8307114 -3.6395264 4.8307114l-14.558075 0l0 0c-2.0100708 0 -3.6395264 -2.1627846 -3.6395264 -4.8307114c0 -2.6679268 1.6294556 -4.8307076 3.6395264 -4.8307076z" fill-rule="evenodd"/><path fill="#d9d9d9" d="m27.055992 329.88715l96.0 0l0 41.007874l-96.0 0z" fill-rule="evenodd"/><path stroke="#000000" stroke-width="1.0" stroke-linejoin="round" stroke-linecap="butt" d="m27.055992 329.88715l96.0 0l0 41.007874l-96.0 0z" fill-rule="evenodd"/><path fill="#000000" d="m51.427086 356.25107l0 -11.453125l8.28125 0l0 1.34375l-6.765625 0l0 3.515625l6.34375 0l0 1.34375l-6.34375 0l0 3.890625l7.03125 0l0 1.359375l-8.546875 0zm9.53125 0l3.03125 -4.3125l-2.8125 -3.984375l1.765625 0l1.265625 1.9375q0.359375 0.5625 0.578125 0.9375q0.34375 -0.515625 0.640625 -0.921875l1.390625 -1.953125l1.6875 0l-2.875 3.90625l3.09375 4.390625l-1.734375 0l-1.703125 -2.578125l-0.453125 -0.703125l-2.171875 3.28125l-1.703125 0zm12.0 -1.265625l0.203125 1.25q-0.59375 0.125 -1.0625 0.125q-0.765625 0 -1.1875 -0.234375q-0.421875 -0.25 -0.59375 -0.640625q-0.171875 -0.40625 -0.171875 -1.671875l0 -4.765625l-1.03125 0l0 -1.09375l1.03125 0l0 -2.0625l1.40625 -0.84375l0 2.90625l1.40625 0l0 1.09375l-1.40625 0l0 4.84375q0 0.609375 0.0625 0.78125q0.078125 0.171875 0.25 0.28125q0.171875 0.09375 0.484375 0.09375q0.234375 0 0.609375 -0.0625zm1.3671875 1.265625l0 -8.296875l1.265625 0l0 1.25q0.484375 -0.875 0.890625 -1.15625q0.40625 -0.28125 0.90625 -0.28125q0.703125 0 1.4375 0.453125l-0.484375 1.296875q-0.515625 -0.296875 -1.03125 -0.296875q-0.453125 0 -0.828125 0.28125q-0.359375 0.265625 -0.515625 0.765625q-0.234375 0.75 -0.234375 1.640625l0 4.34375l-1.40625 0zm10.75 -1.03125q-0.78125 0.671875 -1.5 0.953125q-0.71875 0.265625 -1.546875 0.265625q-1.375 0 -2.109375 -0.671875q-0.734375 -0.671875 -0.734375 -1.703125q0 -0.609375 0.28125 -1.109375q0.28125 -0.515625 0.71875 -0.8125q0.453125 -0.3125 1.015625 -0.46875q0.421875 -0.109375 1.25 -0.203125q1.703125 -0.203125 2.515625 -0.484375q0 -0.296875 0 -0.375q0 -0.859375 -0.390625 -1.203125q-0.546875 -0.484375 -1.609375 -0.484375q-0.984375 0 -1.46875 0.359375q-0.46875 0.34375 -0.6875 1.21875l-1.375 -0.1875q0.1875 -0.875 0.609375 -1.421875q0.4375 -0.546875 1.25 -0.828125q0.8125 -0.296875 1.875 -0.296875q1.0625 0 1.71875 0.25q0.671875 0.25 0.984375 0.625q0.3125 0.375 0.4375 0.953125q0.078125 0.359375 0.078125 1.296875l0 1.875q0 1.96875 0.078125 2.484375q0.09375 0.515625 0.359375 1.0l-1.46875 0q-0.21875 -0.4375 -0.28125 -1.03125zm-0.109375 -3.140625q-0.765625 0.3125 -2.296875 0.53125q-0.875 0.125 -1.234375 0.28125q-0.359375 0.15625 -0.5625 0.46875q-0.1875 0.296875 -0.1875 0.65625q0 0.5625 0.421875 0.9375q0.4375 0.375 1.25 0.375q0.8125 0 1.4375 -0.34375q0.640625 -0.359375 0.9375 -0.984375q0.234375 -0.46875 0.234375 -1.40625l0 -0.515625zm9.0078125 1.125l1.390625 0.1875q-0.234375 1.421875 -1.171875 2.234375q-0.921875 0.8125 -2.28125 0.8125q-1.703125 0 -2.75 -1.109375q-1.03125 -1.125 -1.03125 -3.203125q0 -1.34375 0.4375 -2.34375q0.453125 -1.015625 1.359375 -1.515625q0.921875 -0.5 1.984375 -0.5q1.359375 0 2.21875 0.6875q0.859375 0.671875 1.09375 1.9375l-1.359375 0.203125q-0.203125 -0.828125 -0.703125 -1.25q-0.484375 -0.421875 -1.1875 -0.421875q-1.0625 0 -1.734375 0.765625q-0.65625 0.75 -0.65625 2.40625q0 1.671875 0.640625 2.4375q0.640625 0.75 1.671875 0.75q0.828125 0 1.375 -0.5q0.5625 -0.515625 0.703125 -1.578125zm5.65625 1.78125l0.203125 1.25q-0.59375 0.125 -1.0625 0.125q-0.765625 0 -1.1875 -0.234375q-0.421875 -0.25 -0.59375 -0.640625q-0.171875 -0.40625 -0.171875 -1.671875l0 -4.765625l-1.03125 0l0 -1.09375l1.03125 0l0 -2.0625l1.40625 -0.84375l0 2.90625l1.40625 0l0 1.09375l-1.40625 0l0 4.84375q0 0.609375 0.0625 0.78125q0.078125 0.171875 0.25 0.28125q0.171875 0.09375 0.484375 0.09375q0.234375 0 0.609375 -0.0625z" fill-rule="nonzero"/><path fill="#ffff00" d="m155.38145 343.39108l21.333328 0c2.9455261 0 5.3333435 3.1340027 5.3333435 7.0c0 3.8659973 -2.3878174 7.0 -5.3333435 7.0l-21.333328 0l0 0c-2.9455261 0 -5.3333282 -3.1340027 -5.3333282 -7.0c0 -3.8659973 2.3878021 -7.0 5.3333282 -7.0z" fill-rule="evenodd"/><path fill="#000000" fill-opacity="0.0" d="m176.71478 357.39108c-2.9455109 0 -5.3333282 -3.1340027 -5.3333282 -7.0c0 -3.8659973 2.3878174 -7.0 5.3333282 -7.0" fill-rule="evenodd"/><path fill="#000000" fill-opacity="0.0" d="m155.38145 343.39108l21.333328 0c2.9455261 0 5.3333435 3.1340027 5.3333435 7.0c0 3.8659973 -2.3878174 7.0 -5.3333435 7.0l-21.333328 0l0 0c-2.9455261 0 -5.3333282 -3.1340027 -5.3333282 -7.0c0 -3.8659973 2.3878021 -7.0 5.3333282 -7.0z" fill-rule="evenodd"/><path stroke="#000000" stroke-width="1.0" stroke-linejoin="round" stroke-linecap="butt" d="m176.71478 357.39108c-2.9455109 0 -5.3333282 -3.1340027 -5.3333282 -7.0c0 -3.8659973 2.3878174 -7.0 5.3333282 -7.0" fill-rule="evenodd"/><path stroke="#000000" stroke-width="1.0" stroke-linejoin="round" stroke-linecap="butt" d="m155.38145 343.39108l21.333328 0c2.9455261 0 5.3333435 3.1340027 5.3333435 7.0c0 3.8659973 -2.3878174 7.0 -5.3333435 7.0l-21.333328 0l0 0c-2.9455261 0 -5.3333282 -3.1340027 -5.3333282 -7.0c0 -3.8659973 2.3878021 -7.0 5.3333282 -7.0z" fill-rule="evenodd"/><path fill="#d9d9d9" d="m209.04024 329.88715l96.000015 0l0 41.007874l-96.000015 0z" fill-rule="evenodd"/><path stroke="#000000" stroke-width="1.0" stroke-linejoin="round" stroke-linecap="butt" d="m209.04024 329.88715l96.000015 0l0 41.007874l-96.000015 0z" fill-rule="evenodd"/><path fill="#000000" d="m224.74727 356.25107l0 -10.109375l-3.78125 0l0 -1.34375l9.078125 0l0 1.34375l-3.78125 0l0 10.109375l-1.515625 0zm6.6640625 0l0 -8.296875l1.265625 0l0 1.25q0.484375 -0.875 0.890625 -1.15625q0.40625 -0.28125 0.90625 -0.28125q0.703125 0 1.4375 0.453125l-0.484375 1.296875q-0.515625 -0.296875 -1.03125 -0.296875q-0.453125 0 -0.828125 0.28125q-0.359375 0.265625 -0.515625 0.765625q-0.234375 0.75 -0.234375 1.640625l0 4.34375l-1.40625 0zm10.75 -1.03125q-0.78125 0.671875 -1.5 0.953125q-0.71875 0.265625 -1.546875 0.265625q-1.375 0 -2.109375 -0.671875q-0.734375 -0.671875 -0.734375 -1.703125q0 -0.609375 0.28125 -1.109375q0.28125 -0.515625 0.71875 -0.8125q0.453125 -0.3125 1.015625 -0.46875q0.421875 -0.109375 1.25 -0.203125q1.703125 -0.203125 2.515625 -0.484375q0 -0.296875 0 -0.375q0 -0.859375 -0.390625 -1.203125q-0.546875 -0.484375 -1.609375 -0.484375q-0.984375 0 -1.46875 0.359375q-0.46875 0.34375 -0.6875 1.21875l-1.375 -0.1875q0.1875 -0.875 0.609375 -1.421875q0.4375 -0.546875 1.25 -0.828125q0.8125 -0.296875 1.875 -0.296875q1.0625 0 1.71875 0.25q0.671875 0.25 0.984375 0.625q0.3125 0.375 0.4375 0.953125q0.078125 0.359375 0.078125 1.296875l0 1.875q0 1.96875 0.078125 2.484375q0.09375 0.515625 0.359375 1.0l-1.46875 0q-0.21875 -0.4375 -0.28125 -1.03125zm-0.109375 -3.140625q-0.765625 0.3125 -2.296875 0.53125q-0.875 0.125 -1.234375 0.28125q-0.359375 0.15625 -0.5625 0.46875q-0.1875 0.296875 -0.1875 0.65625q0 0.5625 0.421875 0.9375q0.4375 0.375 1.25 0.375q0.8125 0 1.4375 -0.34375q0.640625 -0.359375 0.9375 -0.984375q0.234375 -0.46875 0.234375 -1.40625l0 -0.515625zm3.6015625 4.171875l0 -8.296875l1.265625 0l0 1.171875q0.90625 -1.359375 2.640625 -1.359375q0.75 0 1.375 0.265625q0.625 0.265625 0.9375 0.703125q0.3125 0.4375 0.4375 1.046875q0.078125 0.390625 0.078125 1.359375l0 5.109375l-1.40625 0l0 -5.046875q0 -0.859375 -0.171875 -1.28125q-0.15625 -0.4375 -0.578125 -0.6875q-0.40625 -0.25 -0.96875 -0.25q-0.90625 0 -1.5625 0.578125q-0.640625 0.5625 -0.640625 2.15625l0 4.53125l-1.40625 0zm8.3359375 -2.484375l1.390625 -0.21875q0.109375 0.84375 0.64064026 1.296875q0.546875 0.4375 1.5 0.4375q0.96875 0 1.4375 -0.390625q0.46875 -0.40625 0.46875 -0.9375q0 -0.46875 -0.40625 -0.75q-0.296875 -0.1875 -1.4375 -0.46875q-1.546875 -0.390625 -2.1562653 -0.671875q-0.59375 -0.296875 -0.90625 -0.796875q-0.296875 -0.5 -0.296875 -1.109375q0 -0.5625 0.25 -1.03125q0.25 -0.46875 0.6875 -0.78125q0.328125 -0.25 0.89064026 -0.40625q0.578125 -0.171875 1.21875 -0.171875q0.984375 0 1.71875 0.28125q0.734375 0.28125 1.078125 0.765625q0.359375 0.46875 0.5 1.28125l-1.375 0.1875q-0.09375 -0.640625 -0.546875 -1.0q-0.453125 -0.359375 -1.265625 -0.359375q-0.96875 0 -1.3906403 0.328125q-0.40625 0.3125 -0.40625 0.734375q0 0.28125 0.171875 0.5q0.171875 0.21875 0.53126526 0.375q0.21875 0.078125 1.25 0.359375q1.484375 0.390625 2.078125 0.65625q0.59375 0.25 0.921875 0.734375q0.34375 0.484375 0.34375 1.203125q0 0.703125 -0.421875 1.328125q-0.40625 0.609375 -1.1875 0.953125q-0.765625 0.34375 -1.734375 0.34375q-1.6250153 0 -2.4687653 -0.671875q-0.84375 -0.671875 -1.078125 -2.0zm8.89064 2.484375l0 -7.203125l-1.234375 0l0 -1.09375l1.234375 0l0 -0.890625q0 -0.828125 0.15625 -1.234375q0.203125 -0.546875 0.703125 -0.890625q0.515625 -0.34375 1.4375 -0.34375q0.59375 0 1.3125 0.140625l-0.203125 1.234375q-0.4375 -0.078125 -0.828125 -0.078125q-0.640625 0 -0.90625 0.28125q-0.265625 0.265625 -0.265625 1.015625l0 0.765625l1.609375 0l0 1.09375l-1.609375 0l0 7.203125l-1.40625 0zm3.5859375 -4.15625q0 -2.296875 1.28125 -3.40625q1.078125 -0.921875 2.609375 -0.921875q1.71875 0 2.796875 1.125q1.09375 1.109375 1.09375 3.09375q0 1.59375 -0.484375 2.515625q-0.484375 0.921875 -1.40625 1.4375q-0.90625 0.5 -2.0 0.5q-1.734375 0 -2.8125 -1.109375q-1.078125 -1.125 -1.078125 -3.234375zm1.453125 0q0 1.59375 0.6875 2.390625q0.703125 0.796875 1.75 0.796875q1.046875 0 1.734375 -0.796875q0.703125 -0.796875 0.703125 -2.4375q0 -1.53125 -0.703125 -2.328125q-0.6875 -0.796875 -1.734375 -0.796875q-1.046875 0 -1.75 0.796875q-0.6875 0.78125 -0.6875 2.375zm7.9609375 4.15625l0 -8.296875l1.265625 0l0 1.25q0.484375 -0.875 0.890625 -1.15625q0.40625 -0.28125 0.90625 -0.28125q0.703125 0 1.4375 0.453125l-0.484375 1.296875q-0.515625 -0.296875 -1.03125 -0.296875q-0.453125 0 -0.828125 0.28125q-0.359375 0.265625 -0.515625 0.765625q-0.234375 0.75 -0.234375 1.640625l0 4.34375l-1.40625 0zm5.34375 0l0 -8.296875l1.25 0l0 1.15625q0.390625 -0.609375 1.03125 -0.96875q0.65625 -0.375 1.484375 -0.375q0.921875 0 1.515625 0.390625q0.59375 0.375 0.828125 1.0625q0.984375 -1.453125 2.5625 -1.453125q1.234375 0 1.890625 0.6875q0.671875 0.671875 0.671875 2.09375l0 5.703125l-1.390625 0l0 -5.234375q0 -0.84375 -0.140625 -1.203125q-0.140625 -0.375 -0.5 -0.59375q-0.359375 -0.234375 -0.84375 -0.234375q-0.875 0 -1.453125 0.578125q-0.578125 0.578125 -0.578125 1.859375l0 4.828125l-1.40625 0l0 -5.390625q0 -0.9375 -0.34375 -1.40625q-0.34375 -0.46875 -1.125 -0.46875q-0.59375 0 -1.09375 0.3125q-0.5 0.3125 -0.734375 0.921875q-0.21875 0.59375 -0.21875 1.71875l0 4.3125l-1.40625 0z" fill-rule="nonzero"/><path fill="#ffff00" d="m337.3657 343.39108l21.333344 0c2.9455261 0 5.3333435 3.1340027 5.3333435 7.0c0 3.8659973 -2.3878174 7.0 -5.3333435 7.0l-21.333344 0l0 0c-2.9454956 0 -5.333313 -3.1340027 -5.333313 -7.0c0 -3.8659973 2.3878174 -7.0 5.333313 -7.0z" fill-rule="evenodd"/><path fill="#000000" fill-opacity="0.0" d="m358.69904 357.39108c-2.9455261 0 -5.3333435 -3.1340027 -5.3333435 -7.0c0 -3.8659973 2.3878174 -7.0 5.3333435 -7.0" fill-rule="evenodd"/><path fill="#000000" fill-opacity="0.0" d="m337.3657 343.39108l21.333344 0c2.9455261 0 5.3333435 3.1340027 5.3333435 7.0c0 3.8659973 -2.3878174 7.0 -5.3333435 7.0l-21.333344 0l0 0c-2.9454956 0 -5.333313 -3.1340027 -5.333313 -7.0c0 -3.8659973 2.3878174 -7.0 5.333313 -7.0z" fill-rule="evenodd"/><path stroke="#000000" stroke-width="1.0" stroke-linejoin="round" stroke-linecap="butt" d="m358.69904 357.39108c-2.9455261 0 -5.3333435 -3.1340027 -5.3333435 -7.0c0 -3.8659973 2.3878174 -7.0 5.3333435 -7.0" fill-rule="evenodd"/><path stroke="#000000" stroke-width="1.0" stroke-linejoin="round" stroke-linecap="butt" d="m337.3657 343.39108l21.333344 0c2.9455261 0 5.3333435 3.1340027 5.3333435 7.0c0 3.8659973 -2.3878174 7.0 -5.3333435 7.0l-21.333344 0l0 0c-2.9454956 0 -5.333313 -3.1340027 -5.333313 -7.0c0 -3.8659973 2.3878174 -7.0 5.333313 -7.0z" fill-rule="evenodd"/><path fill="#d9d9d9" d="m391.0245 329.88715l96.0 0l0 41.007874l-96.0 0z" fill-rule="evenodd"/><path stroke="#000000" stroke-width="1.0" stroke-linejoin="round" stroke-linecap="butt" d="m391.0245 329.88715l96.0 0l0 41.007874l-96.0 0z" fill-rule="evenodd"/><path fill="#000000" d="m422.3995 356.25107l0 -11.453125l1.515625 0l0 10.09375l5.640625 0l0 1.359375l-7.15625 0zm8.2578125 -4.15625q0 -2.296875 1.28125 -3.40625q1.078125 -0.921875 2.609375 -0.921875q1.71875 0 2.796875 1.125q1.09375 1.109375 1.09375 3.09375q0 1.59375 -0.484375 2.515625q-0.484375 0.921875 -1.40625 1.4375q-0.90625 0.5 -2.0 0.5q-1.734375 0 -2.8125 -1.109375q-1.078125 -1.125 -1.078125 -3.234375zm1.453125 0q0 1.59375 0.6875 2.390625q0.703125 0.796875 1.75 0.796875q1.046875 0 1.734375 -0.796875q0.703125 -0.796875 0.703125 -2.4375q0 -1.53125 -0.703125 -2.328125q-0.6875 -0.796875 -1.734375 -0.796875q-1.046875 0 -1.75 0.796875q-0.6875 0.78125 -0.6875 2.375zm13.3828125 3.125q-0.78125 0.671875 -1.5 0.953125q-0.71875 0.265625 -1.546875 0.265625q-1.375 0 -2.109375 -0.671875q-0.734375 -0.671875 -0.734375 -1.703125q0 -0.609375 0.28125 -1.109375q0.28125 -0.515625 0.71875 -0.8125q0.453125 -0.3125 1.015625 -0.46875q0.421875 -0.109375 1.25 -0.203125q1.703125 -0.203125 2.515625 -0.484375q0 -0.296875 0 -0.375q0 -0.859375 -0.390625 -1.203125q-0.546875 -0.484375 -1.609375 -0.484375q-0.984375 0 -1.46875 0.359375q-0.46875 0.34375 -0.6875 1.21875l-1.375 -0.1875q0.1875 -0.875 0.609375 -1.421875q0.4375 -0.546875 1.25 -0.828125q0.8125 -0.296875 1.875 -0.296875q1.0625 0 1.71875 0.25q0.671875 0.25 0.984375 0.625q0.3125 0.375 0.4375 0.953125q0.078125 0.359375 0.078125 1.296875l0 1.875q0 1.96875 0.078125 2.484375q0.09375 0.515625 0.359375 1.0l-1.46875 0q-0.21875 -0.4375 -0.28125 -1.03125zm-0.109375 -3.140625q-0.765625 0.3125 -2.296875 0.53125q-0.875 0.125 -1.234375 0.28125q-0.359375 0.15625 -0.5625 0.46875q-0.1875 0.296875 -0.1875 0.65625q0 0.5625 0.421875 0.9375q0.4375 0.375 1.25 0.375q0.8125 0 1.4375 -0.34375q0.640625 -0.359375 0.9375 -0.984375q0.234375 -0.46875 0.234375 -1.40625l0 -0.515625zm8.9765625 4.171875l0 -1.046875q-0.78125 1.234375 -2.3125 1.234375q-1.0 0 -1.828125 -0.546875q-0.828125 -0.546875 -1.296875 -1.53125q-0.453125 -0.984375 -0.453125 -2.25q0 -1.25 0.40625 -2.25q0.421875 -1.015625 1.25 -1.546875q0.828125 -0.546875 1.859375 -0.546875q0.75 0 1.328125 0.3125q0.59375 0.3125 0.953125 0.828125l0 -4.109375l1.40625 0l0 11.453125l-1.3125 0zm-4.4375 -4.140625q0 1.59375 0.671875 2.390625q0.671875 0.78125 1.578125 0.78125q0.921875 0 1.5625 -0.75q0.65625 -0.765625 0.65625 -2.3125q0 -1.703125 -0.65625 -2.5q-0.65625 -0.796875 -1.625 -0.796875q-0.9375 0 -1.5625 0.765625q-0.625 0.765625 -0.625 2.421875z" fill-rule="nonzero"/><path fill="#000000" fill-opacity="0.0" d="m305.04025 350.39108l26.992126 0" fill-rule="evenodd"/><path stroke="#000000" stroke-width="1.0" stroke-linejoin="round" stroke-linecap="butt" d="m305.04025 350.39108l23.565033 0" fill-rule="evenodd"/><path fill="#000000" stroke="#000000" stroke-width="1.0" stroke-linecap="butt" d="m328.6053 350.39108l-1.1245728 1.1245728l3.0897522 -1.1245728l-3.0897522 -1.1246033z" fill-rule="evenodd"/><path fill="#000000" fill-opacity="0.0" d="m364.03238 350.39108l26.992126 0" fill-rule="evenodd"/><path stroke="#000000" stroke-width="1.0" stroke-linejoin="round" stroke-linecap="butt" d="m364.03235 350.39108l23.565063 0" fill-rule="evenodd"/><path fill="#000000" stroke="#000000" stroke-width="1.0" stroke-linecap="butt" d="m387.59738 350.39108l-1.1245728 1.1245728l3.0897827 -1.1245728l-3.0897827 -1.1246033z" fill-rule="evenodd"/><path fill="#000000" fill-opacity="0.0" d="m182.04813 350.39108l26.992111 0" fill-rule="evenodd"/><path stroke="#000000" stroke-width="1.0" stroke-linejoin="round" stroke-linecap="butt" d="m182.04813 350.39108l23.565048 0" fill-rule="evenodd"/><path fill="#000000" stroke="#000000" stroke-width="1.0" stroke-linecap="butt" d="m205.61316 350.39108l-1.1245728 1.1245728l3.0897675 -1.1245728l-3.0897675 -1.1246033z" fill-rule="evenodd"/><path fill="#000000" fill-opacity="0.0" d="m123.05599 350.39108l26.992134 0" fill-rule="evenodd"/><path stroke="#000000" stroke-width="1.0" stroke-linejoin="round" stroke-linecap="butt" d="m123.05599 350.39108l23.56504 0" fill-rule="evenodd"/><path fill="#000000" stroke="#000000" stroke-width="1.0" stroke-linecap="butt" d="m146.62103 350.39108l-1.124588 1.1245728l3.0897675 -1.1245728l-3.0897675 -1.1246033z" fill-rule="evenodd"/><path fill="#efefef" d="m34.925907 97.15453l0 0c-3.029951 -23.317497 6.9179764 -46.40041 25.622509 -59.453804c18.704536 -13.053392 42.8853 -13.787983 62.281517 -1.8920593l0 0c6.87072 -13.55776 19.446175 -22.91846 33.922493 -25.250668c14.476334 -2.3322067 29.153244 2.6380053 39.591263 13.407244l0 0c5.8529663 -12.292338 17.345398 -20.55122 30.399155 -21.845963c13.053772 -1.2947428 25.821442 4.557891 33.772385 15.481081l0 0c10.57428 -13.029847 27.398193 -18.515955 43.191956 -14.084454c15.793762 4.4315023 27.720673 17.984678 30.619904 34.79499l0 0c12.955261 3.700531 23.746735 13.107773 29.586212 25.791195c5.839508 12.683426 6.154175 27.398819 0.86276245 40.344185l0 0c12.757141 17.387047 15.741364 40.555077 7.8389893 60.858177c-7.9023743 20.303116 -25.50412 34.69101 -46.23654 37.794373c-0.14611816 19.055191 -10.125641 36.54001 -26.09198 45.715042c-15.966339 9.175018 -35.42633 8.607544 -50.879227 -1.4837036c-6.582123 22.8219 -25.108582 39.614044 -47.575256 43.121582c-22.46669 3.5075378 -44.845993 -6.898285 -57.469254 -26.721802c-15.473465 9.771088 -34.040344 12.585815 -51.51232 7.809265c-17.47197 -4.7765503 -32.37728 -16.74202 -41.353596 -33.197266l0 0c-15.811943 1.9376526 -31.099907 -6.641159 -38.27653 -21.478806c-7.176623 -14.8376465 -4.7141733 -32.775543 6.165243 -44.911163l0 0c-14.104663 -8.69339 -21.301712 -25.94394 -17.83817 -42.756195c3.4635434 -16.812248 16.802828 -29.376457 33.061943 -31.1409z" fill-rule="evenodd"/><path fill="#000000" fill-opacity="0.0" d="m19.38958 171.95032l0 0c6.6560345 4.1024323 14.345314 5.963394 22.035427 5.333023m10.072399 61.05844c3.3070297 -0.40525818 6.5485497 -1.2634277 9.6409645 -2.5523987m83.22034 27.939346c-2.3259583 -3.6526794 -4.273361 -7.5558777 -5.8090363 -11.643066m110.85756 -4.757416l0 0c1.2000122 -4.1607666 1.9775238 -8.4431 2.3195496 -12.775558m74.64874 -31.454193c0.15557861 -20.2872 -10.847809 -38.862366 -28.283905 -47.746918m66.68109 -50.90348c-2.8237305 6.9081726 -7.1344604 13.036316 -12.594208 17.903946m-17.852112 -84.04114l0 0c0.48110962 2.7896767 0.70376587 5.6212807 0.6648865 8.455563m-74.475494 -29.165257l0 0c-2.6377563 3.2502995 -4.810913 6.8824673 -6.4518127 10.783407m-57.720337 -4.419945l0 0c-1.4057007 2.9522228 -2.4553833 6.0761795 -3.1248627 9.29991m-70.38997 2.5437584l0 0c4.104225 2.51717 7.9011993 5.546856 11.307495 9.022499m-99.21039 52.323692l0 0c0.41760254 3.2137604 1.0774422 6.3878937 1.9733353 9.492699" fill-rule="evenodd"/><path stroke="#000000" stroke-width="1.0" stroke-linejoin="round" stroke-linecap="butt" d="m34.925907 97.15453l0 0c-3.029951 -23.317497 6.9179764 -46.40041 25.622509 -59.453804c18.704536 -13.053392 42.8853 -13.787983 62.281517 -1.8920593l0 0c6.87072 -13.55776 19.446175 -22.91846 33.922493 -25.250668c14.476334 -2.3322067 29.153244 2.6380053 39.591263 13.407244l0 0c5.8529663 -12.292338 17.345398 -20.55122 30.399155 -21.845963c13.053772 -1.2947428 25.821442 4.557891 33.772385 15.481081l0 0c10.57428 -13.029847 27.398193 -18.515955 43.191956 -14.084454c15.793762 4.4315023 27.720673 17.984678 30.619904 34.79499l0 0c12.955261 3.700531 23.746735 13.107773 29.586212 25.791195c5.839508 12.683426 6.154175 27.398819 0.86276245 40.344185l0 0c12.757141 17.387047 15.741364 40.555077 7.8389893 60.858177c-7.9023743 20.303116 -25.50412 34.69101 -46.23654 37.794373c-0.14611816 19.055191 -10.125641 36.54001 -26.09198 45.715042c-15.966339 9.175018 -35.42633 8.607544 -50.879227 -1.4837036c-6.582123 22.8219 -25.108582 39.614044 -47.575256 43.121582c-22.46669 3.5075378 -44.845993 -6.898285 -57.469254 -26.721802c-15.473465 9.771088 -34.040344 12.585815 -51.51232 7.809265c-17.47197 -4.7765503 -32.37728 -16.74202 -41.353596 -33.197266l0 0c-15.811943 1.9376526 -31.099907 -6.641159 -38.27653 -21.478806c-7.176623 -14.8376465 -4.7141733 -32.775543 6.165243 -44.911163l0 0c-14.104663 -8.69339 -21.301712 -25.94394 -17.83817 -42.756195c3.4635434 -16.812248 16.802828 -29.376457 33.061943 -31.1409z" fill-rule="evenodd"/><path stroke="#000000" stroke-width="1.0" stroke-linejoin="round" stroke-linecap="butt" d="m19.38958 171.95032l0 0c6.6560345 4.1024323 14.345314 5.963394 22.035427 5.333023m10.072399 61.05844c3.3070297 -0.40525818 6.5485497 -1.2634277 9.6409645 -2.5523987m83.22034 27.939346c-2.3259583 -3.6526794 -4.273361 -7.5558777 -5.8090363 -11.643066m110.85756 -4.757416l0 0c1.2000122 -4.1607666 1.9775238 -8.4431 2.3195496 -12.775558m74.64874 -31.454193c0.15557861 -20.2872 -10.847809 -38.862366 -28.283905 -47.746918m66.68109 -50.90348c-2.8237305 6.9081726 -7.1344604 13.036316 -12.594208 17.903946m-17.852112 -84.04114l0 0c0.48110962 2.7896767 0.70376587 5.6212807 0.6648865 8.455563m-74.475494 -29.165257l0 0c-2.6377563 3.2502995 -4.810913 6.8824673 -6.4518127 10.783407m-57.720337 -4.419945l0 0c-1.4057007 2.9522228 -2.4553833 6.0761795 -3.1248627 9.29991m-70.38997 2.5437584l0 0c4.104225 2.51717 7.9011993 5.546856 11.307495 9.022499m-99.21039 52.323692l0 0c0.41760254 3.2137604 1.0774422 6.3878937 1.9733353 9.492699" fill-rule="evenodd"/><path fill="#000000" d="m63.027924 69.01429l0 -11.453121l3.953125 0q1.328125 0 2.03125 0.15625q0.984375 0.234375 1.6875 0.828125q0.90625 0.765625 1.34375 1.953125q0.453125 1.1875 0.453125 2.71875q0 1.3124962 -0.3125 2.3281212q-0.296875 1.0 -0.78125 1.65625q-0.46875 0.65625 -1.03125 1.046875q-0.5625 0.375 -1.375 0.578125q-0.796875 0.1875 -1.828125 0.1875l-4.140625 0zm1.515625 -1.359375l2.453125 0q1.125 0 1.765625 -0.203125q0.65625 -0.21875 1.03125 -0.59375q0.546875 -0.546875 0.84375 -1.453125q0.296875 -0.90625 0.296875 -2.2031212q0 -1.796875 -0.59375 -2.765625q-0.578125 -0.96875 -1.421875 -1.296875q-0.609375 -0.234375 -1.96875 -0.234375l-2.40625 0l0 8.749996zm15.2734375 0.328125q-0.78125 0.671875 -1.5 0.953125q-0.71875 0.265625 -1.546875 0.265625q-1.375 0 -2.109375 -0.671875q-0.734375 -0.671875 -0.734375 -1.703125q0 -0.609375 0.28125 -1.109375q0.28125 -0.515625 0.71875 -0.8125q0.453125 -0.3125 1.015625 -0.46875q0.421875 -0.109375 1.25 -0.203125q1.703125 -0.203125 2.515625 -0.4843712q0 -0.296875 0 -0.375q0 -0.859375 -0.390625 -1.203125q-0.546875 -0.484375 -1.609375 -0.484375q-0.984375 0 -1.46875 0.359375q-0.46875 0.34375 -0.6875 1.21875l-1.375 -0.1875q0.1875 -0.875 0.609375 -1.421875q0.4375 -0.546875 1.25 -0.828125q0.8125 -0.296875 1.875 -0.296875q1.0625 0 1.71875 0.25q0.671875 0.25 0.984375 0.625q0.3125 0.375 0.4375 0.953125q0.078125 0.359375 0.078125 1.296875l0 1.8749962q0 1.96875 0.078125 2.484375q0.09375 0.515625 0.359375 1.0l-1.46875 0q-0.21875 -0.4375 -0.28125 -1.03125zm-0.109375 -3.140625q-0.765625 0.3125 -2.296875 0.53125q-0.875 0.125 -1.234375 0.28125q-0.359375 0.15625 -0.5625 0.46875q-0.1875 0.296875 -0.1875 0.65625q0 0.5625 0.421875 0.9375q0.4375 0.375 1.25 0.375q0.8125 0 1.4375 -0.34375q0.640625 -0.359375 0.9375 -0.984375q0.234375 -0.46875 0.234375 -1.40625l0 -0.515625zm6.6640625 2.90625l0.203125 1.25q-0.59375 0.125 -1.0625 0.125q-0.765625 0 -1.1875 -0.234375q-0.421875 -0.25 -0.59375 -0.640625q-0.171875 -0.40625 -0.171875 -1.671875l0 -4.765621l-1.03125 0l0 -1.09375l1.03125 0l0 -2.0625l1.40625 -0.84375l0 2.90625l1.40625 0l0 1.09375l-1.40625 0l0 4.843746q0 0.609375 0.0625 0.78125q0.078125 0.171875 0.25 0.28125q0.171875 0.09375 0.484375 0.09375q0.234375 0 0.609375 -0.0625zm6.7890625 0.234375q-0.78125 0.671875 -1.5 0.953125q-0.71875 0.265625 -1.546875 0.265625q-1.375 0 -2.109375 -0.671875q-0.734375 -0.671875 -0.734375 -1.703125q0 -0.609375 0.28125 -1.109375q0.28125 -0.515625 0.71875 -0.8125q0.453125 -0.3125 1.015625 -0.46875q0.421875 -0.109375 1.25 -0.203125q1.703125 -0.203125 2.515625 -0.4843712q0 -0.296875 0 -0.375q0 -0.859375 -0.390625 -1.203125q-0.546875 -0.484375 -1.609375 -0.484375q-0.984375 0 -1.46875 0.359375q-0.46875 0.34375 -0.6875 1.21875l-1.375 -0.1875q0.1875 -0.875 0.609375 -1.421875q0.4375 -0.546875 1.25 -0.828125q0.8125 -0.296875 1.875 -0.296875q1.0625 0 1.71875 0.25q0.671875 0.25 0.984375 0.625q0.3125 0.375 0.4375 0.953125q0.078125 0.359375 0.078125 1.296875l0 1.8749962q0 1.96875 0.078125 2.484375q0.09375 0.515625 0.359375 1.0l-1.46875 0q-0.21875 -0.4375 -0.28125 -1.03125zm-0.109375 -3.140625q-0.765625 0.3125 -2.296875 0.53125q-0.875 0.125 -1.234375 0.28125q-0.359375 0.15625 -0.5625 0.46875q-0.1875 0.296875 -0.1875 0.65625q0 0.5625 0.421875 0.9375q0.4375 0.375 1.25 0.375q0.8125 0 1.4375 -0.34375q0.640625 -0.359375 0.9375 -0.984375q0.234375 -0.46875 0.234375 -1.40625l0 -0.515625zm3.6015625 7.359375l0 -11.484371l1.28125 0l0 1.078125q0.453125 -0.640625 1.015625 -0.953125q0.578125 -0.3125 1.390625 -0.3125q1.0625 0 1.875 0.546875q0.8125 0.546875 1.21875 1.546875q0.421875 0.984375 0.421875 2.1718712q0 1.28125 -0.46875 2.296875q-0.453125 1.015625 -1.328125 1.5625q-0.859375 0.546875 -1.828125 0.546875q-0.703125 0 -1.265625 -0.296875q-0.546875 -0.296875 -0.90625 -0.75l0 4.046875l-1.40625 0zm1.265625 -7.296875q0 1.609375 0.640625 2.375q0.65625 0.765625 1.578125 0.765625q0.9375 0 1.609375 -0.796875q0.671875 -0.796875 0.671875 -2.453125q0 -1.5937462 -0.65625 -2.3749962q-0.65625 -0.796875 -1.5625 -0.796875q-0.890625 0 -1.59375 0.84375q-0.6875 0.84375 -0.6875 2.4374962zm7.1015625 -0.046875q0 -2.2968712 1.28125 -3.4062462q1.078125 -0.921875 2.609375 -0.921875q1.71875 0 2.796875 1.125q1.09375 1.109375 1.09375 3.0937462q0 1.59375 -0.484375 2.515625q-0.484375 0.921875 -1.40625 1.4375q-0.90625 0.5 -2.0 0.5q-1.734375 0 -2.8125 -1.109375q-1.078125 -1.125 -1.078125 -3.234375zm1.453125 0q0 1.59375 0.6875 2.390625q0.703125 0.796875 1.75 0.796875q1.046875 0 1.734375 -0.796875q0.703125 -0.796875 0.703125 -2.4375q0 -1.5312462 -0.703125 -2.3281212q-0.6875 -0.796875 -1.734375 -0.796875q-1.046875 0 -1.75 0.796875q-0.6875 0.78125 -0.6875 2.3749962zm7.4453125 0q0 -2.2968712 1.28125 -3.4062462q1.078125 -0.921875 2.609375 -0.921875q1.71875 0 2.796875 1.125q1.09375 1.109375 1.09375 3.0937462q0 1.59375 -0.484375 2.515625q-0.484375 0.921875 -1.40625 1.4375q-0.90625 0.5 -2.0 0.5q-1.734375 0 -2.8125 -1.109375q-1.078125 -1.125 -1.078125 -3.234375zm1.453125 0q0 1.59375 0.6875 2.390625q0.703125 0.796875 1.75 0.796875q1.046875 0 1.734375 -0.796875q0.703125 -0.796875 0.703125 -2.4375q0 -1.5312462 -0.703125 -2.3281212q-0.6875 -0.796875 -1.734375 -0.796875q-1.046875 0 -1.75 0.796875q-0.6875 0.78125 -0.6875 2.3749962zm7.9453125 4.15625l0 -11.453121l1.40625 0l0 11.453121l-1.40625 0z" fill-rule="nonzero"/><path fill="#a2c4c9" d="m62.496063 166.18898l0 0c0 2.8309937 21.490334 5.1259766 48.0 5.1259766c26.509674 0 48.0 -2.294983 48.0 -5.1259766l0 30.755905c0 2.8309937 -21.490326 5.1259766 -48.0 5.1259766c-26.509666 0 -48.0 -2.294983 -48.0 -5.1259766z" fill-rule="evenodd"/><path fill="#c7dbde" d="m62.496063 166.18898l0 0c0 -2.831009 21.490334 -5.125992 48.0 -5.125992c26.509674 0 48.0 2.294983 48.0 5.125992l0 0c0 2.8309937 -21.490326 5.1259766 -48.0 5.1259766c-26.509666 0 -48.0 -2.294983 -48.0 -5.1259766z" fill-rule="evenodd"/><path fill="#000000" fill-opacity="0.0" d="m158.49606 166.18898l0 0c0 2.8309937 -21.490326 5.1259766 -48.0 5.1259766c-26.509666 0 -48.0 -2.294983 -48.0 -5.1259766l0 0c0 -2.831009 21.490334 -5.125992 48.0 -5.125992c26.509674 0 48.0 2.294983 48.0 5.125992l0 30.755905c0 2.8309937 -21.490326 5.1259766 -48.0 5.1259766c-26.509666 0 -48.0 -2.294983 -48.0 -5.1259766l0 -30.755905" fill-rule="evenodd"/><path stroke="#000000" stroke-width="1.0" stroke-linejoin="round" stroke-linecap="butt" d="m158.49606 166.18898l0 0c0 2.8309937 -21.490326 5.1259766 -48.0 5.1259766c-26.509666 0 -48.0 -2.294983 -48.0 -5.1259766l0 0c0 -2.831009 21.490334 -5.125992 48.0 -5.125992c26.509674 0 48.0 2.294983 48.0 5.125992l0 30.755905c0 2.8309937 -21.490326 5.1259766 -48.0 5.1259766c-26.509666 0 -48.0 -2.294983 -48.0 -5.1259766l0 -30.755905" fill-rule="evenodd"/><path fill="#000000" d="m85.86716 186.30243l1.4375 -0.125q0.09375 0.859375 0.46875 1.421875q0.375 0.546875 1.15625 0.890625q0.78125 0.328125 1.75 0.328125q0.875 0 1.53125 -0.25q0.671875 -0.265625 0.984375 -0.703125q0.328125 -0.453125 0.328125 -0.984375q0 -0.546875 -0.3125 -0.9375q-0.3125 -0.40625 -1.03125 -0.6875q-0.453125 -0.171875 -2.03125 -0.546875q-1.578125 -0.390625 -2.21875 -0.71875q-0.8125 -0.4375 -1.21875 -1.0625q-0.40625 -0.640625 -0.40625 -1.4375q0 -0.859375 0.484375 -1.609375q0.5 -0.765625 1.4375 -1.15625q0.953125 -0.390625 2.109375 -0.390625q1.28125 0 2.25 0.421875q0.96875 0.40625 1.484375 1.203125q0.53125 0.796875 0.578125 1.796875l-1.453125 0.109375q-0.125 -1.078125 -0.796875 -1.625q-0.671875 -0.5625 -2.0 -0.5625q-1.375 0 -2.0 0.5q-0.625 0.5 -0.625 1.21875q0 0.609375 0.4375 1.015625q0.4375 0.390625 2.28125 0.8125q1.859375 0.421875 2.546875 0.734375q1.0 0.453125 1.46875 1.171875q0.484375 0.703125 0.484375 1.625q0 0.90625 -0.53125 1.71875q-0.515625 0.8125 -1.5 1.265625q-0.984375 0.453125 -2.203125 0.453125q-1.5625 0 -2.609375 -0.453125q-1.046875 -0.46875 -1.65625 -1.375q-0.59375 -0.90625 -0.625 -2.0625zm10.484375 -0.46875q0 -2.296875 1.28125 -3.40625q1.078125 -0.921875 2.609375 -0.921875q1.71875 0 2.796875 1.125q1.09375 1.109375 1.09375 3.09375q0 1.59375 -0.484375 2.515625q-0.484375 0.921875 -1.40625 1.4375q-0.90625 0.5 -2.0 0.5q-1.734375 0 -2.8125 -1.109375q-1.078125 -1.125 -1.078125 -3.234375zm1.453125 0q0 1.59375 0.6875 2.390625q0.703125 0.796875 1.75 0.796875q1.046875 0 1.734375 -0.796875q0.703125 -0.796875 0.703125 -2.4375q0 -1.53125 -0.703125 -2.328125q-0.6875 -0.796875 -1.734375 -0.796875q-1.046875 0 -1.75 0.796875q-0.6875 0.78125 -0.6875 2.375zm13.4140625 4.15625l0 -1.21875q-0.96875 1.40625 -2.640625 1.40625q-0.734375 0 -1.375 -0.28125q-0.625 -0.28125 -0.9375 -0.703125q-0.3125 -0.4375 -0.4375 -1.046875q-0.078125 -0.421875 -0.078125 -1.3125l0 -5.140625l1.40625 0l0 4.59375q0 1.109375 0.078125 1.484375q0.140625 0.5625 0.5625 0.875q0.4375 0.3125 1.0625 0.3125q0.640625 0 1.1875 -0.3125q0.5625 -0.328125 0.78125 -0.890625q0.234375 -0.5625 0.234375 -1.625l0 -4.4375l1.40625 0l0 8.296875l-1.25 0zm3.4453125 0l0 -8.296875l1.265625 0l0 1.25q0.484375 -0.875 0.890625 -1.15625q0.40625 -0.28125 0.90625 -0.28125q0.703125 0 1.4375 0.453125l-0.484375 1.296875q-0.515625 -0.296875 -1.03125 -0.296875q-0.453125 0 -0.828125 0.28125q-0.359375 0.265625 -0.515625 0.765625q-0.234375 0.75 -0.234375 1.640625l0 4.34375l-1.40625 0zm10.75 -3.046875l1.390625 0.1875q-0.234375 1.421875 -1.171875 2.234375q-0.921875 0.8125 -2.28125 0.8125q-1.703125 0 -2.75 -1.109375q-1.03125 -1.125 -1.03125 -3.203125q0 -1.34375 0.4375 -2.34375q0.453125 -1.015625 1.359375 -1.515625q0.921875 -0.5 1.984375 -0.5q1.359375 0 2.21875 0.6875q0.859375 0.671875 1.09375 1.9375l-1.359375 0.203125q-0.203125 -0.828125 -0.703125 -1.25q-0.484375 -0.421875 -1.1875 -0.421875q-1.0625 0 -1.734375 0.765625q-0.65625 0.75 -0.65625 2.40625q0 1.671875 0.640625 2.4375q0.640625 0.75 1.671875 0.75q0.828125 0 1.375 -0.5q0.5625 -0.515625 0.703125 -1.578125zm8.265625 0.375l1.453125 0.171875q-0.34375 1.28125 -1.28125 1.984375q-0.921875 0.703125 -2.359375 0.703125q-1.828125 0 -2.890625 -1.125q-1.0625 -1.125 -1.0625 -3.140625q0 -2.09375 1.078125 -3.25q1.078125 -1.15625 2.796875 -1.15625q1.65625 0 2.703125 1.140625q1.0625 1.125 1.0625 3.171875q0 0.125 0 0.375l-6.1875 0q0.078125 1.375 0.765625 2.109375q0.703125 0.71875 1.734375 0.71875q0.78125 0 1.328125 -0.40625q0.546875 -0.40625 0.859375 -1.296875zm-4.609375 -2.28125l4.625 0q-0.09375 -1.046875 -0.53125 -1.5625q-0.671875 -0.8125 -1.734375 -0.8125q-0.96875 0 -1.640625 0.65625q-0.65625 0.640625 -0.71875 1.71875z" fill-rule="nonzero"/><path fill="#a4c2f4" d="m219.48032 83.18898l0 0c0 2.8310013 21.490326 5.125984 48.0 5.125984c26.509674 0 48.0 -2.294983 48.0 -5.125984l0 30.755905c0 2.8310013 -21.490326 5.125984 -48.0 5.125984c-26.509674 0 -48.0 -2.294983 -48.0 -5.125984z" fill-rule="evenodd"/><path fill="#c8daf8" d="m219.48032 83.18898l0 0c0 -2.831009 21.490326 -5.125984 48.0 -5.125984c26.509674 0 48.0 2.2949753 48.0 5.125984l0 0c0 2.8310013 -21.490326 5.125984 -48.0 5.125984c-26.509674 0 -48.0 -2.294983 -48.0 -5.125984z" fill-rule="evenodd"/><path fill="#000000" fill-opacity="0.0" d="m315.48032 83.18898l0 0c0 2.8310013 -21.490326 5.125984 -48.0 5.125984c-26.509674 0 -48.0 -2.294983 -48.0 -5.125984l0 0c0 -2.831009 21.490326 -5.125984 48.0 -5.125984c26.509674 0 48.0 2.2949753 48.0 5.125984l0 30.755905c0 2.8310013 -21.490326 5.125984 -48.0 5.125984c-26.509674 0 -48.0 -2.294983 -48.0 -5.125984l0 -30.755905" fill-rule="evenodd"/><path stroke="#000000" stroke-width="1.0" stroke-linejoin="round" stroke-linecap="butt" d="m315.48032 83.18898l0 0c0 2.8310013 -21.490326 5.125984 -48.0 5.125984c-26.509674 0 -48.0 -2.294983 -48.0 -5.125984l0 0c0 -2.831009 21.490326 -5.125984 48.0 -5.125984c26.509674 0 48.0 2.2949753 48.0 5.125984l0 30.755905c0 2.8310013 -21.490326 5.125984 -48.0 5.125984c-26.509674 0 -48.0 -2.294983 -48.0 -5.125984l0 -30.755905" fill-rule="evenodd"/><path fill="#000000" d="m252.63657 103.30242l1.4375 -0.125q0.09375 0.859375 0.46875 1.421875q0.375 0.546875 1.15625 0.890625q0.78125 0.328125 1.75 0.328125q0.875 0 1.53125 -0.25q0.671875 -0.265625 0.984375 -0.703125q0.328125 -0.453125 0.328125 -0.984375q0 -0.546875 -0.3125 -0.9375q-0.3125 -0.40625 -1.03125 -0.6875q-0.453125 -0.171875 -2.03125 -0.546875q-1.578125 -0.390625 -2.21875 -0.71875q-0.8125 -0.4375 -1.21875 -1.0625q-0.40625 -0.640625 -0.40625 -1.4375q0 -0.859375 0.484375 -1.609375q0.5 -0.765625 1.4375 -1.15625q0.953125 -0.390625 2.109375 -0.390625q1.28125 0 2.25 0.421875q0.96875 0.40625 1.484375 1.203125q0.53125 0.796875 0.578125 1.796875l-1.453125 0.109375q-0.125 -1.078125 -0.796875 -1.625q-0.671875 -0.5625 -2.0 -0.5625q-1.375 0 -2.0 0.5q-0.625 0.5 -0.625 1.21875q0 0.609375 0.4375 1.015625q0.4375 0.390625 2.28125 0.8125q1.859375 0.421875 2.546875 0.734375q1.0 0.453125 1.46875 1.171875q0.484375 0.703125 0.484375 1.625q0 0.90625 -0.53125 1.71875q-0.515625 0.8125 -1.5 1.265625q-0.984375 0.453125 -2.203125 0.453125q-1.5625 0 -2.609375 -0.453125q-1.046875 -0.46875 -1.65625 -1.375q-0.59375 -0.90625 -0.625 -2.0625zm11.015625 -6.15625l0 -1.609375l1.40625 0l0 1.609375l-1.40625 0zm0 9.84375l0 -8.296875l1.40625 0l0 8.296875l-1.40625 0zm3.5546875 0l0 -8.296875l1.265625 0l0 1.171875q0.90625 -1.359375 2.640625 -1.359375q0.75 0 1.375 0.265625q0.625 0.265625 0.9375 0.703125q0.3125 0.4375 0.4375 1.046875q0.078125 0.390625 0.078125 1.359375l0 5.109375l-1.40625 0l0 -5.046875q0 -0.859375 -0.171875 -1.28125q-0.15625 -0.4375 -0.578125 -0.6875q-0.40625 -0.25 -0.96875 -0.25q-0.90625 0 -1.5625 0.578125q-0.640625 0.5625 -0.640625 2.15625l0 4.53125l-1.40625 0zm8.8984375 0l0 -11.453125l1.40625 0l0 6.53125l3.328125 -3.375l1.828125 0l-3.171875 3.078125l3.484375 5.21875l-1.734375 0l-2.734375 -4.25l-1.0 0.953125l0 3.296875l-1.40625 0z" fill-rule="nonzero"/><path fill="#000000" fill-opacity="0.0" d="m110.49606 202.07086c0 31.95372 -28.083878 49.759277 -54.220234 63.90744c-26.136354 14.148163 -50.325188 24.638916 -54.22023 42.203766c-3.895045 17.56485 12.503696 42.203766 25.007395 42.203766" fill-rule="evenodd"/><path stroke="#000000" stroke-width="1.0" stroke-linejoin="round" stroke-linecap="butt" d="m110.49606 202.07086c0 31.95372 -28.083878 49.759277 -54.22023 63.90744c-26.136358 14.148163 -50.32519 24.638916 -54.220234 42.203766c-1.9475225 8.78241 1.1784017 19.333344 6.3541684 27.68869c2.587883 4.1776733 5.6882286 7.806427 8.923083 10.390808c1.6174259 1.2921448 3.2684803 2.3232422 4.905918 3.03125c0.4093628 0.17700195 0.8178711 0.3338318 1.2247887 0.46948242l0.21739578 0.069732666" fill-rule="evenodd"/><path fill="#000000" stroke="#000000" stroke-width="1.0" stroke-linecap="butt" d="m23.68095 349.832l-1.2915363 0.92807007l3.2308903 -0.61047363l-2.867422 -1.6091309z" fill-rule="evenodd"/><path fill="#000000" fill-opacity="0.0" d="m487.0245 350.39108c12.499481 0 37.969635 -37.08972 24.998993 -62.956024c-12.970673 -25.866302 -64.3822 -40.509186 -122.27902 -62.955994c-57.89685 -22.446808 -122.27902 -52.69754 -122.27902 -105.39507" fill-rule="evenodd"/><path stroke="#000000" stroke-width="1.0" stroke-linejoin="round" stroke-linecap="butt" d="m487.02448 350.39108c12.499512 0 37.969727 -37.08972 24.999023 -62.956024c-12.970673 -25.866272 -64.38217 -40.509186 -122.27902 -62.955994c-28.948425 -11.223404 -59.51819 -24.397781 -82.85083 -41.353516c-11.666321 -8.477875 -21.523376 -17.901062 -28.463837 -28.498383c-3.4702454 -5.2986755 -6.211334 -10.890869 -8.084839 -16.805191c-0.9367981 -2.9571686 -1.6566772 -5.994873 -2.142334 -9.116669c-0.24285889 -1.5609055 -0.42715454 -3.1428375 -0.5507202 -4.7462387c-0.030914307 -0.40085602 -0.058013916 -0.8030472 -0.08126831 -1.2065887l-0.012817383 -0.24264526" fill-rule="evenodd"/><path fill="#000000" stroke="#000000" stroke-width="1.0" stroke-linecap="butt" d="m267.5578 122.509834l1.1545105 1.0938644l-1.2074585 -3.0583344l-1.0408936 3.11895z" fill-rule="evenodd"/><path fill="#fff2cc" d="m182.48032 184.18898l0 0c0 2.8309937 21.490326 5.1259766 48.0 5.1259766c26.509674 0 48.0 -2.294983 48.0 -5.1259766l0 30.755905c0 2.8309937 -21.490326 5.1259766 -48.0 5.1259766c-26.509674 0 -48.0 -2.294983 -48.0 -5.1259766z" fill-rule="evenodd"/><path fill="#fff7e0" d="m182.48032 184.18898l0 0c0 -2.831009 21.490326 -5.125992 48.0 -5.125992c26.509674 0 48.0 2.294983 48.0 5.125992l0 0c0 2.8309937 -21.490326 5.1259766 -48.0 5.1259766c-26.509674 0 -48.0 -2.294983 -48.0 -5.1259766z" fill-rule="evenodd"/><path fill="#000000" fill-opacity="0.0" d="m278.48032 184.18898l0 0c0 2.8309937 -21.490326 5.1259766 -48.0 5.1259766c-26.509674 0 -48.0 -2.294983 -48.0 -5.1259766l0 0c0 -2.831009 21.490326 -5.125992 48.0 -5.125992c26.509674 0 48.0 2.294983 48.0 5.125992l0 30.755905c0 2.8309937 -21.490326 5.1259766 -48.0 5.1259766c-26.509674 0 -48.0 -2.294983 -48.0 -5.1259766l0 -30.755905" fill-rule="evenodd"/><path stroke="#000000" stroke-width="1.0" stroke-linejoin="round" stroke-linecap="butt" d="m278.48032 184.18898l0 0c0 2.8309937 -21.490326 5.1259766 -48.0 5.1259766c-26.509674 0 -48.0 -2.294983 -48.0 -5.1259766l0 0c0 -2.831009 21.490326 -5.125992 48.0 -5.125992c26.509674 0 48.0 2.294983 48.0 5.125992l0 30.755905c0 2.8309937 -21.490326 5.1259766 -48.0 5.1259766c-26.509674 0 -48.0 -2.294983 -48.0 -5.1259766l0 -30.755905" fill-rule="evenodd"/><path fill="#000000" d="m207.25375 202.4118q0 -2.859375 1.53125 -4.46875q1.53125 -1.609375 3.953125 -1.609375q1.578125 0 2.84375 0.765625q1.28125 0.75 1.953125 2.109375q0.671875 1.34375 0.671875 3.0625q0 1.75 -0.703125 3.125q-0.703125 1.375 -2.0 2.09375q-1.28125 0.703125 -2.78125 0.703125q-1.609375 0 -2.890625 -0.78125q-1.265625 -0.796875 -1.921875 -2.140625q-0.65625 -1.359375 -0.65625 -2.859375zm1.5625 0.015625q0 2.078125 1.109375 3.265625q1.109375 1.1875 2.796875 1.1875q1.703125 0 2.8125 -1.203125q1.109375 -1.203125 1.109375 -3.40625q0 -1.40625 -0.484375 -2.4375q-0.46875 -1.046875 -1.375 -1.625q-0.90625 -0.578125 -2.046875 -0.578125q-1.609375 0 -2.765625 1.109375q-1.15625 1.109375 -1.15625 3.6875zm14.2265625 4.296875l0.203125 1.25q-0.59375 0.125 -1.0625 0.125q-0.765625 0 -1.1875 -0.234375q-0.421875 -0.25 -0.59375 -0.640625q-0.171875 -0.40625 -0.171875 -1.671875l0 -4.765625l-1.03125 0l0 -1.09375l1.03125 0l0 -2.0625l1.40625 -0.84375l0 2.90625l1.40625 0l0 1.09375l-1.40625 0l0 4.84375q0 0.609375 0.0625 0.78125q0.078125 0.171875 0.25 0.28125q0.171875 0.09375 0.484375 0.09375q0.234375 0 0.609375 -0.0625zm1.3828125 1.265625l0 -11.453125l1.40625 0l0 4.109375q0.984375 -1.140625 2.484375 -1.140625q0.921875 0 1.59375 0.359375q0.6875 0.359375 0.96875 1.0q0.296875 0.640625 0.296875 1.859375l0 5.265625l-1.40625 0l0 -5.265625q0 -1.046875 -0.453125 -1.53125q-0.453125 -0.484375 -1.296875 -0.484375q-0.625 0 -1.171875 0.328125q-0.546875 0.328125 -0.78125 0.890625q-0.234375 0.546875 -0.234375 1.515625l0 4.546875l-1.40625 0zm14.5703125 -2.671875l1.453125 0.171875q-0.34375 1.28125 -1.28125 1.984375q-0.921875 0.703125 -2.359375 0.703125q-1.828125 0 -2.890625 -1.125q-1.0625 -1.125 -1.0625 -3.140625q0 -2.09375 1.078125 -3.25q1.078125 -1.15625 2.796875 -1.15625q1.65625 0 2.703125 1.140625q1.0625 1.125 1.0625 3.171875q0 0.125 0 0.375l-6.1875 0q0.078125 1.375 0.765625 2.109375q0.703125 0.71875 1.734375 0.71875q0.78125 0 1.328125 -0.40625q0.546875 -0.40625 0.859375 -1.296875zm-4.609375 -2.28125l4.625 0q-0.09375 -1.046875 -0.53125 -1.5625q-0.671875 -0.8125 -1.734375 -0.8125q-0.96875 0 -1.640625 0.65625q-0.65625 0.640625 -0.71875 1.71875zm7.8203125 4.953125l0 -8.296875l1.265625 0l0 1.25q0.484375 -0.875 0.890625 -1.15625q0.40625 -0.28125 0.90625 -0.28125q0.703125 0 1.4375 0.453125l-0.484375 1.296875q-0.515625 -0.296875 -1.03125 -0.296875q-0.453125 0 -0.828125 0.28125q-0.359375 0.265625 -0.515625 0.765625q-0.234375 0.75 -0.234375 1.640625l0 4.34375l-1.40625 0zm4.78125 -2.484375l1.390625 -0.21875q0.109375 0.84375 0.640625 1.296875q0.546875 0.4375 1.5 0.4375q0.96875 0 1.4375 -0.390625q0.46875 -0.40625 0.46875 -0.9375q0 -0.46875 -0.40625 -0.75q-0.296875 -0.1875 -1.4375 -0.46875q-1.546875 -0.390625 -2.15625 -0.671875q-0.59375 -0.296875 -0.90625 -0.796875q-0.296875 -0.5 -0.296875 -1.109375q0 -0.5625 0.25 -1.03125q0.25 -0.46875 0.6875 -0.78125q0.328125 -0.25 0.890625 -0.40625q0.578125 -0.171875 1.21875 -0.171875q0.984375 0 1.71875 0.28125q0.734375 0.28125 1.078125 0.765625q0.359375 0.46875 0.5 1.28125l-1.375 0.1875q-0.09375 -0.640625 -0.546875 -1.0q-0.453125 -0.359375 -1.265625 -0.359375q-0.96875 0 -1.390625 0.328125q-0.40625 0.3125 -0.40625 0.734375q0 0.28125 0.171875 0.5q0.171875 0.21875 0.53125 0.375q0.21875 0.078125 1.25 0.359375q1.484375 0.390625 2.078125 0.65625q0.59375 0.25 0.921875 0.734375q0.34375 0.484375 0.34375 1.203125q0 0.703125 -0.421875 1.328125q-0.40625 0.609375 -1.1875 0.953125q-0.765625 0.34375 -1.734375 0.34375q-1.625 0 -2.46875 -0.671875q-0.84375 -0.671875 -1.078125 -2.0z" fill-rule="nonzero"/></g></svg>
