<svg version="1.1" viewBox="0.0 0.0 800.0 200.0" fill="none" stroke="none" stroke-linecap="square" stroke-miterlimit="10" xmlns:xlink="http://www.w3.org/1999/xlink" xmlns="http://www.w3.org/2000/svg"><clipPath id="p.0"><path d="m0 0l800.0 0l0 600.0l-800.0 0l0 -600.0z" clip-rule="nonzero"/></clipPath><g clip-path="url(#p.0)"><path fill="#000000" fill-opacity="0.0" d="m0 0l800.0 0l0 600.0l-800.0 0z" fill-rule="evenodd"/><path fill="#000000" fill-opacity="0.0" d="m393.86987 62.98289c-6.887329 1.2931557 -28.398651 4.25581 -41.323944 7.7589226c-12.925293 3.5031204 -26.791046 8.7677 -36.227844 13.259781c-9.436768 4.4920883 -15.276428 9.434082 -20.392914 13.6927185c-5.116516 4.2586365 -7.647949 8.391357 -10.306061 11.8591c-2.658142 3.4677505 -4.7022705 7.456154 -5.6427307 8.94738" fill-rule="evenodd"/><path stroke="#000000" stroke-width="0.4" stroke-linejoin="round" stroke-linecap="butt" stroke-dasharray="4.0,3.0" d="m393.86987 62.982887c-6.8872986 1.2931595 -28.39862 4.255806 -41.323944 7.7589264c-12.925262 3.5031204 -26.791016 8.7677 -36.227844 13.259781c-9.436798 4.4920883 -15.276428 9.434082 -20.392914 13.692726c-5.116516 4.258629 -7.647949 8.39135 -10.306091 11.859093c-1.3290405 1.7338791 -2.5046082 3.5979156 -3.4654846 5.2148895c-0.12008667 0.20211792 -0.23684692 0.400383 -0.35012817 0.59404755l-0.102752686 0.17676544" fill-rule="evenodd"/><path fill="#000000" stroke="#000000" stroke-width="0.4" stroke-linecap="butt" d="m281.7007 115.539116l-0.40603638 -1.5377045l-0.58273315 3.2360153l2.5264587 -2.1043472z" fill-rule="evenodd"/><path fill="#000000" fill-opacity="0.0" d="m247.55905 40.06501l167.90552 -11.748034l1.7637634 25.417322l-167.9055 11.748032z" fill-rule="evenodd"/><path fill="#000000" d="m307.78632 51.307938l-0.39697266 -5.720619l4.1305237 -0.28900528l0.047607422 0.68585205l-3.3823547 0.23665619l0.121154785 1.7458l3.1641235 -0.22138596l0.04650879 0.6702614l-3.1641235 0.22138977l0.13519287 1.9484406l3.5070496 -0.24538422l0.04650879 0.6702652l-4.2552185 0.2977295zm7.8746643 -1.0678596q-0.36697388 0.3546028 -0.71572876 0.51997375q-0.34875488 0.16537094 -0.7695923 0.19481659q-0.67025757 0.046894073 -1.0670471 -0.25426865q-0.3822937 -0.31784058 -0.41799927 -0.8322296q-0.021636963 -0.31175232 0.085754395 -0.5698776q0.12298584 -0.2592125 0.33145142 -0.41476822q0.22299194 -0.1722374 0.49816895 -0.2698021q0.19830322 -0.07653046 0.61590576 -0.15273666q0.8497009 -0.1690979 1.2296448 -0.33664703q0.0058288574 -0.14138031 0.0036621094 -0.17255402q-0.030273438 -0.43645096 -0.24481201 -0.59373474q-0.28118896 -0.21527481 -0.8111572 -0.17819595q-0.4987793 0.034900665 -0.7206726 0.2227211q-0.22189331 0.18782043 -0.3163147 0.6329956l-0.6923218 -0.04553604q0.06323242 -0.44299698 0.26306152 -0.72325134q0.19876099 -0.29584503 0.5942688 -0.46448517q0.3944397 -0.1842308 0.92440796 -0.22131348q0.52996826 -0.037078857 0.8659363 0.064720154q0.3515625 0.10070801 0.5214844 0.2924385q0.16885376 0.17614365 0.2506714 0.45235825q0.044158936 0.18486786 0.07659912 0.6524925l0.06491089 0.93525314q0.06704712 0.96642685 0.13220215 1.2281418q0.06515503 0.26171494 0.2060852 0.48680496l-0.732605 0.051258087q-0.12423706 -0.21059418 -0.17596436 -0.5045738zm-0.17050171 -1.55439q-0.36328125 0.1820488 -1.1194763 0.34460068q-0.4320984 0.09288788 -0.613739 0.18391037q-0.16604614 0.0899353 -0.24874878 0.25235367q-0.08377075 0.14683151 -0.07080078 0.33388138q0.019470215 0.2805748 0.2350769 0.45344543q0.23120117 0.17178345 0.6364441 0.1434288q0.40527344 -0.028354645 0.70510864 -0.2216301q0.31433105 -0.20995331 0.4329834 -0.531517q0.09289551 -0.24144745 0.060455322 -0.7090721l-0.017303467 -0.24940109zm1.9324341 1.9479942l-0.28771973 -4.1462784l0.6390686 -0.04471588l0.04434204 0.6390877q0.20245361 -0.46839523 0.3953247 -0.62285995q0.2084961 -0.15555573 0.44229126 -0.17191315q0.35849 -0.02508545 0.7488098 0.18255234l-0.20394897 0.67212677q-0.2602234 -0.13842773 -0.525177 -0.119888306q-0.23382568 0.016361237 -0.4111328 0.16973495q-0.16171265 0.15228271 -0.22341919 0.39155197q-0.098724365 0.38282394 -0.06738281 0.83486176l0.1503601 2.1666641l-0.701416 0.04907608zm4.1574097 -0.9174118l0.15130615 0.60027695q-0.29074097 0.098659515 -0.52456665 0.11501694q-0.38967896 0.027267456 -0.61654663 -0.082164764q-0.2112732 -0.110523224 -0.31777954 -0.29103088q-0.09197998 -0.19718552 -0.13632202 -0.8362732l-0.16549683 -2.3848877l-0.5143738 0.035987854l-0.037872314 -0.54556274l0.5143738 -0.03599167l-0.0703125 -1.0131874l0.6722107 -0.4699402l0.09951782 1.4340515l0.701416 -0.04907608l0.037841797 0.54556274l-0.701416 0.049079895l0.1687622 2.431652q0.02053833 0.29616165 0.05819702 0.38750458q0.05218506 0.07466507 0.13336182 0.11597824q0.08117676 0.041309357 0.23703003 0.030403137q0.124694824 -0.008724213 0.31066895 -0.037399292zm0.7330017 0.5752411l-0.39697266 -5.720619l0.7013855 -0.04907608l0.14279175 2.0575523q0.44317627 -0.6105461 1.1913452 -0.6628952q0.46762085 -0.032714844 0.80792236 0.13143158q0.35586548 0.16305542 0.5188904 0.48057938q0.17749023 0.3008461 0.21966553 0.90875626l0.18173218 2.6187057l-0.701416 0.04907608l-0.18173218 -2.618702q-0.03677368 -0.5299759 -0.2868042 -0.7474327q-0.23550415 -0.23413086 -0.65634155 -0.20468521q-0.31176758 0.021812439 -0.5804138 0.21290588q-0.2541504 0.17441559 -0.35940552 0.4637146q-0.09069824 0.27262115 -0.05609131 0.77142334l0.15682983 2.260189l-0.7013855 0.04907608zm4.047638 -5.264103l-0.056274414 -0.8105507l0.74819946 -0.05234909l0.04434204 0.6390877q0.03567505 0.51438904 -0.05718994 0.7558365q-0.14984131 0.32374573 -0.49642944 0.5202942l-0.19091797 -0.2685814q0.21173096 -0.10879135 0.29333496 -0.28679657q0.09613037 -0.19468689 0.089019775 -0.52311325l-0.37408447 0.026172638zm1.6535339 3.6278076l0.6782532 -0.15709686q0.0904541 0.40091324 0.37167358 0.61618805q0.28012085 0.19968414 0.76330566 0.16587448q0.4831848 -0.033805847 0.70401 -0.23721695q0.21975708 -0.21899414 0.20135498 -0.4839821q-0.017303467 -0.24940109 -0.22857666 -0.35992432q-0.14678955 -0.08370972 -0.73431396 -0.19923401q-0.7923279 -0.13251877 -1.0982056 -0.25208664q-0.3058777 -0.11956787 -0.47906494 -0.35806274q-0.17425537 -0.25408173 -0.1947937 -0.5502434q-0.019470215 -0.2805748 0.08898926 -0.52311325q0.124053955 -0.24362564 0.33145142 -0.41477203q0.1472168 -0.13560486 0.42236328 -0.23317337q0.27407837 -0.113155365 0.6014099 -0.1360588q0.4831848 -0.033805847 0.8670044 0.08030701q0.38381958 0.114112854 0.5726013 0.35151672q0.1876831 0.22181702 0.2781372 0.62273026l-0.6793213 0.14151001q-0.069488525 -0.32406616 -0.29959106 -0.48025894q-0.23120117 -0.17178345 -0.6520386 -0.1423378q-0.4831848 0.033809662 -0.6739197 0.21944809q-0.1918335 0.17005539 -0.17666626 0.38827896q0.008636475 0.12469864 0.09414673 0.22835922q0.10217285 0.11815643 0.29354858 0.16741943q0.09677124 0.040218353 0.6208496 0.1445198q0.76223755 0.15028763 1.0670471 0.25426865q0.30480957 0.1039772 0.47799683 0.34247208q0.18765259 0.22181702 0.21255493 0.5803299q0.023773193 0.34292603 -0.15719604 0.66885376q-0.18099976 0.32592773 -0.55877686 0.5246544q-0.36218262 0.19763565 -0.8609619 0.23253632q-0.7949524 0.055618286 -1.2540894 -0.24118423q-0.4446411 -0.31347656 -0.5991821 -0.9605217zm6.5734863 0.7774582l-0.28771973 -4.1462784l0.6234741 -0.043624878l0.041107178 0.5923271q0.18099976 -0.32592773 0.47976685 -0.53479004q0.31433105 -0.20995331 0.73516846 -0.23939896q0.45202637 -0.031627655 0.76223755 0.15029144q0.30914307 0.16632843 0.4576416 0.50053024q0.43234253 -0.7664223 1.2272644 -0.8220444q0.60791016 -0.04253006 0.9590149 0.27749252q0.36669922 0.31893158 0.4164734 1.0359573l0.1968689 2.8369293l-0.701416 0.04907608l-0.18063354 -2.603115q-0.029205322 -0.4208641 -0.12011719 -0.60246277q-0.0753479 -0.18268585 -0.2699585 -0.27871323q-0.18011475 -0.112701416 -0.4139099 -0.096343994q-0.43643188 0.030536652 -0.71203613 0.34741974q-0.26000977 0.3157959 -0.21566772 0.9548836l0.16659546 2.4004784l-0.701416 0.04907608l-0.18713379 -2.6966438q-0.032440186 -0.46762466 -0.22012329 -0.6894417q-0.1876831 -0.2218132 -0.57736206 -0.19454956q-0.29614258 0.020721436 -0.55029297 0.19513702q-0.23858643 0.17332458 -0.3260498 0.4927063q-0.08856201 0.30379868 -0.049621582 0.8649483l0.14926147 2.1510773l-0.701416 0.04907608zm6.238983 -2.5197334q-0.08004761 -1.1534767 0.5211487 -1.7437515q0.49749756 -0.50470734 1.2768555 -0.55923843q0.8417053 -0.058891296 1.426178 0.46409225q0.58447266 0.52297974 0.6526184 1.5049934q0.056243896 0.8105507 -0.16177368 1.2800369q-0.2024231 0.46839523 -0.65164185 0.76610184q-0.4347229 0.28102875 -0.96469116 0.3181076q-0.87286377 0.061073303 -1.4573364 -0.46190643q-0.5688782 -0.52407074 -0.6413574 -1.5684357zm0.71698 -0.050167084q0.05517578 0.79496384 0.4262085 1.1762466q0.38552856 0.36460495 0.9154968 0.32752228q0.5143738 -0.035987854 0.8302307 -0.44966888q0.3303833 -0.4303589 0.2741394 -1.2409096q-0.05407715 -0.779377 -0.43963623 -1.1439819q-0.36993408 -0.36569214 -0.88430786 -0.32970428q-0.52996826 0.037078857 -0.8614197 0.4518509q-0.31585693 0.41368103 -0.26071167 1.2086449zm5.6144714 1.0638466l0.15130615 0.60027695q-0.29077148 0.098659515 -0.52456665 0.11501694q-0.38967896 0.027263641 -0.61654663 -0.082164764q-0.2112732 -0.110523224 -0.31777954 -0.29103088q-0.09197998 -0.19718552 -0.13635254 -0.8362732l-0.16546631 -2.3848915l-0.5143738 0.03599167l-0.037872314 -0.54556274l0.5143738 -0.03599167l-0.0703125 -1.0131874l0.6722107 -0.4699402l0.09951782 1.4340515l0.701416 -0.04907608l0.037841797 0.54556274l-0.701416 0.04907608l0.1687622 2.431652q0.02053833 0.29616547 0.05819702 0.3875084q0.05218506 0.07466507 0.13336182 0.115974426q0.08117676 0.041309357 0.23703003 0.030403137q0.124694824 -0.008724213 0.31066895 -0.037395477zm0.39227295 -4.3348274l-0.056243896 -0.8105507l0.7013855 -0.04907608l0.056243896 0.8105507l-0.7013855 0.04907608zm0.34069824 4.9100685l-0.28771973 -4.146282l0.701416 -0.04907608l0.28771973 4.146282l-0.701416 0.04907608zm1.3641968 -2.1786537q-0.08004761 -1.1534767 0.5211487 -1.7437553q0.49749756 -0.5047035 1.2768555 -0.5592346q0.8416748 -0.058891296 1.426178 0.46408844q0.58447266 0.52297974 0.6526184 1.5049934q0.056243896 0.8105507 -0.16177368 1.2800407q-0.20245361 0.46839523 -0.65167236 0.76610184q-0.43469238 0.28102493 -0.96466064 0.3181076q-0.87286377 0.061073303 -1.4573364 -0.46191025q-0.5689087 -0.52407074 -0.6413574 -1.5684319zm0.71698 -0.050167084q0.05517578 0.79496384 0.4262085 1.1762466q0.38552856 0.36460495 0.9154968 0.32752228q0.5143738 -0.035987854 0.8302307 -0.44966888q0.3303833 -0.4303589 0.2741394 -1.2409096q-0.054107666 -0.779377 -0.43963623 -1.1439819q-0.3699646 -0.36569595 -0.88430786 -0.32970428q-0.52996826 0.037078857 -0.8614197 0.4518509q-0.31585693 0.41368103 -0.26071167 1.2086449zm4.1302185 1.79422l-0.28771973 -4.1462784l0.6234741 -0.043621063l0.041107178 0.5923233q0.42001343 -0.7185669 1.2772827 -0.7785492q0.37408447 -0.026176453 0.69555664 0.092300415q0.32147217 0.11847687 0.49249268 0.32579422q0.17102051 0.20732117 0.25390625 0.49912262q0.059753418 0.18377686 0.09436035 0.68257904l0.17630005 2.5407639l-0.701416 0.04907608l-0.17523193 -2.525177q-0.029205322 -0.4208641 -0.13677979 -0.6169586q-0.09307861 -0.21277237 -0.3199463 -0.3222046q-0.21237183 -0.12611008 -0.49291992 -0.106479645q-0.43643188 0.030536652 -0.7432251 0.34960175q-0.3078308 0.30347824 -0.25268555 1.0984421l0.15686035 2.260189l-0.701416 0.04907608z" fill-rule="nonzero"/><path fill="#000000" fill-opacity="0.0" d="m272.76862 61.11694c40.21338 -6.207512 80.71185 -9.466122 121.26422 -9.757229l5.9665833 1167.3486z" fill-rule="evenodd"/><path fill="#000000" fill-opacity="0.0" d="m272.76862 61.11694c40.21338 -6.207512 80.71185 -9.466122 121.26422 -9.757229" fill-rule="evenodd"/><path stroke="#000000" stroke-width="0.4" stroke-linejoin="round" stroke-linecap="butt" d="m275.21335 60.74371l1.3261108 -0.20008469c1.2572021 -0.18822098 2.5147095 -0.37356567 3.772461 -0.5560303c2.515503 -0.36492538 5.032074 -0.7183304 7.5496216 -1.0602036c5.0351562 -0.68375397 10.07428 -1.3213882 15.116974 -1.9128723c10.085358 -1.1829796 20.184937 -2.1813545 30.295105 -2.9948425c20.220306 -1.6269836 40.483032 -2.5144157 60.759186 -2.6599693" fill-rule="evenodd"/><path fill="#000000" stroke="#000000" stroke-width="0.4" stroke-linecap="butt" d="m275.21335 60.74371l0.48464966 -0.65932846l-1.4842224 0.8119278l1.6588745 0.3320732z" fill-rule="evenodd"/><path fill="#000000" fill-opacity="0.0" d="m394.21652 115.90551l-0.34643555 -115.90551" fill-rule="evenodd"/><path stroke="#b7b7b7" stroke-width="0.4" stroke-linejoin="round" stroke-linecap="butt" stroke-dasharray="4.0,3.0,1.0,3.0" d="m394.21652 115.90551l-0.34643555 -115.90551" fill-rule="evenodd"/><path fill="#000000" fill-opacity="0.0" d="m279.97507 123.35433l-14.047241 -116.15748" fill-rule="evenodd"/><path stroke="#b7b7b7" stroke-width="0.4" stroke-linejoin="round" stroke-linecap="butt" stroke-dasharray="4.0,3.0,1.0,3.0" d="m279.97507 123.35433l-14.047241 -116.15748" fill-rule="evenodd"/><path fill="#6aa84f" d="m-117.839195 276.21365l0 0c324.05206 -215.44965 719.70593 -213.73347 1042.4186 4.521515l-524.5807 1089.3435z" fill-rule="evenodd"/><path fill="#000000" fill-opacity="0.0" d="m-117.839195 276.21365l0 0c324.05206 -215.44965 719.70593 -213.73347 1042.4186 4.521515" fill-rule="evenodd"/><path fill="#ff0000" d="m389.65112 63.865673l0 0c0.02368164 -2.419754 2.004486 -4.362152 4.424225 -4.338463l0 0c1.1620178 0.011375427 2.2719116 0.48389053 3.0855408 1.3135948c0.81362915 0.8297081 1.2643127 1.9486427 1.2529297 3.110649l0 0c-0.02368164 2.419754 -2.004486 4.362152 -4.424225 4.338463l0 0c-2.4197693 -0.02368927 -4.362152 -2.004486 -4.3384705 -4.424244z" fill-rule="evenodd"/><path fill="#ff0000" d="m389.3271 63.065624l0 0c0.021728516 -2.2187805 1.2874451 -4.0052414 2.8270874 -3.9901695l0 0c0.73934937 0.0072364807 1.4442749 0.4374466 1.9597168 1.1959839c0.5154419 0.7585373 0.7991333 1.7832718 0.7886963 2.8487663l0 0c-0.021697998 2.2187843 -1.2874451 4.005245 -2.827057 3.9901695l0 0c-1.5396423 -0.015068054 -2.770172 -1.8259659 -2.7484436 -4.04475z" fill-rule="evenodd"/><path fill="#ff0000" d="m393.17795 63.10332l0 0c0.021697998 -2.2187805 1.2874451 -4.0052414 2.8270874 -3.9901695l0 0c0.73934937 0.0072364807 1.4442749 0.4374466 1.9597168 1.1959839c0.5154114 0.7585373 0.7991333 1.783268 0.7886963 2.8487663l0 0c-0.021728516 2.2187843 -1.2874451 4.005245 -2.8270874 3.9901695l0 0c-1.5396423 -0.015068054 -2.7701416 -1.8259659 -2.748413 -4.04475z" fill-rule="evenodd"/><path fill="#000000" fill-opacity="0.0" d="m394.02228 60.270542c-3.0517578E-4 -1.2896271 -0.3937378 -2.1616554 -0.78704834 -2.5785866c-0.39331055 -0.41692734 -0.786499 -0.37875748 -0.7865906 -0.7581825" fill-rule="evenodd"/><path stroke="#783f04" stroke-width="2.0" stroke-linejoin="round" stroke-linecap="butt" d="m394.02228 60.270542c-3.0517578E-4 -1.2896271 -0.3937378 -2.1616554 -0.78704834 -2.5785866c-0.39331055 -0.41692734 -0.786499 -0.37875748 -0.7865906 -0.7581825" fill-rule="evenodd"/><path fill="#ff0000" d="m275.27777 119.74778l0 0c-0.18585205 -2.412468 1.6191711 -4.5188217 4.0316467 -4.704674l0 0c1.1585083 -0.08924866 2.3050232 0.28536987 3.187317 1.0414429c0.8822937 0.7560806 1.4281006 1.8316879 1.5173645 2.9901962l0 0c0.18585205 2.4124603 -1.6191711 4.5188217 -4.0316467 4.704674l0 0c-2.412445 0.18585205 -4.518799 -1.6191711 -4.7046814 -4.031639z" fill-rule="evenodd"/><path fill="#ff0000" d="m274.88577 118.97887l0 0c-0.17044067 -2.2120972 0.9357605 -4.101227 2.4707642 -4.2194824l0 0c0.7371521 -0.056785583 1.476593 0.31074524 2.0556946 1.0217438c0.57910156 0.7109909 0.95040894 1.7072144 1.0322266 2.7695007l0 0c0.17044067 2.2120972 -0.935791 4.101227 -2.4707642 4.2194824l0 0c-1.5350037 0.118255615 -2.917511 -1.5791397 -3.0879211 -3.7912445z" fill-rule="evenodd"/><path fill="#ff0000" d="m278.725 118.6831l0 0c-0.17041016 -2.2121048 0.935791 -4.101227 2.4707947 -4.2194824l0 0c0.7371216 -0.056785583 1.476593 0.3107376 2.055664 1.0217361c0.57910156 0.71099854 0.95040894 1.7072144 1.0322571 2.7695007l0 0c0.17041016 2.2121048 -0.935791 4.101227 -2.4707947 4.2194824l0 0c-1.5349731 0.118255615 -2.917511 -1.5791397 -3.0879211 -3.7912369z" fill-rule="evenodd"/><path fill="#000000" fill-opacity="0.0" d="m279.32086 115.78816c-5.79834E-4 -1.1678467 -0.46557617 -1.938118 -0.93032837 -2.335434c-0.4647827 -0.39730835 -0.9293518 -0.42165375 -0.9295654 -0.84358215" fill-rule="evenodd"/><path stroke="#783f04" stroke-width="2.0" stroke-linejoin="round" stroke-linecap="butt" d="m279.32086 115.78816c-5.79834E-4 -1.1678467 -0.46557617 -1.938118 -0.93032837 -2.335434c-0.4647827 -0.39730835 -0.9293518 -0.42165375 -0.9295654 -0.84358215" fill-rule="evenodd"/><path fill="#f1c232" d="m388.91077 148.13387l0 0c0 -2.8353577 2.2984924 -5.1338654 5.13385 -5.1338654l0 0c1.3615723 0 2.667389 0.54089355 3.630188 1.5036774c0.9627991 0.9627838 1.5036621 2.2686005 1.5036621 3.630188l0 0c0 2.8353424 -2.2984924 5.13385 -5.13385 5.13385l0 0c-2.8353577 0 -5.13385 -2.2985077 -5.13385 -5.13385zm4.5926514 0c0 0.29888916 0.24230957 0.54119873 0.54119873 0.54119873c0.29891968 0 0.54122925 -0.24230957 0.54122925 -0.54119873c0 -0.29890442 -0.24230957 -0.541214 -0.54122925 -0.541214c-0.29888916 0 -0.54119873 0.24230957 -0.54119873 0.541214z" fill-rule="evenodd"/><path stroke="#000000" stroke-width="0.4" stroke-linejoin="round" stroke-linecap="butt" d="m388.91077 148.13387l0 0c0 -2.8353577 2.2984924 -5.1338654 5.13385 -5.1338654l0 0c1.3615723 0 2.667389 0.54089355 3.630188 1.5036774c0.9627991 0.9627838 1.5036621 2.2686005 1.5036621 3.630188l0 0c0 2.8353424 -2.2984924 5.13385 -5.13385 5.13385l0 0c-2.8353577 0 -5.13385 -2.2985077 -5.13385 -5.13385zm4.5926514 0c0 0.29888916 0.24230957 0.54119873 0.54119873 0.54119873c0.29891968 0 0.54122925 -0.24230957 0.54122925 -0.54119873c0 -0.29890442 -0.24230957 -0.541214 -0.54122925 -0.541214c-0.29888916 0 -0.54119873 0.24230957 -0.54119873 0.541214z" fill-rule="evenodd"/><path fill="#000000" fill-opacity="0.0" d="m388.91077 148.13387l-26.11023 0" fill-rule="evenodd"/><path stroke="#000000" stroke-width="0.4" stroke-linejoin="round" stroke-linecap="butt" d="m388.91077 148.13387l-20.11023 0" fill-rule="evenodd"/><path fill="#000000" stroke="#000000" stroke-width="0.4" stroke-linecap="butt" d="m368.80054 146.48213l-4.5381165 1.6517334l4.5381165 1.6517181z" fill-rule="evenodd"/><path fill="#000000" fill-opacity="0.0" d="m399.17847 148.13387l26.11026 0" fill-rule="evenodd"/><path stroke="#000000" stroke-width="0.4" stroke-linejoin="round" stroke-linecap="butt" d="m399.17847 148.13387l20.11026 0" fill-rule="evenodd"/><path fill="#000000" stroke="#000000" stroke-width="0.4" stroke-linecap="butt" d="m419.28873 149.78558l4.538086 -1.6517181l-4.538086 -1.6517334z" fill-rule="evenodd"/><path fill="#000000" fill-opacity="0.0" d="m381.3596 127.66535l19.370056 0l0 18.173225l-19.370056 0z" fill-rule="evenodd"/><path fill="#000000" d="m390.96896 139.43196l0 -5.734375l0.78125 0l3.0 4.5l0 -4.5l0.734375 0l0 5.734375l-0.78125 0l-3.0 -4.5l0 4.5l-0.734375 0z" fill-rule="nonzero"/><path fill="#000000" fill-opacity="0.0" d="m342.55643 139.04593l19.370087 0l0 18.173233l-19.370087 0z" fill-rule="evenodd"/><path fill="#000000" d="m352.19705 150.81255l0 -5.734375l4.140625 0l0 0.6875l-3.390625 0l0 1.75l3.171875 0l0 0.671875l-3.171875 0l0 1.953125l3.515625 0l0 0.671875l-4.265625 0z" fill-rule="nonzero"/><path fill="#000000" fill-opacity="0.0" d="m420.16272 139.04593l19.370087 0l0 18.173233l-19.370087 0z" fill-rule="evenodd"/><path fill="#000000" d="m430.78772 150.81255l-1.53125 -5.734375l0.78125 0l0.875 3.765625q0.140625 0.578125 0.234375 1.171875q0.21875 -0.921875 0.265625 -1.0625l1.09375 -3.875l0.90625 0l0.828125 2.90625q0.296875 1.078125 0.4375 2.03125q0.109375 -0.546875 0.28125 -1.25l0.90625 -3.6875l0.765625 0l-1.578125 5.734375l-0.734375 0l-1.203125 -4.359375q-0.15625 -0.546875 -0.171875 -0.671875q-0.09375 0.390625 -0.171875 0.671875l-1.21875 4.359375l-0.765625 0z" fill-rule="nonzero"/><path fill="#ff0000" d="m359.65112 68.46016l0 0c0.02368164 -2.419754 2.004486 -4.362152 4.424225 -4.338463l0 0c1.1620178 0.011375427 2.2719116 0.48389435 3.0855408 1.3135986c0.81362915 0.8297043 1.2643127 1.9486389 1.2529297 3.110649l0 0c-0.02368164 2.419754 -2.004486 4.362152 -4.424225 4.338463l0 0c-2.4197693 -0.02368927 -4.362152 -2.004486 -4.3384705 -4.4242477z" fill-rule="evenodd"/><path fill="#ff0000" d="m359.3271 67.66011l0 0c0.021728516 -2.2187805 1.2874451 -4.0052414 2.8270874 -3.9901695l0 0c0.73934937 0.0072402954 1.4442749 0.4374504 1.9597168 1.1959877c0.5154419 0.7585373 0.7991333 1.7832718 0.7886963 2.8487625l0 0c-0.021697998 2.2187881 -1.2874451 4.005249 -2.827057 3.9901733l0 0c-1.5396423 -0.015068054 -2.770172 -1.8259659 -2.7484436 -4.044754z" fill-rule="evenodd"/><path fill="#ff0000" d="m363.17795 67.69781l0 0c0.021697998 -2.2187805 1.2874451 -4.0052414 2.8270874 -3.9901695l0 0c0.73934937 0.0072402954 1.4442749 0.4374504 1.9597168 1.1959877c0.5154114 0.7585373 0.7991333 1.7832642 0.7886963 2.8487625l0 0c-0.021728516 2.2187881 -1.2874451 4.005249 -2.8270874 3.9901733l0 0c-1.5396423 -0.015068054 -2.7701416 -1.8259659 -2.748413 -4.044754z" fill-rule="evenodd"/><path fill="#000000" fill-opacity="0.0" d="m364.02228 64.86503c-3.0517578E-4 -1.2976189 -0.3937378 -2.1776428 -0.78704834 -2.594574c-0.39331055 -0.41692734 -0.78652954 -0.37076187 -0.7865906 -0.7421951" fill-rule="evenodd"/><path stroke="#783f04" stroke-width="2.0" stroke-linejoin="round" stroke-linecap="butt" d="m364.02228 64.86503c-3.0517578E-4 -1.2976189 -0.3937378 -2.1776428 -0.78704834 -2.594574c-0.39331055 -0.41692734 -0.78652954 -0.37076187 -0.7865906 -0.7421951" fill-rule="evenodd"/><path fill="#ff0000" d="m330.15244 76.864365l0 0c0.02368164 -2.4197617 2.004486 -4.362152 4.424225 -4.3384705l0 0c1.1620178 0.011375427 2.2719116 0.48389435 3.0855408 1.3135986c0.81362915 0.8297043 1.2643127 1.9486389 1.2529297 3.110649l0 0c-0.02368164 2.419754 -2.004486 4.362152 -4.424225 4.338463l0 0c-2.4197693 -0.02368927 -4.362152 -2.004486 -4.3384705 -4.42424z" fill-rule="evenodd"/><path fill="#ff0000" d="m329.8284 76.064316l0 0c0.021728516 -2.2187881 1.2874451 -4.005249 2.8270874 -3.9901733l0 0c0.73934937 0.0072402954 1.4442749 0.4374466 1.9597168 1.1959839c0.5154419 0.7585373 0.7991333 1.7832718 0.7886963 2.8487701l0 0c-0.021697998 2.2187805 -1.2874451 4.0052414 -2.827057 3.9901657l0 0c-1.5396423 -0.015068054 -2.770172 -1.8259659 -2.7484436 -4.0447464z" fill-rule="evenodd"/><path fill="#ff0000" d="m333.67926 76.10201l0 0c0.021728516 -2.2187881 1.2874451 -4.005249 2.8270874 -3.9901733l0 0c0.73934937 0.0072402954 1.4442749 0.4374466 1.9597168 1.1959839c0.5154114 0.7585373 0.7991333 1.7832718 0.7886963 2.8487701l0 0c-0.021728516 2.2187805 -1.2874451 4.0052414 -2.8270874 3.9901657l0 0c-1.5396423 -0.015068054 -2.7701416 -1.8259659 -2.748413 -4.0447464z" fill-rule="evenodd"/><path fill="#000000" fill-opacity="0.0" d="m334.5236 73.269226c-3.3569336E-4 -1.3044128 -0.3937378 -2.1912308 -0.78704834 -2.6081543c-0.39331055 -0.41693115 -0.78652954 -0.36397552 -0.7865906 -0.7286148" fill-rule="evenodd"/><path stroke="#783f04" stroke-width="2.0" stroke-linejoin="round" stroke-linecap="butt" d="m334.5236 73.269226c-3.3569336E-4 -1.3044128 -0.3937378 -2.1912308 -0.78704834 -2.6081543c-0.39331055 -0.41693115 -0.78652954 -0.36397552 -0.7865906 -0.7286148" fill-rule="evenodd"/><path fill="#ff0000" d="m299.15112 92.364365l0 0c0.02368164 -2.4197617 2.004486 -4.362152 4.424225 -4.3384705l0 0c1.1620178 0.011375427 2.2719116 0.48389435 3.0855408 1.3135986c0.81362915 0.8297043 1.2643127 1.9486389 1.2529297 3.110649l0 0c-0.02368164 2.419754 -2.004486 4.362152 -4.424225 4.338463l0 0c-2.4197693 -0.02368927 -4.362152 -2.004486 -4.3384705 -4.42424z" fill-rule="evenodd"/><path fill="#ff0000" d="m298.8271 91.564316l0 0c0.021728516 -2.2187881 1.2874451 -4.005249 2.8270874 -3.9901733l0 0c0.73934937 0.0072402954 1.4442749 0.4374466 1.9597168 1.1959839c0.5154419 0.7585373 0.7991333 1.7832718 0.7886963 2.8487701l0 0c-0.021697998 2.2187805 -1.2874451 4.0052414 -2.827057 3.9901657l0 0c-1.5396423 -0.015068054 -2.770172 -1.8259659 -2.7484436 -4.0447464z" fill-rule="evenodd"/><path fill="#ff0000" d="m302.67795 91.60201l0 0c0.021697998 -2.2187881 1.2874451 -4.005249 2.8270874 -3.9901733l0 0c0.73934937 0.0072402954 1.4442749 0.4374466 1.9597168 1.1959839c0.5154114 0.7585373 0.7991333 1.7832718 0.7886963 2.8487701l0 0c-0.021728516 2.2187805 -1.2874451 4.0052414 -2.8270874 3.9901657l0 0c-1.5396423 -0.015068054 -2.7701416 -1.8259659 -2.748413 -4.0447464z" fill-rule="evenodd"/><path fill="#000000" fill-opacity="0.0" d="m303.52228 88.769226c-3.3569336E-4 -1.311203 -0.3937378 -2.204811 -0.78704834 -2.6217422c-0.39331055 -0.41693115 -0.78652954 -0.35717773 -0.7865906 -0.71502686" fill-rule="evenodd"/><path stroke="#783f04" stroke-width="2.0" stroke-linejoin="round" stroke-linecap="butt" d="m303.52228 88.769226c-3.3569336E-4 -1.311203 -0.3937378 -2.204811 -0.78704834 -2.6217422c-0.39331055 -0.41693115 -0.78652954 -0.35717773 -0.7865906 -0.71502686" fill-rule="evenodd"/><path fill="#000000" fill-opacity="0.0" d="m363.9896 72.88441l0.6614075 11.81102" fill-rule="evenodd"/><path stroke="#000000" stroke-width="0.4" stroke-linejoin="round" stroke-linecap="butt" d="m363.9896 72.88441l0.46981812 8.3892975" fill-rule="evenodd"/><path fill="#000000" stroke="#000000" stroke-width="0.4" stroke-linecap="butt" d="m364.45938 81.273705l-1.1856995 -1.0599442l1.2955933 3.0220566l0.9500427 -3.147812z" fill-rule="evenodd"/><path fill="#000000" fill-opacity="0.0" d="m334.4909 81.288605l1.1653442 16.409447" fill-rule="evenodd"/><path stroke="#000000" stroke-width="0.4" stroke-linejoin="round" stroke-linecap="butt" d="m334.4909 81.288605l0.9225769 12.990967" fill-rule="evenodd"/><path fill="#000000" stroke="#000000" stroke-width="0.4" stroke-linecap="butt" d="m335.41348 94.27957l-1.201416 -1.0420914l1.3406372 3.0023422l0.90286255 -3.1616745z" fill-rule="evenodd"/><path fill="#000000" fill-opacity="0.0" d="m303.4896 96.788605l1.9212341 19.90551" fill-rule="evenodd"/><path stroke="#000000" stroke-width="0.4" stroke-linejoin="round" stroke-linecap="butt" d="m303.4896 96.788605l1.5920105 16.494278" fill-rule="evenodd"/><path fill="#000000" stroke="#000000" stroke-width="0.4" stroke-linecap="butt" d="m305.0816 113.28288l-1.2274475 -1.0113449l1.4162292 2.9674377l0.8225403 -3.1835175z" fill-rule="evenodd"/></g></svg>
