<svg version="1.1" viewBox="0.0 0.0 180.0 190.0" fill="none" stroke="none" stroke-linecap="square" stroke-miterlimit="10" xmlns:xlink="http://www.w3.org/1999/xlink" xmlns="http://www.w3.org/2000/svg"><clipPath id="p.0"><path d="m0 0l800.0 0l0 600.0l-800.0 0l0 -600.0z" clip-rule="nonzero"/></clipPath><g clip-path="url(#p.0)"><path fill="#000000" fill-opacity="0.0" d="m0 0l800.0 0l0 600.0l-800.0 0z" fill-rule="evenodd"/><path fill="#999999" d="m59.82152 59.658794l0 0c0 -4.1399612 3.356102 -7.496063 7.496067 -7.496063l0 0c1.9880753 0 3.8947296 0.7897606 5.300514 2.1955452c1.4057846 1.4057846 2.195549 3.3124352 2.195549 5.300518l0 0c0 4.1399612 -3.356102 7.4960594 -7.496063 7.4960594l0 0c-4.139965 0 -7.496067 -3.3560982 -7.496067 -7.4960594z" fill-rule="evenodd"/><path stroke="#434343" stroke-width="1.0" stroke-linejoin="round" stroke-linecap="butt" d="m59.82152 59.658794l0 0c0 -4.1399612 3.356102 -7.496063 7.496067 -7.496063l0 0c1.9880753 0 3.8947296 0.7897606 5.300514 2.1955452c1.4057846 1.4057846 2.195549 3.3124352 2.195549 5.300518l0 0c0 4.1399612 -3.356102 7.4960594 -7.496063 7.4960594l0 0c-4.139965 0 -7.496067 -3.3560982 -7.496067 -7.4960594z" fill-rule="evenodd"/><path fill="#999999" d="m33.81365 87.65092l0 0c0 -4.1399612 3.356102 -7.496063 7.496063 -7.496063l0 0c1.9880791 0 3.8947334 0.7897644 5.300518 2.195549c1.4057846 1.4057846 2.1955452 3.312439 2.1955452 5.300514l0 0c0 4.1399612 -3.356102 7.496063 -7.496063 7.496063l0 0c-4.1399612 0 -7.496063 -3.356102 -7.496063 -7.496063z" fill-rule="evenodd"/><path stroke="#434343" stroke-width="1.0" stroke-linejoin="round" stroke-linecap="butt" d="m33.81365 87.65092l0 0c0 -4.1399612 3.356102 -7.496063 7.496063 -7.496063l0 0c1.9880791 0 3.8947334 0.7897644 5.300518 2.195549c1.4057846 1.4057846 2.1955452 3.312439 2.1955452 5.300514l0 0c0 4.1399612 -3.356102 7.496063 -7.496063 7.496063l0 0c-4.1399612 0 -7.496063 -3.356102 -7.496063 -7.496063z" fill-rule="evenodd"/><path fill="#999999" d="m87.80577 30.666666l0 0c0 -4.1399612 3.356102 -7.496063 7.496063 -7.496063l0 0c1.9880829 0 3.8947372 0.7897625 5.300522 2.195547c1.4057846 1.4057846 2.1955414 3.312437 2.1955414 5.300516l0 0c0 4.139963 -3.356102 7.496065 -7.496063 7.496065l0 0c-4.1399612 0 -7.496063 -3.356102 -7.496063 -7.496065z" fill-rule="evenodd"/><path stroke="#434343" stroke-width="1.0" stroke-linejoin="round" stroke-linecap="butt" d="m87.80577 30.666666l0 0c0 -4.1399612 3.356102 -7.496063 7.496063 -7.496063l0 0c1.9880829 0 3.8947372 0.7897625 5.300522 2.195547c1.4057846 1.4057846 2.1955414 3.312437 2.1955414 5.300516l0 0c0 4.139963 -3.356102 7.496065 -7.496063 7.496065l0 0c-4.1399612 0 -7.496063 -3.356102 -7.496063 -7.496065z" fill-rule="evenodd"/><path fill="#999999" d="m99.80577 64.65879l0 0c0 -4.1399574 3.356102 -7.4960594 7.496063 -7.4960594l0 0c1.9880829 0 3.8947372 0.7897606 5.300522 2.1955452c1.4057846 1.4057846 2.1955414 3.3124352 2.1955414 5.300514l0 0c0 4.1399612 -3.356102 7.496063 -7.496063 7.496063l0 0c-4.1399612 0 -7.496063 -3.356102 -7.496063 -7.496063z" fill-rule="evenodd"/><path stroke="#434343" stroke-width="1.0" stroke-linejoin="round" stroke-linecap="butt" d="m99.80577 64.65879l0 0c0 -4.1399574 3.356102 -7.4960594 7.496063 -7.4960594l0 0c1.9880829 0 3.8947372 0.7897606 5.300522 2.1955452c1.4057846 1.4057846 2.1955414 3.3124352 2.1955414 5.300514l0 0c0 4.1399612 -3.356102 7.496063 -7.496063 7.496063l0 0c-4.1399612 0 -7.496063 -3.356102 -7.496063 -7.496063z" fill-rule="evenodd"/><path fill="#999999" d="m78.81365 97.666664l0 0c0 -4.1399612 3.3560944 -7.496063 7.4960556 -7.496063l0 0c1.9880829 0 3.8947372 0.7897644 5.300522 2.195549c1.4057846 1.4057846 2.1955414 3.312439 2.1955414 5.300514l0 0c0 4.1399612 -3.356102 7.496063 -7.496063 7.496063l0 0c-4.1399612 0 -7.4960556 -3.356102 -7.4960556 -7.496063z" fill-rule="evenodd"/><path stroke="#434343" stroke-width="1.0" stroke-linejoin="round" stroke-linecap="butt" d="m78.81365 97.666664l0 0c0 -4.1399612 3.3560944 -7.496063 7.4960556 -7.496063l0 0c1.9880829 0 3.8947372 0.7897644 5.300522 2.195549c1.4057846 1.4057846 2.1955414 3.312439 2.1955414 5.300514l0 0c0 4.1399612 -3.356102 7.496063 -7.496063 7.496063l0 0c-4.1399612 0 -7.4960556 -3.356102 -7.4960556 -7.496063z" fill-rule="evenodd"/><path fill="#999999" d="m138.80577 55.666668l0 0c0 -4.1399612 3.3561096 -7.496063 7.496063 -7.496063l0 0c1.9880829 0 3.8947296 0.7897606 5.300522 2.1955452c1.405777 1.4057846 2.1955414 3.312439 2.1955414 5.300518l0 0c0 4.1399612 -3.3560944 7.496063 -7.496063 7.496063l0 0c-4.1399536 0 -7.496063 -3.356102 -7.496063 -7.496063z" fill-rule="evenodd"/><path stroke="#434343" stroke-width="1.0" stroke-linejoin="round" stroke-linecap="butt" d="m138.80577 55.666668l0 0c0 -4.1399612 3.3561096 -7.496063 7.496063 -7.496063l0 0c1.9880829 0 3.8947296 0.7897606 5.300522 2.1955452c1.405777 1.4057846 2.1955414 3.312439 2.1955414 5.300518l0 0c0 4.1399612 -3.3560944 7.496063 -7.496063 7.496063l0 0c-4.1399536 0 -7.496063 -3.356102 -7.496063 -7.496063z" fill-rule="evenodd"/><path fill="#999999" d="m123.81365 92.666664l0 0c0 -4.1399612 3.3560944 -7.496063 7.4960556 -7.496063l0 0c1.9880829 0 3.8947296 0.7897644 5.300522 2.195549c1.405777 1.4057846 2.1955414 3.312439 2.1955414 5.300514l0 0c0 4.1399612 -3.3560944 7.496063 -7.496063 7.496063l0 0c-4.1399612 0 -7.4960556 -3.356102 -7.4960556 -7.496063z" fill-rule="evenodd"/><path stroke="#434343" stroke-width="1.0" stroke-linejoin="round" stroke-linecap="butt" d="m123.81365 92.666664l0 0c0 -4.1399612 3.3560944 -7.496063 7.4960556 -7.496063l0 0c1.9880829 0 3.8947296 0.7897644 5.300522 2.195549c1.405777 1.4057846 2.1955414 3.312439 2.1955414 5.300514l0 0c0 4.1399612 -3.3560944 7.496063 -7.496063 7.496063l0 0c-4.1399612 0 -7.4960556 -3.356102 -7.4960556 -7.496063z" fill-rule="evenodd"/><path fill="#999999" d="m18.805775 55.666668l0 0c0 -4.1399612 3.356102 -7.496063 7.496063 -7.496063l0 0c1.9880791 0 3.8947315 0.7897606 5.300516 2.1955452c1.4057865 1.4057846 2.195547 3.312439 2.195547 5.300518l0 0c0 4.1399612 -3.356102 7.496063 -7.496063 7.496063l0 0c-4.1399612 0 -7.496063 -3.356102 -7.496063 -7.496063z" fill-rule="evenodd"/><path stroke="#434343" stroke-width="1.0" stroke-linejoin="round" stroke-linecap="butt" d="m18.805775 55.666668l0 0c0 -4.1399612 3.356102 -7.496063 7.496063 -7.496063l0 0c1.9880791 0 3.8947315 0.7897606 5.300516 2.1955452c1.4057865 1.4057846 2.195547 3.312439 2.195547 5.300518l0 0c0 4.1399612 -3.356102 7.496063 -7.496063 7.496063l0 0c-4.1399612 0 -7.496063 -3.356102 -7.496063 -7.496063z" fill-rule="evenodd"/><path fill="#000000" fill-opacity="0.0" d="m97.9968 8.865895c-3.1714401 4.757162 -11.395607 1.2884274 -16.942299 2.6750994c-5.838814 1.4597054 -5.5529633 10.903166 -9.808701 15.158901c-5.7405243 5.74053 -15.331085 5.6318493 -22.2925 9.808699c-10.147118 6.088272 -30.381458 -3.8535004 -34.7763 7.133602c-2.2515163 5.628792 -7.85356 13.547237 -3.5668 17.834c10.272841 10.272842 9.834849 29.976807 22.2925 37.4514c14.676933 8.80616 32.842693 10.179443 48.1518 17.834c7.443901 3.7219467 17.240326 -3.0909119 24.967598 0c9.935074 3.9740295 22.53048 4.7853622 32.101204 0c4.9020996 -2.4510498 11.878555 -5.253212 12.483795 -10.700401c0.72213745 -6.499138 -4.6238556 -14.993538 0 -19.617401c9.523071 -9.523071 19.417755 -24.674858 15.158905 -37.4514c-5.324539 -15.973629 -31.286469 -12.509457 -47.2601 -17.833998c-8.383873 -2.7946262 -9.628693 -16.33528 -17.834 -19.617401c-1.6091919 -0.64367676 -4.458496 -4.4082527 -4.458496 -2.6750994" fill-rule="evenodd"/><path stroke="#434343" stroke-width="1.0" stroke-linejoin="round" stroke-linecap="butt" d="m97.9968 8.865895c-3.1714401 4.757162 -11.395607 1.2884274 -16.942299 2.6750994c-5.838814 1.4597054 -5.5529633 10.903166 -9.808701 15.158901c-5.7405243 5.74053 -15.331085 5.6318493 -22.2925 9.808699c-10.147118 6.088272 -30.381458 -3.8535004 -34.7763 7.133602c-2.2515163 5.628792 -7.85356 13.547237 -3.5668 17.834c10.272841 10.272842 9.834849 29.976807 22.2925 37.4514c14.676933 8.80616 32.842693 10.179443 48.1518 17.834c7.443901 3.7219467 17.240326 -3.0909119 24.967598 0c9.935074 3.9740295 22.53048 4.7853622 32.101204 0c4.9020996 -2.4510498 11.878555 -5.253212 12.483795 -10.700401c0.72213745 -6.499138 -4.6238556 -14.993538 0 -19.617401c9.523071 -9.523071 19.417755 -24.674858 15.158905 -37.4514c-5.324539 -15.973629 -31.286469 -12.509457 -47.2601 -17.833998c-8.383873 -2.7946262 -9.628693 -16.33528 -17.834 -19.617401c-1.6091919 -0.64367676 -4.458496 -4.4082527 -4.458496 -2.6750994" fill-rule="evenodd"/><path fill="#000000" fill-opacity="0.0" d="m107.301834 72.154854l-17.700783 68.8189" fill-rule="evenodd"/><path stroke="#000000" stroke-width="1.0" stroke-linejoin="round" stroke-linecap="butt" d="m106.44815 75.473915l-16.8471 65.49984" fill-rule="evenodd"/><path fill="#000000" stroke="#000000" stroke-width="1.0" stroke-linecap="butt" d="m106.44815 75.473915l0.8089981 1.3692627l-0.31947327 -3.272499l-1.8587952 2.7122345z" fill-rule="evenodd"/><path fill="#000000" fill-opacity="0.0" d="m10.593176 140.97375l158.01575 0l0 51.81102l-158.01575 0z" fill-rule="evenodd"/><path fill="#000000" d="m21.32755 162.79927l0 -13.359375l1.765625 0l0 13.359375l-1.765625 0zm4.683304 0l0 -9.671875l1.46875 0l0 1.375q1.0625 -1.59375 3.078125 -1.59375q0.875 0 1.6093731 0.3125q0.734375 0.3125 1.09375 0.828125q0.375 0.5 0.515625 1.203125q0.09375 0.453125 0.09375 1.59375l0 5.953125l-1.640625 0l0 -5.890625q0 -1.0 -0.203125 -1.484375q-0.1874981 -0.5 -0.6718731 -0.796875q-0.484375 -0.296875 -1.140625 -0.296875q-1.046875 0 -1.8125 0.671875q-0.75 0.65625 -0.75 2.515625l0 5.28125l-1.640625 0zm16.64134 0l0 -1.21875q-0.90625 1.4375 -2.703125 1.4375q-1.15625 0 -2.125 -0.640625q-0.96875 -0.640625 -1.5 -1.78125q-0.53125 -1.140625 -0.53125 -2.625q0 -1.453125 0.484375 -2.625q0.484375 -1.1875 1.4375 -1.8125q0.96875 -0.625 2.171875 -0.625q0.875 0 1.546875 0.375q0.6875 0.359375 1.109375 0.953125l0 -4.796875l1.640625 0l0 13.359375l-1.53125 0zm-5.171875 -4.828125q0 1.859375 0.78125 2.78125q0.78125 0.921875 1.84375 0.921875q1.078125 0 1.828125 -0.875q0.75 -0.890625 0.75 -2.6875q0 -1.984375 -0.765625 -2.90625q-0.765625 -0.9375 -1.890625 -0.9375q-1.078125 0 -1.8125 0.890625q-0.734375 0.890625 -0.734375 2.8125zm9.281967 -6.640625l0 -1.890625l1.640625 0l0 1.890625l-1.640625 0zm0 11.46875l0 -9.671875l1.640625 0l0 9.671875l-1.640625 0zm6.832321 0l-3.6875 -9.671875l1.734375 0l2.078125 5.796875q0.328125 0.9375 0.625 1.9375q0.203125 -0.765625 0.609375 -1.828125l2.140625 -5.90625l1.6875 0l-3.65625 9.671875l-1.53125 0zm6.640625 -11.46875l0 -1.890625l1.640625 0l0 1.890625l-1.640625 0zm0 11.46875l0 -9.671875l1.640625 0l0 9.671875l-1.640625 0zm3.4885712 -2.890625l1.6250038 -0.25q0.125 0.96875 0.75 1.5q0.625 0.515625 1.75 0.515625q1.125 0 1.671875 -0.453125q0.546875 -0.46875 0.546875 -1.09375q0 -0.546875 -0.484375 -0.875q-0.328125 -0.21875 -1.671875 -0.546875q-1.8125 -0.46875 -2.515625 -0.796875q-0.6875 -0.328125 -1.046875 -0.90625q-0.3593788 -0.59375 -0.3593788 -1.3125q0 -0.640625 0.2968788 -1.1875q0.296875 -0.5625 0.8125 -0.921875q0.375 -0.28125 1.03125 -0.46875q0.671875 -0.203125 1.421875 -0.203125q1.140625 0 2.0 0.328125q0.859375 0.328125 1.265625 0.890625q0.421875 0.5625 0.578125 1.5l-1.609375 0.21875q-0.109375 -0.75 -0.640625 -1.171875q-0.515625 -0.421875 -1.46875 -0.421875q-1.140625 0 -1.625 0.375q-0.46875 0.375 -0.46875 0.875q0 0.3125 0.1875 0.578125q0.203125 0.265625 0.640625 0.4375q0.234375 0.09375 1.4375 0.421875q1.75 0.453125 2.4375 0.75q0.6875 0.296875 1.078125 0.859375q0.390625 0.5625 0.390625 1.40625q0 0.828125 -0.484375 1.546875q-0.46875 0.71875 -1.375 1.125q-0.90625 0.390625 -2.046875 0.390625q-1.875 0 -2.875 -0.78125q-0.9843788 -0.78125 -1.2500038 -2.328125zm9.984379 -8.578125l0 -1.890625l1.640625 0l0 1.890625l-1.640625 0zm0 11.46875l0 -9.671875l1.640625 0l0 9.671875l-1.640625 0zm5.644821 0l-1.515625 0l0 -13.359375l1.640625 0l0 4.765625q1.046875 -1.296875 2.65625 -1.296875q0.890625 0 1.6875 0.359375q0.796875 0.359375 1.3125 1.015625q0.515625 0.640625 0.796875 1.5625q0.296875 0.921875 0.296875 1.96875q0 2.484375 -1.234375 3.84375q-1.21875 1.359375 -2.953125 1.359375q-1.703125 0 -2.6875 -1.4375l0 1.21875zm-0.015625 -4.90625q0 1.734375 0.484375 2.515625q0.765625 1.265625 2.09375 1.265625q1.078125 0 1.859375 -0.9375q0.78125 -0.9375 0.78125 -2.78125q0 -1.890625 -0.75 -2.796875q-0.75 -0.90625 -1.828125 -0.90625q-1.0625 0 -1.859375 0.9375q-0.78125 0.9375 -0.78125 2.703125zm8.844467 4.90625l0 -13.359375l1.640625 0l0 13.359375l-1.640625 0zm10.816696 -3.109375l1.6875 0.203125q-0.40625 1.484375 -1.484375 2.3125q-1.078125 0.8125 -2.765625 0.8125q-2.125 0 -3.375 -1.296875q-1.234375 -1.3125 -1.234375 -3.671875q0 -2.453125 1.25 -3.796875q1.265625 -1.34375 3.265625 -1.34375q1.9375 0 3.15625 1.328125q1.234375 1.3125 1.234375 3.703125q0 0.15625 0 0.4375l-7.21875 0q0.09375 1.59375 0.90625 2.453125q0.8125 0.84375 2.015625 0.84375q0.90625 0 1.546875 -0.46875q0.640625 -0.484375 1.015625 -1.515625zm-5.390625 -2.65625l5.40625 0q-0.109375 -1.21875 -0.625 -1.828125q-0.78125 -0.953125 -2.03125 -0.953125q-1.125 0 -1.90625 0.765625q-0.765625 0.75 -0.84375 2.015625zm14.559021 5.765625l0 -13.359375l9.65625 0l0 1.578125l-7.875 0l0 4.09375l7.375 0l0 1.5625l-7.375 0l0 4.546875l8.1875 0l0 1.578125l-9.96875 0zm12.209198 0l0 -9.671875l1.46875 0l0 1.375q1.0625 -1.59375 3.078125 -1.59375q0.875 0 1.609375 0.3125q0.734375 0.3125 1.09375 0.828125q0.37499237 0.5 0.5156174 1.203125q0.09375 0.453125 0.09375 1.59375l0 5.953125l-1.6406174 0l0 -5.890625q0 -1.0 -0.203125 -1.484375q-0.1875 -0.5 -0.671875 -0.796875q-0.484375 -0.296875 -1.140625 -0.296875q-1.046875 0 -1.8125 0.671875q-0.75 0.65625 -0.75 2.515625l0 5.28125l-1.640625 0zm13.953835 -1.46875l0.234375 1.453125q-0.6875 0.140625 -1.234375 0.140625q-0.890625 0 -1.390625 -0.28125q-0.484375 -0.28125 -0.6875 -0.734375q-0.203125 -0.46875 -0.203125 -1.9375l0 -5.578125l-1.203125 0l0 -1.265625l1.203125 0l0 -2.390625l1.625 -0.984375l0 3.375l1.65625 0l0 1.265625l-1.65625 0l0 5.671875q0 0.6875 0.078125 0.890625q0.09375 0.203125 0.28125 0.328125q0.203125 0.109375 0.578125 0.109375q0.265625 0 0.71875 -0.0625zm1.6051788 -10.0l0 -1.890625l1.640625 0l0 1.890625l-1.640625 0zm0 11.46875l0 -9.671875l1.640625 0l0 9.671875l-1.640625 0zm7.722946 -1.46875l0.234375 1.453125q-0.6875 0.140625 -1.234375 0.140625q-0.890625 0 -1.390625 -0.28125q-0.484375 -0.28125 -0.6875 -0.734375q-0.203125 -0.46875 -0.203125 -1.9375l0 -5.578125l-1.203125 0l0 -1.265625l1.203125 0l0 -2.390625l1.625 -0.984375l0 3.375l1.65625 0l0 1.265625l-1.65625 0l0 5.671875q0 0.6875 0.078125 0.890625q0.09375 0.203125 0.28125 0.328125q0.203125 0.109375 0.578125 0.109375q0.265625 0 0.71875 -0.0625zm1.5270538 5.1875l-0.1875 -1.53125q0.546875 0.140625 0.9375 0.140625q0.546875 0 0.875 -0.1875q0.328125 -0.171875 0.546875 -0.5q0.15625 -0.25 0.5 -1.21875q0.046875 -0.140625 0.140625 -0.40625l-3.671875 -9.6875l1.765625 0l2.015625 5.59375q0.390625 1.078125 0.703125 2.25q0.28125 -1.125 0.671875 -2.203125l2.078125 -5.640625l1.640625 0l-3.6875 9.828125q-0.59375 1.609375 -0.921875 2.203125q-0.4375 0.8125 -1.0 1.1875q-0.5625 0.375 -1.34375 0.375q-0.484375 0 -1.0625 -0.203125z" fill-rule="nonzero"/><path fill="#000000" d="m20.186926 180.78363l0 -1.640625l5.03125 0l0 1.640625l-5.03125 0zm10.770981 4.015625l5.124998 -13.359375l1.90625 0l5.46875 13.359375l-2.015625 0l-1.546875 -4.046875l-5.59375 0l-1.46875 4.046875l-1.8749981 0zm3.859373 -5.484375l4.53125 0l-1.40625 -3.703125q-0.625 -1.6875 -0.9375 -2.765625q-0.265625 1.28125 -0.71875 2.546875l-1.46875 3.921875zm13.427948 4.015625l0.234375 1.453125q-0.6875 0.140625 -1.234375 0.140625q-0.890625 0 -1.390625 -0.28125q-0.484375 -0.28125 -0.6875 -0.734375q-0.203125 -0.46875 -0.203125 -1.9375l0 -5.578125l-1.203125 0l0 -1.265625l1.203125 0l0 -2.390625l1.625 -0.984375l0 3.375l1.65625 0l0 1.265625l-1.65625 0l0 5.671875q0 0.6875 0.078125 0.890625q0.09375 0.203125 0.28125 0.328125q0.203125 0.109375 0.578125 0.109375q0.265625 0 0.71875 -0.0625zm0.99580383 -3.375q0 -2.6875 1.484375 -3.96875q1.25 -1.078125 3.046875 -1.078125q2.0 0 3.265625 1.3125q1.265625 1.296875 1.265625 3.609375q0 1.859375 -0.5625 2.9375q-0.5625 1.0625 -1.640625 1.65625q-1.0625 0.59375 -2.328125 0.59375q-2.03125 0 -3.28125 -1.296875q-1.25 -1.3125 -1.25 -3.765625zm1.6875 0q0 1.859375 0.796875 2.796875q0.8125 0.921875 2.046875 0.921875q1.21875 0 2.03125 -0.921875q0.8125 -0.9375 0.8125 -2.84375q0 -1.796875 -0.8125 -2.71875q-0.8125 -0.921875 -2.03125 -0.921875q-1.234375 0 -2.046875 0.921875q-0.796875 0.90625 -0.796875 2.765625zm9.297592 4.84375l0 -9.671875l1.46875 0l0 1.359375q0.453125 -0.71875 1.203125 -1.140625q0.765625 -0.4375 1.7187538 -0.4375q1.078125 0 1.765625 0.453125q0.6875 0.4375 0.96875 1.234375q1.15625 -1.6875 2.984375 -1.6875q1.453125 0 2.21875 0.796875q0.78125 0.796875 0.78125 2.453125l0 6.640625l-1.640625 0l0 -6.09375q0 -0.984375 -0.15625 -1.40625q-0.15625 -0.4375 -0.578125 -0.703125q-0.421875 -0.265625 -0.984375 -0.265625q-1.015625 0 -1.6875 0.6875q-0.671875 0.671875 -0.671875 2.15625l0 5.625l-1.640625 0l0 -6.28125q0 -1.09375 -0.40625 -1.640625q-0.40625 -0.546875 -1.3125 -0.546875q-0.6875038 0 -1.2812538 0.359375q-0.59375 0.359375 -0.859375 1.0625q-0.25 0.703125 -0.25 2.03125l0 5.015625l-1.640625 0z" fill-rule="nonzero"/></g></svg>
