<svg version="1.1" viewBox="0.0 0.0 220.0 150.0" fill="none" stroke="none" stroke-linecap="square" stroke-miterlimit="10" xmlns:xlink="http://www.w3.org/1999/xlink" xmlns="http://www.w3.org/2000/svg"><clipPath id="p.0"><path d="m0 0l800.0 0l0 600.0l-800.0 0l0 -600.0z" clip-rule="nonzero"/></clipPath><g clip-path="url(#p.0)"><path fill="#000000" fill-opacity="0.0" d="m0 0l800.0 0l0 600.0l-800.0 0z" fill-rule="evenodd"/><path fill="#ffe599" d="m1.1109273 56.276466l0 0c0 -30.466986 24.69837 -55.165356 55.165356 -55.165356l0 0c14.63076 0 28.662285 5.8120475 39.007797 16.157558c10.345505 10.3455105 16.157555 24.377033 16.157555 39.007797l0 0c0 30.46698 -24.698372 55.16535 -55.16535 55.16535l0 0c-30.466986 0 -55.165356 -24.698372 -55.165356 -55.16535z" fill-rule="evenodd"/><path fill="#000000" fill-opacity="0.0" d="m5.945757 111.44182l100.66142 0l0 34.992126l-100.66142 0z" fill-rule="evenodd"/><path fill="#000000" d="m34.473515 135.85788l5.125 -13.359375l1.90625 0l5.46875 13.359375l-2.015625 0l-1.546875 -4.046875l-5.59375 0l-1.46875 4.046875l-1.875 0zm3.859375 -5.484375l4.53125 0l-1.40625 -3.703125q-0.625 -1.6875 -0.9375 -2.765625q-0.265625 1.28125 -0.71875 2.546875l-1.46875 3.921875zm13.427948 4.015625l0.234375 1.453125q-0.6875 0.140625 -1.234375 0.140625q-0.890625 0 -1.390625 -0.28125q-0.484375 -0.28125 -0.6875 -0.734375q-0.203125 -0.46875 -0.203125 -1.9375l0 -5.578125l-1.203125 0l0 -1.265625l1.203125 0l0 -2.390625l1.625 -0.984375l0 3.375l1.65625 0l0 1.265625l-1.65625 0l0 5.671875q0 0.6875 0.078125 0.890625q0.09375 0.203125 0.28125 0.328125q0.203125 0.109375 0.578125 0.109375q0.265625 0 0.71875 -0.0625zm0.99580383 -3.375q0 -2.6875 1.484375 -3.96875q1.25 -1.078125 3.046875 -1.078125q2.0 0 3.265625 1.3125q1.265625 1.296875 1.265625 3.609375q0 1.859375 -0.5625 2.9375q-0.5625 1.0625 -1.640625 1.65625q-1.0625 0.59375 -2.328125 0.59375q-2.03125 0 -3.28125 -1.296875q-1.25 -1.3125 -1.25 -3.765625zm1.6875 0q0 1.859375 0.796875 2.796875q0.8125 0.921875 2.046875 0.921875q1.21875 0 2.03125 -0.921875q0.8125 -0.9375 0.8125 -2.84375q0 -1.796875 -0.8125 -2.71875q-0.8125 -0.921875 -2.03125 -0.921875q-1.234375 0 -2.046875 0.921875q-0.796875 0.90625 -0.796875 2.765625zm9.297592 4.84375l0 -9.671875l1.4687538 0l0 1.359375q0.453125 -0.71875 1.203125 -1.140625q0.765625 -0.4375 1.71875 -0.4375q1.078125 0 1.765625 0.453125q0.6874924 0.4375 0.9687424 1.234375q1.15625 -1.6875 2.984375 -1.6875q1.453125 0 2.21875 0.796875q0.78125 0.796875 0.78125 2.453125l0 6.640625l-1.640625 0l0 -6.09375q0 -0.984375 -0.15625 -1.40625q-0.15625 -0.4375 -0.578125 -0.703125q-0.421875 -0.265625 -0.984375 -0.265625q-1.015625 0 -1.6875 0.6875q-0.671875 0.671875 -0.671875 2.15625l0 5.625l-1.6406174 0l0 -6.28125q0 -1.09375 -0.40625 -1.640625q-0.40625 -0.546875 -1.3125 -0.546875q-0.6875 0 -1.28125 0.359375q-0.59375 0.359375 -0.859375 1.0625q-0.25 0.703125 -0.25 2.03125l0 5.015625l-1.6406288 0z" fill-rule="nonzero"/><path fill="#76a5af" d="m23.11111 30.415573l0 0c0 -2.4874554 2.0164814 -4.503937 4.503937 -4.503937l0 0c1.194519 0 2.3401127 0.47451973 3.1847649 1.3191719c0.8446522 0.8446522 1.3191719 1.9902458 1.3191719 3.1847649l0 0c0 2.4874573 -2.0164814 4.503937 -4.503937 4.503937l0 0c-2.4874554 0 -4.503937 -2.0164795 -4.503937 -4.503937z" fill-rule="evenodd"/><path fill="#76a5af" d="m39.11111 46.415573l0 0c0 -2.4874573 2.0164833 -4.503937 4.503937 -4.503937l0 0c1.194519 0 2.3401146 0.47452164 3.1847649 1.3191719c0.84465027 0.8446541 1.3191719 1.9902458 1.3191719 3.1847649l0 0c0 2.4874573 -2.0164795 4.503937 -4.503937 4.503937l0 0c-2.4874535 0 -4.503937 -2.0164795 -4.503937 -4.503937z" fill-rule="evenodd"/><path fill="#76a5af" d="m60.11111 62.415573l0 0c0 -2.4874573 2.0164833 -4.503937 4.5039406 -4.503937l0 0c1.1945114 0 2.3401108 0.47452164 3.184761 1.3191719c0.84465027 0.8446541 1.3191757 1.9902458 1.3191757 3.1847649l0 0c0 2.4874573 -2.0164871 4.503937 -4.503937 4.503937l0 0c-2.4874573 0 -4.5039406 -2.0164795 -4.5039406 -4.503937z" fill-rule="evenodd"/><path fill="#76a5af" d="m39.11111 86.41557l0 0c0 -2.4874573 2.0164833 -4.503937 4.503937 -4.503937l0 0c1.194519 0 2.3401146 0.47451782 3.1847649 1.3191757c0.84465027 0.84465027 1.3191719 1.990242 1.3191719 3.184761l0 0c0 2.4874573 -2.0164795 4.503937 -4.503937 4.503937l0 0c-2.4874535 0 -4.503937 -2.0164795 -4.503937 -4.503937z" fill-rule="evenodd"/><path fill="#76a5af" d="m71.111115 86.41557l0 0c0 -2.4874573 2.0164795 -4.503937 4.503937 -4.503937l0 0c1.1945114 0 2.3401108 0.47451782 3.184761 1.3191757c0.84465027 0.84465027 1.3191757 1.990242 1.3191757 3.184761l0 0c0 2.4874573 -2.0164871 4.503937 -4.503937 4.503937l0 0c-2.4874573 0 -4.503937 -2.0164795 -4.503937 -4.503937z" fill-rule="evenodd"/><path fill="#76a5af" d="m47.11111 20.415573l0 0c0 -2.4874554 2.0164833 -4.503937 4.503937 -4.503937l0 0c1.194519 0 2.3401146 0.47451973 3.1847649 1.3191719c0.84465027 0.8446522 1.3191719 1.9902458 1.3191719 3.1847649l0 0c0 2.4874554 -2.0164795 4.503937 -4.503937 4.503937l0 0c-2.4874535 0 -4.503937 -2.0164814 -4.503937 -4.503937z" fill-rule="evenodd"/><path fill="#76a5af" d="m23.11111 68.41557l0 0c0 -2.4874573 2.0164814 -4.503937 4.503937 -4.503937l0 0c1.194519 0 2.3401127 0.47451782 3.1847649 1.3191757c0.8446522 0.84465027 1.3191719 1.990242 1.3191719 3.184761l0 0c0 2.4874573 -2.0164814 4.503937 -4.503937 4.503937l0 0c-2.4874554 0 -4.503937 -2.0164795 -4.503937 -4.503937z" fill-rule="evenodd"/><path fill="#76a5af" d="m72.111115 28.415573l0 0c0 -2.4874554 2.0164795 -4.503937 4.503937 -4.503937l0 0c1.1945114 0 2.3401108 0.47451973 3.184761 1.3191719c0.84465027 0.8446522 1.3191757 1.9902458 1.3191757 3.1847649l0 0c0 2.4874554 -2.0164871 4.503937 -4.503937 4.503937l0 0c-2.4874573 0 -4.503937 -2.0164814 -4.503937 -4.503937z" fill-rule="evenodd"/><path fill="#76a5af" d="m87.111115 52.415573l0 0c0 -2.4874573 2.0164795 -4.503937 4.503937 -4.503937l0 0c1.1945114 0 2.3401108 0.47452164 3.184761 1.3191719c0.84465027 0.8446541 1.3191757 1.9902458 1.3191757 3.1847649l0 0c0 2.4874573 -2.0164871 4.503937 -4.503937 4.503937l0 0c-2.4874573 0 -4.503937 -2.0164795 -4.503937 -4.503937z" fill-rule="evenodd"/><path fill="#000000" fill-opacity="0.0" d="m132.7804 34.91951l89.6693 0l0 34.992126l-89.6693 0z" fill-rule="evenodd"/><path fill="#000000" d="m144.86397 59.33557l0 -13.359375l9.65625 0l0 1.578125l-7.875 0l0 4.09375l7.375 0l0 1.5625l-7.375 0l0 4.546875l8.1875 0l0 1.578125l-9.96875 0zm12.162323 0l0 -13.359375l1.640625 0l0 13.359375l-1.640625 0zm10.816696 -3.109375l1.6875 0.203125q-0.40625 1.484375 -1.484375 2.3125q-1.078125 0.8125 -2.765625 0.8125q-2.125 0 -3.375 -1.296875q-1.234375 -1.3125 -1.234375 -3.671875q0 -2.453125 1.25 -3.796875q1.265625 -1.34375 3.265625 -1.34375q1.9375 0 3.15625 1.328125q1.234375 1.3125 1.234375 3.703125q0 0.15625 0 0.4375l-7.21875 0q0.09375 1.59375 0.90625 2.453125q0.8125 0.84375 2.015625 0.84375q0.90625 0 1.546875 -0.46875q0.640625 -0.484375 1.015625 -1.515625zm-5.390625 -2.65625l5.40625 0q-0.109375 -1.21875 -0.625 -1.828125q-0.78125 -0.953125 -2.03125 -0.953125q-1.125 0 -1.90625 0.765625q-0.765625 0.75 -0.84375 2.015625zm15.453842 2.21875l1.609375 0.21875q-0.265625 1.65625 -1.359375 2.609375q-1.078125 0.9375 -2.671875 0.9375q-1.984375 0 -3.1875 -1.296875q-1.203125 -1.296875 -1.203125 -3.71875q0 -1.578125 0.515625 -2.75q0.515625 -1.171875 1.578125 -1.75q1.0625 -0.59375 2.3125 -0.59375q1.578125 0 2.578125 0.796875q1.0 0.796875 1.28125 2.265625l-1.59375 0.234375q-0.234375 -0.96875 -0.8125 -1.453125q-0.578125 -0.5 -1.390625 -0.5q-1.234375 0 -2.015625 0.890625q-0.78125 0.890625 -0.78125 2.8125q0 1.953125 0.75 2.84375q0.75 0.875 1.953125 0.875q0.96875 0 1.609375 -0.59375q0.65625 -0.59375 0.828125 -1.828125zm6.59375 2.078125l0.234375 1.453125q-0.6875 0.140625 -1.234375 0.140625q-0.890625 0 -1.390625 -0.28125q-0.484375 -0.28125 -0.6875 -0.734375q-0.203125 -0.46875 -0.203125 -1.9375l0 -5.578125l-1.203125 0l0 -1.265625l1.203125 0l0 -2.390625l1.625 -0.984375l0 3.375l1.65625 0l0 1.265625l-1.65625 0l0 5.671875q0 0.6875 0.078125 0.890625q0.09375 0.203125 0.28125 0.328125q0.203125 0.109375 0.578125 0.109375q0.265625 0 0.71875 -0.0625zm1.5895538 1.46875l0 -9.671875l1.46875 0l0 1.46875q0.5625 -1.03125 1.03125 -1.359375q0.484375 -0.328125 1.0625 -0.328125q0.828125 0 1.6875 0.53125l-0.5625 1.515625q-0.609375 -0.359375 -1.203125 -0.359375q-0.546875 0 -0.96875 0.328125q-0.421875 0.328125 -0.609375 0.890625q-0.28125 0.875 -0.28125 1.921875l0 5.0625l-1.625 0zm5.618927 -4.84375q0 -2.6875 1.484375 -3.96875q1.25 -1.078125 3.046875 -1.078125q2.0 0 3.265625 1.3125q1.265625 1.296875 1.265625 3.609375q0 1.859375 -0.5625 2.9375q-0.5625 1.0625 -1.640625 1.65625q-1.0625 0.59375 -2.328125 0.59375q-2.03125 0 -3.28125 -1.296875q-1.25 -1.3125 -1.25 -3.765625zm1.6875 0q0 1.859375 0.796875 2.796875q0.8125 0.921875 2.046875 0.921875q1.21875 0 2.03125 -0.921875q0.8125 -0.9375 0.8125 -2.84375q0 -1.796875 -0.8125 -2.71875q-0.8125 -0.921875 -2.03125 -0.921875q-1.234375 0 -2.046875 0.921875q-0.796875 0.90625 -0.796875 2.765625zm9.297592 4.84375l0 -9.671875l1.46875 0l0 1.375q1.0625 -1.59375 3.078125 -1.59375q0.875 0 1.609375 0.3125q0.734375 0.3125 1.09375 0.828125q0.375 0.5 0.515625 1.203125q0.09375 0.453125 0.09375 1.59375l0 5.953125l-1.640625 0l0 -5.890625q0 -1.0 -0.203125 -1.484375q-0.1875 -0.5 -0.671875 -0.796875q-0.484375 -0.296875 -1.140625 -0.296875q-1.046875 0 -1.8125 0.671875q-0.75 0.65625 -0.75 2.515625l0 5.28125l-1.640625 0z" fill-rule="nonzero"/><path fill="#000000" fill-opacity="0.0" d="m132.7804 52.415573l-36.661407 0" fill-rule="evenodd"/><path stroke="#000000" stroke-width="1.0" stroke-linejoin="round" stroke-linecap="butt" d="m132.7804 52.415573l-33.23433 0" fill-rule="evenodd"/><path fill="#000000" stroke="#000000" stroke-width="1.0" stroke-linecap="butt" d="m99.54607 52.415573l1.124588 -1.1245804l-3.0897675 1.1245804l3.0897675 1.1245842z" fill-rule="evenodd"/></g></svg>
