<svg xmlns="http://www.w3.org/2000/svg" xmlns:xlink="http://www.w3.org/1999/xlink" xmlns:lucid="lucid" width="750" height="470"><g transform="translate(0 928)" lucid:page-tab-id="0_0"><path d="M0-928h769.67v507.98H0z" fill="#fff"/><path d="M164.25-559c0-2.76 2.24-5 5-5H420c2.76 0 5 2.24 5 5v94c0 2.76-2.24 5-5 5H169.25c-2.76 0-5-2.24-5-5z" fill="#fff"/><path d="M164.25-559c0-2.76 2.24-5 5-5H420c2.76 0 5 2.24 5 5v94c0 2.76-2.24 5-5 5H169.25c-2.76 0-5-2.24-5-5zM164.25-524H425M234.25-524v64M362.1-524v64" stroke="#666" stroke-width="2" fill="none"/><use xlink:href="#a" transform="matrix(1,0,0,1,174.25,-564) translate(101.025 23.6)"/><use xlink:href="#b" transform="matrix(1,0,0,1,169.25,-521.5) translate(4.024999999999999 17.1)"/><use xlink:href="#c" transform="matrix(1,0,0,1,239.25,-521.5) translate(39.525 17.1)"/><use xlink:href="#d" transform="matrix(1,0,0,1,367.1,-521.5) translate(5.050000000000001 17.1)"/><use xlink:href="#b" transform="matrix(1,0,0,1,169.25,-489.5) translate(4.024999999999999 17.1)"/><use xlink:href="#e" transform="matrix(1,0,0,1,239.25,-489.5) translate(12.5 17.1)"/><use xlink:href="#d" transform="matrix(1,0,0,1,367.1,-489.5) translate(5.050000000000001 17.1)"/><path d="M45-771c0-2.76 2.24-5 5-5h270c2.76 0 5 2.24 5 5v126c0 2.76-2.24 5-5 5H50c-2.76 0-5-2.24-5-5z" fill="#fff"/><path d="M45-771c0-2.76 2.24-5 5-5h270c2.76 0 5 2.24 5 5v126c0 2.76-2.24 5-5 5H50c-2.76 0-5-2.24-5-5zM45-736h280M89-736v96M213.2-736v96" stroke="#666" stroke-width="2" fill="none"/><use xlink:href="#f" transform="matrix(1,0,0,1,55.00000000000003,-776) translate(118.025 23.6)"/><use xlink:href="#g" transform="matrix(1,0,0,1,50.00000000000003,-733.5) translate(5 17.1)"/><use xlink:href="#c" transform="matrix(1,0,0,1,94.00000000000003,-733.5) translate(38.025 17.1)"/><use xlink:href="#d" transform="matrix(1,0,0,1,218.20000000000002,-733.5) translate(29.55 17.1)"/><use xlink:href="#h" transform="matrix(1,0,0,1,94.00000000000003,-701.5) translate(21.575000000000003 17.1)"/><use xlink:href="#i" transform="matrix(1,0,0,1,218.20000000000002,-701.5) translate(5.099999999999994 17.1)"/><use xlink:href="#j" transform="matrix(1,0,0,1,50.00000000000003,-669.5) translate(5.524999999999999 17.1)"/><use xlink:href="#k" transform="matrix(1,0,0,1,94.00000000000003,-669.5) translate(18.549999999999997 17.1)"/><use xlink:href="#d" transform="matrix(1,0,0,1,218.20000000000002,-669.5) translate(29.55 17.1)"/><path d="M326-720h44c2.76 0 5 2.24 5 5v126c0 2.76-2.24 5-5 5H128.25c-2.76 0-5 2.24-5 5v66c0 2.76 2.24 5 5 5h35" stroke="#999" stroke-width="2" fill="none"/><path fill="#fff"/><path d="M347-710h-2v-20h2zM163.25-517.1l-18.2 9.1 18.2 9.1-.9 1.8-21.78-10.9 21.8-10.9z" fill="#999"/><path d="M326-720h44c2.76 0 5 2.24 5 5v126c0 2.76-2.24 5-5 5H128.25c-2.76 0-5 2.24-5 5v97.98c0 2.76 2.24 5 5 5h35" stroke="#999" stroke-width="2" fill="none"/><path fill="#fff"/><path d="M347-710h-2v-20h2zM163.25-485.12l-18.2 9.1 18.2 9.1-.9 1.8-21.78-10.9 21.8-10.9z" fill="#999"/><path d="M425-771c0-2.76 2.24-5 5-5h250.75c2.76 0 5 2.24 5 5v126c0 2.76-2.24 5-5 5H430c-2.76 0-5-2.24-5-5z" fill="#fff"/><path d="M425-771c0-2.76 2.24-5 5-5h250.75c2.76 0 5 2.24 5 5v126c0 2.76-2.24 5-5 5H430c-2.76 0-5-2.24-5-5zM425-736h260.75M496.95-736v96M582.9-736v96" stroke="#666" stroke-width="2" fill="none"/><use xlink:href="#l" transform="matrix(1,0,0,1,435,-776) translate(68.07499999999999 23.6)"/><use xlink:href="#g" transform="matrix(1,0,0,1,430,-733.5) translate(19 17.1)"/><use xlink:href="#m" transform="matrix(1,0,0,1,501.95,-733.5) translate(31 17.1)"/><use xlink:href="#n" transform="matrix(1,0,0,1,587.9,-733.5) translate(5.075000000000003 17.1)"/><use xlink:href="#b" transform="matrix(1,0,0,1,430,-701.5) translate(5.024999999999999 17.1)"/><use xlink:href="#c" transform="matrix(1,0,0,1,501.95,-701.5) translate(18.525 17.1)"/><use xlink:href="#d" transform="matrix(1,0,0,1,587.9,-701.5) translate(25.05 17.1)"/><use xlink:href="#j" transform="matrix(1,0,0,1,430,-669.5) translate(19.525 17.1)"/><use xlink:href="#o" transform="matrix(1,0,0,1,501.95,-669.5) translate(-2.4750000000000014 17.1)"/><use xlink:href="#d" transform="matrix(1,0,0,1,587.9,-669.5) translate(25.05 17.1)"/><path d="M326-720h44c2.76 0 5 2.24 5 5v22c0 2.76 2.24 5 5 5h44" stroke="#999" stroke-width="2" fill="none"/><path fill="#fff"/><path d="M347-710h-2v-20h2zM424-697.1l-18.2 9.1 18.2 9.1-.9 1.8-21.78-10.9 21.8-10.9z" fill="#999"/><path d="M5-919c0-2.76 2.24-5 5-5h276.6c2.76 0 5 2.24 5 5v94c0 2.76-2.24 5-5 5H10c-2.76 0-5-2.24-5-5z" fill="#fff"/><path d="M5-919c0-2.76 2.24-5 5-5h276.6c2.76 0 5 2.24 5 5v94c0 2.76-2.24 5-5 5H10c-2.76 0-5-2.24-5-5zM5-884h286.6M49-884v64M179.8-884v64" stroke="#666" stroke-width="2" fill="none"/><use xlink:href="#p" transform="matrix(1,0,0,1,15.000000000000028,-924) translate(102.05 23.6)"/><use xlink:href="#g" transform="matrix(1,0,0,1,10.000000000000028,-881.5) translate(5 17.1)"/><use xlink:href="#k" transform="matrix(1,0,0,1,54.00000000000003,-881.5) translate(21.549999999999997 17.1)"/><use xlink:href="#d" transform="matrix(1,0,0,1,184.80000000000004,-881.5) translate(29.55 17.1)"/><use xlink:href="#q" transform="matrix(1,0,0,1,54.00000000000003,-849.5) translate(5.100000000000001 17.1)"/><use xlink:href="#i" transform="matrix(1,0,0,1,184.80000000000004,-849.5) translate(5.099999999999994 17.1)"/><path d="M292.6-867.97h35c2.76 0 5 2.24 5 5V-803c0 2.76-2.24 5-5 5H9c-2.76 0-5 2.24-5 5v100.14c0 2.76 2.24 5 5 5h35" stroke="#999" stroke-width="2" fill="none"/><path fill="#fff"/><path d="M313.6-857.97h-2v-20h2zM44-696.96l-18.2 9.1 18.2 9.1-.9 1.8-21.78-10.9 21.8-10.9z" fill="#999"/><path d="M380-919c0-2.76 2.24-5 5-5h314.32c2.77 0 5 2.24 5 5v94c0 2.76-2.23 5-5 5H385c-2.76 0-5-2.24-5-5z" fill="#fff"/><path d="M380-919c0-2.76 2.24-5 5-5h314.32c2.77 0 5 2.24 5 5v94c0 2.76-2.23 5-5 5H385c-2.76 0-5-2.24-5-5zM380-884h324.32M453-884v64M592.52-884v64" stroke="#666" stroke-width="2" fill="none"/><use xlink:href="#r" transform="matrix(1,0,0,1,390,-924) translate(119.525 23.6)"/><use xlink:href="#s" transform="matrix(1,0,0,1,385,-881.5) translate(5 17.1)"/><use xlink:href="#o" transform="matrix(1,0,0,1,458,-881.5) translate(24.525 17.1)"/><use xlink:href="#d" transform="matrix(1,0,0,1,597.5249999999534,-881.5) translate(29.55 17.1)"/><use xlink:href="#t" transform="matrix(1,0,0,1,458,-849.5) translate(8.074999999999996 17.1)"/><use xlink:href="#i" transform="matrix(1,0,0,1,597.5249999999534,-849.5) translate(5.099999999999994 17.1)"/><path d="M705.33-867.98h35c2.76 0 5 2.24 5 5v202.38c0 2.76-2.24 5-5 5h-53.58" stroke="#999" stroke-width="2" fill="none"/><path fill="#fff"/><path d="M726.33-857.98h-2v-20h2zM709.43-655.6l-21.8 10.9-.88-1.8 18.2-9.1-18.2-9.1.9-1.8z" fill="#999"/><defs><path fill="#333" d="M30-248c118-7 216 8 213 122C240-48 200 0 122 0H30v-248zM63-27c89 8 146-16 146-99s-60-101-146-95v194" id="u"/><path fill="#333" d="M205 0l-28-72H64L36 0H1l101-248h38L239 0h-34zm-38-99l-47-123c-12 45-31 82-46 123h93" id="v"/><path fill="#333" d="M143 4C61 4 22-44 18-125c-5-107 100-154 193-111 17 8 29 25 37 43l-32 9c-13-25-37-40-76-40-61 0-88 39-88 99 0 61 29 100 91 101 35 0 62-11 79-27v-45h-74v-28h105v86C228-13 192 4 143 4" id="w"/><g id="a"><use transform="matrix(0.05,0,0,0.05,0,0)" xlink:href="#u"/><use transform="matrix(0.05,0,0,0.05,12.950000000000001,0)" xlink:href="#v"/><use transform="matrix(0.05,0,0,0.05,24.950000000000003,0)" xlink:href="#w"/></g><path fill="#333" d="M30-248c87 1 191-15 191 75 0 78-77 80-158 76V0H30v-248zm33 125c57 0 124 11 124-50 0-59-68-47-124-48v98" id="x"/><path fill="#333" d="M194 0L95-120 63-95V0H30v-248h33v124l119-124h40L117-140 236 0h-42" id="y"/><path fill="#333" d="M68-38c1 34 0 65-14 84H32c9-13 17-26 17-46H33v-38h35" id="z"/><path fill="#333" d="M63-220v92h138v28H63V0H30v-248h175v28H63" id="A"/><g id="b"><use transform="matrix(0.05,0,0,0.05,0,0)" xlink:href="#x"/><use transform="matrix(0.05,0,0,0.05,12,0)" xlink:href="#y"/><use transform="matrix(0.05,0,0,0.05,24,0)" xlink:href="#z"/><use transform="matrix(0.05,0,0,0.05,29,0)" xlink:href="#A"/><use transform="matrix(0.05,0,0,0.05,39.95,0)" xlink:href="#y"/></g><path fill="#333" d="M24-231v-30h32v30H24zM-9 49c24 4 33-6 33-30v-209h32V24c2 40-23 58-65 49V49" id="B"/><path fill="#333" d="M100-194c62-1 85 37 85 99 1 63-27 99-86 99S16-35 15-95c0-66 28-99 85-99zM99-20c44 1 53-31 53-75 0-43-8-75-51-75s-53 32-53 75 10 74 51 75" id="C"/><path fill="#333" d="M115-194c53 0 69 39 70 98 0 66-23 100-70 100C84 3 66-7 56-30L54 0H23l1-261h32v101c10-23 28-34 59-34zm-8 174c40 0 45-34 45-75 0-40-5-75-45-74-42 0-51 32-51 76 0 43 10 73 51 73" id="D"/><path fill="#333" d="M33 0v-248h34V0H33" id="E"/><path fill="#333" d="M85-194c31 0 48 13 60 33l-1-100h32l1 261h-30c-2-10 0-23-3-31C134-8 116 4 85 4 32 4 16-35 15-94c0-66 23-100 70-100zm9 24c-40 0-46 34-46 75 0 40 6 74 45 74 42 0 51-32 51-76 0-42-9-74-50-73" id="F"/><g id="c"><use transform="matrix(0.05,0,0,0.05,0,0)" xlink:href="#B"/><use transform="matrix(0.05,0,0,0.05,3.95,0)" xlink:href="#C"/><use transform="matrix(0.05,0,0,0.05,13.949999999999998,0)" xlink:href="#D"/><use transform="matrix(0.05,0,0,0.05,23.95,0)" xlink:href="#E"/><use transform="matrix(0.05,0,0,0.05,28.950000000000003,0)" xlink:href="#F"/></g><path fill="#333" d="M24-231v-30h32v30H24zM24 0v-190h32V0H24" id="G"/><path fill="#333" d="M177-190C167-65 218 103 67 71c-23-6-38-20-44-43l32-5c15 47 100 32 89-28v-30C133-14 115 1 83 1 29 1 15-40 15-95c0-56 16-97 71-98 29-1 48 16 59 35 1-10 0-23 2-32h30zM94-22c36 0 50-32 50-73 0-42-14-75-50-75-39 0-46 34-46 75s6 73 46 73" id="H"/><path fill="#333" d="M117-194c89-4 53 116 60 194h-32v-121c0-31-8-49-39-48C34-167 62-67 57 0H25l-1-190h30c1 10-1 24 2 32 11-22 29-35 61-36" id="I"/><path fill="#333" d="M59-47c-2 24 18 29 38 22v24C64 9 27 4 27-40v-127H5v-23h24l9-43h21v43h35v23H59v120" id="J"/><g id="d"><use transform="matrix(0.05,0,0,0.05,0,0)" xlink:href="#D"/><use transform="matrix(0.05,0,0,0.05,10,0)" xlink:href="#G"/><use transform="matrix(0.05,0,0,0.05,13.949999999999998,0)" xlink:href="#H"/><use transform="matrix(0.05,0,0,0.05,23.95,0)" xlink:href="#G"/><use transform="matrix(0.05,0,0,0.05,27.899999999999995,0)" xlink:href="#I"/><use transform="matrix(0.05,0,0,0.05,37.9,0)" xlink:href="#J"/></g><path fill="#333" d="M100-194c63 0 86 42 84 106H49c0 40 14 67 53 68 26 1 43-12 49-29l28 8c-11 28-37 45-77 45C44 4 14-33 15-96c1-61 26-98 85-98zm52 81c6-60-76-77-97-28-3 7-6 17-6 28h103" id="K"/><path fill="#333" d="M115-194c55 1 70 41 70 98S169 2 115 4C84 4 66-9 55-30l1 105H24l-1-265h31l2 30c10-21 28-34 59-34zm-8 174c40 0 45-34 45-75s-6-73-45-74c-42 0-51 32-51 76 0 43 10 73 51 73" id="L"/><path fill="#333" d="M135-143c-3-34-86-38-87 0 15 53 115 12 119 90S17 21 10-45l28-5c4 36 97 45 98 0-10-56-113-15-118-90-4-57 82-63 122-42 12 7 21 19 24 35" id="M"/><path fill="#333" d="M140-251c81 0 123 46 123 126C263-46 219 4 140 4 59 4 17-45 17-125s42-126 123-126zm0 227c63 0 89-41 89-101s-29-99-89-99c-61 0-89 39-89 99S79-25 140-24" id="N"/><g id="e"><use transform="matrix(0.05,0,0,0.05,0,0)" xlink:href="#F"/><use transform="matrix(0.05,0,0,0.05,10,0)" xlink:href="#K"/><use transform="matrix(0.05,0,0,0.05,20,0)" xlink:href="#L"/><use transform="matrix(0.05,0,0,0.05,30,0)" xlink:href="#K"/><use transform="matrix(0.05,0,0,0.05,40,0)" xlink:href="#I"/><use transform="matrix(0.05,0,0,0.05,50,0)" xlink:href="#F"/><use transform="matrix(0.05,0,0,0.05,60,0)" xlink:href="#M"/><use transform="matrix(0.05,0,0,0.05,69,0)" xlink:href="#N"/><use transform="matrix(0.05,0,0,0.05,83,0)" xlink:href="#I"/></g><g id="f"><use transform="matrix(0.05,0,0,0.05,0,0)" xlink:href="#B"/><use transform="matrix(0.05,0,0,0.05,3.95,0)" xlink:href="#C"/><use transform="matrix(0.05,0,0,0.05,13.949999999999998,0)" xlink:href="#D"/></g><g id="g"><use transform="matrix(0.05,0,0,0.05,0,0)" xlink:href="#x"/><use transform="matrix(0.05,0,0,0.05,12,0)" xlink:href="#y"/></g><path fill="#333" d="M190 0L58-211 59 0H30v-248h39L202-35l-2-213h31V0h-41" id="O"/><path fill="#333" d="M141-36C126-15 110 5 73 4 37 3 15-17 15-53c-1-64 63-63 125-63 3-35-9-54-41-54-24 1-41 7-42 31l-33-3c5-37 33-52 76-52 45 0 72 20 72 64v82c-1 20 7 32 28 27v20c-31 9-61-2-59-35zM48-53c0 20 12 33 32 33 41-3 63-29 60-74-43 2-92-5-92 41" id="P"/><path fill="#333" d="M210-169c-67 3-38 105-44 169h-31v-121c0-29-5-50-35-48C34-165 62-65 56 0H25l-1-190h30c1 10-1 24 2 32 10-44 99-50 107 0 11-21 27-35 58-36 85-2 47 119 55 194h-31v-121c0-29-5-49-35-48" id="Q"/><g id="h"><use transform="matrix(0.05,0,0,0.05,0,0)" xlink:href="#B"/><use transform="matrix(0.05,0,0,0.05,3.95,0)" xlink:href="#C"/><use transform="matrix(0.05,0,0,0.05,13.949999999999998,0)" xlink:href="#D"/><use transform="matrix(0.05,0,0,0.05,23.95,0)" xlink:href="#O"/><use transform="matrix(0.05,0,0,0.05,36.9,0)" xlink:href="#P"/><use transform="matrix(0.05,0,0,0.05,46.9,0)" xlink:href="#Q"/><use transform="matrix(0.05,0,0,0.05,61.85,0)" xlink:href="#K"/></g><path fill="#333" d="M108 0H70L1-190h34L89-25l56-165h34" id="R"/><path fill="#333" d="M114-163C36-179 61-72 57 0H25l-1-190h30c1 12-1 29 2 39 6-27 23-49 58-41v29" id="S"/><path fill="#333" d="M96-169c-40 0-48 33-48 73s9 75 48 75c24 0 41-14 43-38l32 2c-6 37-31 61-74 61-59 0-76-41-82-99-10-93 101-131 147-64 4 7 5 14 7 22l-32 3c-4-21-16-35-41-35" id="T"/><path fill="#333" d="M106-169C34-169 62-67 57 0H25v-261h32l-1 103c12-21 28-36 61-36 89 0 53 116 60 194h-32v-121c2-32-8-49-39-48" id="U"/><path fill="#333" d="M87 75C49 33 22-17 22-94c0-76 28-126 65-167h31c-38 41-64 92-64 168S80 34 118 75H87" id="V"/><path fill="#333" d="M101-251c82-7 93 87 43 132L82-64C71-53 59-42 53-27h129V0H18c2-99 128-94 128-182 0-28-16-43-45-43s-46 15-49 41l-32-3c6-41 34-60 81-64" id="W"/><path fill="#333" d="M101-251c68 0 85 55 85 127S166 4 100 4C33 4 14-52 14-124c0-73 17-127 87-127zm-1 229c47 0 54-49 54-102s-4-102-53-102c-51 0-55 48-55 102 0 53 5 102 54 102" id="X"/><path fill="#333" d="M33-261c38 41 65 92 65 168S71 34 33 75H2C39 34 66-17 66-93S39-220 2-261h31" id="Y"/><g id="i"><use transform="matrix(0.05,0,0,0.05,0,0)" xlink:href="#R"/><use transform="matrix(0.05,0,0,0.05,9,0)" xlink:href="#P"/><use transform="matrix(0.05,0,0,0.05,19,0)" xlink:href="#S"/><use transform="matrix(0.05,0,0,0.05,24.95,0)" xlink:href="#T"/><use transform="matrix(0.05,0,0,0.05,33.95,0)" xlink:href="#U"/><use transform="matrix(0.05,0,0,0.05,43.95,0)" xlink:href="#P"/><use transform="matrix(0.05,0,0,0.05,53.95,0)" xlink:href="#S"/><use transform="matrix(0.05,0,0,0.05,59.900000000000006,0)" xlink:href="#V"/><use transform="matrix(0.05,0,0,0.05,65.85000000000001,0)" xlink:href="#W"/><use transform="matrix(0.05,0,0,0.05,75.85000000000001,0)" xlink:href="#X"/><use transform="matrix(0.05,0,0,0.05,85.85000000000001,0)" xlink:href="#Y"/></g><path d="M63-220v92h138v28H63V0H30v-248h175v28H63" id="Z"/><path d="M194 0L95-120 63-95V0H30v-248h33v124l119-124h40L117-140 236 0h-42" id="aa"/><g id="j"><use transform="matrix(0.05,0,0,0.05,0,0)" xlink:href="#Z"/><use transform="matrix(0.05,0,0,0.05,10.950000000000001,0)" xlink:href="#aa"/></g><path fill="#333" d="M127-220V0H93v-220H8v-28h204v28h-85" id="ab"/><path fill="#333" d="M179-190L93 31C79 59 56 82 12 73V49c39 6 53-20 64-50L1-190h34L92-34l54-156h33" id="ac"/><g id="k"><use transform="matrix(0.05,0,0,0.05,0,0)" xlink:href="#B"/><use transform="matrix(0.05,0,0,0.05,3.95,0)" xlink:href="#C"/><use transform="matrix(0.05,0,0,0.05,13.949999999999998,0)" xlink:href="#D"/><use transform="matrix(0.05,0,0,0.05,23.95,0)" xlink:href="#ab"/><use transform="matrix(0.05,0,0,0.05,33.9,0)" xlink:href="#ac"/><use transform="matrix(0.05,0,0,0.05,42.9,0)" xlink:href="#L"/><use transform="matrix(0.05,0,0,0.05,52.900000000000006,0)" xlink:href="#K"/><use transform="matrix(0.05,0,0,0.05,62.900000000000006,0)" xlink:href="#E"/><use transform="matrix(0.05,0,0,0.05,67.9,0)" xlink:href="#F"/></g><path fill="#333" d="M185-189c-5-48-123-54-124 2 14 75 158 14 163 119 3 78-121 87-175 55-17-10-28-26-33-46l33-7c5 56 141 63 141-1 0-78-155-14-162-118-5-82 145-84 179-34 5 7 8 16 11 25" id="ad"/><path fill="#333" d="M84 4C-5 8 30-112 23-190h32v120c0 31 7 50 39 49 72-2 45-101 50-169h31l1 190h-30c-1-10 1-25-2-33-11 22-28 36-60 37" id="ae"/><path fill="#333" d="M24 0v-261h32V0H24" id="af"/><g id="l"><use transform="matrix(0.05,0,0,0.05,0,0)" xlink:href="#B"/><use transform="matrix(0.05,0,0,0.05,3.95,0)" xlink:href="#C"/><use transform="matrix(0.05,0,0,0.05,13.949999999999998,0)" xlink:href="#D"/><use transform="matrix(0.05,0,0,0.05,23.95,0)" xlink:href="#ad"/><use transform="matrix(0.05,0,0,0.05,35.95,0)" xlink:href="#T"/><use transform="matrix(0.05,0,0,0.05,44.95,0)" xlink:href="#U"/><use transform="matrix(0.05,0,0,0.05,54.95,0)" xlink:href="#K"/><use transform="matrix(0.05,0,0,0.05,64.95,0)" xlink:href="#F"/><use transform="matrix(0.05,0,0,0.05,74.95,0)" xlink:href="#ae"/><use transform="matrix(0.05,0,0,0.05,84.95,0)" xlink:href="#af"/><use transform="matrix(0.05,0,0,0.05,88.9,0)" xlink:href="#P"/><use transform="matrix(0.05,0,0,0.05,98.9,0)" xlink:href="#S"/></g><g id="m"><use transform="matrix(0.05,0,0,0.05,0,0)" xlink:href="#J"/><use transform="matrix(0.05,0,0,0.05,5,0)" xlink:href="#M"/></g><g id="n"><use transform="matrix(0.05,0,0,0.05,0,0)" xlink:href="#J"/><use transform="matrix(0.05,0,0,0.05,5,0)" xlink:href="#G"/><use transform="matrix(0.05,0,0,0.05,8.95,0)" xlink:href="#Q"/><use transform="matrix(0.05,0,0,0.05,23.9,0)" xlink:href="#K"/><use transform="matrix(0.05,0,0,0.05,33.9,0)" xlink:href="#M"/><use transform="matrix(0.05,0,0,0.05,42.9,0)" xlink:href="#J"/><use transform="matrix(0.05,0,0,0.05,47.9,0)" xlink:href="#P"/><use transform="matrix(0.05,0,0,0.05,57.900000000000006,0)" xlink:href="#Q"/><use transform="matrix(0.05,0,0,0.05,72.85,0)" xlink:href="#L"/></g><g id="o"><use transform="matrix(0.05,0,0,0.05,0,0)" xlink:href="#B"/><use transform="matrix(0.05,0,0,0.05,3.95,0)" xlink:href="#C"/><use transform="matrix(0.05,0,0,0.05,13.949999999999998,0)" xlink:href="#D"/><use transform="matrix(0.05,0,0,0.05,23.95,0)" xlink:href="#ad"/><use transform="matrix(0.05,0,0,0.05,35.95,0)" xlink:href="#J"/><use transform="matrix(0.05,0,0,0.05,40.95,0)" xlink:href="#P"/><use transform="matrix(0.05,0,0,0.05,50.95,0)" xlink:href="#J"/><use transform="matrix(0.05,0,0,0.05,55.95,0)" xlink:href="#K"/><use transform="matrix(0.05,0,0,0.05,65.95,0)" xlink:href="#E"/><use transform="matrix(0.05,0,0,0.05,70.95,0)" xlink:href="#F"/></g><g id="p"><use transform="matrix(0.05,0,0,0.05,0,0)" xlink:href="#B"/><use transform="matrix(0.05,0,0,0.05,3.95,0)" xlink:href="#C"/><use transform="matrix(0.05,0,0,0.05,13.949999999999998,0)" xlink:href="#D"/><use transform="matrix(0.05,0,0,0.05,23.95,0)" xlink:href="#ab"/><use transform="matrix(0.05,0,0,0.05,33.9,0)" xlink:href="#ac"/><use transform="matrix(0.05,0,0,0.05,42.9,0)" xlink:href="#L"/><use transform="matrix(0.05,0,0,0.05,52.900000000000006,0)" xlink:href="#K"/></g><g id="q"><use transform="matrix(0.05,0,0,0.05,0,0)" xlink:href="#B"/><use transform="matrix(0.05,0,0,0.05,3.95,0)" xlink:href="#C"/><use transform="matrix(0.05,0,0,0.05,13.949999999999998,0)" xlink:href="#D"/><use transform="matrix(0.05,0,0,0.05,23.95,0)" xlink:href="#ab"/><use transform="matrix(0.05,0,0,0.05,33.9,0)" xlink:href="#ac"/><use transform="matrix(0.05,0,0,0.05,42.9,0)" xlink:href="#L"/><use transform="matrix(0.05,0,0,0.05,52.900000000000006,0)" xlink:href="#K"/><use transform="matrix(0.05,0,0,0.05,62.900000000000006,0)" xlink:href="#O"/><use transform="matrix(0.05,0,0,0.05,75.85,0)" xlink:href="#P"/><use transform="matrix(0.05,0,0,0.05,85.85,0)" xlink:href="#Q"/><use transform="matrix(0.05,0,0,0.05,100.8,0)" xlink:href="#K"/></g><g id="r"><use transform="matrix(0.05,0,0,0.05,0,0)" xlink:href="#B"/><use transform="matrix(0.05,0,0,0.05,3.95,0)" xlink:href="#C"/><use transform="matrix(0.05,0,0,0.05,13.949999999999998,0)" xlink:href="#D"/><use transform="matrix(0.05,0,0,0.05,23.95,0)" xlink:href="#ad"/><use transform="matrix(0.05,0,0,0.05,35.95,0)" xlink:href="#J"/><use transform="matrix(0.05,0,0,0.05,40.95,0)" xlink:href="#P"/><use transform="matrix(0.05,0,0,0.05,50.95,0)" xlink:href="#J"/><use transform="matrix(0.05,0,0,0.05,55.95,0)" xlink:href="#K"/></g><g id="s"><use transform="matrix(0.05,0,0,0.05,0,0)" xlink:href="#x"/><use transform="matrix(0.05,0,0,0.05,12,0)" xlink:href="#y"/><use transform="matrix(0.05,0,0,0.05,24,0)" xlink:href="#z"/><use transform="matrix(0.05,0,0,0.05,29,0)" xlink:href="#v"/><use transform="matrix(0.05,0,0,0.05,41,0)" xlink:href="#y"/></g><g id="t"><use transform="matrix(0.05,0,0,0.05,0,0)" xlink:href="#B"/><use transform="matrix(0.05,0,0,0.05,3.95,0)" xlink:href="#C"/><use transform="matrix(0.05,0,0,0.05,13.949999999999998,0)" xlink:href="#D"/><use transform="matrix(0.05,0,0,0.05,23.95,0)" xlink:href="#ad"/><use transform="matrix(0.05,0,0,0.05,35.95,0)" xlink:href="#J"/><use transform="matrix(0.05,0,0,0.05,40.95,0)" xlink:href="#P"/><use transform="matrix(0.05,0,0,0.05,50.95,0)" xlink:href="#J"/><use transform="matrix(0.05,0,0,0.05,55.95,0)" xlink:href="#K"/><use transform="matrix(0.05,0,0,0.05,65.95,0)" xlink:href="#O"/><use transform="matrix(0.05,0,0,0.05,78.9,0)" xlink:href="#P"/><use transform="matrix(0.05,0,0,0.05,88.9,0)" xlink:href="#Q"/><use transform="matrix(0.05,0,0,0.05,103.85000000000001,0)" xlink:href="#K"/></g></defs></g></svg>
