<svg version="1.1" viewBox="0.0 0.0 310.0 194.0" fill="none" stroke="none" stroke-linecap="square" stroke-miterlimit="10" xmlns:xlink="http://www.w3.org/1999/xlink" xmlns="http://www.w3.org/2000/svg"><clipPath id="p.0"><path d="m0 0l800.0 0l0 600.0l-800.0 0l0 -600.0z" clip-rule="nonzero"/></clipPath><g clip-path="url(#p.0)"><path fill="#000000" fill-opacity="0.0" d="m0 0l800.0 0l0 600.0l-800.0 0z" fill-rule="evenodd"/><path fill="#ff0000" d="m1.0 95.99213l94.99213 -94.99213l94.99213 94.99213l-94.99213 94.99213z" fill-rule="evenodd"/><path stroke="#000000" stroke-width="2.0" stroke-linejoin="round" stroke-linecap="butt" d="m1.0 95.99213l94.99213 -94.99213l94.99213 94.99213l-94.99213 94.99213z" fill-rule="evenodd"/><path fill="#ffffff" d="m89.73909 102.912125l5.125 -13.359375l1.90625 0l5.46875 13.359375l-2.015625 0l-1.546875 -4.046875l-5.59375 0l-1.46875 4.046875l-1.875 0zm3.859375 -5.484375l4.53125 0l-1.40625 -3.703125q-0.625 -1.6875 -0.9375 -2.765625q-0.265625 1.28125 -0.71875 2.546875l-1.46875 3.921875z" fill-rule="nonzero"/><path fill="#3d85c6" d="m118.0 95.99213l94.99213 -94.99213l94.99213 94.99213l-94.99213 94.99213z" fill-rule="evenodd"/><path stroke="#000000" stroke-width="2.0" stroke-linejoin="round" stroke-linecap="butt" d="m118.0 95.99213l94.99213 -94.99213l94.99213 94.99213l-94.99213 94.99213z" fill-rule="evenodd"/><path fill="#ffffff" d="m208.12971 102.912125l0 -13.359375l5.015625 0q1.53125 0 2.453125 0.40625q0.921875 0.40625 1.4375 1.25q0.53125 0.84375 0.53125 1.765625q0 0.859375 -0.46875 1.625q-0.453125 0.75 -1.390625 1.203125q1.203125 0.359375 1.859375 1.21875q0.65625 0.859375 0.65625 2.015625q0 0.9375 -0.40625 1.75q-0.390625 0.796875 -0.984375 1.234375q-0.578125 0.4375 -1.453125 0.671875q-0.875 0.21875 -2.15625 0.21875l-5.09375 0zm1.78125 -7.75l2.875 0q1.1875 0 1.6875 -0.140625q0.671875 -0.203125 1.015625 -0.671875q0.34375 -0.46875 0.34375 -1.171875q0 -0.65625 -0.328125 -1.15625q-0.3125 -0.515625 -0.90625 -0.703125q-0.59375 -0.1875 -2.03125 -0.1875l-2.65625 0l0 4.03125zm0 6.171875l3.3125 0q0.859375 0 1.203125 -0.0625q0.609375 -0.109375 1.015625 -0.359375q0.421875 -0.265625 0.6875 -0.75q0.265625 -0.484375 0.265625 -1.125q0 -0.75 -0.390625 -1.296875q-0.375 -0.546875 -1.0625 -0.765625q-0.671875 -0.234375 -1.953125 -0.234375l-3.078125 0l0 4.59375z" fill-rule="nonzero"/><path fill="#674ea7" d="m118.0 95.99213l36.48819 -36.48819l36.48819 36.48819l-36.48819 36.48819z" fill-rule="evenodd"/><path stroke="#674ea7" stroke-width="2.0" stroke-linejoin="round" stroke-linecap="butt" d="m118.0 95.99213l36.48819 -36.48819l36.48819 36.48819l-36.48819 36.48819z" fill-rule="evenodd"/><path fill="#000000" fill-opacity="0.0" d="m118.0 74.779526l72.97638 0l0 42.4252l-72.97638 0z" fill-rule="evenodd"/><path fill="#ffffff" d="m135.27689 102.912125l5.125 -13.359375l1.90625 0l5.46875 13.359375l-2.015625 0l-1.546875 -4.046875l-5.59375 0l-1.46875 4.046875l-1.875 0zm3.859375 -5.484375l4.53125 0l-1.40625 -3.703125q-0.625 -1.6875 -0.9375 -2.765625q-0.265625 1.28125 -0.71875 2.546875l-1.46875 3.921875z" fill-rule="nonzero"/><path fill="#ffffff" d="m150.92358 102.912125l-1.875 0l0 -5.453125q0 -2.3125 0.0625 -2.953125q0.109375 -1.140625 0.4375 -1.890625q0.328125 -0.765625 1.015625 -1.484375q0.703125 -0.71875 1.71875 -1.171875q1.03125 -0.453125 2.171875 -0.453125q1.109375 0 2.09375 0.4375q1.0 0.421875 1.75 1.15625q0.75 0.71875 1.078125 1.546875q0.328125 0.8125 0.4375 2.0625q0.03125 0.5 0.03125 2.75l0 5.453125l-1.859375 0l0 -5.515625q0 -1.921875 -0.046875 -2.453125q-0.078125 -0.953125 -0.328125 -1.578125q-0.171875 -0.46875 -0.609375 -0.9375q-0.4375 -0.46875 -1.140625 -0.765625q-0.6875 -0.3125 -1.40625 -0.3125q-0.734375 0 -1.46875 0.328125q-0.71875 0.328125 -1.171875 0.859375q-0.453125 0.515625 -0.625 1.15625q-0.171875 0.625 -0.234375 1.484375q-0.03125 0.46875 -0.03125 2.21875l0 5.515625z" fill-rule="nonzero"/><path fill="#ffffff" d="m162.58405 102.912125l0 -13.359375l5.015625 0q1.53125 0 2.453125 0.40625q0.921875 0.40625 1.4375 1.25q0.53125 0.84375 0.53125 1.765625q0 0.859375 -0.46875 1.625q-0.453125 0.75 -1.390625 1.203125q1.203125 0.359375 1.859375 1.21875q0.65625 0.859375 0.65625 2.015625q0 0.9375 -0.40625 1.75q-0.390625 0.796875 -0.984375 1.234375q-0.578125 0.4375 -1.453125 0.671875q-0.875 0.21875 -2.15625 0.21875l-5.09375 0zm1.78125 -7.75l2.875 0q1.1875 0 1.6875 -0.140625q0.671875 -0.203125 1.015625 -0.671875q0.34375 -0.46875 0.34375 -1.171875q0 -0.65625 -0.328125 -1.15625q-0.3125 -0.515625 -0.90625 -0.703125q-0.59375 -0.1875 -2.03125 -0.1875l-2.65625 0l0 4.03125zm0 6.171875l3.3125 0q0.859375 0 1.203125 -0.0625q0.609375 -0.109375 1.015625 -0.359375q0.421875 -0.265625 0.6875 -0.75q0.265625 -0.484375 0.265625 -1.125q0 -0.75 -0.390625 -1.296875q-0.375 -0.546875 -1.0625 -0.765625q-0.671875 -0.234375 -1.953125 -0.234375l-3.078125 0l0 4.59375z" fill-rule="nonzero"/></g></svg>
