<svg version="1.1" viewBox="0.0 0.0 510.0 240.0" fill="none" stroke="none" stroke-linecap="square" stroke-miterlimit="10" xmlns:xlink="http://www.w3.org/1999/xlink" xmlns="http://www.w3.org/2000/svg"><clipPath id="p.0"><path d="m0 0l800.0 0l0 600.0l-800.0 0l0 -600.0z" clip-rule="nonzero"/></clipPath><g clip-path="url(#p.0)"><path fill="#000000" fill-opacity="0.0" d="m0 0l800.0 0l0 600.0l-800.0 0z" fill-rule="evenodd"/><path fill="#000000" fill-opacity="0.0" d="m39.119293 27.374783l470.33072 0" fill-rule="evenodd"/><path stroke="#000000" stroke-width="1.0" stroke-linejoin="round" stroke-linecap="butt" d="m39.119293 27.374783l470.33072 0" fill-rule="evenodd"/><path fill="#000000" fill-opacity="0.0" d="m39.119293 109.24092l470.33072 0" fill-rule="evenodd"/><path stroke="#000000" stroke-width="1.0" stroke-linejoin="round" stroke-linecap="butt" d="m39.119293 109.24092l470.33072 0" fill-rule="evenodd"/><path fill="#000000" fill-opacity="0.0" d="m39.119293 192.13594l470.33072 0" fill-rule="evenodd"/><path stroke="#000000" stroke-width="1.0" stroke-linejoin="round" stroke-linecap="butt" d="m39.119293 192.13594l470.33072 0" fill-rule="evenodd"/><path fill="#cfe2f3" d="m69.17179 27.374783l0 0c0 -2.2700214 1.84021 -4.110235 4.1102295 -4.110235l0 0c1.0901031 0 2.135559 0.43304062 2.9063797 1.2038593c0.7708206 0.7708187 1.2038574 1.8162727 1.2038574 2.906376l0 0c0 2.2700214 -1.84021 4.110237 -4.110237 4.110237l0 0c-2.2700195 0 -4.1102295 -1.8402157 -4.1102295 -4.110237z" fill-rule="evenodd"/><path stroke="#000000" stroke-width="1.0" stroke-linejoin="round" stroke-linecap="butt" d="m69.17179 27.374783l0 0c0 -2.2700214 1.84021 -4.110235 4.1102295 -4.110235l0 0c1.0901031 0 2.135559 0.43304062 2.9063797 1.2038593c0.7708206 0.7708187 1.2038574 1.8162727 1.2038574 2.906376l0 0c0 2.2700214 -1.84021 4.110237 -4.110237 4.110237l0 0c-2.2700195 0 -4.1102295 -1.8402157 -4.1102295 -4.110237z" fill-rule="evenodd"/><path fill="#cfe2f3" d="m157.17178 27.374783l0 0c0 -2.2700214 1.8402252 -4.110235 4.1102448 -4.110235l0 0c1.0901031 0 2.135559 0.43304062 2.906372 1.2038593c0.770813 0.7708187 1.2038574 1.8162727 1.2038574 2.906376l0 0c0 2.2700214 -1.84021 4.110237 -4.1102295 4.110237l0 0c-2.2700195 0 -4.1102448 -1.8402157 -4.1102448 -4.110237z" fill-rule="evenodd"/><path stroke="#000000" stroke-width="1.0" stroke-linejoin="round" stroke-linecap="butt" d="m157.17178 27.374783l0 0c0 -2.2700214 1.8402252 -4.110235 4.1102448 -4.110235l0 0c1.0901031 0 2.135559 0.43304062 2.906372 1.2038593c0.770813 0.7708187 1.2038574 1.8162727 1.2038574 2.906376l0 0c0 2.2700214 -1.84021 4.110237 -4.1102295 4.110237l0 0c-2.2700195 0 -4.1102448 -1.8402157 -4.1102448 -4.110237z" fill-rule="evenodd"/><path fill="#cfe2f3" d="m245.17178 27.374783l0 0c0 -2.2700214 1.8402252 -4.110235 4.1102448 -4.110235l0 0c1.0901031 0 2.135559 0.43304062 2.906372 1.2038593c0.770813 0.7708187 1.2038574 1.8162727 1.2038574 2.906376l0 0c0 2.2700214 -1.84021 4.110237 -4.1102295 4.110237l0 0c-2.2700195 0 -4.1102448 -1.8402157 -4.1102448 -4.110237z" fill-rule="evenodd"/><path stroke="#000000" stroke-width="1.0" stroke-linejoin="round" stroke-linecap="butt" d="m245.17178 27.374783l0 0c0 -2.2700214 1.8402252 -4.110235 4.1102448 -4.110235l0 0c1.0901031 0 2.135559 0.43304062 2.906372 1.2038593c0.770813 0.7708187 1.2038574 1.8162727 1.2038574 2.906376l0 0c0 2.2700214 -1.84021 4.110237 -4.1102295 4.110237l0 0c-2.2700195 0 -4.1102448 -1.8402157 -4.1102448 -4.110237z" fill-rule="evenodd"/><path fill="#cfe2f3" d="m157.17178 109.24092l0 0c0 -2.2700195 1.8402252 -4.1102295 4.1102448 -4.1102295l0 0c1.0901031 0 2.135559 0.4330368 2.906372 1.2038574c0.770813 0.7708206 1.2038574 1.8162766 1.2038574 2.906372l0 0c0 2.2700272 -1.84021 4.110237 -4.1102295 4.110237l0 0c-2.2700195 0 -4.1102448 -1.84021 -4.1102448 -4.110237z" fill-rule="evenodd"/><path stroke="#000000" stroke-width="1.0" stroke-linejoin="round" stroke-linecap="butt" d="m157.17178 109.24092l0 0c0 -2.2700195 1.8402252 -4.1102295 4.1102448 -4.1102295l0 0c1.0901031 0 2.135559 0.4330368 2.906372 1.2038574c0.770813 0.7708206 1.2038574 1.8162766 1.2038574 2.906372l0 0c0 2.2700272 -1.84021 4.110237 -4.1102295 4.110237l0 0c-2.2700195 0 -4.1102448 -1.84021 -4.1102448 -4.110237z" fill-rule="evenodd"/><path fill="#cfe2f3" d="m245.17178 109.75536l0 0c0 -2.2700272 1.8402252 -4.110237 4.1102448 -4.110237l0 0c1.0901031 0 2.135559 0.4330368 2.906372 1.2038574c0.770813 0.7708206 1.2038574 1.8162766 1.2038574 2.9063797l0 0c0 2.2700195 -1.84021 4.1102295 -4.1102295 4.1102295l0 0c-2.2700195 0 -4.1102448 -1.84021 -4.1102448 -4.1102295z" fill-rule="evenodd"/><path stroke="#000000" stroke-width="1.0" stroke-linejoin="round" stroke-linecap="butt" d="m245.17178 109.75536l0 0c0 -2.2700272 1.8402252 -4.110237 4.1102448 -4.110237l0 0c1.0901031 0 2.135559 0.4330368 2.906372 1.2038574c0.770813 0.7708206 1.2038574 1.8162766 1.2038574 2.9063797l0 0c0 2.2700195 -1.84021 4.1102295 -4.1102295 4.1102295l0 0c-2.2700195 0 -4.1102448 -1.84021 -4.1102448 -4.1102295z" fill-rule="evenodd"/><path fill="#cfe2f3" d="m321.6731 27.374783l0 0c0 -2.2700214 1.84021 -4.110235 4.1102295 -4.110235l0 0c1.0901184 0 2.135559 0.43304062 2.906372 1.2038593c0.7708435 0.7708187 1.2038879 1.8162727 1.2038879 2.906376l0 0c0 2.2700214 -1.8402405 4.110237 -4.11026 4.110237l0 0c-2.2700195 0 -4.1102295 -1.8402157 -4.1102295 -4.110237z" fill-rule="evenodd"/><path stroke="#000000" stroke-width="1.0" stroke-linejoin="round" stroke-linecap="butt" d="m321.6731 27.374783l0 0c0 -2.2700214 1.84021 -4.110235 4.1102295 -4.110235l0 0c1.0901184 0 2.135559 0.43304062 2.906372 1.2038593c0.7708435 0.7708187 1.2038879 1.8162727 1.2038879 2.906376l0 0c0 2.2700214 -1.8402405 4.110237 -4.11026 4.110237l0 0c-2.2700195 0 -4.1102295 -1.8402157 -4.1102295 -4.110237z" fill-rule="evenodd"/><path fill="#cfe2f3" d="m379.67047 27.374783l0 0c0 -2.2700214 1.84021 -4.110235 4.1102295 -4.110235l0 0c1.0901184 0 2.135559 0.43304062 2.906372 1.2038593c0.7708435 0.7708187 1.2038879 1.8162727 1.2038879 2.906376l0 0c0 2.2700214 -1.8402405 4.110237 -4.11026 4.110237l0 0c-2.2700195 0 -4.1102295 -1.8402157 -4.1102295 -4.110237z" fill-rule="evenodd"/><path stroke="#000000" stroke-width="1.0" stroke-linejoin="round" stroke-linecap="butt" d="m379.67047 27.374783l0 0c0 -2.2700214 1.84021 -4.110235 4.1102295 -4.110235l0 0c1.0901184 0 2.135559 0.43304062 2.906372 1.2038593c0.7708435 0.7708187 1.2038879 1.8162727 1.2038879 2.906376l0 0c0 2.2700214 -1.8402405 4.110237 -4.11026 4.110237l0 0c-2.2700195 0 -4.1102295 -1.8402157 -4.1102295 -4.110237z" fill-rule="evenodd"/><path fill="#cfe2f3" d="m407.67047 27.374783l0 0c0 -2.2700214 1.84021 -4.110235 4.1102295 -4.110235l0 0c1.0901184 0 2.135559 0.43304062 2.906372 1.2038593c0.7708435 0.7708187 1.2038879 1.8162727 1.2038879 2.906376l0 0c0 2.2700214 -1.8402405 4.110237 -4.11026 4.110237l0 0c-2.2700195 0 -4.1102295 -1.8402157 -4.1102295 -4.110237z" fill-rule="evenodd"/><path stroke="#000000" stroke-width="1.0" stroke-linejoin="round" stroke-linecap="butt" d="m407.67047 27.374783l0 0c0 -2.2700214 1.84021 -4.110235 4.1102295 -4.110235l0 0c1.0901184 0 2.135559 0.43304062 2.906372 1.2038593c0.7708435 0.7708187 1.2038879 1.8162727 1.2038879 2.906376l0 0c0 2.2700214 -1.8402405 4.110237 -4.11026 4.110237l0 0c-2.2700195 0 -4.1102295 -1.8402157 -4.1102295 -4.110237z" fill-rule="evenodd"/><path fill="#cfe2f3" d="m486.1744 27.374783l0 0c0 -2.2700214 1.84021 -4.110235 4.1102295 -4.110235l0 0c1.0901184 0 2.135559 0.43304062 2.906372 1.2038593c0.7708435 0.7708187 1.2038879 1.8162727 1.2038879 2.906376l0 0c0 2.2700214 -1.8402405 4.110237 -4.11026 4.110237l0 0c-2.2700195 0 -4.1102295 -1.8402157 -4.1102295 -4.110237z" fill-rule="evenodd"/><path stroke="#000000" stroke-width="1.0" stroke-linejoin="round" stroke-linecap="butt" d="m486.1744 27.374783l0 0c0 -2.2700214 1.84021 -4.110235 4.1102295 -4.110235l0 0c1.0901184 0 2.135559 0.43304062 2.906372 1.2038593c0.7708435 0.7708187 1.2038879 1.8162727 1.2038879 2.906376l0 0c0 2.2700214 -1.8402405 4.110237 -4.11026 4.110237l0 0c-2.2700195 0 -4.1102295 -1.8402157 -4.1102295 -4.110237z" fill-rule="evenodd"/><path fill="#cfe2f3" d="m450.17178 109.75536l0 0c0 -2.2700272 1.84021 -4.110237 4.1102295 -4.110237l0 0c1.0901184 0 2.135559 0.4330368 2.906372 1.2038574c0.7708435 0.7708206 1.2038879 1.8162766 1.2038879 2.9063797l0 0c0 2.2700195 -1.8402405 4.1102295 -4.11026 4.1102295l0 0c-2.2700195 0 -4.1102295 -1.84021 -4.1102295 -4.1102295z" fill-rule="evenodd"/><path stroke="#000000" stroke-width="1.0" stroke-linejoin="round" stroke-linecap="butt" d="m450.17178 109.75536l0 0c0 -2.2700272 1.84021 -4.110237 4.1102295 -4.110237l0 0c1.0901184 0 2.135559 0.4330368 2.906372 1.2038574c0.7708435 0.7708206 1.2038879 1.8162766 1.2038879 2.9063797l0 0c0 2.2700195 -1.8402405 4.1102295 -4.11026 4.1102295l0 0c-2.2700195 0 -4.1102295 -1.84021 -4.1102295 -4.1102295z" fill-rule="evenodd"/><path fill="#cfe2f3" d="m293.67047 192.13594l0 0c0 -2.2700195 1.84021 -4.1102448 4.1102295 -4.1102448l0 0c1.0901184 0 2.135559 0.43304443 2.906372 1.2038727c0.7708435 0.770813 1.2038879 1.8162689 1.2038879 2.906372l0 0c0 2.2700195 -1.8402405 4.1102295 -4.11026 4.1102295l0 0c-2.2700195 0 -4.1102295 -1.84021 -4.1102295 -4.1102295z" fill-rule="evenodd"/><path stroke="#000000" stroke-width="1.0" stroke-linejoin="round" stroke-linecap="butt" d="m293.67047 192.13594l0 0c0 -2.2700195 1.84021 -4.1102448 4.1102295 -4.1102448l0 0c1.0901184 0 2.135559 0.43304443 2.906372 1.2038727c0.7708435 0.770813 1.2038879 1.8162689 1.2038879 2.906372l0 0c0 2.2700195 -1.8402405 4.1102295 -4.11026 4.1102295l0 0c-2.2700195 0 -4.1102295 -1.84021 -4.1102295 -4.1102295z" fill-rule="evenodd"/><path fill="#cfe2f3" d="m112.67048 192.13594l0 0c0 -2.2700195 1.84021 -4.1102448 4.1102295 -4.1102448l0 0c1.0901031 0 2.135559 0.43304443 2.9063797 1.2038727c0.7708206 0.770813 1.2038574 1.8162689 1.2038574 2.906372l0 0c0 2.2700195 -1.84021 4.1102295 -4.110237 4.1102295l0 0c-2.2700195 0 -4.1102295 -1.84021 -4.1102295 -4.1102295z" fill-rule="evenodd"/><path stroke="#000000" stroke-width="1.0" stroke-linejoin="round" stroke-linecap="butt" d="m112.67048 192.13594l0 0c0 -2.2700195 1.84021 -4.1102448 4.1102295 -4.1102448l0 0c1.0901031 0 2.135559 0.43304443 2.9063797 1.2038727c0.7708206 0.770813 1.2038574 1.8162689 1.2038574 2.906372l0 0c0 2.2700195 -1.84021 4.1102295 -4.110237 4.1102295l0 0c-2.2700195 0 -4.1102295 -1.84021 -4.1102295 -4.1102295z" fill-rule="evenodd"/><path fill="#000000" fill-opacity="0.0" d="m164.1884 30.281158l82.17323 76.56693" fill-rule="evenodd"/><path stroke="#000000" stroke-width="1.0" stroke-linejoin="round" stroke-linecap="butt" d="m164.1884 30.281158l79.66589 74.23065" fill-rule="evenodd"/><path fill="#000000" stroke="#000000" stroke-width="1.0" stroke-linecap="butt" d="m243.8543 104.51181l-1.5894165 0.056137085l3.0271912 1.2835464l-1.4939117 -2.9290924z" fill-rule="evenodd"/><path fill="#000000" fill-opacity="0.0" d="m164.1884 106.33455l82.17323 -76.06299" fill-rule="evenodd"/><path stroke="#000000" stroke-width="1.0" stroke-linejoin="round" stroke-linecap="butt" d="m164.1884 106.33456l79.65822 -73.735" fill-rule="evenodd"/><path fill="#000000" stroke="#000000" stroke-width="1.0" stroke-linecap="butt" d="m243.84662 32.599564l-0.06137085 1.5892143l1.50354 -2.924158l-3.0313873 1.2735767z" fill-rule="evenodd"/><path fill="#000000" fill-opacity="0.0" d="m300.68707 189.22957l80.188995 -158.96063" fill-rule="evenodd"/><path stroke="#000000" stroke-width="1.0" stroke-linejoin="round" stroke-linecap="butt" d="m300.6871 189.22955l78.64542 -155.90082" fill-rule="evenodd"/><path fill="#000000" stroke="#000000" stroke-width="1.0" stroke-linecap="butt" d="m379.33252 33.328735l0.4975586 1.5105667l0.38754272 -3.2651405l-2.3956604 2.2521286z" fill-rule="evenodd"/><path fill="#000000" fill-opacity="0.0" d="m414.68707 30.281158l36.692932 76.56693" fill-rule="evenodd"/><path stroke="#000000" stroke-width="1.0" stroke-linejoin="round" stroke-linecap="butt" d="m414.6871 30.281158l35.211853 73.476395" fill-rule="evenodd"/><path fill="#000000" stroke="#000000" stroke-width="1.0" stroke-linecap="butt" d="m449.89893 103.75756l-1.5001221 -0.52814484l2.3494263 2.3003387l-0.32113647 -3.2723465z" fill-rule="evenodd"/><path fill="#000000" fill-opacity="0.0" d="m51.00502 19.374783l36.692917 0l0 25.228348l-36.692917 0z" fill-rule="evenodd"/><path fill="#000000" d="m66.176895 40.00166l1.328125 0.171875q-0.3125 1.171875 -1.171875 1.8125q-0.84375 0.640625 -2.171875 0.640625q-1.671875 0 -2.65625 -1.015625q-0.96875 -1.03125 -0.96875 -2.890625q0 -1.921875 0.984375 -2.96875q1.0 -1.0625 2.578125 -1.0625q1.515625 0 2.484375 1.03125q0.96875 1.03125 0.96875 2.921875q0 0.109375 -0.015625 0.34375l-5.65625 0q0.0625 1.25 0.703125 1.921875q0.640625 0.65625 1.59375 0.65625q0.703125 0 1.203125 -0.359375q0.5 -0.375 0.796875 -1.203125zm-4.234375 -2.078125l4.25 0q-0.09375 -0.953125 -0.484375 -1.4375q-0.625 -0.75 -1.609375 -0.75q-0.875 0 -1.484375 0.59375q-0.609375 0.59375 -0.671875 1.59375z" fill-rule="nonzero"/><path fill="#000000" fill-opacity="0.0" d="m58.86675 30.970455l36.692913 0l0 25.228348l-36.692913 0z" fill-rule="evenodd"/><path fill="#000000" d="m71.8355 50.210453l-0.9375 0l0 -5.96875q-0.34375 0.328125 -0.890625 0.65625q-0.546875 0.3125 -0.984375 0.46875l0 -0.90625q0.796875 -0.359375 1.375 -0.890625q0.59375 -0.53125 0.828125 -1.015625l0.609375 0l0 7.65625zm5.1348267 0l-0.9375 0l0 -5.96875q-0.34375 0.328125 -0.890625 0.65625q-0.546875 0.3125 -0.984375 0.46875l0 -0.90625q0.796875 -0.359375 1.375 -0.890625q0.59375 -0.53125 0.828125 -1.015625l0.609375 0l0 7.65625z" fill-rule="nonzero"/><path fill="#000000" fill-opacity="0.0" d="m139.00502 19.374783l36.692917 0l0 25.228348l-36.692917 0z" fill-rule="evenodd"/><path fill="#000000" d="m154.1769 40.00166l1.328125 0.171875q-0.3125 1.171875 -1.171875 1.8125q-0.84375 0.640625 -2.171875 0.640625q-1.671875 0 -2.65625 -1.015625q-0.96875 -1.03125 -0.96875 -2.890625q0 -1.921875 0.984375 -2.96875q1.0 -1.0625 2.578125 -1.0625q1.515625 0 2.484375 1.03125q0.96875 1.03125 0.96875 2.921875q0 0.109375 -0.015625 0.34375l-5.65625 0q0.0625 1.25 0.703125 1.921875q0.640625 0.65625 1.59375 0.65625q0.703125 0 1.203125 -0.359375q0.5 -0.375 0.796875 -1.203125zm-4.234375 -2.078125l4.25 0q-0.09375 -0.953125 -0.484375 -1.4375q-0.625 -0.75 -1.609375 -0.75q-0.875 0 -1.484375 0.59375q-0.609375 0.59375 -0.671875 1.59375z" fill-rule="nonzero"/><path fill="#000000" fill-opacity="0.0" d="m146.86674 30.970455l36.692917 0l0 25.228348l-36.692917 0z" fill-rule="evenodd"/><path fill="#000000" d="m159.8355 50.210453l-0.9375 0l0 -5.96875q-0.34375 0.328125 -0.890625 0.65625q-0.546875 0.3125 -0.984375 0.46875l0 -0.90625q0.796875 -0.359375 1.375 -0.890625q0.59375 -0.53125 0.828125 -1.015625l0.609375 0l0 7.65625zm7.3171234 -0.90625l0 0.90625l-5.03125 0q-0.015625 -0.34375 0.109375 -0.65625q0.1875 -0.515625 0.609375 -1.015625q0.421875 -0.5 1.234375 -1.140625q1.234375 -1.03125 1.671875 -1.625q0.4375 -0.59375 0.4375 -1.125q0 -0.5625 -0.40625 -0.9375q-0.390625 -0.390625 -1.03125 -0.390625q-0.671875 0 -1.078125 0.40625q-0.40625 0.40625 -0.40625 1.125l-0.96875 -0.09375q0.09375 -1.078125 0.734375 -1.640625q0.65625 -0.5625 1.734375 -0.5625q1.109375 0 1.75 0.609375q0.640625 0.609375 0.640625 1.5q0 0.46875 -0.1875 0.90625q-0.1875 0.4375 -0.625 0.9375q-0.4375 0.484375 -1.453125 1.328125q-0.828125 0.71875 -1.078125 0.96875q-0.234375 0.25 -0.390625 0.5l3.734375 0z" fill-rule="nonzero"/><path fill="#000000" fill-opacity="0.0" d="m238.33966 19.374783l36.692932 0l0 25.228348l-36.692932 0z" fill-rule="evenodd"/><path fill="#000000" d="m253.51154 40.00166l1.328125 0.171875q-0.3125 1.171875 -1.171875 1.8125q-0.84375 0.640625 -2.171875 0.640625q-1.671875 0 -2.65625 -1.015625q-0.96875 -1.03125 -0.96875 -2.890625q0 -1.921875 0.984375 -2.96875q1.0 -1.0625 2.578125 -1.0625q1.515625 0 2.484375 1.03125q0.96875 1.03125 0.96875 2.921875q0 0.109375 -0.015625 0.34375l-5.65625 0q0.0625 1.25 0.703125 1.921875q0.640625 0.65625 1.59375 0.65625q0.703125 0 1.203125 -0.359375q0.5 -0.375 0.796875 -1.203125zm-4.234375 -2.078125l4.25 0q-0.09375 -0.953125 -0.484375 -1.4375q-0.625 -0.75 -1.609375 -0.75q-0.875 0 -1.484375 0.59375q-0.609375 0.59375 -0.671875 1.59375z" fill-rule="nonzero"/><path fill="#000000" fill-opacity="0.0" d="m246.2014 30.970455l36.692917 0l0 25.228348l-36.692917 0z" fill-rule="evenodd"/><path fill="#000000" d="m259.17014 50.210453l-0.9375 0l0 -5.96875q-0.34375 0.328125 -0.890625 0.65625q-0.546875 0.3125 -0.984375 0.46875l0 -0.90625q0.796875 -0.359375 1.375 -0.890625q0.59375 -0.53125 0.828125 -1.015625l0.609375 0l0 7.65625zm2.4108887 -2.015625l0.9375 -0.125q0.15625 0.796875 0.546875 1.15625q0.390625 0.34375 0.9375 0.34375q0.65625 0 1.109375 -0.453125q0.46875 -0.46875 0.46875 -1.140625q0 -0.640625 -0.421875 -1.0625q-0.421875 -0.421875 -1.078125 -0.421875q-0.265625 0 -0.65625 0.109375l0.109375 -0.828125q0.09375 0.015625 0.140625 0.015625q0.59375 0 1.078125 -0.3125q0.484375 -0.3125 0.484375 -0.96875q0 -0.515625 -0.359375 -0.84375q-0.34375 -0.34375 -0.890625 -0.34375q-0.546875 0 -0.921875 0.34375q-0.359375 0.34375 -0.453125 1.03125l-0.9375 -0.171875q0.171875 -0.9375 0.78125 -1.453125q0.609375 -0.515625 1.5 -0.515625q0.625 0 1.15625 0.265625q0.53125 0.265625 0.796875 0.734375q0.28125 0.453125 0.28125 0.984375q0 0.484375 -0.265625 0.890625q-0.265625 0.40625 -0.78125 0.65625q0.671875 0.15625 1.046875 0.65625q0.375 0.484375 0.375 1.21875q0 1.0 -0.734375 1.703125q-0.71875 0.6875 -1.828125 0.6875q-1.0 0 -1.671875 -0.59375q-0.65625 -0.609375 -0.75 -1.5625z" fill-rule="nonzero"/><path fill="#000000" fill-opacity="0.0" d="m304.73862 19.374783l36.6929 0l0 25.228348l-36.6929 0z" fill-rule="evenodd"/><path fill="#000000" d="m319.9105 40.00166l1.328125 0.171875q-0.3125 1.171875 -1.171875 1.8125q-0.84375 0.640625 -2.171875 0.640625q-1.671875 0 -2.65625 -1.015625q-0.96875 -1.03125 -0.96875 -2.890625q0 -1.921875 0.984375 -2.96875q1.0 -1.0625 2.578125 -1.0625q1.515625 0 2.484375 1.03125q0.96875 1.03125 0.96875 2.921875q0 0.109375 -0.015625 0.34375l-5.65625 0q0.0625 1.25 0.703125 1.921875q0.640625 0.65625 1.59375 0.65625q0.703125 0 1.203125 -0.359375q0.5 -0.375 0.796875 -1.203125zm-4.234375 -2.078125l4.25 0q-0.09375 -0.953125 -0.484375 -1.4375q-0.625 -0.75 -1.609375 -0.75q-0.875 0 -1.484375 0.59375q-0.609375 0.59375 -0.671875 1.59375z" fill-rule="nonzero"/><path fill="#000000" fill-opacity="0.0" d="m312.60034 30.970455l36.6929 0l0 25.228348l-36.6929 0z" fill-rule="evenodd"/><path fill="#000000" d="m325.5691 50.210453l-0.9375 0l0 -5.96875q-0.34375 0.328125 -0.890625 0.65625q-0.546875 0.3125 -0.984375 0.46875l0 -0.90625q0.796875 -0.359375 1.375 -0.890625q0.59375 -0.53125 0.828125 -1.015625l0.609375 0l0 7.65625zm5.3952637 0l0 -1.828125l-3.296875 0l0 -0.859375l3.46875 -4.9375l0.765625 0l0 4.9375l1.03125 0l0 0.859375l-1.03125 0l0 1.828125l-0.9375 0zm0 -2.6875l0 -3.4375l-2.375 3.4375l2.375 0z" fill-rule="nonzero"/><path fill="#000000" fill-opacity="0.0" d="m371.1389 19.374783l36.6929 0l0 25.228348l-36.6929 0z" fill-rule="evenodd"/><path fill="#000000" d="m386.31076 40.00166l1.328125 0.171875q-0.3125 1.171875 -1.171875 1.8125q-0.84375 0.640625 -2.171875 0.640625q-1.671875 0 -2.65625 -1.015625q-0.96875 -1.03125 -0.96875 -2.890625q0 -1.921875 0.984375 -2.96875q1.0 -1.0625 2.578125 -1.0625q1.515625 0 2.484375 1.03125q0.96875 1.03125 0.96875 2.921875q0 0.109375 -0.015625 0.34375l-5.65625 0q0.0625 1.25 0.703125 1.921875q0.640625 0.65625 1.59375 0.65625q0.703125 0 1.203125 -0.359375q0.5 -0.375 0.796875 -1.203125zm-4.234375 -2.078125l4.25 0q-0.09375 -0.953125 -0.484375 -1.4375q-0.625 -0.75 -1.609375 -0.75q-0.875 0 -1.484375 0.59375q-0.609375 0.59375 -0.671875 1.59375z" fill-rule="nonzero"/><path fill="#000000" fill-opacity="0.0" d="m379.0006 30.970455l36.6929 0l0 25.228348l-36.6929 0z" fill-rule="evenodd"/><path fill="#000000" d="m391.96936 50.210453l-0.9375 0l0 -5.96875q-0.34375 0.328125 -0.890625 0.65625q-0.546875 0.3125 -0.984375 0.46875l0 -0.90625q0.796875 -0.359375 1.375 -0.890625q0.59375 -0.53125 0.828125 -1.015625l0.609375 0l0 7.65625zm2.3952332 -2.0l0.984375 -0.078125q0.109375 0.71875 0.5 1.078125q0.40625 0.359375 0.96875 0.359375q0.671875 0 1.140625 -0.5q0.46875 -0.515625 0.46875 -1.359375q0 -0.796875 -0.453125 -1.265625q-0.4375 -0.46875 -1.171875 -0.46875q-0.453125 0 -0.8125 0.21875q-0.359375 0.203125 -0.578125 0.53125l-0.875 -0.125l0.734375 -3.921875l3.796875 0l0 0.90625l-3.046875 0l-0.40625 2.046875q0.6875 -0.484375 1.4375 -0.484375q1.0 0 1.6875 0.703125q0.6875 0.6875 0.6875 1.765625q0 1.046875 -0.609375 1.796875q-0.734375 0.921875 -2.0 0.921875q-1.03125 0 -1.703125 -0.578125q-0.65625 -0.578125 -0.75 -1.546875z" fill-rule="nonzero"/><path fill="#000000" fill-opacity="0.0" d="m414.75568 19.374783l36.6929 0l0 25.228348l-36.6929 0z" fill-rule="evenodd"/><path fill="#000000" d="m429.92755 40.00166l1.328125 0.171875q-0.3125 1.171875 -1.171875 1.8125q-0.84375 0.640625 -2.171875 0.640625q-1.671875 0 -2.65625 -1.015625q-0.96875 -1.03125 -0.96875 -2.890625q0 -1.921875 0.984375 -2.96875q1.0 -1.0625 2.578125 -1.0625q1.515625 0 2.484375 1.03125q0.96875 1.03125 0.96875 2.921875q0 0.109375 -0.015625 0.34375l-5.65625 0q0.0625 1.25 0.703125 1.921875q0.640625 0.65625 1.59375 0.65625q0.703125 0 1.203125 -0.359375q0.5 -0.375 0.796875 -1.203125zm-4.234375 -2.078125l4.25 0q-0.09375 -0.953125 -0.484375 -1.4375q-0.625 -0.75 -1.609375 -0.75q-0.875 0 -1.484375 0.59375q-0.609375 0.59375 -0.671875 1.59375z" fill-rule="nonzero"/><path fill="#000000" fill-opacity="0.0" d="m422.6174 30.970455l36.692932 0l0 25.228348l-36.692932 0z" fill-rule="evenodd"/><path fill="#000000" d="m435.58615 50.210453l-0.9375 0l0 -5.96875q-0.34375 0.328125 -0.890625 0.65625q-0.546875 0.3125 -0.984375 0.46875l0 -0.90625q0.796875 -0.359375 1.375 -0.890625q0.59375 -0.53125 0.828125 -1.015625l0.609375 0l0 7.65625zm7.2546387 -5.765625l-0.921875 0.078125q-0.125 -0.546875 -0.359375 -0.796875q-0.375 -0.40625 -0.9375 -0.40625q-0.4375 0 -0.78125 0.25q-0.4375 0.328125 -0.703125 0.953125q-0.25 0.609375 -0.265625 1.75q0.34375 -0.515625 0.828125 -0.765625q0.5 -0.25 1.03125 -0.25q0.9375 0 1.59375 0.703125q0.65625 0.6875 0.65625 1.765625q0 0.71875 -0.3125 1.34375q-0.3125 0.609375 -0.859375 0.9375q-0.53125 0.328125 -1.21875 0.328125q-1.171875 0 -1.90625 -0.859375q-0.734375 -0.859375 -0.734375 -2.828125q0 -2.21875 0.8125 -3.21875q0.71875 -0.875 1.921875 -0.875q0.890625 0 1.46875 0.5q0.578125 0.5 0.6875 1.390625zm-3.8125 3.296875q0 0.484375 0.203125 0.921875q0.203125 0.4375 0.5625 0.671875q0.375 0.234375 0.78125 0.234375q0.59375 0 1.015625 -0.46875q0.4375 -0.484375 0.4375 -1.3125q0 -0.78125 -0.421875 -1.234375q-0.421875 -0.46875 -1.0625 -0.46875q-0.640625 0 -1.078125 0.46875q-0.4375 0.453125 -0.4375 1.1875z" fill-rule="nonzero"/><path fill="#000000" fill-opacity="0.0" d="m468.00766 19.374783l36.6929 0l0 25.228348l-36.6929 0z" fill-rule="evenodd"/><path fill="#000000" d="m483.17953 40.00166l1.328125 0.171875q-0.3125 1.171875 -1.171875 1.8125q-0.84375 0.640625 -2.171875 0.640625q-1.671875 0 -2.65625 -1.015625q-0.96875 -1.03125 -0.96875 -2.890625q0 -1.921875 0.984375 -2.96875q1.0 -1.0625 2.578125 -1.0625q1.515625 0 2.484375 1.03125q0.96875 1.03125 0.96875 2.921875q0 0.109375 -0.015625 0.34375l-5.65625 0q0.0625 1.25 0.703125 1.921875q0.640625 0.65625 1.59375 0.65625q0.703125 0 1.203125 -0.359375q0.5 -0.375 0.796875 -1.203125zm-4.234375 -2.078125l4.25 0q-0.09375 -0.953125 -0.484375 -1.4375q-0.625 -0.75 -1.609375 -0.75q-0.875 0 -1.484375 0.59375q-0.609375 0.59375 -0.671875 1.59375z" fill-rule="nonzero"/><path fill="#000000" fill-opacity="0.0" d="m475.8694 30.970455l36.692932 0l0 25.228348l-36.692932 0z" fill-rule="evenodd"/><path fill="#000000" d="m488.83813 50.210453l-0.9375 0l0 -5.96875q-0.34375 0.328125 -0.890625 0.65625q-0.546875 0.3125 -0.984375 0.46875l0 -0.90625q0.796875 -0.359375 1.375 -0.890625q0.59375 -0.53125 0.828125 -1.015625l0.609375 0l0 7.65625zm2.4577332 -6.625l0 -0.90625l4.9375 0l0 0.734375q-0.71875 0.765625 -1.4375 2.0625q-0.71875 1.28125 -1.109375 2.640625q-0.28125 0.953125 -0.359375 2.09375l-0.953125 0q0.015625 -0.90625 0.34375 -2.171875q0.34375 -1.28125 0.96875 -2.453125q0.640625 -1.1875 1.34375 -2.0l-3.734375 0z" fill-rule="nonzero"/><path fill="#000000" fill-opacity="0.0" d="m139.00502 105.75536l36.692917 0l0 25.22834l-36.692917 0z" fill-rule="evenodd"/><path fill="#000000" d="m154.1769 126.38223l1.328125 0.171875q-0.3125 1.171875 -1.171875 1.8125q-0.84375 0.640625 -2.171875 0.640625q-1.671875 0 -2.65625 -1.015625q-0.96875 -1.03125 -0.96875 -2.890625q0 -1.921875 0.984375 -2.96875q1.0 -1.0625 2.578125 -1.0625q1.515625 0 2.484375 1.03125q0.96875 1.03125 0.96875 2.921875q0 0.109375 -0.015625 0.34375l-5.65625 0q0.0625 1.25 0.703125 1.921875q0.640625 0.65625 1.59375 0.65625q0.703125 0 1.203125 -0.359375q0.5 -0.375 0.796875 -1.203125zm-4.234375 -2.078125l4.25 0q-0.09375 -0.953125 -0.484375 -1.4375q-0.625 -0.75 -1.609375 -0.75q-0.875 0 -1.484375 0.59375q-0.609375 0.59375 -0.671875 1.59375z" fill-rule="nonzero"/><path fill="#000000" fill-opacity="0.0" d="m146.86674 117.35103l36.692917 0l0 25.228348l-36.692917 0z" fill-rule="evenodd"/><path fill="#000000" d="m161.22612 135.68478l0 0.90625l-5.03125 0q-0.015625 -0.34375 0.109375 -0.65625q0.1875 -0.515625 0.609375 -1.015625q0.421875 -0.5 1.234375 -1.140625q1.234375 -1.03125 1.671875 -1.625q0.4375 -0.59375 0.4375 -1.125q0 -0.5625 -0.40625 -0.9375q-0.390625 -0.390625 -1.03125 -0.390625q-0.671875 0 -1.078125 0.40625q-0.40625 0.40625 -0.40625 1.125l-0.96875 -0.09375q0.09375 -1.078125 0.734375 -1.640625q0.65625 -0.5625 1.734375 -0.5625q1.109375 0 1.75 0.609375q0.640625 0.609375 0.640625 1.5q0 0.46875 -0.1875 0.90625q-0.1875 0.4375 -0.625 0.9375q-0.4375 0.484375 -1.453125 1.328125q-0.828125 0.71875 -1.078125 0.96875q-0.234375 0.25 -0.390625 0.5l3.734375 0zm4.5358734 0.90625l-0.9375 0l0 -5.96875q-0.34375 0.328125 -0.890625 0.65625q-0.546875 0.3125 -0.984375 0.46875l0 -0.90625q0.796875 -0.359375 1.375 -0.890625q0.59375 -0.53125 0.828125 -1.015625l0.609375 0l0 7.65625z" fill-rule="nonzero"/><path fill="#000000" fill-opacity="0.0" d="m227.00502 105.75536l36.692917 0l0 25.22834l-36.692917 0z" fill-rule="evenodd"/><path fill="#000000" d="m242.1769 126.38223l1.328125 0.171875q-0.3125 1.171875 -1.171875 1.8125q-0.84375 0.640625 -2.171875 0.640625q-1.671875 0 -2.65625 -1.015625q-0.96875 -1.03125 -0.96875 -2.890625q0 -1.921875 0.984375 -2.96875q1.0 -1.0625 2.578125 -1.0625q1.515625 0 2.484375 1.03125q0.96875 1.03125 0.96875 2.921875q0 0.109375 -0.015625 0.34375l-5.65625 0q0.0625 1.25 0.703125 1.921875q0.640625 0.65625 1.59375 0.65625q0.703125 0 1.203125 -0.359375q0.5 -0.375 0.796875 -1.203125zm-4.234375 -2.078125l4.25 0q-0.09375 -0.953125 -0.484375 -1.4375q-0.625 -0.75 -1.609375 -0.75q-0.875 0 -1.484375 0.59375q-0.609375 0.59375 -0.671875 1.59375z" fill-rule="nonzero"/><path fill="#000000" fill-opacity="0.0" d="m234.86674 117.35103l36.692917 0l0 25.228348l-36.692917 0z" fill-rule="evenodd"/><path fill="#000000" d="m249.22612 135.68478l0 0.90625l-5.03125 0q-0.015625 -0.34375 0.109375 -0.65625q0.1875 -0.515625 0.609375 -1.015625q0.421875 -0.5 1.234375 -1.140625q1.234375 -1.03125 1.671875 -1.625q0.4375 -0.59375 0.4375 -1.125q0 -0.5625 -0.40625 -0.9375q-0.390625 -0.390625 -1.03125 -0.390625q-0.671875 0 -1.078125 0.40625q-0.40625 0.40625 -0.40625 1.125l-0.96875 -0.09375q0.09375 -1.078125 0.734375 -1.640625q0.65625 -0.5625 1.734375 -0.5625q1.109375 0 1.75 0.609375q0.640625 0.609375 0.640625 1.5q0 0.46875 -0.1875 0.90625q-0.1875 0.4375 -0.625 0.9375q-0.4375 0.484375 -1.453125 1.328125q-0.828125 0.71875 -1.078125 0.96875q-0.234375 0.25 -0.390625 0.5l3.734375 0zm5.9264984 0l0 0.90625l-5.03125 0q-0.015625 -0.34375 0.109375 -0.65625q0.1875 -0.515625 0.609375 -1.015625q0.421875 -0.5 1.234375 -1.140625q1.234375 -1.03125 1.671875 -1.625q0.4375 -0.59375 0.4375 -1.125q0 -0.5625 -0.40625 -0.9375q-0.390625 -0.390625 -1.03125 -0.390625q-0.671875 0 -1.078125 0.40625q-0.40625 0.40625 -0.40625 1.125l-0.96875 -0.09375q0.09375 -1.078125 0.734375 -1.640625q0.65625 -0.5625 1.734375 -0.5625q1.109375 0 1.75 0.609375q0.640625 0.609375 0.640625 1.5q0 0.46875 -0.1875 0.90625q-0.1875 0.4375 -0.625 0.9375q-0.4375 0.484375 -1.453125 1.328125q-0.828125 0.71875 -1.078125 0.96875q-0.234375 0.25 -0.390625 0.5l3.734375 0z" fill-rule="nonzero"/><path fill="#000000" fill-opacity="0.0" d="m428.17038 105.75536l36.6929 0l0 25.22834l-36.6929 0z" fill-rule="evenodd"/><path fill="#000000" d="m443.34225 126.38223l1.328125 0.171875q-0.3125 1.171875 -1.171875 1.8125q-0.84375 0.640625 -2.171875 0.640625q-1.671875 0 -2.65625 -1.015625q-0.96875 -1.03125 -0.96875 -2.890625q0 -1.921875 0.984375 -2.96875q1.0 -1.0625 2.578125 -1.0625q1.515625 0 2.484375 1.03125q0.96875 1.03125 0.96875 2.921875q0 0.109375 -0.015625 0.34375l-5.65625 0q0.0625 1.25 0.703125 1.921875q0.640625 0.65625 1.59375 0.65625q0.703125 0 1.203125 -0.359375q0.5 -0.375 0.796875 -1.203125zm-4.234375 -2.078125l4.25 0q-0.09375 -0.953125 -0.484375 -1.4375q-0.625 -0.75 -1.609375 -0.75q-0.875 0 -1.484375 0.59375q-0.609375 0.59375 -0.671875 1.59375z" fill-rule="nonzero"/><path fill="#000000" fill-opacity="0.0" d="m436.0321 117.35103l36.6929 0l0 25.228348l-36.6929 0z" fill-rule="evenodd"/><path fill="#000000" d="m450.39148 135.68478l0 0.90625l-5.03125 0q-0.015625 -0.34375 0.109375 -0.65625q0.1875 -0.515625 0.609375 -1.015625q0.421875 -0.5 1.234375 -1.140625q1.234375 -1.03125 1.671875 -1.625q0.4375 -0.59375 0.4375 -1.125q0 -0.5625 -0.40625 -0.9375q-0.390625 -0.390625 -1.03125 -0.390625q-0.671875 0 -1.078125 0.40625q-0.40625 0.40625 -0.40625 1.125l-0.96875 -0.09375q0.09375 -1.078125 0.734375 -1.640625q0.65625 -0.5625 1.734375 -0.5625q1.109375 0 1.75 0.609375q0.640625 0.609375 0.640625 1.5q0 0.46875 -0.1875 0.90625q-0.1875 0.4375 -0.625 0.9375q-0.4375 0.484375 -1.453125 1.328125q-0.828125 0.71875 -1.078125 0.96875q-0.234375 0.25 -0.390625 0.5l3.734375 0zm1.0202332 -1.109375l0.9375 -0.125q0.15625 0.796875 0.546875 1.15625q0.390625 0.34375 0.9375 0.34375q0.65625 0 1.109375 -0.453125q0.46875 -0.46875 0.46875 -1.140625q0 -0.640625 -0.421875 -1.0625q-0.421875 -0.421875 -1.078125 -0.421875q-0.265625 0 -0.65625 0.109375l0.109375 -0.828125q0.09375 0.015625 0.140625 0.015625q0.59375 0 1.078125 -0.3125q0.484375 -0.3125 0.484375 -0.96875q0 -0.515625 -0.359375 -0.84375q-0.34375 -0.34375 -0.890625 -0.34375q-0.546875 0 -0.921875 0.34375q-0.359375 0.34375 -0.453125 1.03125l-0.9375 -0.171875q0.171875 -0.9375 0.78125 -1.453125q0.609375 -0.515625 1.5 -0.515625q0.625 0 1.15625 0.265625q0.53125 0.265625 0.796875 0.734375q0.28125 0.453125 0.28125 0.984375q0 0.484375 -0.265625 0.890625q-0.265625 0.40625 -0.78125 0.65625q0.671875 0.15625 1.046875 0.65625q0.375 0.484375 0.375 1.21875q0 1.0 -0.734375 1.703125q-0.71875 0.6875 -1.828125 0.6875q-1.0 0 -1.671875 -0.59375q-0.65625 -0.609375 -0.75 -1.5625z" fill-rule="nonzero"/><path fill="#000000" fill-opacity="0.0" d="m94.50371 188.0257l36.692917 0l0 25.228348l-36.692917 0z" fill-rule="evenodd"/><path fill="#000000" d="m109.67558 208.65257l1.328125 0.171875q-0.3125 1.171875 -1.171875 1.8125q-0.84375 0.640625 -2.171875 0.640625q-1.671875 0 -2.65625 -1.015625q-0.96875 -1.03125 -0.96875 -2.890625q0 -1.921875 0.984375 -2.96875q1.0 -1.0625 2.578125 -1.0625q1.515625 0 2.484375 1.03125q0.96875 1.03125 0.96875 2.921875q0 0.109375 -0.015625 0.34375l-5.65625 0q0.0625 1.25 0.703125 1.921875q0.640625 0.65625 1.59375 0.65625q0.703125 0 1.203125 -0.359375q0.5 -0.375 0.796875 -1.203125zm-4.234375 -2.078125l4.25 0q-0.09375 -0.953125 -0.484375 -1.4375q-0.625 -0.75 -1.609375 -0.75q-0.875 0 -1.484375 0.59375q-0.609375 0.59375 -0.671875 1.59375z" fill-rule="nonzero"/><path fill="#000000" fill-opacity="0.0" d="m102.36544 199.62137l36.69291 0l0 25.228348l-36.69291 0z" fill-rule="evenodd"/><path fill="#000000" d="m111.818565 216.84575l0.9375 -0.125q0.15625 0.796875 0.546875 1.15625q0.390625 0.34375 0.9375 0.34375q0.65625 0 1.109375 -0.453125q0.46875 -0.46875 0.46875 -1.140625q0 -0.640625 -0.421875 -1.0625q-0.421875 -0.421875 -1.078125 -0.421875q-0.265625 0 -0.65625 0.109375l0.109375 -0.828125q0.09375 0.015625 0.140625 0.015625q0.59375 0 1.078125 -0.3125q0.484375 -0.3125 0.484375 -0.96875q0 -0.515625 -0.359375 -0.84375q-0.34375 -0.34375 -0.890625 -0.34375q-0.546875 0 -0.921875 0.34375q-0.359375 0.34375 -0.453125 1.03125l-0.9375 -0.171875q0.171875 -0.9375 0.78125 -1.453125q0.609375 -0.515625 1.5 -0.515625q0.625 0 1.15625 0.265625q0.53125 0.265625 0.796875 0.734375q0.28125 0.453125 0.28125 0.984375q0 0.484375 -0.265625 0.890625q-0.265625 0.40625 -0.78125 0.65625q0.671875 0.15625 1.046875 0.65625q0.375 0.484375 0.375 1.21875q0 1.0 -0.734375 1.703125q-0.71875 0.6875 -1.828125 0.6875q-1.0 0 -1.671875 -0.59375q-0.65625 -0.609375 -0.75 -1.5625zm9.442123 2.015625l-0.9375 0l0 -5.96875q-0.34375 0.328125 -0.890625 0.65625q-0.546875 0.3125 -0.984375 0.46875l0 -0.90625q0.796875 -0.359375 1.375 -0.890625q0.59375 -0.53125 0.828125 -1.015625l0.609375 0l0 7.65625z" fill-rule="nonzero"/><path fill="#000000" fill-opacity="0.0" d="m275.50372 188.0257l36.6929 0l0 25.228348l-36.6929 0z" fill-rule="evenodd"/><path fill="#000000" d="m290.6756 208.65257l1.328125 0.171875q-0.3125 1.171875 -1.171875 1.8125q-0.84375 0.640625 -2.171875 0.640625q-1.671875 0 -2.65625 -1.015625q-0.96875 -1.03125 -0.96875 -2.890625q0 -1.921875 0.984375 -2.96875q1.0 -1.0625 2.578125 -1.0625q1.515625 0 2.484375 1.03125q0.96875 1.03125 0.96875 2.921875q0 0.109375 -0.015625 0.34375l-5.65625 0q0.0625 1.25 0.703125 1.921875q0.640625 0.65625 1.59375 0.65625q0.703125 0 1.203125 -0.359375q0.5 -0.375 0.796875 -1.203125zm-4.234375 -2.078125l4.25 0q-0.09375 -0.953125 -0.484375 -1.4375q-0.625 -0.75 -1.609375 -0.75q-0.875 0 -1.484375 0.59375q-0.609375 0.59375 -0.671875 1.59375z" fill-rule="nonzero"/><path fill="#000000" fill-opacity="0.0" d="m283.36545 199.62137l36.6929 0l0 25.228348l-36.6929 0z" fill-rule="evenodd"/><path fill="#000000" d="m292.81857 216.84575l0.9375 -0.125q0.15625 0.796875 0.546875 1.15625q0.390625 0.34375 0.9375 0.34375q0.65625 0 1.109375 -0.453125q0.46875 -0.46875 0.46875 -1.140625q0 -0.640625 -0.421875 -1.0625q-0.421875 -0.421875 -1.078125 -0.421875q-0.265625 0 -0.65625 0.109375l0.109375 -0.828125q0.09375 0.015625 0.140625 0.015625q0.59375 0 1.078125 -0.3125q0.484375 -0.3125 0.484375 -0.96875q0 -0.515625 -0.359375 -0.84375q-0.34375 -0.34375 -0.890625 -0.34375q-0.546875 0 -0.921875 0.34375q-0.359375 0.34375 -0.453125 1.03125l-0.9375 -0.171875q0.171875 -0.9375 0.78125 -1.453125q0.609375 -0.515625 1.5 -0.515625q0.625 0 1.15625 0.265625q0.53125 0.265625 0.796875 0.734375q0.28125 0.453125 0.28125 0.984375q0 0.484375 -0.265625 0.890625q-0.265625 0.40625 -0.78125 0.65625q0.671875 0.15625 1.046875 0.65625q0.375 0.484375 0.375 1.21875q0 1.0 -0.734375 1.703125q-0.71875 0.6875 -1.828125 0.6875q-1.0 0 -1.671875 -0.59375q-0.65625 -0.609375 -0.75 -1.5625zm10.832733 1.109375l0 0.90625l-5.03125 0q-0.015625 -0.34375 0.109375 -0.65625q0.1875 -0.515625 0.609375 -1.015625q0.421875 -0.5 1.234375 -1.140625q1.234375 -1.03125 1.671875 -1.625q0.4375 -0.59375 0.4375 -1.125q0 -0.5625 -0.40625 -0.9375q-0.390625 -0.390625 -1.03125 -0.390625q-0.671875 0 -1.078125 0.40625q-0.40625 0.40625 -0.40625 1.125l-0.96875 -0.09375q0.09375 -1.078125 0.734375 -1.640625q0.65625 -0.5625 1.734375 -0.5625q1.109375 0 1.75 0.609375q0.640625 0.609375 0.640625 1.5q0 0.46875 -0.1875 0.90625q-0.1875 0.4375 -0.625 0.9375q-0.4375 0.484375 -1.453125 1.328125q-0.828125 0.71875 -1.078125 0.96875q-0.234375 0.25 -0.390625 0.5l3.734375 0z" fill-rule="nonzero"/><path fill="#000000" fill-opacity="0.0" d="m-5.1445847 8.962709l36.692913 0l0 25.228346l-36.692913 0z" fill-rule="evenodd"/><path fill="#000000" d="m4.4804153 32.04271l2.203125 -10.484375l4.375 0q1.140625 0 1.703125 0.265625q0.578125 0.25 0.9375 0.890625q0.375 0.625 0.375 1.40625q0 0.65625 -0.265625 1.328125q-0.25 0.671875 -0.65625 1.109375q-0.40625 0.4375 -0.828125 0.671875q-0.40625 0.21875 -0.890625 0.3125q-1.0 0.234375 -2.03125 0.234375l-2.625 0l-0.890625 4.265625l-1.40625 0zm2.546875 -5.453125l2.3125 0q1.34375 0 1.96875 -0.28125q0.640625 -0.296875 1.015625 -0.890625q0.375 -0.59375 0.375 -1.25q0 -0.515625 -0.203125 -0.84375q-0.203125 -0.328125 -0.5625 -0.484375q-0.359375 -0.15625 -1.40625 -0.15625l-2.6875 0l-0.8125 3.90625z" fill-rule="nonzero"/><path fill="#000000" fill-opacity="0.0" d="m2.7171428 20.558382l36.692913 0l0 25.228346l-36.692913 0z" fill-rule="evenodd"/><path fill="#000000" d="m15.685893 39.79838l-0.9375 0l0 -5.96875q-0.34375 0.328125 -0.890625 0.65625q-0.546875 0.3125 -0.984375 0.46875l0 -0.90625q0.796875 -0.359375 1.375 -0.890625q0.59375 -0.53125 0.828125 -1.015625l0.609375 0l0 7.65625z" fill-rule="nonzero"/><path fill="#000000" fill-opacity="0.0" d="m-5.1445847 90.82885l36.692913 0l0 25.228348l-36.692913 0z" fill-rule="evenodd"/><path fill="#000000" d="m4.4804153 113.90885l2.203125 -10.484375l4.375 0q1.140625 0 1.703125 0.265625q0.578125 0.25 0.9375 0.890625q0.375 0.625 0.375 1.40625q0 0.65625 -0.265625 1.328125q-0.25 0.671875 -0.65625 1.109375q-0.40625 0.4375 -0.828125 0.671875q-0.40625 0.21875 -0.890625 0.3125q-1.0 0.234375 -2.03125 0.234375l-2.625 0l-0.890625 4.265625l-1.40625 0zm2.546875 -5.453125l2.3125 0q1.34375 0 1.96875 -0.28125q0.640625 -0.296875 1.015625 -0.890625q0.375 -0.59375 0.375 -1.25q0 -0.515625 -0.203125 -0.84375q-0.203125 -0.328125 -0.5625 -0.484375q-0.359375 -0.15625 -1.40625 -0.15625l-2.6875 0l-0.8125 3.90625z" fill-rule="nonzero"/><path fill="#000000" fill-opacity="0.0" d="m2.7171428 102.42452l36.692913 0l0 25.228348l-36.692913 0z" fill-rule="evenodd"/><path fill="#000000" d="m17.076517 120.75827l0 0.90625l-5.031249 0q-0.015625 -0.34375 0.109375 -0.65625q0.1875 -0.515625 0.609375 -1.015625q0.421875 -0.5 1.234375 -1.140625q1.234375 -1.03125 1.671875 -1.625q0.43749905 -0.59375 0.43749905 -1.125q0 -0.5625 -0.40624905 -0.9375q-0.390625 -0.390625 -1.03125 -0.390625q-0.671875 0 -1.078125 0.40625q-0.40625 0.40625 -0.40625 1.125l-0.96875 -0.09375q0.09375 -1.078125 0.734375 -1.640625q0.65625 -0.5625 1.734375 -0.5625q1.109375 0 1.749999 0.609375q0.640625 0.609375 0.640625 1.5q0 0.46875 -0.1875 0.90625q-0.1875 0.4375 -0.625 0.9375q-0.43749905 0.484375 -1.453124 1.328125q-0.828125 0.71875 -1.078125 0.96875q-0.234375 0.25 -0.390625 0.5l3.734374 0z" fill-rule="nonzero"/><path fill="#000000" fill-opacity="0.0" d="m-5.1445847 172.69499l36.692913 0l0 25.228348l-36.692913 0z" fill-rule="evenodd"/><path fill="#000000" d="m4.4804153 195.775l2.203125 -10.484375l4.375 0q1.140625 0 1.703125 0.265625q0.578125 0.25 0.9375 0.890625q0.375 0.625 0.375 1.40625q0 0.65625 -0.265625 1.328125q-0.25 0.671875 -0.65625 1.109375q-0.40625 0.4375 -0.828125 0.671875q-0.40625 0.21875 -0.890625 0.3125q-1.0 0.234375 -2.03125 0.234375l-2.625 0l-0.890625 4.265625l-1.40625 0zm2.546875 -5.453125l2.3125 0q1.34375 0 1.96875 -0.28125q0.640625 -0.296875 1.015625 -0.890625q0.375 -0.59375 0.375 -1.25q0 -0.515625 -0.203125 -0.84375q-0.203125 -0.328125 -0.5625 -0.484375q-0.359375 -0.15625 -1.40625 -0.15625l-2.6875 0l-0.8125 3.90625z" fill-rule="nonzero"/><path fill="#000000" fill-opacity="0.0" d="m2.7171428 184.29066l36.692913 0l0 25.228348l-36.692913 0z" fill-rule="evenodd"/><path fill="#000000" d="m12.170268 201.51505l0.9375 -0.125q0.15625 0.796875 0.546875 1.15625q0.390625 0.34375 0.9375 0.34375q0.65625 0 1.109375 -0.453125q0.46874905 -0.46875 0.46874905 -1.140625q0 -0.640625 -0.42187405 -1.0625q-0.421875 -0.421875 -1.078125 -0.421875q-0.265625 0 -0.65625 0.109375l0.109375 -0.828125q0.09375 0.015625 0.140625 0.015625q0.59375 0 1.078125 -0.3125q0.484375 -0.3125 0.484375 -0.96875q0 -0.515625 -0.359375 -0.84375q-0.34375 -0.34375 -0.890625 -0.34375q-0.546875 0 -0.921875 0.34375q-0.359375 0.34375 -0.453125 1.03125l-0.9375 -0.171875q0.171875 -0.9375 0.78125 -1.453125q0.609375 -0.515625 1.5 -0.515625q0.625 0 1.15625 0.265625q0.53124905 0.265625 0.79687405 0.734375q0.28125 0.453125 0.28125 0.984375q0 0.484375 -0.265625 0.890625q-0.265625 0.40625 -0.78124905 0.65625q0.67187405 0.15625 1.046874 0.65625q0.375 0.484375 0.375 1.21875q0 1.0 -0.734375 1.703125q-0.71874905 0.6875 -1.828124 0.6875q-1.0 0 -1.671875 -0.59375q-0.65625 -0.609375 -0.75 -1.5625z" fill-rule="nonzero"/><path fill="#000000" fill-opacity="0.0" d="m54.93678 -5.853564l36.692913 0l0 25.228346l-36.692913 0z" fill-rule="evenodd"/><path fill="#6aa84f" d="m69.38991 17.226437l-1.28125 0l0 -8.203125q-0.46875 0.4375 -1.21875 0.890625q-0.75 0.4375 -1.359375 0.65625l0 -1.25q1.078125 -0.5 1.890625 -1.21875q0.8125 -0.7343755 1.140625 -1.4062505l0.828125 0l0 10.53125z" fill-rule="nonzero"/><path fill="#000000" fill-opacity="0.0" d="m142.93678 -5.853564l36.692917 0l0 25.228346l-36.692917 0z" fill-rule="evenodd"/><path fill="#6aa84f" d="m159.31178 15.992062l0 1.234375l-6.9375 0q-0.015625 -0.46875 0.15625 -0.890625q0.265625 -0.71875 0.84375 -1.40625q0.59375 -0.6875 1.6875 -1.578125q1.71875 -1.40625 2.3125 -2.21875q0.609375 -0.828125 0.609375 -1.5625q0 -0.765625 -0.5625 -1.28125q-0.546875 -0.5312505 -1.421875 -0.5312505q-0.921875 0 -1.484375 0.5625005q-0.5625 0.5625 -0.5625 1.546875l-1.328125 -0.140625q0.140625 -1.484375 1.015625 -2.2500005q0.890625 -0.78125 2.390625 -0.78125q1.515625 0 2.390625 0.84375q0.875 0.8281255 0.875 2.0625005q0 0.640625 -0.265625 1.25q-0.25 0.59375 -0.84375 1.265625q-0.59375 0.671875 -1.984375 1.859375q-1.15625 0.96875 -1.484375 1.3125q-0.328125 0.34375 -0.546875 0.703125l5.140625 0z" fill-rule="nonzero"/><path fill="#000000" fill-opacity="0.0" d="m142.93678 76.814865l36.692917 0l0 25.228348l-36.692917 0z" fill-rule="evenodd"/><path fill="#6aa84f" d="m157.38991 99.89486l-1.28125 0l0 -8.203125q-0.46875 0.4375 -1.21875 0.890625q-0.75 0.4375 -1.359375 0.65625l0 -1.25q1.078125 -0.5 1.890625 -1.21875q0.8125 -0.734375 1.140625 -1.40625l0.828125 0l0 10.53125z" fill-rule="nonzero"/><path fill="#000000" fill-opacity="0.0" d="m98.43547 157.41153l36.692917 0l0 25.228348l-36.692917 0z" fill-rule="evenodd"/><path fill="#6aa84f" d="m112.888596 180.49153l-1.28125 0l0 -8.203125q-0.46875 0.4375 -1.21875 0.890625q-0.75 0.4375 -1.359375 0.65625l0 -1.25q1.078125 -0.5 1.890625 -1.21875q0.8125 -0.734375 1.140625 -1.40625l0.828125 0l0 10.53125z" fill-rule="nonzero"/><path fill="#000000" fill-opacity="0.0" d="m238.33992 76.81573l28.535416 0l0 25.228348l-28.535416 0z" fill-rule="evenodd"/><path fill="#6aa84f" d="m247.9493 97.130104l1.296875 -0.171875q0.21875 1.09375 0.75 1.578125q0.53125 0.484375 1.296875 0.484375q0.90625 0 1.53125 -0.625q0.640625 -0.640625 0.640625 -1.5625q0 -0.890625 -0.59375 -1.46875q-0.578125 -0.578125 -1.46875 -0.578125q-0.359375 0 -0.90625 0.140625l0.140625 -1.125q0.125 0.015625 0.203125 0.015625q0.828125 0 1.484375 -0.421875q0.65625 -0.4375 0.65625 -1.34375q0 -0.703125 -0.484375 -1.15625q-0.46875 -0.46875 -1.234375 -0.46875q-0.75 0 -1.25 0.46875q-0.5 0.46875 -0.640625 1.421875l-1.28125 -0.234375q0.234375 -1.296875 1.0625 -2.0q0.84375 -0.71875 2.09375 -0.71875q0.859375 0 1.578125 0.375q0.71875 0.359375 1.09375 1.0q0.390625 0.640625 0.390625 1.34375q0 0.6875 -0.375 1.25q-0.359375 0.546875 -1.0625 0.875q0.921875 0.21875 1.4375 0.90625q0.515625 0.671875 0.515625 1.6875q0 1.375 -1.0 2.328125q-1.0 0.953125 -2.53125 0.953125q-1.390625 0 -2.296875 -0.8125q-0.90625 -0.828125 -1.046875 -2.140625z" fill-rule="nonzero"/><path fill="#000000" fill-opacity="0.0" d="m307.43808 -5.853564l36.692932 0l0 25.228346l-36.692932 0z" fill-rule="evenodd"/><path fill="#6aa84f" d="m321.17245 17.226437l0 -2.515625l-4.546875 0l0 -1.171875l4.78125 -6.7968755l1.0625 0l0 6.7968755l1.40625 0l0 1.171875l-1.40625 0l0 2.515625l-1.296875 0zm0 -3.6875l0 -4.734375l-3.28125 4.734375l3.28125 0z" fill-rule="nonzero"/><path fill="#000000" fill-opacity="0.0" d="m363.67825 -5.853564l36.6929 0l0 25.228346l-36.6929 0z" fill-rule="evenodd"/><path fill="#6aa84f" d="m373.28763 14.476437l1.34375 -0.109375q0.15625 0.984375 0.703125 1.484375q0.546875 0.5 1.328125 0.5q0.921875 0 1.5625 -0.703125q0.65625 -0.703125 0.65625 -1.859375q0 -1.109375 -0.625 -1.734375q-0.625 -0.640625 -1.625 -0.640625q-0.625 0 -1.125 0.28125q-0.5 0.28125 -0.78125 0.734375l-1.203125 -0.15625l1.015625 -5.3906255l5.21875 0l0 1.2187505l-4.1875 0l-0.578125 2.828125q0.953125 -0.65625 1.984375 -0.65625q1.375 0 2.3125 0.953125q0.953125 0.953125 0.953125 2.4375q0 1.4375 -0.828125 2.46875q-1.015625 1.265625 -2.75 1.265625q-1.4375 0 -2.34375 -0.796875q-0.90625 -0.796875 -1.03125 -2.125z" fill-rule="nonzero"/><path fill="#000000" fill-opacity="0.0" d="m401.4407 -5.853564l36.692932 0l0 25.228346l-36.692932 0z" fill-rule="evenodd"/><path fill="#6aa84f" d="m417.73758 9.304562l-1.28125 0.09375q-0.171875 -0.75 -0.484375 -1.09375q-0.53125 -0.5468755 -1.296875 -0.5468755q-0.609375 0 -1.078125 0.34375048q-0.609375 0.4375 -0.96875 1.296875q-0.34375 0.84375 -0.359375 2.421875q0.46875 -0.71875 1.140625 -1.0625q0.671875 -0.34375 1.40625 -0.34375q1.296875 0 2.203125 0.953125q0.90625 0.953125 0.90625 2.453125q0 0.984375 -0.4375 1.84375q-0.421875 0.84375 -1.171875 1.296875q-0.734375 0.4375 -1.6875 0.4375q-1.609375 0 -2.625 -1.171875q-1.015625 -1.1875 -1.015625 -3.90625q0 -3.046875 1.125 -4.4218755q0.984375 -1.203125 2.640625 -1.203125q1.234375 0 2.03125 0.703125q0.796875 0.6875005 0.953125 1.9062505zm-5.265625 4.515625q0 0.671875 0.28125 1.28125q0.28125 0.609375 0.78125 0.9375q0.515625 0.3125 1.078125 0.3125q0.8125 0 1.390625 -0.65625q0.59375 -0.671875 0.59375 -1.796875q0 -1.09375 -0.578125 -1.71875q-0.578125 -0.625 -1.453125 -0.625q-0.875 0 -1.484375 0.625q-0.609375 0.625 -0.609375 1.640625z" fill-rule="nonzero"/><path fill="#000000" fill-opacity="0.0" d="m471.9394 -5.853564l36.692932 0l0 25.228346l-36.692932 0z" fill-rule="evenodd"/><path fill="#6aa84f" d="m481.6269 8.101437l0 -1.2343755l6.796875 0l0 1.0q-1.0 1.0781255 -1.984375 2.8437505q-0.984375 1.765625 -1.515625 3.625q-0.390625 1.328125 -0.5 2.890625l-1.328125 0q0.03125 -1.234375 0.484375 -2.984375q0.46875 -1.765625 1.34375 -3.390625q0.875 -1.625 1.84375 -2.75l-5.140625 0z" fill-rule="nonzero"/><path fill="#000000" fill-opacity="0.0" d="m230.15463 -5.853564l36.6929 0l0 25.228346l-36.6929 0z" fill-rule="evenodd"/><path fill="#6aa84f" d="m239.764 14.460812l1.296875 -0.171875q0.21875 1.09375 0.75 1.578125q0.53125 0.484375 1.296875 0.484375q0.90625 0 1.53125 -0.625q0.640625 -0.640625 0.640625 -1.5625q0 -0.890625 -0.59375 -1.46875q-0.578125 -0.578125 -1.46875 -0.578125q-0.359375 0 -0.90625 0.140625l0.140625 -1.125q0.125 0.015625 0.203125 0.015625q0.828125 0 1.484375 -0.421875q0.65625 -0.4375 0.65625 -1.34375q0 -0.703125 -0.484375 -1.15625q-0.46875 -0.46875048 -1.234375 -0.46875048q-0.75 0 -1.25 0.46875048q-0.5 0.46875 -0.640625 1.421875l-1.28125 -0.234375q0.234375 -1.296875 1.0625 -2.0000005q0.84375 -0.71875 2.09375 -0.71875q0.859375 0 1.578125 0.375q0.71875 0.359375 1.09375 1.0000005q0.390625 0.640625 0.390625 1.34375q0 0.6875 -0.375 1.25q-0.359375 0.546875 -1.0625 0.875q0.921875 0.21875 1.4375 0.90625q0.515625 0.671875 0.515625 1.6875q0 1.375 -1.0 2.328125q-1.0 0.953125 -2.53125 0.953125q-1.390625 0 -2.296875 -0.8125q-0.90625 -0.828125 -1.046875 -2.140625z" fill-rule="nonzero"/><path fill="#000000" fill-opacity="0.0" d="m447.2637 76.81573l36.692932 0l0 25.228348l-36.692932 0z" fill-rule="evenodd"/><path fill="#6aa84f" d="m456.9512 90.77073l0 -1.234375l6.796875 0l0 1.0q-1.0 1.078125 -1.984375 2.84375q-0.984375 1.765625 -1.515625 3.625q-0.390625 1.328125 -0.5 2.890625l-1.328125 0q0.03125 -1.234375 0.484375 -2.984375q0.46875 -1.765625 1.34375 -3.390625q0.875 -1.625 1.84375 -2.75l-5.140625 0z" fill-rule="nonzero"/><path fill="#000000" fill-opacity="0.0" d="m279.43546 157.41153l36.692932 0l0 25.228348l-36.692932 0z" fill-rule="evenodd"/><path fill="#6aa84f" d="m295.81046 179.25716l0 1.234375l-6.9375 0q-0.015625 -0.46875 0.15625 -0.890625q0.265625 -0.71875 0.84375 -1.40625q0.59375 -0.6875 1.6875 -1.578125q1.71875 -1.40625 2.3125 -2.21875q0.609375 -0.828125 0.609375 -1.5625q0 -0.765625 -0.5625 -1.28125q-0.546875 -0.53125 -1.421875 -0.53125q-0.921875 0 -1.484375 0.5625q-0.5625 0.5625 -0.5625 1.546875l-1.328125 -0.140625q0.140625 -1.484375 1.015625 -2.25q0.890625 -0.78125 2.390625 -0.78125q1.515625 0 2.390625 0.84375q0.875 0.828125 0.875 2.0625q0 0.640625 -0.265625 1.25q-0.25 0.59375 -0.84375 1.265625q-0.59375 0.671875 -1.984375 1.859375q-1.15625 0.96875 -1.484375 1.3125q-0.328125 0.34375 -0.546875 0.703125l5.140625 0z" fill-rule="nonzero"/><path fill="#000000" fill-opacity="0.0" d="m410.64685 220.85773l81.29135 0" fill-rule="evenodd"/><path stroke="#000000" stroke-width="1.0" stroke-linejoin="round" stroke-linecap="butt" d="m410.64685 220.85771l75.29135 0" fill-rule="evenodd"/><path fill="#000000" stroke="#000000" stroke-width="1.0" stroke-linecap="butt" d="m485.9382 222.50945l4.538086 -1.6517334l-4.538086 -1.6517334z" fill-rule="evenodd"/><path fill="#000000" fill-opacity="0.0" d="m363.67834 202.44827l56.472443 0l0 36.818893l-56.472443 0z" fill-rule="evenodd"/><path fill="#000000" d="m381.8518 224.78148l0.1875 1.140625q-0.546875 0.109375 -0.984375 0.109375q-0.6875 0 -1.078125 -0.21875q-0.390625 -0.21875 -0.546875 -0.578125q-0.15625 -0.359375 -0.15625 -1.515625l0 -4.375l-0.953125 0l0 -1.0l0.953125 0l0 -1.890625l1.28125 -0.765625l0 2.65625l1.296875 0l0 1.0l-1.296875 0l0 4.4375q0 0.546875 0.0625 0.71875q0.078125 0.15625 0.21875 0.25q0.15625 0.078125 0.453125 0.078125q0.203125 0 0.5625 -0.046875zm1.259491 -7.859375l0 -1.46875l1.296875 0l0 1.46875l-1.296875 0zm0 9.015625l0 -7.59375l1.296875 0l0 7.59375l-1.296875 0zm3.256134 0l0 -7.59375l1.15625 0l0 1.0625q0.34375 -0.5625 0.9375 -0.890625q0.609375 -0.34375 1.359375 -0.34375q0.84375 0 1.375 0.34375q0.546875 0.34375 0.765625 0.984375q0.90625 -1.328125 2.359375 -1.328125q1.125 0 1.734375 0.625q0.609375 0.625 0.609375 1.921875l0 5.21875l-1.28125 0l0 -4.78125q0 -0.78125 -0.125 -1.109375q-0.125 -0.34375 -0.453125 -0.546875q-0.328125 -0.21875 -0.78125 -0.21875q-0.796875 0 -1.328125 0.53125q-0.53125 0.53125 -0.53125 1.703125l0 4.421875l-1.28125 0l0 -4.9375q0 -0.859375 -0.3125 -1.28125q-0.3125 -0.4375 -1.03125 -0.4375q-0.546875 0 -1.015625 0.296875q-0.453125 0.28125 -0.671875 0.828125q-0.203125 0.546875 -0.203125 1.59375l0 3.9375l-1.28125 0zm17.411896 -2.453125l1.328125 0.171875q-0.3125 1.171875 -1.171875 1.8125q-0.84375 0.640625 -2.171875 0.640625q-1.671875 0 -2.65625 -1.015625q-0.96875 -1.03125 -0.96875 -2.890625q0 -1.921875 0.984375 -2.96875q1.0 -1.0625 2.578125 -1.0625q1.515625 0 2.484375 1.03125q0.96875 1.03125 0.96875 2.921875q0 0.109375 -0.015625 0.34375l-5.65625 0q0.0625 1.25 0.703125 1.921875q0.640625 0.65625 1.59375 0.65625q0.703125 0 1.203125 -0.359375q0.5 -0.375 0.796875 -1.203125zm-4.234375 -2.078125l4.25 0q-0.09375 -0.953125 -0.484375 -1.4375q-0.625 -0.75 -1.609375 -0.75q-0.875 0 -1.484375 0.59375q-0.609375 0.59375 -0.671875 1.59375z" fill-rule="nonzero"/></g></svg>
