<svg version="1.1" viewBox="0.0 0.0 220.0 150.0" fill="none" stroke="none" stroke-linecap="square" stroke-miterlimit="10" xmlns:xlink="http://www.w3.org/1999/xlink" xmlns="http://www.w3.org/2000/svg"><clipPath id="p.0"><path d="m0 0l800.0 0l0 600.0l-800.0 0l0 -600.0z" clip-rule="nonzero"/></clipPath><g clip-path="url(#p.0)"><path fill="#000000" fill-opacity="0.0" d="m0 0l800.0 0l0 600.0l-800.0 0z" fill-rule="evenodd"/><path fill="#f3f3f3" d="m1.1109273 56.276466l0 0c0 -30.466986 24.69837 -55.165356 55.165356 -55.165356l0 0c14.63076 0 28.662285 5.8120475 39.007797 16.157558c10.345505 10.3455105 16.157555 24.377033 16.157555 39.007797l0 0c0 30.46698 -24.698372 55.16535 -55.16535 55.16535l0 0c-30.466986 0 -55.165356 -24.698372 -55.165356 -55.16535z" fill-rule="evenodd"/><path fill="#000000" fill-opacity="0.0" d="m5.945757 111.44182l100.66142 0l0 34.992126l-100.66142 0z" fill-rule="evenodd"/><path fill="#000000" d="m34.473515 135.85788l5.125 -13.359375l1.90625 0l5.46875 13.359375l-2.015625 0l-1.546875 -4.046875l-5.59375 0l-1.46875 4.046875l-1.875 0zm3.859375 -5.484375l4.53125 0l-1.40625 -3.703125q-0.625 -1.6875 -0.9375 -2.765625q-0.265625 1.28125 -0.71875 2.546875l-1.46875 3.921875zm13.427948 4.015625l0.234375 1.453125q-0.6875 0.140625 -1.234375 0.140625q-0.890625 0 -1.390625 -0.28125q-0.484375 -0.28125 -0.6875 -0.734375q-0.203125 -0.46875 -0.203125 -1.9375l0 -5.578125l-1.203125 0l0 -1.265625l1.203125 0l0 -2.390625l1.625 -0.984375l0 3.375l1.65625 0l0 1.265625l-1.65625 0l0 5.671875q0 0.6875 0.078125 0.890625q0.09375 0.203125 0.28125 0.328125q0.203125 0.109375 0.578125 0.109375q0.265625 0 0.71875 -0.0625zm0.99580383 -3.375q0 -2.6875 1.484375 -3.96875q1.25 -1.078125 3.046875 -1.078125q2.0 0 3.265625 1.3125q1.265625 1.296875 1.265625 3.609375q0 1.859375 -0.5625 2.9375q-0.5625 1.0625 -1.640625 1.65625q-1.0625 0.59375 -2.328125 0.59375q-2.03125 0 -3.28125 -1.296875q-1.25 -1.3125 -1.25 -3.765625zm1.6875 0q0 1.859375 0.796875 2.796875q0.8125 0.921875 2.046875 0.921875q1.21875 0 2.03125 -0.921875q0.8125 -0.9375 0.8125 -2.84375q0 -1.796875 -0.8125 -2.71875q-0.8125 -0.921875 -2.03125 -0.921875q-1.234375 0 -2.046875 0.921875q-0.796875 0.90625 -0.796875 2.765625zm9.297592 4.84375l0 -9.671875l1.4687538 0l0 1.359375q0.453125 -0.71875 1.203125 -1.140625q0.765625 -0.4375 1.71875 -0.4375q1.078125 0 1.765625 0.453125q0.6874924 0.4375 0.9687424 1.234375q1.15625 -1.6875 2.984375 -1.6875q1.453125 0 2.21875 0.796875q0.78125 0.796875 0.78125 2.453125l0 6.640625l-1.640625 0l0 -6.09375q0 -0.984375 -0.15625 -1.40625q-0.15625 -0.4375 -0.578125 -0.703125q-0.421875 -0.265625 -0.984375 -0.265625q-1.015625 0 -1.6875 0.6875q-0.671875 0.671875 -0.671875 2.15625l0 5.625l-1.6406174 0l0 -6.28125q0 -1.09375 -0.40625 -1.640625q-0.40625 -0.546875 -1.3125 -0.546875q-0.6875 0 -1.28125 0.359375q-0.59375 0.359375 -0.859375 1.0625q-0.25 0.703125 -0.25 2.03125l0 5.015625l-1.6406288 0z" fill-rule="nonzero"/><path fill="#cc4125" d="m25.118984 30.88539l0 0c0 -2.4874554 2.0164814 -4.503937 4.5039387 -4.503937l0 0c1.1945171 0 2.3401108 0.47451973 3.184763 1.3191719c0.8446541 0.8446522 1.3191719 1.9902458 1.3191719 3.1847649l0 0c0 2.4874554 -2.0164795 4.5039387 -4.503935 4.5039387l0 0c-2.4874573 0 -4.5039387 -2.0164833 -4.5039387 -4.5039387z" fill-rule="evenodd"/><path fill="#cc4125" d="m16.11111 56.276466l0 0c0 -2.4874573 2.0164814 -4.503937 4.503937 -4.503937l0 0c1.194519 0 2.3401127 0.47451782 3.1847649 1.3191719c0.8446522 0.84465027 1.3191719 1.9902458 1.3191719 3.1847649l0 0c0 2.4874535 -2.0164814 4.503937 -4.503937 4.503937l0 0c-2.4874554 0 -4.503937 -2.0164833 -4.503937 -4.503937z" fill-rule="evenodd"/><path fill="#cc4125" d="m51.77253 88.91426l0 0c0 -2.4874573 2.0164795 -4.503937 4.503937 -4.503937l0 0c1.194519 0 2.3401108 0.47451782 3.1847649 1.3191757c0.84465027 0.84465027 1.3191719 1.990242 1.3191719 3.184761l0 0c0 2.4874573 -2.0164833 4.503937 -4.503937 4.503937l0 0c-2.4874573 0 -4.503937 -2.0164795 -4.503937 -4.503937z" fill-rule="evenodd"/><path fill="#cc4125" d="m78.10323 82.41557l0 0c0 -2.4874573 2.0164871 -4.503937 4.5039444 -4.503937l0 0c1.1945114 0 2.3401108 0.47451782 3.184761 1.3191757c0.84465027 0.84465027 1.3191757 1.990242 1.3191757 3.184761l0 0c0 2.4874573 -2.0164871 4.503937 -4.503937 4.503937l0 0c-2.4874573 0 -4.5039444 -2.0164795 -4.5039444 -4.503937z" fill-rule="evenodd"/><path fill="#cc4125" d="m51.77253 21.4077l0 0c0 -2.4874573 2.0164795 -4.503937 4.503937 -4.503937l0 0c1.194519 0 2.3401108 0.47451973 3.1847649 1.3191719c0.84465027 0.8446522 1.3191719 1.9902458 1.3191719 3.1847649l0 0c0 2.4874554 -2.0164833 4.503937 -4.503937 4.503937l0 0c-2.4874573 0 -4.503937 -2.0164814 -4.503937 -4.503937z" fill-rule="evenodd"/><path fill="#cc4125" d="m27.612423 79.90639l0 0c0 -2.4874573 2.0164814 -4.503937 4.503937 -4.503937l0 0c1.194519 0 2.3401146 0.47451782 3.1847649 1.3191681c0.8446541 0.8446579 1.3191719 1.9902496 1.3191719 3.1847687l0 0c0 2.4874573 -2.0164795 4.503937 -4.503937 4.503937l0 0c-2.4874554 0 -4.503937 -2.0164795 -4.503937 -4.503937z" fill-rule="evenodd"/><path fill="#cc4125" d="m78.10323 30.137358l0 0c0 -2.4874554 2.0164871 -4.503937 4.5039444 -4.503937l0 0c1.1945114 0 2.3401108 0.47451973 3.184761 1.3191719c0.84465027 0.8446522 1.3191757 1.9902458 1.3191757 3.1847649l0 0c0 2.4874554 -2.0164871 4.5039387 -4.503937 4.5039387l0 0c-2.4874573 0 -4.5039444 -2.0164833 -4.5039444 -4.5039387z" fill-rule="evenodd"/><path fill="#cc4125" d="m87.111115 56.276466l0 0c0 -2.4874573 2.0164795 -4.503937 4.503937 -4.503937l0 0c1.1945114 0 2.3401108 0.47451782 3.184761 1.3191719c0.84465027 0.84465027 1.3191757 1.9902458 1.3191757 3.1847649l0 0c0 2.4874535 -2.0164871 4.503937 -4.503937 4.503937l0 0c-2.4874573 0 -4.503937 -2.0164833 -4.503937 -4.503937z" fill-rule="evenodd"/><path fill="#000000" fill-opacity="0.0" d="m120.27909 10.462817l89.66929 0l0 34.992126l-89.66929 0z" fill-rule="evenodd"/><path fill="#000000" d="m132.83502 34.87888l0 -13.359377l1.8125 0l7.015625 10.484377l0 -10.484377l1.6875 0l0 13.359377l-1.8125 0l-7.015625 -10.500002l0 10.500002l-1.6875 0zm19.613571 0l0 -1.421875q-1.125 1.640625 -3.0625 1.640625q-0.859375 0 -1.609375 -0.328125q-0.734375 -0.328125 -1.09375 -0.828125q-0.359375 -0.5 -0.5 -1.21875q-0.109375 -0.46875 -0.109375 -1.5312519l0 -5.984375l1.640625 0l0 5.359375q0 1.28125 0.109375 1.7343769q0.15625 0.640625 0.65625 1.015625q0.5 0.375 1.234375 0.375q0.734375 0 1.375 -0.375q0.65625 -0.390625 0.921875 -1.03125q0.265625 -0.6562519 0.265625 -1.8906269l0 -5.1875l1.640625 0l0 9.671877l-1.46875 0zm10.360092 -3.546877l1.609375 0.21875q-0.265625 1.6562519 -1.359375 2.609377q-1.078125 0.9375 -2.671875 0.9375q-1.984375 0 -3.1875 -1.296875q-1.203125 -1.296875 -1.203125 -3.718752q0 -1.578125 0.515625 -2.75q0.515625 -1.171875 1.578125 -1.75q1.0625 -0.59375 2.3125 -0.59375q1.578125 0 2.578125 0.796875q1.0 0.796875 1.28125 2.265625l-1.59375 0.234375q-0.234375 -0.96875 -0.8125 -1.453125q-0.578125 -0.5 -1.390625 -0.5q-1.234375 0 -2.015625 0.890625q-0.78125 0.890625 -0.78125 2.8125q0 1.953125 0.75 2.843752q0.75 0.875 1.953125 0.875q0.96875 0 1.609375 -0.59375q0.65625 -0.59375 0.828125 -1.8281269zm2.96875 3.546877l0 -13.359377l1.640625 0l0 13.359377l-1.640625 0zm10.816696 -3.109377l1.6875 0.203125q-0.40625 1.4843769 -1.484375 2.312502q-1.078125 0.8125 -2.765625 0.8125q-2.125 0 -3.375 -1.296875q-1.234375 -1.3125 -1.234375 -3.671877q0 -2.453125 1.25 -3.796875q1.265625 -1.34375 3.265625 -1.34375q1.9375 0 3.15625 1.328125q1.234375 1.3125 1.234375 3.703125q0 0.15625 0 0.4375l-7.21875 0q0.09375 1.5937519 0.90625 2.453127q0.8125 0.84375 2.015625 0.84375q0.90625 0 1.546875 -0.46875q0.640625 -0.484375 1.015625 -1.5156269zm-5.390625 -2.65625l5.40625 0q-0.109375 -1.21875 -0.625 -1.828125q-0.78125 -0.953125 -2.03125 -0.953125q-1.125 0 -1.90625 0.765625q-0.765625 0.75 -0.84375 2.015625zm15.469467 5.765627l0 -1.421875q-1.125 1.640625 -3.0625 1.640625q-0.859375 0 -1.609375 -0.328125q-0.734375 -0.328125 -1.09375 -0.828125q-0.359375 -0.5 -0.5 -1.21875q-0.109375 -0.46875 -0.109375 -1.5312519l0 -5.984375l1.640625 0l0 5.359375q0 1.28125 0.109375 1.7343769q0.15625 0.640625 0.65625 1.015625q0.5 0.375 1.234375 0.375q0.734375 0 1.375 -0.375q0.65625 -0.390625 0.921875 -1.03125q0.265625 -0.6562519 0.265625 -1.8906269l0 -5.1875l1.640625 0l0 9.671877l-1.46875 0zm3.3913422 -2.890627l1.625 -0.25q0.125 0.9687519 0.75 1.5000019q0.625 0.515625 1.75 0.515625q1.125 0 1.671875 -0.453125q0.546875 -0.46875 0.546875 -1.09375q0 -0.5468769 -0.484375 -0.8750019q-0.328125 -0.21875 -1.671875 -0.546875q-1.8125 -0.46875 -2.515625 -0.796875q-0.6875 -0.328125 -1.046875 -0.90625q-0.359375 -0.59375 -0.359375 -1.3125q0 -0.640625 0.296875 -1.1875q0.296875 -0.5625 0.8125 -0.921875q0.375 -0.28125 1.03125 -0.46875q0.671875 -0.203125 1.421875 -0.203125q1.140625 0 2.0 0.328125q0.859375 0.328125 1.265625 0.890625q0.421875 0.5625 0.578125 1.5l-1.609375 0.21875q-0.109375 -0.75 -0.640625 -1.171875q-0.515625 -0.421875 -1.46875 -0.421875q-1.140625 0 -1.625 0.375q-0.46875 0.375 -0.46875 0.875q0 0.3125 0.1875 0.578125q0.203125 0.265625 0.640625 0.4375q0.234375 0.09375 1.4375 0.421875q1.75 0.453125 2.4375 0.75q0.6875 0.296875 1.078125 0.859375q0.390625 0.5625 0.390625 1.4062519q0 0.828125 -0.484375 1.546875q-0.46875 0.71875 -1.375 1.125q-0.90625 0.390625 -2.046875 0.390625q-1.875 0 -2.875 -0.78125q-0.984375 -0.78125 -1.25 -2.328127z" fill-rule="nonzero"/><path fill="#000000" fill-opacity="0.0" d="m120.27909 27.95888l-53.16535 17.480314" fill-rule="evenodd"/><path stroke="#000000" stroke-width="1.0" stroke-linejoin="round" stroke-linecap="butt" d="m120.27908 27.95888l-49.909714 16.409891" fill-rule="evenodd"/><path fill="#000000" stroke="#000000" stroke-width="1.0" stroke-linecap="butt" d="m70.36937 44.368774l0.7170639 -1.4195747l-2.583931 2.0333824l3.286438 0.103256226z" fill-rule="evenodd"/><path fill="#6aa84f" d="m40.968502 56.27559l0 0c0 -8.453869 6.853218 -15.307087 15.307087 -15.307087l0 0c4.0596924 0 7.9531097 1.612709 10.823746 4.483345c2.870636 2.870636 4.483345 6.7640533 4.483345 10.823742l0 0c0 8.453873 -6.853218 15.307091 -15.307091 15.307091l0 0c-8.453869 0 -15.307087 -6.853218 -15.307087 -15.307091z" fill-rule="evenodd"/><path fill="#000000" fill-opacity="0.0" d="m120.27909 51.77253l89.66929 0l0 34.992126l-89.66929 0z" fill-rule="evenodd"/><path fill="#000000" d="m132.36266 76.18859l0 -13.359375l9.65625 0l0 1.578125l-7.875 0l0 4.09375l7.375 0l0 1.5625l-7.375 0l0 4.546875l8.1875 0l0 1.578125l-9.96875 0zm12.162323 0l0 -13.359375l1.640625 0l0 13.359375l-1.640625 0zm10.816696 -3.109375l1.6875 0.203125q-0.40625 1.484375 -1.484375 2.3125q-1.078125 0.8125 -2.765625 0.8125q-2.125 0 -3.375 -1.296875q-1.234375 -1.3125 -1.234375 -3.671875q0 -2.453125 1.25 -3.796875q1.265625 -1.34375 3.265625 -1.34375q1.9375 0 3.15625 1.328125q1.234375 1.3125 1.234375 3.703125q0 0.15625 0 0.4375l-7.21875 0q0.09375 1.59375 0.90625 2.453125q0.8125 0.84375 2.015625 0.84375q0.90625 0 1.546875 -0.46875q0.640625 -0.484375 1.015625 -1.515625zm-5.390625 -2.65625l5.40625 0q-0.109375 -1.21875 -0.625 -1.828125q-0.78125 -0.953125 -2.03125 -0.953125q-1.125 0 -1.90625 0.765625q-0.765625 0.75 -0.84375 2.015625zm15.453842 2.21875l1.609375 0.21875q-0.265625 1.65625 -1.359375 2.609375q-1.078125 0.9375 -2.671875 0.9375q-1.984375 0 -3.1875 -1.296875q-1.203125 -1.296875 -1.203125 -3.71875q0 -1.578125 0.515625 -2.75q0.515625 -1.171875 1.578125 -1.75q1.0625 -0.59375 2.3125 -0.59375q1.578125 0 2.578125 0.796875q1.0 0.796875 1.28125 2.265625l-1.59375 0.234375q-0.234375 -0.96875 -0.8125 -1.453125q-0.578125 -0.5 -1.390625 -0.5q-1.234375 0 -2.015625 0.890625q-0.78125 0.890625 -0.78125 2.8125q0 1.953125 0.75 2.84375q0.75 0.875 1.953125 0.875q0.96875 0 1.609375 -0.59375q0.65625 -0.59375 0.828125 -1.828125zm6.59375 2.078125l0.234375 1.453125q-0.6875 0.140625 -1.234375 0.140625q-0.890625 0 -1.390625 -0.28125q-0.484375 -0.28125 -0.6875 -0.734375q-0.203125 -0.46875 -0.203125 -1.9375l0 -5.578125l-1.203125 0l0 -1.265625l1.203125 0l0 -2.390625l1.625 -0.984375l0 3.375l1.65625 0l0 1.265625l-1.65625 0l0 5.671875q0 0.6875 0.078125 0.890625q0.09375 0.203125 0.28125 0.328125q0.203125 0.109375 0.578125 0.109375q0.265625 0 0.71875 -0.0625zm1.5895538 1.46875l0 -9.671875l1.46875 0l0 1.46875q0.5625 -1.03125 1.03125 -1.359375q0.484375 -0.328125 1.0625 -0.328125q0.828125 0 1.6875 0.53125l-0.5625 1.515625q-0.609375 -0.359375 -1.203125 -0.359375q-0.546875 0 -0.96875 0.328125q-0.421875 0.328125 -0.609375 0.890625q-0.28125 0.875 -0.28125 1.921875l0 5.0625l-1.625 0zm5.618927 -4.84375q0 -2.6875 1.484375 -3.96875q1.25 -1.078125 3.046875 -1.078125q2.0 0 3.265625 1.3125q1.265625 1.296875 1.265625 3.609375q0 1.859375 -0.5625 2.9375q-0.5625 1.0625 -1.640625 1.65625q-1.0625 0.59375 -2.328125 0.59375q-2.03125 0 -3.28125 -1.296875q-1.25 -1.3125 -1.25 -3.765625zm1.6875 0q0 1.859375 0.796875 2.796875q0.8125 0.921875 2.046875 0.921875q1.21875 0 2.03125 -0.921875q0.8125 -0.9375 0.8125 -2.84375q0 -1.796875 -0.8125 -2.71875q-0.8125 -0.921875 -2.03125 -0.921875q-1.234375 0 -2.046875 0.921875q-0.796875 0.90625 -0.796875 2.765625zm9.297592 4.84375l0 -9.671875l1.46875 0l0 1.375q1.0625 -1.59375 3.078125 -1.59375q0.875 0 1.609375 0.3125q0.734375 0.3125 1.09375 0.828125q0.375 0.5 0.515625 1.203125q0.09375 0.453125 0.09375 1.59375l0 5.953125l-1.640625 0l0 -5.890625q0 -1.0 -0.203125 -1.484375q-0.1875 -0.5 -0.671875 -0.796875q-0.484375 -0.296875 -1.140625 -0.296875q-1.046875 0 -1.8125 0.671875q-0.75 0.65625 -0.75 2.515625l0 5.28125l-1.640625 0z" fill-rule="nonzero"/><path fill="#000000" fill-opacity="0.0" d="m120.27909 69.26859l-25.480316 -9.795277" fill-rule="evenodd"/><path stroke="#000000" stroke-width="1.0" stroke-linejoin="round" stroke-linecap="butt" d="m120.27908 69.26859l-22.281448 -8.565556" fill-rule="evenodd"/><path fill="#000000" stroke="#000000" stroke-width="1.0" stroke-linecap="butt" d="m97.997635 60.70304l1.4532166 -0.64616394l-3.287529 -0.058994293l2.4804764 2.1583786z" fill-rule="evenodd"/></g></svg>
