<svg version="1.1" viewBox="0.0 0.0 130.0 82.0" fill="none" stroke="none" stroke-linecap="square" stroke-miterlimit="10" xmlns:xlink="http://www.w3.org/1999/xlink" xmlns="http://www.w3.org/2000/svg"><clipPath id="p.0"><path d="m0 0l1024.0 0l0 768.0l-1024.0 0l0 -768.0z" clip-rule="nonzero"/></clipPath><g clip-path="url(#p.0)"><path fill="#000000" fill-opacity="0.0" d="m0 0l1024.0 0l0 768.0l-1024.0 0z" fill-rule="evenodd"/><path fill="#000000" fill-opacity="0.0" d="m1.0226365 1.0226365l126.58268 0l0 78.74016l-126.58268 0z" fill-rule="evenodd"/><path stroke="#000000" stroke-width="2.0" stroke-linejoin="round" stroke-linecap="butt" d="m1.0226365 1.0226365l126.58268 0l0 78.74016l-126.58268 0z" fill-rule="evenodd"/><path fill="#000000" fill-opacity="0.0" d="m64.31397 1.0226365l0 78.74016" fill-rule="evenodd"/><path stroke="#000000" stroke-width="2.0" stroke-linejoin="round" stroke-linecap="butt" d="m64.31397 1.0226365l0 78.74016" fill-rule="evenodd"/><path fill="#000000" fill-opacity="0.0" d="m11.283825 27.59879l42.083702 0" fill-rule="evenodd"/><path stroke="#000000" stroke-width="2.0" stroke-linejoin="round" stroke-linecap="butt" d="m11.283825 27.59879l42.083702 0" fill-rule="evenodd"/><path fill="#000000" fill-opacity="0.0" d="m11.283825 44.66847l42.083702 0" fill-rule="evenodd"/><path stroke="#000000" stroke-width="2.0" stroke-linejoin="round" stroke-linecap="butt" d="m11.283825 44.66847l42.083702 0" fill-rule="evenodd"/><path fill="#000000" fill-opacity="0.0" d="m11.283825 61.738148l42.083702 0" fill-rule="evenodd"/><path stroke="#000000" stroke-width="2.0" stroke-linejoin="round" stroke-linecap="butt" d="m11.283825 61.738148l42.083702 0" fill-rule="evenodd"/><path fill="#000000" fill-opacity="0.0" d="m11.283825 10.529111l42.083702 0" fill-rule="evenodd"/><path stroke="#000000" stroke-width="2.0" stroke-linejoin="round" stroke-linecap="butt" d="m11.283825 10.529111l42.083702 0" fill-rule="evenodd"/><path fill="#000000" fill-opacity="0.0" d="m11.283825 36.13363l42.083702 0" fill-rule="evenodd"/><path stroke="#000000" stroke-width="2.0" stroke-linejoin="round" stroke-linecap="butt" d="m11.283825 36.13363l42.083702 0" fill-rule="evenodd"/><path fill="#000000" fill-opacity="0.0" d="m11.283825 53.20331l42.083702 0" fill-rule="evenodd"/><path stroke="#000000" stroke-width="2.0" stroke-linejoin="round" stroke-linecap="butt" d="m11.283825 53.20331l42.083702 0" fill-rule="evenodd"/><path fill="#000000" fill-opacity="0.0" d="m11.283825 70.27299l42.083702 0" fill-rule="evenodd"/><path stroke="#000000" stroke-width="2.0" stroke-linejoin="round" stroke-linecap="butt" d="m11.283825 70.27299l42.083702 0" fill-rule="evenodd"/><path fill="#000000" fill-opacity="0.0" d="m11.283825 19.06395l42.083702 0" fill-rule="evenodd"/><path stroke="#000000" stroke-width="2.0" stroke-linejoin="round" stroke-linecap="butt" d="m11.283825 19.06395l42.083702 0" fill-rule="evenodd"/><path fill="#000000" fill-opacity="0.0" d="m75.279205 27.59879l42.083702 0" fill-rule="evenodd"/><path stroke="#000000" stroke-width="2.0" stroke-linejoin="round" stroke-linecap="butt" d="m75.279205 27.59879l42.083702 0" fill-rule="evenodd"/><path fill="#000000" fill-opacity="0.0" d="m75.279205 44.66847l42.083702 0" fill-rule="evenodd"/><path stroke="#000000" stroke-width="2.0" stroke-linejoin="round" stroke-linecap="butt" d="m75.279205 44.66847l42.083702 0" fill-rule="evenodd"/><path fill="#000000" fill-opacity="0.0" d="m75.279205 61.738148l42.083702 0" fill-rule="evenodd"/><path stroke="#000000" stroke-width="2.0" stroke-linejoin="round" stroke-linecap="butt" d="m75.279205 61.738148l42.083702 0" fill-rule="evenodd"/><path fill="#000000" fill-opacity="0.0" d="m75.279205 10.529111l42.083702 0" fill-rule="evenodd"/><path stroke="#000000" stroke-width="2.0" stroke-linejoin="round" stroke-linecap="butt" d="m75.279205 10.529111l42.083702 0" fill-rule="evenodd"/><path fill="#000000" fill-opacity="0.0" d="m75.279205 36.13363l42.083702 0" fill-rule="evenodd"/><path stroke="#000000" stroke-width="2.0" stroke-linejoin="round" stroke-linecap="butt" d="m75.279205 36.13363l42.083702 0" fill-rule="evenodd"/><path fill="#000000" fill-opacity="0.0" d="m75.279205 53.20331l42.083702 0" fill-rule="evenodd"/><path stroke="#000000" stroke-width="2.0" stroke-linejoin="round" stroke-linecap="butt" d="m75.279205 53.20331l42.083702 0" fill-rule="evenodd"/><path fill="#000000" fill-opacity="0.0" d="m75.279205 70.27299l42.083702 0" fill-rule="evenodd"/><path stroke="#000000" stroke-width="2.0" stroke-linejoin="round" stroke-linecap="butt" d="m75.279205 70.27299l42.083702 0" fill-rule="evenodd"/><path fill="#000000" fill-opacity="0.0" d="m75.279205 19.06395l42.083702 0" fill-rule="evenodd"/><path stroke="#000000" stroke-width="2.0" stroke-linejoin="round" stroke-linecap="butt" d="m75.279205 19.06395l42.083702 0" fill-rule="evenodd"/></g></svg>
