<svg version="1.1" viewBox="0.0 0.0 480.0 320.0" fill="none" stroke="none" stroke-linecap="square" stroke-miterlimit="10" xmlns:xlink="http://www.w3.org/1999/xlink" xmlns="http://www.w3.org/2000/svg"><clipPath id="p.0"><path d="m0 0l800.0 0l0 600.0l-800.0 0l0 -600.0z" clip-rule="nonzero"/></clipPath><g clip-path="url(#p.0)"><path fill="#000000" fill-opacity="0.0" d="m0 0l800.0 0l0 600.0l-800.0 0z" fill-rule="evenodd"/><path fill="#000000" fill-opacity="0.0" d="m235.65994 38.771652l0 247.52757" fill-rule="evenodd"/><path stroke="#000000" stroke-width="1.0" stroke-linejoin="round" stroke-linecap="butt" d="m235.65994 42.19874l0 240.6734" fill-rule="evenodd"/><path fill="#000000" stroke="#000000" stroke-width="1.0" stroke-linecap="butt" d="m235.65994 42.198742l1.124588 1.1245804l-1.124588 -3.0897675l-1.124588 3.0897675z" fill-rule="evenodd"/><path fill="#000000" stroke="#000000" stroke-width="1.0" stroke-linecap="butt" d="m235.65994 282.87213l-1.124588 -1.1246033l1.124588 3.0897827l1.124588 -3.0897827z" fill-rule="evenodd"/><path fill="#000000" fill-opacity="0.0" d="m91.833176 162.53543l287.65356 0" fill-rule="evenodd"/><path stroke="#000000" stroke-width="1.0" stroke-linejoin="round" stroke-linecap="butt" d="m95.260254 162.53543l280.79938 0" fill-rule="evenodd"/><path fill="#000000" stroke="#000000" stroke-width="1.0" stroke-linecap="butt" d="m95.260254 162.53543l1.124588 -1.124588l-3.0897675 1.124588l3.0897675 1.124588z" fill-rule="evenodd"/><path fill="#000000" stroke="#000000" stroke-width="1.0" stroke-linecap="butt" d="m376.05963 162.53543l-1.1246033 1.124588l3.0897827 -1.124588l-3.0897827 -1.124588z" fill-rule="evenodd"/><path fill="#000000" fill-opacity="0.0" d="m-3.8833616 143.14961l95.71654 0l0 38.771652l-95.71654 0z" fill-rule="evenodd"/><path fill="#3c78d8" d="m9.826469 168.29544l1.734375 -8.296875l1.25 0l-0.34375 1.6875q0.640625 -0.953125 1.25 -1.40625q0.609375 -0.46875 1.25 -0.46875q0.421875 0 1.046875 0.296875l-0.578125 1.3125q-0.375 -0.265625 -0.8125 -0.265625q-0.734375 0 -1.515625 0.828125q-0.78125 0.828125 -1.234375 2.984375l-0.703125 3.328125l-1.34375 0zm11.421875 -2.828125l1.375 0.140625q-0.296875 1.03125 -1.359375 1.953125q-1.0625 0.921875 -2.546875 0.921875q-0.921875 0 -1.6875 -0.421875q-0.765625 -0.4375 -1.171875 -1.25q-0.40625 -0.8125 -0.40625 -1.84375q0 -1.359375 0.625 -2.640625q0.640625 -1.28125 1.640625 -1.890625q1.0 -0.625 2.15625 -0.625q1.484375 0 2.375 0.921875q0.890625 0.921875 0.890625 2.515625q0 0.609375 -0.109375 1.25l-6.109375 0q-0.03125 0.234375 -0.03125 0.4375q0 1.15625 0.53125 1.78125q0.53125 0.609375 1.3125 0.609375q0.71875 0 1.421875 -0.46875q0.703125 -0.484375 1.09375 -1.390625zm-4.109375 -2.046875l4.65625 0q0.015625 -0.21875 0.015625 -0.3125q0 -1.0625 -0.53125 -1.625q-0.53125 -0.578125 -1.375 -0.578125q-0.90625 0 -1.65625 0.625q-0.734375 0.625 -1.109375 1.890625zm9.0078125 4.875l-1.359375 -8.296875l1.375 0l0.71875 4.5625q0.109375 0.75 0.28125 2.453125q0.40625 -0.890625 1.046875 -2.03125l2.765625 -4.984375l1.5 0l-4.75 8.296875l-1.578125 0zm12.0 -2.828125l1.375 0.140625q-0.296875 1.03125 -1.359375 1.953125q-1.0625 0.921875 -2.546875 0.921875q-0.921875 0 -1.6875 -0.421875q-0.765625 -0.4375 -1.171875 -1.25q-0.40625 -0.8125 -0.40625 -1.84375q0 -1.359375 0.625 -2.640625q0.640625 -1.28125 1.640625 -1.890625q1.0 -0.625 2.15625 -0.625q1.484375 0 2.375 0.921875q0.890625 0.921875 0.890625 2.515625q0 0.609375 -0.109375 1.25l-6.109375 0q-0.03125 0.234375 -0.03125 0.4375q0 1.15625 0.53125 1.78125q0.53125 0.609375 1.3125 0.609375q0.71875 0 1.421875 -0.46875q0.703125 -0.484375 1.09375 -1.390625zm-4.109375 -2.046875l4.65625 0q0.015625 -0.21875 0.015625 -0.3125q0 -1.0625 -0.53125 -1.625q-0.53125 -0.578125 -1.375 -0.578125q-0.90625 0 -1.65625 0.625q-0.734375 0.625 -1.109375 1.890625zm6.9140625 4.875l1.734375 -8.296875l1.25 0l-0.34375 1.6875q0.640625 -0.953125 1.25 -1.40625q0.609375 -0.46875 1.25 -0.46875q0.421875 0 1.046875 0.296875l-0.578125 1.3125q-0.375 -0.265625 -0.8125 -0.265625q-0.734375 0 -1.515625 0.828125q-0.78125 0.828125 -1.234375 2.984375l-0.703125 3.328125l-1.34375 0zm5.46875 -2.84375l1.40625 -0.078125q0 0.609375 0.1875 1.046875q0.1875 0.421875 0.6875 0.703125q0.515625 0.265625 1.1875 0.265625q0.9375 0 1.40625 -0.375q0.46875 -0.375 0.46875 -0.890625q0 -0.359375 -0.28125 -0.6875q-0.296875 -0.328125 -1.421875 -0.8125q-1.109375 -0.484375 -1.421875 -0.671875q-0.53125 -0.328125 -0.796875 -0.75q-0.265625 -0.4375 -0.265625 -1.0q0 -0.984375 0.78125 -1.6875q0.78125 -0.703125 2.1875 -0.703125q1.5625 0 2.375 0.71875q0.828125 0.71875 0.859375 1.90625l-1.390625 0.09375q-0.03125 -0.75 -0.53125 -1.1875q-0.5 -0.4375 -1.40625 -0.4375q-0.734375 0 -1.140625 0.34375q-0.40625 0.328125 -0.40625 0.71875q0 0.390625 0.34375 0.6875q0.234375 0.203125 1.21875 0.625q1.625 0.703125 2.046875 1.109375q0.671875 0.640625 0.671875 1.578125q0 0.609375 -0.390625 1.203125q-0.375 0.59375 -1.15625 0.953125q-0.765625 0.359375 -1.828125 0.359375q-1.4375 0 -2.4375 -0.71875q-1.015625 -0.703125 -0.953125 -2.3125zm9.875 -7.015625l0.328125 -1.59375l1.40625 0l-0.328125 1.59375l-1.40625 0zm-2.0625 9.859375l1.734375 -8.296875l1.40625 0l-1.734375 8.296875l-1.40625 0zm3.6015625 0l2.390625 -11.453125l1.421875 0l-0.859375 4.09375q0.671875 -0.625 1.21875 -0.875q0.546875 -0.25 1.140625 -0.25q1.171875 0 1.9375 0.875q0.78125 0.859375 0.78125 2.515625q0 1.09375 -0.3125 2.015625q-0.3125 0.90625 -0.78125 1.53125q-0.453125 0.625 -0.953125 1.0q-0.484375 0.359375 -1.0 0.546875q-0.515625 0.1875 -0.984375 0.1875q-0.828125 0 -1.453125 -0.4375q-0.625 -0.4375 -0.96875 -1.328125l-0.328125 1.578125l-1.25 0zm2.09375 -3.40625l0 0.265625q0 1.0625 0.5 1.625q0.515625 0.546875 1.265625 0.546875q0.75 0 1.359375 -0.515625q0.625 -0.53125 1.015625 -1.625q0.40625 -1.109375 0.40625 -2.03125q0 -1.046875 -0.5 -1.625q-0.5 -0.578125 -1.25 -0.578125q-0.765625 0 -1.40625 0.59375q-0.640625 0.578125 -1.0625 1.8125q-0.328125 0.90625 -0.328125 1.53125zm6.6953125 3.40625l2.390625 -11.453125l1.421875 0l-2.390625 11.453125l-1.421875 0zm9.7578125 -2.828125l1.375 0.140625q-0.296875 1.03125 -1.359375 1.953125q-1.0625 0.921875 -2.546875 0.921875q-0.921875 0 -1.6875 -0.421875q-0.765625 -0.4375 -1.171875 -1.25q-0.40625 -0.8125 -0.40625 -1.84375q0 -1.359375 0.625 -2.640625q0.640625 -1.28125 1.640625 -1.890625q1.0 -0.625 2.15625 -0.625q1.484375 0 2.375 0.921875q0.890625 0.921875 0.890625 2.515625q0 0.609375 -0.109375 1.25l-6.109375 0q-0.03125 0.234375 -0.03125 0.4375q0 1.15625 0.53125 1.78125q0.53125 0.609375 1.3125 0.609375q0.71875 0 1.421875 -0.46875q0.703125 -0.484375 1.09375 -1.390625zm-4.109375 -2.046875l4.65625 0q0.015625 -0.21875 0.015625 -0.3125q0 -1.0625 -0.53125 -1.625q-0.53125 -0.578125 -1.375 -0.578125q-0.90625 0 -1.65625 0.625q-0.734375 0.625 -1.109375 1.890625z" fill-rule="nonzero"/><path fill="#000000" fill-opacity="0.0" d="m379.48672 143.14961l104.409454 0l0 38.771652l-104.409454 0z" fill-rule="evenodd"/><path fill="#cc0000" d="m395.11722 158.43607l0.328125 -1.59375l1.40625 0l-0.328125 1.59375l-1.40625 0zm-2.0625 9.859375l1.734375 -8.296875l1.40625 0l-1.734375 8.296875l-1.40625 0zm3.6015625 0l1.734375 -8.296875l1.25 0l-0.34375 1.6875q0.640625 -0.953125 1.25 -1.40625q0.609375 -0.46875 1.25 -0.46875q0.421875 0 1.046875 0.296875l-0.578125 1.3125q-0.375 -0.265625 -0.8125 -0.265625q-0.734375 0 -1.515625 0.828125q-0.78125 0.828125 -1.234375 2.984375l-0.703125 3.328125l-1.34375 0zm5.328125 0l1.734375 -8.296875l1.25 0l-0.34375 1.6875q0.640625 -0.953125 1.25 -1.40625q0.609375 -0.46875 1.25 -0.46875q0.421875 0 1.046875 0.296875l-0.578125 1.3125q-0.375 -0.265625 -0.8125 -0.265625q-0.734375 0 -1.515625 0.828125q-0.78125 0.828125 -1.234375 2.984375l-0.703125 3.328125l-1.34375 0zm11.421875 -2.828125l1.375 0.140625q-0.296875 1.03125 -1.359375 1.953125q-1.0625 0.921875 -2.546875 0.921875q-0.921875 0 -1.6875 -0.421875q-0.765625 -0.4375 -1.171875 -1.25q-0.40625 -0.8125 -0.40625 -1.84375q0 -1.359375 0.625 -2.640625q0.640625 -1.28125 1.640625 -1.890625q1.0 -0.625 2.15625 -0.625q1.484375 0 2.375 0.921875q0.890625 0.921875 0.890625 2.515625q0 0.609375 -0.109375 1.25l-6.109375 0q-0.03125 0.234375 -0.03125 0.4375q0 1.15625 0.53125 1.78125q0.53125 0.609375 1.3125 0.609375q0.71875 0 1.421875 -0.46875q0.703125 -0.484375 1.09375 -1.390625zm-4.109375 -2.046875l4.65625 0q0.015625 -0.21875 0.015625 -0.3125q0 -1.0625 -0.53125 -1.625q-0.53125 -0.578125 -1.375 -0.578125q-0.90625 0 -1.65625 0.625q-0.734375 0.625 -1.109375 1.890625zm9.0078125 4.875l-1.359375 -8.296875l1.375 0l0.71875 4.5625q0.109375 0.75 0.28125 2.453125q0.40625 -0.890625 1.046875 -2.03125l2.765625 -4.984375l1.5 0l-4.75 8.296875l-1.578125 0zm12.0 -2.828125l1.375 0.140625q-0.296875 1.03125 -1.359375 1.953125q-1.0625 0.921875 -2.546875 0.921875q-0.921875 0 -1.6875 -0.421875q-0.765625 -0.4375 -1.171875 -1.25q-0.40625 -0.8125 -0.40625 -1.84375q0 -1.359375 0.625 -2.640625q0.640625 -1.28125 1.640625 -1.890625q1.0 -0.625 2.15625 -0.625q1.484375 0 2.375 0.921875q0.890625 0.921875 0.890625 2.515625q0 0.609375 -0.109375 1.25l-6.109375 0q-0.03125 0.234375 -0.03125 0.4375q0 1.15625 0.53125 1.78125q0.53125 0.609375 1.3125 0.609375q0.71875 0 1.421875 -0.46875q0.703125 -0.484375 1.09375 -1.390625zm-4.109375 -2.046875l4.65625 0q0.015625 -0.21875 0.015625 -0.3125q0 -1.0625 -0.53125 -1.625q-0.53125 -0.578125 -1.375 -0.578125q-0.90625 0 -1.65625 0.625q-0.734375 0.625 -1.109375 1.890625zm6.9140625 4.875l1.734375 -8.296875l1.25 0l-0.34375 1.6875q0.640625 -0.953125 1.25 -1.40625q0.609375 -0.46875 1.25 -0.46875q0.421875 0 1.046875 0.296875l-0.578125 1.3125q-0.375 -0.265625 -0.8125 -0.265625q-0.734375 0 -1.515625 0.828125q-0.78125 0.828125 -1.234375 2.984375l-0.703125 3.328125l-1.34375 0zm5.46875 -2.84375l1.40625 -0.078125q0 0.609375 0.1875 1.046875q0.1875 0.421875 0.6875 0.703125q0.515625 0.265625 1.1875 0.265625q0.9375 0 1.40625 -0.375q0.46875 -0.375 0.46875 -0.890625q0 -0.359375 -0.28125 -0.6875q-0.296875 -0.328125 -1.421875 -0.8125q-1.109375 -0.484375 -1.421875 -0.671875q-0.53125 -0.328125 -0.796875 -0.75q-0.265625 -0.4375 -0.265625 -1.0q0 -0.984375 0.78125 -1.6875q0.78125 -0.703125 2.1875 -0.703125q1.5625 0 2.375 0.71875q0.828125 0.71875 0.859375 1.90625l-1.390625 0.09375q-0.03125 -0.75 -0.53125 -1.1875q-0.5 -0.4375 -1.40625 -0.4375q-0.734375 0 -1.140625 0.34375q-0.40625 0.328125 -0.40625 0.71875q0 0.390625 0.34375 0.6875q0.234375 0.203125 1.21875 0.625q1.625 0.703125 2.046875 1.109375q0.671875 0.640625 0.671875 1.578125q0 0.609375 -0.390625 1.203125q-0.375 0.59375 -1.15625 0.953125q-0.765625 0.359375 -1.828125 0.359375q-1.4375 0 -2.4375 -0.71875q-1.015625 -0.703125 -0.953125 -2.3125zm9.875 -7.015625l0.328125 -1.59375l1.40625 0l-0.328125 1.59375l-1.40625 0zm-2.0625 9.859375l1.734375 -8.296875l1.40625 0l-1.734375 8.296875l-1.40625 0zm3.6015625 0l2.390625 -11.453125l1.421875 0l-0.859375 4.09375q0.671875 -0.625 1.21875 -0.875q0.546875 -0.25 1.140625 -0.25q1.171875 0 1.9375 0.875q0.78125 0.859375 0.78125 2.515625q0 1.09375 -0.3125 2.015625q-0.3125 0.90625 -0.78125 1.53125q-0.453125 0.625 -0.953125 1.0q-0.484375 0.359375 -1.0 0.546875q-0.515625 0.1875 -0.984375 0.1875q-0.828125 0 -1.453125 -0.4375q-0.625 -0.4375 -0.96875 -1.328125l-0.328125 1.578125l-1.25 0zm2.09375 -3.40625l0 0.265625q0 1.0625 0.5 1.625q0.515625 0.546875 1.265625 0.546875q0.75 0 1.359375 -0.515625q0.625 -0.53125 1.015625 -1.625q0.40625 -1.109375 0.40625 -2.03125q0 -1.046875 -0.5 -1.625q-0.5 -0.578125 -1.25 -0.578125q-0.765625 0 -1.40625 0.59375q-0.640625 0.578125 -1.0625 1.8125q-0.328125 0.90625 -0.328125 1.53125zm6.6953125 3.40625l2.390625 -11.453125l1.421875 0l-2.390625 11.453125l-1.421875 0zm9.7578125 -2.828125l1.375 0.140625q-0.296875 1.03125 -1.359375 1.953125q-1.0625 0.921875 -2.546875 0.921875q-0.921875 0 -1.6875 -0.421875q-0.765625 -0.4375 -1.171875 -1.25q-0.40625 -0.8125 -0.40625 -1.84375q0 -1.359375 0.625 -2.640625q0.640625 -1.28125 1.640625 -1.890625q1.0 -0.625 2.15625 -0.625q1.484375 0 2.375 0.921875q0.890625 0.921875 0.890625 2.515625q0 0.609375 -0.109375 1.25l-6.109375 0q-0.03125 0.234375 -0.03125 0.4375q0 1.15625 0.53125 1.78125q0.53125 0.609375 1.3125 0.609375q0.71875 0 1.421875 -0.46875q0.703125 -0.484375 1.09375 -1.390625zm-4.109375 -2.046875l4.65625 0q0.015625 -0.21875 0.015625 -0.3125q0 -1.0625 -0.53125 -1.625q-0.53125 -0.578125 -1.375 -0.578125q-0.90625 0 -1.65625 0.625q-0.734375 0.625 -1.109375 1.890625z" fill-rule="nonzero"/><path fill="#000000" fill-opacity="0.0" d="m164.47884 0l142.3622 0l0 38.771652l-142.3622 0z" fill-rule="evenodd"/><path fill="#ffffff" d="m186.28885 9.785829l98.74219 0l0 19.2l-98.74219 0l0 -19.2z" fill-rule="nonzero"/><path fill="#000000" fill-opacity="0.0" d="m186.28885 10.661453l98.74219 0l0 18.398438l-98.74219 0l0 -18.398438z" fill-rule="nonzero"/><path fill="#cc0000" d="m192.55447 22.114578l1.40625 0.15625q-0.53125 1.546875 -1.515625 2.3125q-0.96875 0.75 -2.21875 0.75q-1.359375 0 -2.203125 -0.875q-0.828125 -0.875 -0.828125 -2.453125q0 -1.359375 0.53125 -2.671875q0.546875 -1.3125 1.546875 -1.984375q1.0 -0.6875 2.296875 -0.6875q1.328125 0 2.109375 0.75q0.78125 0.75 0.78125 2.0l-1.390625 0.09375q0 -0.796875 -0.453125 -1.234375q-0.453125 -0.453125 -1.1875 -0.453125q-0.84375 0 -1.46875 0.546875q-0.625 0.53125 -0.984375 1.640625q-0.359375 1.09375 -0.359375 2.109375q0 1.0625 0.46875 1.59375q0.46875 0.53125 1.15625 0.53125q0.6875 0 1.3125 -0.515625q0.640625 -0.53125 1.0 -1.609375zm2.515625 -0.125q0 -2.421875 1.4375 -4.015625q1.171875 -1.3125 3.09375 -1.3125q1.5 0 2.40625 0.9375q0.921875 0.9375 0.921875 2.53125q0 1.421875 -0.578125 2.65625q-0.578125 1.234375 -1.640625 1.890625q-1.0625 0.65625 -2.25 0.65625q-0.96875 0 -1.765625 -0.40625q-0.78125 -0.421875 -1.203125 -1.171875q-0.421875 -0.765625 -0.421875 -1.765625zm1.421875 -0.140625q0 1.171875 0.5625 1.78125q0.5625 0.609375 1.421875 0.609375q0.453125 0 0.890625 -0.1875q0.453125 -0.1875 0.828125 -0.5625q0.390625 -0.375 0.65625 -0.84375q0.28125 -0.484375 0.4375 -1.046875q0.25 -0.765625 0.25 -1.484375q0 -1.125 -0.578125 -1.734375q-0.5625 -0.625 -1.421875 -0.625q-0.65625 0 -1.203125 0.3125q-0.546875 0.3125 -1.0 0.921875q-0.4375 0.609375 -0.640625 1.421875q-0.203125 0.8125 -0.203125 1.4375zm7.2265625 3.296875l1.734375 -8.296875l1.28125 0l-0.296875 1.4375q0.828125 -0.84375 1.546875 -1.234375q0.734375 -0.390625 1.5 -0.390625q1.0 0 1.578125 0.546875q0.578125 0.546875 0.578125 1.453125q0 0.46875 -0.203125 1.453125l-1.0625 5.03125l-1.40625 0l1.09375 -5.265625q0.171875 -0.765625 0.171875 -1.125q0 -0.421875 -0.296875 -0.671875q-0.28125 -0.265625 -0.8125 -0.265625q-1.09375 0 -1.9375 0.78125q-0.84375 0.78125 -1.25 2.6875l-0.796875 3.859375l-1.421875 0zm9.0390625 -2.84375l1.40625 -0.078125q0 0.609375 0.1875 1.046875q0.1875 0.421875 0.6875 0.703125q0.515625 0.265625 1.1875 0.265625q0.9375 0 1.40625 -0.375q0.46875 -0.375 0.46875 -0.890625q0 -0.359375 -0.28125 -0.6875q-0.296875 -0.328125 -1.421875 -0.8125q-1.109375 -0.484375 -1.421875 -0.671875q-0.53125 -0.328125 -0.796875 -0.75q-0.265625 -0.4375 -0.265625 -1.0q0 -0.984375 0.78125 -1.6875q0.78125 -0.703125 2.1875 -0.703125q1.5625 0 2.375 0.71875q0.828125 0.71875 0.859375 1.90625l-1.390625 0.09375q-0.03125 -0.75 -0.53125 -1.1875q-0.5 -0.4375 -1.40625 -0.4375q-0.734375 0 -1.140625 0.34375q-0.40625 0.328125 -0.40625 0.71875q0 0.390625 0.34375 0.6875q0.234375 0.203125 1.21875 0.625q1.625 0.703125 2.046875 1.109375q0.671875 0.640625 0.671875 1.578125q0 0.609375 -0.390625 1.203125q-0.375 0.59375 -1.15625 0.953125q-0.765625 0.359375 -1.828125 0.359375q-1.4375 0 -2.4375 -0.71875q-1.015625 -0.703125 -0.953125 -2.3125zm13.953125 0.015625l1.375 0.140625q-0.296875 1.03125 -1.359375 1.953125q-1.0625 0.921875 -2.546875 0.921875q-0.921875 0 -1.6875 -0.421875q-0.765625 -0.4375 -1.171875 -1.25q-0.40625 -0.8125 -0.40625 -1.84375q0 -1.359375 0.625 -2.640625q0.640625 -1.28125 1.640625 -1.890625q1.0 -0.625 2.15625 -0.625q1.484375 0 2.375 0.921875q0.890625 0.921875 0.890625 2.515625q0 0.609375 -0.109375 1.25l-6.109375 0q-0.03125 0.234375 -0.03125 0.4375q0 1.15625 0.53125 1.78125q0.53125 0.609375 1.3125 0.609375q0.71875 0 1.421875 -0.46875q0.703125 -0.484375 1.09375 -1.390625zm-4.109375 -2.046875l4.65625 0q0.015625 -0.21875 0.015625 -0.3125q0 -1.0625 -0.53125 -1.625q-0.53125 -0.578125 -1.375 -0.578125q-0.90625 0 -1.65625 0.625q-0.734375 0.625 -1.109375 1.890625zm12.2734375 3.9375q-1.203125 1.125 -2.3125 1.125q-1.15625 0 -1.953125 -0.875q-0.796875 -0.890625 -0.796875 -2.5q0 -1.546875 0.59375 -2.796875q0.609375 -1.25 1.546875 -1.875q0.953125 -0.625 1.953125 -0.625q0.75 0 1.375 0.421875q0.625 0.421875 1.0 1.28125l0.328125 -1.515625l1.21875 0l-2.390625 11.484375l-1.421875 0l0.859375 -4.125zm-3.671875 -2.4375q0 1.21875 0.5 1.8125q0.515625 0.59375 1.28125 0.59375q0.640625 0 1.28125 -0.53125q0.65625 -0.53125 1.078125 -1.59375q0.421875 -1.0625 0.421875 -2.0625q0 -1.015625 -0.53125 -1.59375q-0.515625 -0.578125 -1.28125 -0.578125q-0.734375 0 -1.296875 0.484375q-0.71875 0.625 -1.140625 1.8125q-0.3125 0.90625 -0.3125 1.65625zm12.8828125 1.875q-1.5 1.6875 -3.0625 1.6875q-0.953125 0 -1.546875 -0.546875q-0.59375 -0.5625 -0.59375 -1.359375q0 -0.515625 0.265625 -1.796875l1.0 -4.78125l1.421875 0l-1.109375 5.296875q-0.140625 0.671875 -0.140625 1.03125q0 0.46875 0.28125 0.734375q0.28125 0.265625 0.84375 0.265625q0.59375 0 1.15625 -0.28125q0.5625 -0.296875 0.96875 -0.78125q0.421875 -0.5 0.671875 -1.171875q0.171875 -0.4375 0.40625 -1.515625l0.75 -3.578125l1.40625 0l-1.734375 8.296875l-1.296875 0l0.3125 -1.5zm9.3203125 -1.328125l1.375 0.140625q-0.296875 1.03125 -1.359375 1.953125q-1.0625 0.921875 -2.546875 0.921875q-0.921875 0 -1.6875 -0.421875q-0.765625 -0.4375 -1.171875 -1.25q-0.40625 -0.8125 -0.40625 -1.84375q0 -1.359375 0.625 -2.640625q0.640625 -1.28125 1.640625 -1.890625q1.0 -0.625 2.15625 -0.625q1.484375 0 2.375 0.921875q0.890625 0.921875 0.890625 2.515625q0 0.609375 -0.109375 1.25l-6.109375 0q-0.03125 0.234375 -0.03125 0.4375q0 1.15625 0.53125 1.78125q0.53125 0.609375 1.3125 0.609375q0.71875 0 1.421875 -0.46875q0.703125 -0.484375 1.09375 -1.390625zm-4.109375 -2.046875l4.65625 0q0.015625 -0.21875 0.015625 -0.3125q0 -1.0625 -0.53125 -1.625q-0.53125 -0.578125 -1.375 -0.578125q-0.90625 0 -1.65625 0.625q-0.734375 0.625 -1.109375 1.890625zm6.9140625 4.875l1.734375 -8.296875l1.28125 0l-0.296875 1.4375q0.828125 -0.84375 1.546875 -1.234375q0.734375 -0.390625 1.5 -0.390625q1.0 0 1.578125 0.546875q0.578125 0.546875 0.578125 1.453125q0 0.46875 -0.203125 1.453125l-1.0625 5.03125l-1.40625 0l1.09375 -5.265625q0.171875 -0.765625 0.171875 -1.125q0 -0.421875 -0.296875 -0.671875q-0.28125 -0.265625 -0.8125 -0.265625q-1.09375 0 -1.9375 0.78125q-0.84375 0.78125 -1.25 2.6875l-0.796875 3.859375l-1.421875 0zm12.2109375 -1.15625l-0.234375 1.171875q-0.515625 0.125 -0.984375 0.125q-0.84375 0 -1.34375 -0.421875q-0.375 -0.3125 -0.375 -0.84375q0 -0.28125 0.203125 -1.265625l1.0 -4.8125l-1.109375 0l0.21875 -1.09375l1.125 0l0.421875 -2.046875l1.625 -0.96875l-0.640625 3.015625l1.390625 0l-0.234375 1.09375l-1.375 0l-0.96875 4.578125q-0.171875 0.875 -0.171875 1.046875q0 0.25 0.140625 0.390625q0.140625 0.125 0.46875 0.125q0.46875 0 0.84375 -0.09375zm3.1484375 -8.703125l0.328125 -1.59375l1.40625 0l-0.328125 1.59375l-1.40625 0zm-2.0625 9.859375l1.734375 -8.296875l1.40625 0l-1.734375 8.296875l-1.40625 0zm9.1953125 -1.03125q-0.734375 0.625 -1.421875 0.921875q-0.671875 0.296875 -1.4375 0.296875q-1.15625 0 -1.859375 -0.671875q-0.703125 -0.6875 -0.703125 -1.734375q0 -0.703125 0.3125 -1.234375q0.328125 -0.53125 0.84375 -0.859375q0.53125 -0.328125 1.28125 -0.46875q0.484375 -0.09375 1.8125 -0.140625q1.328125 -0.0625 1.90625 -0.28125q0.171875 -0.578125 0.171875 -0.96875q0 -0.484375 -0.359375 -0.765625q-0.5 -0.390625 -1.4375 -0.390625q-0.890625 0 -1.46875 0.390625q-0.5625 0.390625 -0.8125 1.125l-1.4375 -0.125q0.4375 -1.234375 1.390625 -1.890625q0.953125 -0.65625 2.390625 -0.65625q1.546875 0 2.4375 0.734375q0.6875 0.546875 0.6875 1.421875q0 0.65625 -0.1875 1.53125l-0.46875 2.0625q-0.21875 0.984375 -0.21875 1.609375q0 0.390625 0.171875 1.125l-1.421875 0q-0.125 -0.40625 -0.171875 -1.03125zm0.53125 -3.171875q-0.296875 0.109375 -0.640625 0.171875q-0.34375 0.0625 -1.140625 0.140625q-1.234375 0.109375 -1.75 0.28125q-0.5 0.15625 -0.765625 0.53125q-0.25 0.359375 -0.25 0.8125q0 0.59375 0.40625 0.984375q0.421875 0.375 1.171875 0.375q0.703125 0 1.34375 -0.375q0.65625 -0.375 1.03125 -1.03125q0.375 -0.671875 0.59375 -1.890625zm2.6640625 4.203125l2.390625 -11.453125l1.421875 0l-2.390625 11.453125l-1.421875 0z" fill-rule="nonzero"/><path fill="#000000" fill-opacity="0.0" d="m164.47884 286.29922l142.3622 0l0 38.771637l-142.3622 0z" fill-rule="evenodd"/><path fill="#ffffff" d="m192.51541 296.08505l98.74219 0l0 19.199982l-98.74219 0l0 -19.199982z" fill-rule="nonzero"/><path fill="#3c78d8" d="m182.60916 301.58566l0.328125 -1.59375l1.40625 0l-0.328125 1.59375l-1.40625 0zm-2.0625 9.859375l1.734375 -8.296875l1.40625 0l-1.734375 8.296875l-1.40625 0zm3.6015625 0l1.734375 -8.296875l1.28125 0l-0.296875 1.4375q0.828125 -0.84375 1.546875 -1.234375q0.734375 -0.390625 1.5 -0.390625q1.0 0 1.578125 0.546875q0.578125 0.546875 0.578125 1.453125q0 0.46875 -0.203125 1.453125l-1.0625 5.03125l-1.40625 0l1.09375 -5.265625q0.171875 -0.765625 0.171875 -1.125q0 -0.421875 -0.296875 -0.671875q-0.28125 -0.265625 -0.8125 -0.265625q-1.09375 0 -1.9375 0.78125q-0.84375 0.78125 -1.25 2.6875l-0.796875 3.859375l-1.421875 0z" fill-rule="nonzero"/><path fill="#010000" fill-opacity="0.0" d="m192.51541 296.96066l98.74219 0l0 18.398438l-98.74219 0l0 -18.398438z" fill-rule="nonzero"/><path fill="#3c78d8" d="m198.78104 308.4138l1.40625 0.15625q-0.53125 1.546875 -1.515625 2.3125q-0.96875 0.75 -2.21875 0.75q-1.359375 0 -2.203125 -0.875q-0.828125 -0.875 -0.828125 -2.453125q0 -1.359375 0.53125 -2.671875q0.546875 -1.3125 1.546875 -1.984375q1.0 -0.6875 2.296875 -0.6875q1.328125 0 2.109375 0.75q0.78125 0.75 0.78125 2.0l-1.390625 0.09375q0 -0.796875 -0.453125 -1.234375q-0.453125 -0.453125 -1.1875 -0.453125q-0.84375 0 -1.46875 0.546875q-0.625 0.53125 -0.984375 1.640625q-0.359375 1.09375 -0.359375 2.109375q0 1.0625 0.46875 1.59375q0.46875 0.53125 1.15625 0.53125q0.6875 0 1.3125 -0.515625q0.640625 -0.53125 1.0 -1.609375zm2.515625 -0.125q0 -2.421875 1.4375 -4.015625q1.171875 -1.3125 3.09375 -1.3125q1.5 0 2.40625 0.9375q0.921875 0.9375 0.921875 2.53125q0 1.421875 -0.578125 2.65625q-0.578125 1.234375 -1.640625 1.890625q-1.0625 0.65625 -2.25 0.65625q-0.96875 0 -1.765625 -0.40625q-0.78125 -0.421875 -1.203125 -1.171875q-0.421875 -0.765625 -0.421875 -1.765625zm1.421875 -0.140625q0 1.171875 0.5625 1.78125q0.5625 0.609375 1.421875 0.609375q0.453125 0 0.890625 -0.1875q0.453125 -0.1875 0.828125 -0.5625q0.390625 -0.375 0.65625 -0.84375q0.28125 -0.484375 0.4375 -1.046875q0.25 -0.765625 0.25 -1.484375q0 -1.125 -0.578125 -1.734375q-0.5625 -0.625 -1.421875 -0.625q-0.65625 0 -1.203125 0.3125q-0.546875 0.3125 -1.0 0.921875q-0.4375 0.609375 -0.640625 1.421875q-0.203125 0.8125 -0.203125 1.4375zm7.2265625 3.296875l1.734375 -8.296875l1.28125 0l-0.296875 1.4375q0.828125 -0.84375 1.546875 -1.234375q0.734375 -0.390625 1.5 -0.390625q1.0 0 1.578125 0.546875q0.578125 0.546875 0.578125 1.453125q0 0.46875 -0.203125 1.453125l-1.0625 5.03125l-1.40625 0l1.09375 -5.265625q0.171875 -0.765625 0.171875 -1.125q0 -0.421875 -0.296875 -0.671875q-0.28125 -0.265625 -0.8125 -0.265625q-1.09375 0 -1.9375 0.78125q-0.84375 0.78125 -1.25 2.6875l-0.796875 3.859375l-1.421875 0zm9.0390625 -2.84375l1.40625 -0.078125q0 0.609375 0.1875 1.046875q0.1875 0.421875 0.6875 0.703125q0.515625 0.265625 1.1875 0.265625q0.9375 0 1.40625 -0.375q0.46875 -0.375 0.46875 -0.890625q0 -0.359375 -0.28125 -0.6875q-0.296875 -0.328125 -1.421875 -0.8125q-1.109375 -0.484375 -1.421875 -0.671875q-0.53125 -0.328125 -0.796875 -0.75q-0.265625 -0.4375 -0.265625 -1.0q0 -0.984375 0.78125 -1.6875q0.78125 -0.703125 2.1875 -0.703125q1.5625 0 2.375 0.71875q0.828125 0.71875 0.859375 1.90625l-1.390625 0.09375q-0.03125 -0.75 -0.53125 -1.1875q-0.5 -0.4375 -1.40625 -0.4375q-0.734375 0 -1.140625 0.34375q-0.40625 0.328125 -0.40625 0.71875q0 0.390625 0.34375 0.6875q0.234375 0.203125 1.21875 0.625q1.625 0.703125 2.046875 1.109375q0.671875 0.640625 0.671875 1.578125q0 0.609375 -0.390625 1.203125q-0.375 0.59375 -1.15625 0.953125q-0.765625 0.359375 -1.828125 0.359375q-1.4375 0 -2.4375 -0.71875q-1.015625 -0.703125 -0.953125 -2.3125zm13.953125 0.015625l1.375 0.140625q-0.296875 1.03125 -1.359375 1.953125q-1.0625 0.921875 -2.546875 0.921875q-0.921875 0 -1.6875 -0.421875q-0.765625 -0.4375 -1.171875 -1.25q-0.40625 -0.8125 -0.40625 -1.84375q0 -1.359375 0.625 -2.640625q0.640625 -1.28125 1.640625 -1.890625q1.0 -0.625 2.15625 -0.625q1.484375 0 2.375 0.921875q0.890625 0.921875 0.890625 2.515625q0 0.609375 -0.109375 1.25l-6.109375 0q-0.03125 0.234375 -0.03125 0.4375q0 1.15625 0.53125 1.78125q0.53125 0.609375 1.3125 0.609375q0.71875 0 1.421875 -0.46875q0.703125 -0.484375 1.09375 -1.390625zm-4.109375 -2.046875l4.65625 0q0.015625 -0.21875 0.015625 -0.3125q0 -1.0625 -0.53125 -1.625q-0.53125 -0.578125 -1.375 -0.578125q-0.90625 0 -1.65625 0.625q-0.734375 0.625 -1.109375 1.890625zm12.2734375 3.9375q-1.203125 1.125 -2.3125 1.125q-1.15625 0 -1.953125 -0.875q-0.796875 -0.890625 -0.796875 -2.5q0 -1.546875 0.59375 -2.796875q0.609375 -1.25 1.546875 -1.875q0.953125 -0.625 1.953125 -0.625q0.75 0 1.375 0.421875q0.625 0.421875 1.0 1.28125l0.328125 -1.515625l1.21875 0l-2.390625 11.484375l-1.421875 0l0.859375 -4.125zm-3.671875 -2.4375q0 1.21875 0.5 1.8125q0.515625 0.59375 1.28125 0.59375q0.640625 0 1.28125 -0.53125q0.65625 -0.53125 1.078125 -1.59375q0.421875 -1.0625 0.421875 -2.0625q0 -1.015625 -0.53125 -1.59375q-0.515625 -0.578125 -1.28125 -0.578125q-0.734375 0 -1.296875 0.484375q-0.71875 0.625 -1.140625 1.8125q-0.3125 0.90625 -0.3125 1.65625zm12.8828125 1.875q-1.5 1.6875 -3.0625 1.6875q-0.953125 0 -1.546875 -0.546875q-0.59375 -0.5625 -0.59375 -1.359375q0 -0.515625 0.265625 -1.796875l1.0 -4.78125l1.421875 0l-1.109375 5.296875q-0.140625 0.671875 -0.140625 1.03125q0 0.46875 0.28125 0.734375q0.28125 0.265625 0.84375 0.265625q0.59375 0 1.15625 -0.28125q0.5625 -0.296875 0.96875 -0.78125q0.421875 -0.5 0.671875 -1.171875q0.171875 -0.4375 0.40625 -1.515625l0.75 -3.578125l1.40625 0l-1.734375 8.296875l-1.296875 0l0.3125 -1.5zm9.3203125 -1.328125l1.375 0.140625q-0.296875 1.03125 -1.359375 1.953125q-1.0625 0.921875 -2.546875 0.921875q-0.921875 0 -1.6875 -0.421875q-0.765625 -0.4375 -1.171875 -1.25q-0.40625 -0.8125 -0.40625 -1.84375q0 -1.359375 0.625 -2.640625q0.640625 -1.28125 1.640625 -1.890625q1.0 -0.625 2.15625 -0.625q1.484375 0 2.375 0.921875q0.890625 0.921875 0.890625 2.515625q0 0.609375 -0.109375 1.25l-6.109375 0q-0.03125 0.234375 -0.03125 0.4375q0 1.15625 0.53125 1.78125q0.53125 0.609375 1.3125 0.609375q0.71875 0 1.421875 -0.46875q0.703125 -0.484375 1.09375 -1.390625zm-4.109375 -2.046875l4.65625 0q0.015625 -0.21875 0.015625 -0.3125q0 -1.0625 -0.53125 -1.625q-0.53125 -0.578125 -1.375 -0.578125q-0.90625 0 -1.65625 0.625q-0.734375 0.625 -1.109375 1.890625zm6.9140625 4.875l1.734375 -8.296875l1.28125 0l-0.296875 1.4375q0.828125 -0.84375 1.546875 -1.234375q0.734375 -0.390625 1.5 -0.390625q1.0 0 1.578125 0.546875q0.578125 0.546875 0.578125 1.453125q0 0.46875 -0.203125 1.453125l-1.0625 5.03125l-1.40625 0l1.09375 -5.265625q0.171875 -0.765625 0.171875 -1.125q0 -0.421875 -0.296875 -0.671875q-0.28125 -0.265625 -0.8125 -0.265625q-1.09375 0 -1.9375 0.78125q-0.84375 0.78125 -1.25 2.6875l-0.796875 3.859375l-1.421875 0zm12.2109375 -1.15625l-0.234375 1.171875q-0.515625 0.125 -0.984375 0.125q-0.84375 0 -1.34375 -0.421875q-0.375 -0.3125 -0.375 -0.84375q0 -0.28125 0.203125 -1.265625l1.0 -4.8125l-1.109375 0l0.21875 -1.09375l1.125 0l0.421875 -2.046875l1.625 -0.96875l-0.640625 3.015625l1.390625 0l-0.234375 1.09375l-1.375 0l-0.96875 4.578125q-0.171875 0.875 -0.171875 1.046875q0 0.25 0.140625 0.390625q0.140625 0.125 0.46875 0.125q0.46875 0 0.84375 -0.09375zm3.1484375 -8.703125l0.328125 -1.59375l1.40625 0l-0.328125 1.59375l-1.40625 0zm-2.0625 9.859375l1.734375 -8.296875l1.40625 0l-1.734375 8.296875l-1.40625 0zm9.1953125 -1.03125q-0.734375 0.625 -1.421875 0.921875q-0.671875 0.296875 -1.4375 0.296875q-1.15625 0 -1.859375 -0.671875q-0.703125 -0.6875 -0.703125 -1.734375q0 -0.703125 0.3125 -1.234375q0.328125 -0.53125 0.84375 -0.859375q0.53125 -0.328125 1.28125 -0.46875q0.484375 -0.09375 1.8125 -0.140625q1.328125 -0.0625 1.90625 -0.28125q0.171875 -0.578125 0.171875 -0.96875q0 -0.484375 -0.359375 -0.765625q-0.5 -0.390625 -1.4375 -0.390625q-0.890625 0 -1.46875 0.390625q-0.5625 0.390625 -0.8125 1.125l-1.4375 -0.125q0.4375 -1.234375 1.390625 -1.890625q0.953125 -0.65625 2.390625 -0.65625q1.546875 0 2.4375 0.734375q0.6875 0.546875 0.6875 1.421875q0 0.65625 -0.1875 1.53125l-0.46875 2.0625q-0.21875 0.984375 -0.21875 1.609375q0 0.390625 0.171875 1.125l-1.421875 0q-0.125 -0.40625 -0.171875 -1.03125zm0.53125 -3.171875q-0.296875 0.109375 -0.640625 0.171875q-0.34375 0.0625 -1.140625 0.140625q-1.234375 0.109375 -1.75 0.28125q-0.5 0.15625 -0.765625 0.53125q-0.25 0.359375 -0.25 0.8125q0 0.59375 0.40625 0.984375q0.421875 0.375 1.171875 0.375q0.703125 0 1.34375 -0.375q0.65625 -0.375 1.03125 -1.03125q0.375 -0.671875 0.59375 -1.890625zm2.6640625 4.203125l2.390625 -11.453125l1.421875 0l-2.390625 11.453125l-1.421875 0z" fill-rule="nonzero"/><path fill="#000000" fill-opacity="0.0" d="m253.73753 81.267715l116.25197 0l0 38.771652l-116.25197 0z" fill-rule="evenodd"/><path fill="#ffffff" d="m264.7151 91.05354l94.296875 0l0 19.200005l-94.296875 0l0 -19.200005z" fill-rule="nonzero"/><path fill="#000000" fill-opacity="0.0" d="m264.7151 91.92917l94.296875 0l0 18.398438l-94.296875 0l0 -18.398438z" fill-rule="nonzero"/><path fill="#111111" d="m265.4182 106.41354l2.390625 -11.453125l3.546875 0q0.96875 0 1.4375 0.078125q0.765625 0.125 1.296875 0.46875q0.53125 0.328125 0.8125 0.90625q0.296875 0.5625 0.296875 1.265625q0 0.9375 -0.53125 1.65625q-0.515625 0.71875 -1.578125 1.09375q0.921875 0.3125 1.375 0.921875q0.46875 0.609375 0.46875 1.4375q0 0.9375 -0.546875 1.8125q-0.53125 0.859375 -1.4375 1.34375q-0.890625 0.46875 -1.984375 0.46875l-5.546875 0zm2.90625 -6.5625l2.3125 0q1.671875 0 2.390625 -0.53125q0.734375 -0.53125 0.734375 -1.546875q0 -0.484375 -0.234375 -0.828125q-0.21875 -0.359375 -0.59375 -0.515625q-0.375 -0.171875 -1.421875 -0.171875l-2.4375 0l-0.75 3.59375zm-1.109375 5.265625l2.609375 0q1.046875 0 1.40625 -0.078125q0.71875 -0.125 1.171875 -0.421875q0.453125 -0.296875 0.703125 -0.78125q0.265625 -0.5 0.265625 -1.046875q0 -0.796875 -0.5 -1.21875q-0.5 -0.421875 -1.921875 -0.421875l-2.90625 0l-0.828125 3.96875zm14.796875 -1.53125l1.375 0.140625q-0.296875 1.03125 -1.359375 1.953125q-1.0625 0.921875 -2.546875 0.921875q-0.921875 0 -1.6875 -0.421875q-0.765625 -0.4375 -1.171875 -1.25q-0.40625 -0.8125 -0.40625 -1.84375q0 -1.359375 0.625 -2.640625q0.640625 -1.28125 1.640625 -1.890625q1.0 -0.625 2.15625 -0.625q1.484375 0 2.375 0.921875q0.890625 0.921875 0.890625 2.515625q0 0.609375 -0.109375 1.25l-6.109375 0q-0.03125 0.234375 -0.03125 0.4375q0 1.15625 0.53125 1.78125q0.53125 0.609375 1.3125 0.609375q0.71875 0 1.421875 -0.46875q0.703125 -0.484375 1.09375 -1.390625zm-4.109375 -2.046875l4.65625 0q0.015625 -0.21875 0.015625 -0.3125q0 -1.0625 -0.53125 -1.625q-0.53125 -0.578125 -1.375 -0.578125q-0.90625 0 -1.65625 0.625q-0.734375 0.625 -1.109375 1.890625zm14.671875 3.71875l-0.234375 1.171875q-0.515625 0.125 -0.984375 0.125q-0.84375 0 -1.34375 -0.421875q-0.375 -0.3125 -0.375 -0.84375q0 -0.28125 0.203125 -1.265625l1.0 -4.8125l-1.109375 0l0.21875 -1.09375l1.125 0l0.421875 -2.046875l1.625 -0.96875l-0.640625 3.015625l1.390625 0l-0.234375 1.09375l-1.375 0l-0.96875 4.578125q-0.171875 0.875 -0.171875 1.046875q0 0.25 0.140625 0.390625q0.140625 0.125 0.46875 0.125q0.46875 0 0.84375 -0.09375zm1.1328125 1.15625l2.390625 -11.453125l1.421875 0l-0.921875 4.390625q0.796875 -0.765625 1.46875 -1.09375q0.6875 -0.328125 1.40625 -0.328125q1.03125 0 1.59375 0.546875q0.578125 0.53125 0.578125 1.421875q0 0.4375 -0.25 1.609375l-1.03125 4.90625l-1.40625 0l1.046875 -5.03125q0.234375 -1.09375 0.234375 -1.375q0 -0.40625 -0.28125 -0.65625q-0.28125 -0.265625 -0.8125 -0.265625q-0.765625 0 -1.46875 0.40625q-0.6875 0.40625 -1.09375 1.109375q-0.390625 0.6875 -0.71875 2.25l-0.734375 3.5625l-1.421875 0zm9.1484375 -3.15625q0 -2.421875 1.4375 -4.015625q1.171875 -1.3125 3.09375 -1.3125q1.5 0 2.40625 0.9375q0.921875 0.9375 0.921875 2.53125q0 1.421875 -0.578125 2.65625q-0.578125 1.234375 -1.640625 1.890625q-1.0625 0.65625 -2.25 0.65625q-0.96875 0 -1.765625 -0.40625q-0.78125 -0.421875 -1.203125 -1.171875q-0.421875 -0.765625 -0.421875 -1.765625zm1.421875 -0.140625q0 1.171875 0.5625 1.78125q0.5625 0.609375 1.421875 0.609375q0.453125 0 0.890625 -0.1875q0.453125 -0.1875 0.828125 -0.5625q0.390625 -0.375 0.65625 -0.84375q0.28125 -0.484375 0.4375 -1.046875q0.25 -0.765625 0.25 -1.484375q0 -1.125 -0.578125 -1.734375q-0.5625 -0.625 -1.421875 -0.625q-0.65625 0 -1.203125 0.3125q-0.546875 0.3125 -1.0 0.921875q-0.4375 0.609375 -0.640625 1.421875q-0.203125 0.8125 -0.203125 1.4375zm12.8984375 1.796875q-1.5 1.6875 -3.0625 1.6875q-0.953125 0 -1.546875 -0.546875q-0.59375 -0.5625 -0.59375 -1.359375q0 -0.515625 0.265625 -1.796875l1.0 -4.78125l1.421875 0l-1.109375 5.296875q-0.140625 0.671875 -0.140625 1.03125q0 0.46875 0.28125 0.734375q0.28125 0.265625 0.84375 0.265625q0.59375 0 1.15625 -0.28125q0.5625 -0.296875 0.96875 -0.78125q0.421875 -0.5 0.671875 -1.171875q0.171875 -0.4375 0.40625 -1.515625l0.75 -3.578125l1.40625 0l-1.734375 8.296875l-1.296875 0l0.3125 -1.5zm3.1484375 2.25l1.4375 0.140625q-0.015625 0.484375 0.109375 0.71875q0.140625 0.25 0.421875 0.375q0.390625 0.171875 1.0 0.171875q1.28125 0 1.84375 -0.65625q0.359375 -0.453125 0.671875 -1.953125l0.140625 -0.671875q-1.09375 1.125 -2.34375 1.125q-1.25 0 -2.109375 -0.921875q-0.84375 -0.9375 -0.84375 -2.625q0 -1.40625 0.671875 -2.578125q0.671875 -1.171875 1.59375 -1.765625q0.921875 -0.59375 1.890625 -0.59375q1.640625 0 2.515625 1.546875l0.28125 -1.359375l1.296875 0l-1.671875 8.0q-0.265625 1.328125 -0.71875 2.0625q-0.4375 0.75 -1.234375 1.15625q-0.796875 0.40625 -1.828125 0.40625q-1.0 0 -1.734375 -0.265625q-0.71875 -0.25 -1.078125 -0.75q-0.34375 -0.5 -0.34375 -1.140625q0 -0.1875 0.03125 -0.421875zm1.765625 -4.421875q0 0.84375 0.171875 1.28125q0.234375 0.59375 0.65625 0.921875q0.4375 0.3125 0.96875 0.3125q0.703125 0 1.390625 -0.484375q0.6875 -0.5 1.109375 -1.515625q0.421875 -1.03125 0.421875 -1.953125q0 -1.03125 -0.5625 -1.625q-0.5625 -0.609375 -1.40625 -0.609375q-0.515625 0 -1.0 0.28125q-0.484375 0.265625 -0.90625 0.84375q-0.40625 0.5625 -0.625 1.359375q-0.21875 0.78125 -0.21875 1.1875zm7.2109375 3.671875l2.390625 -11.453125l1.421875 0l-0.921875 4.390625q0.796875 -0.765625 1.46875 -1.09375q0.6875 -0.328125 1.40625 -0.328125q1.03125 0 1.59375 0.546875q0.578125 0.53125 0.578125 1.421875q0 0.4375 -0.25 1.609375l-1.03125 4.90625l-1.40625 0l1.046875 -5.03125q0.234375 -1.09375 0.234375 -1.375q0 -0.40625 -0.28125 -0.65625q-0.28125 -0.265625 -0.8125 -0.265625q-0.765625 0 -1.46875 0.40625q-0.6875 0.40625 -1.09375 1.109375q-0.390625 0.6875 -0.71875 2.25l-0.734375 3.5625l-1.421875 0zm12.2109375 -1.15625l-0.234375 1.171875q-0.515625 0.125 -0.984375 0.125q-0.84375 0 -1.34375 -0.421875q-0.375 -0.3125 -0.375 -0.84375q0 -0.28125 0.203125 -1.265625l1.0 -4.8125l-1.109375 0l0.21875 -1.09375l1.125 0l0.421875 -2.046875l1.625 -0.96875l-0.640625 3.015625l1.390625 0l-0.234375 1.09375l-1.375 0l-0.96875 4.578125q-0.171875 0.875 -0.171875 1.046875q0 0.25 0.140625 0.390625q0.140625 0.125 0.46875 0.125q0.46875 0 0.84375 -0.09375zm1.3359375 1.15625l1.5 -7.203125l-1.265625 0l0.234375 -1.09375l1.265625 0l0.234375 -1.1875q0.1875 -0.875 0.390625 -1.265625q0.203125 -0.390625 0.640625 -0.640625q0.453125 -0.265625 1.234375 -0.265625q0.53125 0 1.5625 0.234375l-0.265625 1.234375q-0.71875 -0.1875 -1.203125 -0.1875q-0.40625 0 -0.625 0.203125q-0.21875 0.203125 -0.375 0.984375l-0.1875 0.890625l1.578125 0l-0.21875 1.09375l-1.578125 0l-1.515625 7.203125l-1.40625 0zm9.9140625 -1.5q-1.5 1.6875 -3.0625 1.6875q-0.953125 0 -1.546875 -0.546875q-0.59375 -0.5625 -0.59375 -1.359375q0 -0.515625 0.265625 -1.796875l1.0 -4.78125l1.421875 0l-1.109375 5.296875q-0.140625 0.671875 -0.140625 1.03125q0 0.46875 0.28125 0.734375q0.28125 0.265625 0.84375 0.265625q0.59375 0 1.15625 -0.28125q0.5625 -0.296875 0.96875 -0.78125q0.421875 -0.5 0.671875 -1.171875q0.171875 -0.4375 0.40625 -1.515625l0.75 -3.578125l1.40625 0l-1.734375 8.296875l-1.296875 0l0.3125 -1.5zm3.1171875 1.5l2.390625 -11.453125l1.421875 0l-2.390625 11.453125l-1.421875 0z" fill-rule="nonzero"/><path fill="#000000" fill-opacity="0.0" d="m268.3371 205.0315l87.055145 0l0 38.771652l-87.055145 0z" fill-rule="evenodd"/><path fill="#ffffff" d="m281.16934 214.81732l61.390625 0l0 19.199997l-61.390625 0l0 -19.199997z" fill-rule="nonzero"/><path fill="#000000" fill-opacity="0.0" d="m281.16934 215.69295l61.390625 0l0 18.398438l-61.390625 0l0 -18.398438z" fill-rule="nonzero"/><path fill="#111111" d="m287.29434 228.9742q-1.203125 1.390625 -2.53125 1.390625q-1.171875 0 -1.96875 -0.875q-0.78125 -0.875 -0.78125 -2.53125q0 -1.515625 0.625 -2.765625q0.625 -1.25 1.546875 -1.875q0.9375 -0.625 1.875 -0.625q1.546875 0 2.34375 1.484375l0.9375 -4.453125l1.40625 0l-2.390625 11.453125l-1.3125 0l0.25 -1.203125zm-3.875 -2.28125q0 0.875 0.171875 1.375q0.171875 0.5 0.578125 0.828125q0.421875 0.328125 1.0 0.328125q0.96875 0 1.75 -1.0q1.046875 -1.328125 1.046875 -3.28125q0 -0.984375 -0.515625 -1.53125q-0.515625 -0.5625 -1.296875 -0.5625q-0.515625 0 -0.9375 0.234375q-0.40625 0.21875 -0.828125 0.765625q-0.40625 0.546875 -0.6875 1.390625q-0.28125 0.828125 -0.28125 1.453125zm13.2734375 0.65625l1.375 0.140625q-0.296875 1.03125 -1.359375 1.953125q-1.0625 0.921875 -2.546875 0.921875q-0.921875 0 -1.6875 -0.421875q-0.765625 -0.4375 -1.171875 -1.25q-0.40625 -0.8125 -0.40625 -1.84375q0 -1.359375 0.625 -2.640625q0.640625 -1.28125 1.640625 -1.890625q1.0 -0.625 2.15625 -0.625q1.484375 0 2.375 0.921875q0.890625 0.921875 0.890625 2.515625q0 0.609375 -0.109375 1.25l-6.109375 0q-0.03125 0.234375 -0.03125 0.4375q0 1.15625 0.53125 1.78125q0.53125 0.609375 1.3125 0.609375q0.71875 0 1.421875 -0.46875q0.703125 -0.484375 1.09375 -1.390625zm-4.109375 -2.046875l4.65625 0q0.015625 -0.21875 0.015625 -0.3125q0 -1.0625 -0.53125 -1.625q-0.53125 -0.578125 -1.375 -0.578125q-0.90625 0 -1.65625 0.625q-0.734375 0.625 -1.109375 1.890625zm6.8046875 4.875l2.390625 -11.453125l1.421875 0l-2.390625 11.453125l-1.421875 0zm9.7578125 -2.828125l1.375 0.140625q-0.296875 1.03125 -1.359375 1.953125q-1.0625 0.921875 -2.546875 0.921875q-0.921875 0 -1.6875 -0.421875q-0.765625 -0.4375 -1.171875 -1.25q-0.40625 -0.8125 -0.40625 -1.84375q0 -1.359375 0.625 -2.640625q0.640625 -1.28125 1.640625 -1.890625q1.0 -0.625 2.15625 -0.625q1.484375 0 2.375 0.921875q0.890625 0.921875 0.890625 2.515625q0 0.609375 -0.109375 1.25l-6.109375 0q-0.03125 0.234375 -0.03125 0.4375q0 1.15625 0.53125 1.78125q0.53125 0.609375 1.3125 0.609375q0.71875 0 1.421875 -0.46875q0.703125 -0.484375 1.09375 -1.390625zm-4.109375 -2.046875l4.65625 0q0.015625 -0.21875 0.015625 -0.3125q0 -1.0625 -0.53125 -1.625q-0.53125 -0.578125 -1.375 -0.578125q-0.90625 0 -1.65625 0.625q-0.734375 0.625 -1.109375 1.890625zm6.8359375 5.625l1.4375 0.140625q-0.015625 0.484375 0.109375 0.71875q0.140625 0.25 0.421875 0.375q0.390625 0.171875 1.0 0.171875q1.28125 0 1.84375 -0.65625q0.359375 -0.453125 0.671875 -1.953125l0.140625 -0.671875q-1.09375 1.125 -2.34375 1.125q-1.25 0 -2.109375 -0.921875q-0.84375 -0.9375 -0.84375 -2.625q0 -1.40625 0.671875 -2.578125q0.671875 -1.171875 1.59375 -1.765625q0.921875 -0.59375 1.890625 -0.59375q1.640625 0 2.515625 1.546875l0.28125 -1.359375l1.296875 0l-1.671875 8.0q-0.265625 1.328125 -0.71875 2.0625q-0.4375 0.75 -1.234375 1.15625q-0.796875 0.40625 -1.828125 0.40625q-1.0 0 -1.734375 -0.265625q-0.71875 -0.25 -1.078125 -0.75q-0.34375 -0.5 -0.34375 -1.140625q0 -0.1875 0.03125 -0.421875zm1.765625 -4.421875q0 0.84375 0.171875 1.28125q0.234375 0.59375 0.65625 0.921875q0.4375 0.3125 0.96875 0.3125q0.703125 0 1.390625 -0.484375q0.6875 -0.5 1.109375 -1.515625q0.421875 -1.03125 0.421875 -1.953125q0 -1.03125 -0.5625 -1.625q-0.5625 -0.609375 -1.40625 -0.609375q-0.515625 0 -1.0 0.28125q-0.484375 0.265625 -0.90625 0.84375q-0.40625 0.5625 -0.625 1.359375q-0.21875 0.78125 -0.21875 1.1875zm12.8046875 2.640625q-0.734375 0.625 -1.421875 0.921875q-0.671875 0.296875 -1.4375 0.296875q-1.15625 0 -1.859375 -0.671875q-0.703125 -0.6875 -0.703125 -1.734375q0 -0.703125 0.3125 -1.234375q0.328125 -0.53125 0.84375 -0.859375q0.53125 -0.328125 1.28125 -0.46875q0.484375 -0.09375 1.8125 -0.140625q1.328125 -0.0625 1.90625 -0.28125q0.171875 -0.578125 0.171875 -0.96875q0 -0.484375 -0.359375 -0.765625q-0.5 -0.390625 -1.4375 -0.390625q-0.890625 0 -1.46875 0.390625q-0.5625 0.390625 -0.8125 1.125l-1.4375 -0.125q0.4375 -1.234375 1.390625 -1.890625q0.953125 -0.65625 2.390625 -0.65625q1.546875 0 2.4375 0.734375q0.6875 0.546875 0.6875 1.421875q0 0.65625 -0.1875 1.53125l-0.46875 2.0625q-0.21875 0.984375 -0.21875 1.609375q0 0.390625 0.171875 1.125l-1.421875 0q-0.125 -0.40625 -0.171875 -1.03125zm0.53125 -3.171875q-0.296875 0.109375 -0.640625 0.171875q-0.34375 0.0625 -1.140625 0.140625q-1.234375 0.109375 -1.75 0.28125q-0.5 0.15625 -0.765625 0.53125q-0.25 0.359375 -0.25 0.8125q0 0.59375 0.40625 0.984375q0.421875 0.375 1.171875 0.375q0.703125 0 1.34375 -0.375q0.65625 -0.375 1.03125 -1.03125q0.375 -0.671875 0.59375 -1.890625zm6.0859375 3.046875l-0.234375 1.171875q-0.515625 0.125 -0.984375 0.125q-0.84375 0 -1.34375 -0.421875q-0.375 -0.3125 -0.375 -0.84375q0 -0.28125 0.203125 -1.265625l1.0 -4.8125l-1.109375 0l0.21875 -1.09375l1.125 0l0.421875 -2.046875l1.625 -0.96875l-0.640625 3.015625l1.390625 0l-0.234375 1.09375l-1.375 0l-0.96875 4.578125q-0.171875 0.875 -0.171875 1.046875q0 0.25 0.140625 0.390625q0.140625 0.125 0.46875 0.125q0.46875 0 0.84375 -0.09375zm7.2265625 -1.671875l1.375 0.140625q-0.296875 1.03125 -1.359375 1.953125q-1.0625 0.921875 -2.546875 0.921875q-0.921875 0 -1.6875 -0.421875q-0.765625 -0.4375 -1.171875 -1.25q-0.40625 -0.8125 -0.40625 -1.84375q0 -1.359375 0.625 -2.640625q0.640625 -1.28125 1.640625 -1.890625q1.0 -0.625 2.15625 -0.625q1.484375 0 2.375 0.921875q0.890625 0.921875 0.890625 2.515625q0 0.609375 -0.109375 1.25l-6.109375 0q-0.03125 0.234375 -0.03125 0.4375q0 1.15625 0.53125 1.78125q0.53125 0.609375 1.3125 0.609375q0.71875 0 1.421875 -0.46875q0.703125 -0.484375 1.09375 -1.390625zm-4.109375 -2.046875l4.65625 0q0.015625 -0.21875 0.015625 -0.3125q0 -1.0625 -0.53125 -1.625q-0.53125 -0.578125 -1.375 -0.578125q-0.90625 0 -1.65625 0.625q-0.734375 0.625 -1.109375 1.890625z" fill-rule="nonzero"/><path fill="#000000" fill-opacity="0.0" d="m115.079895 81.267715l111.1496 0l0 38.771652l-111.1496 0z" fill-rule="evenodd"/><path fill="#ffffff" d="m131.08047 91.05354l79.14844 0l0 19.200005l-79.14844 0l0 -19.200005z" fill-rule="nonzero"/><path fill="#000000" fill-opacity="0.0" d="m131.08047 91.92917l79.14844 0l0 18.398438l-79.14844 0l0 -18.398438z" fill-rule="nonzero"/><path fill="#111111" d="m137.70547 103.58542l1.375 0.140625q-0.296875 1.03125 -1.359375 1.953125q-1.0625 0.921875 -2.546875 0.921875q-0.921875 0 -1.6875 -0.421875q-0.765625 -0.4375 -1.171875 -1.25q-0.40625 -0.8125 -0.40625 -1.84375q0 -1.359375 0.625 -2.640625q0.640625 -1.28125 1.640625 -1.890625q1.0 -0.625 2.15625 -0.625q1.484375 0 2.375 0.921875q0.890625 0.921875 0.890625 2.515625q0 0.609375 -0.109375 1.25l-6.109375 0q-0.03125 0.234375 -0.03125 0.4375q0 1.15625 0.53125 1.78125q0.53125 0.609375 1.3125 0.609375q0.71875 0 1.421875 -0.46875q0.703125 -0.484375 1.09375 -1.390625zm-4.109375 -2.046875l4.65625 0q0.015625 -0.21875 0.015625 -0.3125q0 -1.0625 -0.53125 -1.625q-0.53125 -0.578125 -1.375 -0.578125q-0.90625 0 -1.65625 0.625q-0.734375 0.625 -1.109375 1.890625zm6.3515625 4.875l3.625 -4.21875l-2.078125 -4.078125l1.5625 0l0.703125 1.46875q0.390625 0.828125 0.703125 1.59375l2.390625 -3.0625l1.734375 0l-3.484375 4.1875l2.09375 4.109375l-1.5625 0l-0.828125 -1.6875q-0.265625 -0.546875 -0.609375 -1.34375l-2.46875 3.03125l-1.78125 0zm7.859375 3.1875l2.40625 -11.484375l1.3125 0l-0.25 1.15625q0.734375 -0.765625 1.296875 -1.046875q0.578125 -0.296875 1.21875 -0.296875q1.1875 0 1.96875 0.859375q0.78125 0.859375 0.78125 2.46875q0 1.296875 -0.4375 2.375q-0.421875 1.0625 -1.046875 1.71875q-0.625 0.640625 -1.265625 0.953125q-0.640625 0.296875 -1.3125 0.296875q-1.484375 0 -2.3125 -1.515625l-0.9375 4.515625l-1.421875 0zm2.8125 -6.578125q0 0.921875 0.125 1.28125q0.203125 0.515625 0.640625 0.828125q0.453125 0.3125 1.03125 0.3125q1.21875 0 1.96875 -1.375q0.75 -1.375 0.75 -2.796875q0 -1.0625 -0.5 -1.625q-0.5 -0.578125 -1.25 -0.578125q-0.546875 0 -1.015625 0.28125q-0.453125 0.28125 -0.84375 0.859375q-0.390625 0.5625 -0.65625 1.390625q-0.25 0.8125 -0.25 1.421875zm12.8828125 0.5625l1.375 0.140625q-0.296875 1.03125 -1.359375 1.953125q-1.0625 0.921875 -2.546875 0.921875q-0.921875 0 -1.6875 -0.421875q-0.765625 -0.4375 -1.171875 -1.25q-0.40625 -0.8125 -0.40625 -1.84375q0 -1.359375 0.625 -2.640625q0.640625 -1.28125 1.640625 -1.890625q1.0 -0.625 2.15625 -0.625q1.484375 0 2.375 0.921875q0.890625 0.921875 0.890625 2.515625q0 0.609375 -0.109375 1.25l-6.109375 0q-0.03125 0.234375 -0.03125 0.4375q0 1.15625 0.53125 1.78125q0.53125 0.609375 1.3125 0.609375q0.71875 0 1.421875 -0.46875q0.703125 -0.484375 1.09375 -1.390625zm-4.109375 -2.046875l4.65625 0q0.015625 -0.21875 0.015625 -0.3125q0 -1.0625 -0.53125 -1.625q-0.53125 -0.578125 -1.375 -0.578125q-0.90625 0 -1.65625 0.625q-0.734375 0.625 -1.109375 1.890625zm6.9140625 4.875l1.734375 -8.296875l1.25 0l-0.34375 1.6875q0.640625 -0.953125 1.25 -1.40625q0.609375 -0.46875 1.25 -0.46875q0.421875 0 1.046875 0.296875l-0.578125 1.3125q-0.375 -0.265625 -0.8125 -0.265625q-0.734375 0 -1.515625 0.828125q-0.78125 0.828125 -1.234375 2.984375l-0.703125 3.328125l-1.34375 0zm7.34375 -9.859375l0.328125 -1.59375l1.40625 0l-0.328125 1.59375l-1.40625 0zm-2.0625 9.859375l1.734375 -8.296875l1.40625 0l-1.734375 8.296875l-1.40625 0zm3.6015625 0l1.734375 -8.296875l1.40625 0l-0.28125 1.359375q0.78125 -0.875 1.40625 -1.203125q0.625 -0.34375 1.34375 -0.34375q0.78125 0 1.296875 0.40625q0.515625 0.40625 0.6875 1.140625q0.625 -0.78125 1.328125 -1.15625q0.703125 -0.390625 1.46875 -0.390625q1.046875 0 1.5625 0.5q0.515625 0.484375 0.515625 1.375q0 0.375 -0.171875 1.265625l-1.125 5.34375l-1.40625 0l1.140625 -5.484375q0.140625 -0.671875 0.140625 -0.96875q0 -0.40625 -0.265625 -0.640625q-0.25 -0.234375 -0.71875 -0.234375q-0.625 0 -1.28125 0.390625q-0.65625 0.375 -1.03125 1.0q-0.359375 0.625 -0.625 1.90625l-0.84375 4.03125l-1.421875 0l1.171875 -5.609375q0.125 -0.5625 0.125 -0.8125q0 -0.40625 -0.25 -0.65625q-0.25 -0.25 -0.65625 -0.25q-0.609375 0 -1.265625 0.390625q-0.65625 0.375 -1.078125 1.0625q-0.40625 0.6875 -0.671875 1.953125l-0.828125 3.921875l-1.40625 0zm19.421875 -2.828125l1.375 0.140625q-0.296875 1.03125 -1.359375 1.953125q-1.0625 0.921875 -2.546875 0.921875q-0.921875 0 -1.6875 -0.421875q-0.765625 -0.4375 -1.171875 -1.25q-0.40625 -0.8125 -0.40625 -1.84375q0 -1.359375 0.625 -2.640625q0.640625 -1.28125 1.640625 -1.890625q1.0 -0.625 2.15625 -0.625q1.484375 0 2.375 0.921875q0.890625 0.921875 0.890625 2.515625q0 0.609375 -0.109375 1.25l-6.109375 0q-0.03125 0.234375 -0.03125 0.4375q0 1.15625 0.53125 1.78125q0.53125 0.609375 1.3125 0.609375q0.71875 0 1.421875 -0.46875q0.703125 -0.484375 1.09375 -1.390625zm-4.109375 -2.046875l4.65625 0q0.015625 -0.21875 0.015625 -0.3125q0 -1.0625 -0.53125 -1.625q-0.53125 -0.578125 -1.375 -0.578125q-0.90625 0 -1.65625 0.625q-0.734375 0.625 -1.109375 1.890625zm6.9140625 4.875l1.734375 -8.296875l1.28125 0l-0.296875 1.4375q0.828125 -0.84375 1.546875 -1.234375q0.734375 -0.390625 1.5 -0.390625q1.0 0 1.578125 0.546875q0.578125 0.546875 0.578125 1.453125q0 0.46875 -0.203125 1.453125l-1.0625 5.03125l-1.40625 0l1.09375 -5.265625q0.171875 -0.765625 0.171875 -1.125q0 -0.421875 -0.296875 -0.671875q-0.28125 -0.265625 -0.8125 -0.265625q-1.09375 0 -1.9375 0.78125q-0.84375 0.78125 -1.25 2.6875l-0.796875 3.859375l-1.421875 0zm12.2109375 -1.15625l-0.234375 1.171875q-0.515625 0.125 -0.984375 0.125q-0.84375 0 -1.34375 -0.421875q-0.375 -0.3125 -0.375 -0.84375q0 -0.28125 0.203125 -1.265625l1.0 -4.8125l-1.109375 0l0.21875 -1.09375l1.125 0l0.421875 -2.046875l1.625 -0.96875l-0.640625 3.015625l1.390625 0l-0.234375 1.09375l-1.375 0l-0.96875 4.578125q-0.171875 0.875 -0.171875 1.046875q0 0.25 0.140625 0.390625q0.140625 0.125 0.46875 0.125q0.46875 0 0.84375 -0.09375z" fill-rule="nonzero"/><path fill="#000000" fill-opacity="0.0" d="m127.12714 205.0315l87.055115 0l0 38.771652l-87.055115 0z" fill-rule="evenodd"/><path fill="#ffffff" d="m144.86563 214.81732l51.578125 0l0 19.199997l-51.578125 0l0 -19.199997z" fill-rule="nonzero"/><path fill="#000000" fill-opacity="0.0" d="m144.86563 215.69295l51.578125 0l0 18.398438l-51.578125 0l0 -18.398438z" fill-rule="nonzero"/><path fill="#111111" d="m150.99063 229.14607q-0.734375 0.625 -1.421875 0.921875q-0.671875 0.296875 -1.4375 0.296875q-1.15625 0 -1.859375 -0.671875q-0.703125 -0.6875 -0.703125 -1.734375q0 -0.703125 0.3125 -1.234375q0.328125 -0.53125 0.84375 -0.859375q0.53125 -0.328125 1.28125 -0.46875q0.484375 -0.09375 1.8125 -0.140625q1.328125 -0.0625 1.90625 -0.28125q0.171875 -0.578125 0.171875 -0.96875q0 -0.484375 -0.359375 -0.765625q-0.5 -0.390625 -1.4375 -0.390625q-0.890625 0 -1.46875 0.390625q-0.5625 0.390625 -0.8125 1.125l-1.4375 -0.125q0.4375 -1.234375 1.390625 -1.890625q0.953125 -0.65625 2.390625 -0.65625q1.546875 0 2.4375 0.734375q0.6875 0.546875 0.6875 1.421875q0 0.65625 -0.1875 1.53125l-0.46875 2.0625q-0.21875 0.984375 -0.21875 1.609375q0 0.390625 0.171875 1.125l-1.421875 0q-0.125 -0.40625 -0.171875 -1.03125zm0.53125 -3.171875q-0.296875 0.109375 -0.640625 0.171875q-0.34375 0.0625 -1.140625 0.140625q-1.234375 0.109375 -1.75 0.28125q-0.5 0.15625 -0.765625 0.53125q-0.25 0.359375 -0.25 0.8125q0 0.59375 0.40625 0.984375q0.421875 0.375 1.171875 0.375q0.703125 0 1.34375 -0.375q0.65625 -0.375 1.03125 -1.03125q0.375 -0.671875 0.59375 -1.890625zm8.5078125 1.171875l1.40625 0.15625q-0.53125 1.546875 -1.515625 2.3125q-0.96875 0.75 -2.21875 0.75q-1.359375 0 -2.203125 -0.875q-0.828125 -0.875 -0.828125 -2.453125q0 -1.359375 0.53125 -2.671875q0.546875 -1.3125 1.546875 -1.984375q1.0 -0.6875 2.296875 -0.6875q1.328125 0 2.109375 0.75q0.78125 0.75 0.78125 2.0l-1.390625 0.09375q0 -0.796875 -0.453125 -1.234375q-0.453125 -0.453125 -1.1875 -0.453125q-0.84375 0 -1.46875 0.546875q-0.625 0.53125 -0.984375 1.640625q-0.359375 1.09375 -0.359375 2.109375q0 1.0625 0.46875 1.59375q0.46875 0.53125 1.15625 0.53125q0.6875 0 1.3125 -0.515625q0.640625 -0.53125 1.0 -1.609375zm5.578125 1.875l-0.234375 1.171875q-0.515625 0.125 -0.984375 0.125q-0.84375 0 -1.34375 -0.421875q-0.375 -0.3125 -0.375 -0.84375q0 -0.28125 0.203125 -1.265625l1.0 -4.8125l-1.109375 0l0.21875 -1.09375l1.125 0l0.421875 -2.046875l1.625 -0.96875l-0.640625 3.015625l1.390625 0l-0.234375 1.09375l-1.375 0l-0.96875 4.578125q-0.171875 0.875 -0.171875 1.046875q0 0.25 0.140625 0.390625q0.140625 0.125 0.46875 0.125q0.46875 0 0.84375 -0.09375zm5.78125 1.15625l1.5 -7.203125l-1.265625 0l0.234375 -1.09375l1.265625 0l0.234375 -1.1875q0.1875 -0.875 0.390625 -1.265625q0.203125 -0.390625 0.640625 -0.640625q0.453125 -0.265625 1.234375 -0.265625q0.53125 0 1.5625 0.234375l-0.265625 1.234375q-0.71875 -0.1875 -1.203125 -0.1875q-0.40625 0 -0.625 0.203125q-0.21875 0.203125 -0.375 0.984375l-0.1875 0.890625l1.578125 0l-0.21875 1.09375l-1.578125 0l-1.515625 7.203125l-1.40625 0zm9.8359375 -1.03125q-0.734375 0.625 -1.421875 0.921875q-0.671875 0.296875 -1.4375 0.296875q-1.15625 0 -1.859375 -0.671875q-0.703125 -0.6875 -0.703125 -1.734375q0 -0.703125 0.3125 -1.234375q0.328125 -0.53125 0.84375 -0.859375q0.53125 -0.328125 1.28125 -0.46875q0.484375 -0.09375 1.8125 -0.140625q1.328125 -0.0625 1.90625 -0.28125q0.171875 -0.578125 0.171875 -0.96875q0 -0.484375 -0.359375 -0.765625q-0.5 -0.390625 -1.4375 -0.390625q-0.890625 0 -1.46875 0.390625q-0.5625 0.390625 -0.8125 1.125l-1.4375 -0.125q0.4375 -1.234375 1.390625 -1.890625q0.953125 -0.65625 2.390625 -0.65625q1.546875 0 2.4375 0.734375q0.6875 0.546875 0.6875 1.421875q0 0.65625 -0.1875 1.53125l-0.46875 2.0625q-0.21875 0.984375 -0.21875 1.609375q0 0.390625 0.171875 1.125l-1.421875 0q-0.125 -0.40625 -0.171875 -1.03125zm0.53125 -3.171875q-0.296875 0.109375 -0.640625 0.171875q-0.34375 0.0625 -1.140625 0.140625q-1.234375 0.109375 -1.75 0.28125q-0.5 0.15625 -0.765625 0.53125q-0.25 0.359375 -0.25 0.8125q0 0.59375 0.40625 0.984375q0.421875 0.375 1.171875 0.375q0.703125 0 1.34375 -0.375q0.65625 -0.375 1.03125 -1.03125q0.375 -0.671875 0.59375 -1.890625zm2.9140625 1.359375l1.40625 -0.078125q0 0.609375 0.1875 1.046875q0.1875 0.421875 0.6875 0.703125q0.515625 0.265625 1.1875 0.265625q0.9375 0 1.40625 -0.375q0.46875 -0.375 0.46875 -0.890625q0 -0.359375 -0.28125 -0.6875q-0.296875 -0.328125 -1.421875 -0.8125q-1.109375 -0.484375 -1.421875 -0.671875q-0.53125 -0.328125 -0.796875 -0.75q-0.265625 -0.4375 -0.265625 -1.0q0 -0.984375 0.78125 -1.6875q0.78125 -0.703125 2.1875 -0.703125q1.5625 0 2.375 0.71875q0.828125 0.71875 0.859375 1.90625l-1.390625 0.09375q-0.03125 -0.75 -0.53125 -1.1875q-0.5 -0.4375 -1.40625 -0.4375q-0.734375 0 -1.140625 0.34375q-0.40625 0.328125 -0.40625 0.71875q0 0.390625 0.34375 0.6875q0.234375 0.203125 1.21875 0.625q1.625 0.703125 2.046875 1.109375q0.671875 0.640625 0.671875 1.578125q0 0.609375 -0.390625 1.203125q-0.375 0.59375 -1.15625 0.953125q-0.765625 0.359375 -1.828125 0.359375q-1.4375 0 -2.4375 -0.71875q-1.015625 -0.703125 -0.953125 -2.3125zm11.171875 1.6875l-0.234375 1.171875q-0.515625 0.125 -0.984375 0.125q-0.84375 0 -1.34375 -0.421875q-0.375 -0.3125 -0.375 -0.84375q0 -0.28125 0.203125 -1.265625l1.0 -4.8125l-1.109375 0l0.21875 -1.09375l1.125 0l0.421875 -2.046875l1.625 -0.96875l-0.640625 3.015625l1.390625 0l-0.234375 1.09375l-1.375 0l-0.96875 4.578125q-0.171875 0.875 -0.171875 1.046875q0 0.25 0.140625 0.390625q0.140625 0.125 0.46875 0.125q0.46875 0 0.84375 -0.09375z" fill-rule="nonzero"/></g></svg>
